<?xml version="1.0" standalone="no"?> <!DOCTYPE svg PUBLIC "-//W3C//DTD SVG 1.0//EN" "http://www.w3.org/TR/2001/REC-SVG-20010904/DTD/svg10.dtd" > <svg xmlns="http://www.w3.org/2000/svg" width="100%" height="100%">
<defs >
<font id="DroidSerif-Bold" horiz-adv-x="1297" ><font-face
    font-family="Droid Serif"
    units-per-em="2048"
    panose-1="2 2 8 0 6 5 0 2 2 0"
    ascent="2005"
    descent="-571"
    alphabetic="0" />
<missing-glyph horiz-adv-x="1228" d="M193 1462H1034V0H193V1462ZM297 104H930V1358H297V104Z" />
<glyph unicode=" " glyph-name="space" horiz-adv-x="530" />
<glyph unicode="!" glyph-name="exclam" horiz-adv-x="780" d="M213 1462H569L449 467H334L213 1462ZM225 100T225 147T237 225T274 276Q292 292 328 303Q355 311 393 311Q430 311 457 303Q494 293 512 276Q535 258 547 225Q561 188 561 147T547 70Q535 41 512
20Q489 2 457 -8Q430 -16 393 -16Q354 -16 328 -8Q297 0 274 20Q247 43 238 70Q225 100 225 147Z" />
<glyph unicode="&quot;" glyph-name="quotedbl" horiz-adv-x="1038" d="M584 1462H903L831 899H696L584 1462ZM137 1462H457L365 899H229L137 1462Z" />
<glyph unicode="#" glyph-name="numbersign" horiz-adv-x="1144" d="M1022 551V410H766L690 0H545L621 410H408L330 0H184L262 410H57V551H289L360 922H123V1065H387L459 1462H606L532 1065H745L821 1462H967L891 1065H1087V922H864L795 551H1022ZM434 551H649L721
922H506L434 551Z" />
<glyph unicode="$" glyph-name="dollar" horiz-adv-x="1144" d="M639 1556V1401Q737 1397 797 1380Q873 1360 905 1337Q948 1310 969 1274Q989 1239 989 1196Q989 1133 934 1090T764 1047Q764 1078 758 1112Q752 1143 735 1180Q721 1213 696 1239Q673 1264 639
1280V881Q643 879 662 872Q674 868 690 860Q788 823 852 784Q915 747 961 698Q1004 652 1022 600Q1042 543 1042 481Q1042 405 1014 336Q987 270 936 219Q889 172 809 135Q746 106 639 92V-162H524V88Q405 92 326 119Q242 148 195 186Q146 227 123 276Q100 327
100 375Q100 418 116 450T160 502Q191 522 221 530T293 539Q293 467 309 401Q323 346 356 299Q387 256 430 231Q475 204 524 197V639L489 653Q389 694 326 733Q260 774 219 821Q180 866 162 922Q146 971 145 1042Q145 1118 172 1178Q197 1233 252 1284Q299 1329
371 1360Q439 1389 524 1399V1556H639ZM799 389Q799 455 760 500Q723 543 639 588V201Q717 219 758 268T799 389ZM385 1128Q385 1099 391 1075Q395 1057 414 1028Q430 1001 457 981Q494 952 524 936V1290Q463 1278 424 1239T385 1128Z" />
<glyph unicode="%" glyph-name="percent" horiz-adv-x="1853" d="M807 1030Q807 930 784 844Q764 764 715 698Q672 641 600 606Q532 573 438 573Q338 573 270 606Q194 643 156 698Q111 761 90 844Q70 924 70 1030T90 1217Q113 1303 158 1360Q207 1421 272 1450Q348
1483 440 1483Q528 1483 600 1450T717 1360T784 1217T807 1030ZM301 1030Q301 967 309 881Q315 822 332 770Q346 725 375 700Q402 675 438 676Q477 676 502 700Q533 729 545 770Q561 821 567 881Q573 947 573 1030Q573 1110 567 1176Q561 1235 545 1286Q533 1327
504 1354Q479 1379 440 1379T375 1354Q346 1327 332 1286Q316 1235 309 1176Q301 1089 301 1030ZM651 0H492L1198 1462H1356L651 0ZM1786 436Q1786 336 1763 250Q1743 170 1694 104Q1651 47 1579 12Q1511 -21 1417 -20Q1317 -20 1249 12Q1173 49 1135 104Q1090
167 1069 250Q1049 330 1049 436T1069 623Q1092 709 1137 766Q1186 827 1251 856Q1327 889 1419 889Q1507 889 1579 856T1696 766T1763 623T1786 436ZM1280 436Q1280 373 1288 287Q1294 228 1311 176Q1325 131 1354 106Q1381 81 1417 82Q1456 82 1481 106Q1512
135 1524 176Q1540 227 1546 287Q1552 353 1552 436Q1552 516 1546 582Q1540 641 1524 692Q1512 733 1483 760Q1458 785 1419 785T1354 760Q1325 733 1311 692Q1295 641 1288 582Q1280 495 1280 436Z" />
<glyph unicode="&amp;" glyph-name="ampersand" horiz-adv-x="1638" d="M1208 0L1067 150Q1032 115 983 82Q928 45 881 27Q824 4 758 -8Q693 -20 616 -20Q491 -20 393 10Q289 43 229 94Q163 151 129 231Q96 309 96 416Q96 502 125 569Q154 635 201 680Q246 723
313 758Q383 795 446 819Q415 858 377 911Q346 954 328 997Q308 1046 299 1085Q291 1126 291 1182Q291 1245 317 1305Q342 1360 395 1401T522 1462T702 1483Q796 1483 874 1460Q944 1440 997 1397Q1042 1360 1069 1305Q1094 1254 1094 1192Q1094 1129 1075 1079Q1057
1028 1018 987Q978 944 920 907Q859 868 782 834Q788 826 797 819L1087 514Q1101 592 1104 655Q1108 749 1108 782V872H1556V764H1524Q1504 764 1458 760Q1424 757 1397 741Q1366 725 1348 700Q1325 671 1313 625Q1301 576 1276 504Q1256 441 1223 373L1427 160Q1456
127 1497 119Q1544 109 1595 109H1614V0H1208ZM397 406Q397 345 416 293Q432 248 471 201Q504 164 557 139Q608 116 668 117Q783 117 852 152Q932 193 977 248L539 715Q500 688 469 649Q441 615 426 575Q408 530 403 496Q397 453 397 406ZM846 1190Q846 1227 840
1257T817 1311Q799 1336 772 1348T702 1360Q667 1360 643 1348Q616 1336 600 1311Q588 1295 578 1257Q570 1230 569 1188Q569 1147 578 1120Q592 1073 600 1057Q620 1018 639 993Q647 981 667 959T696 926Q743 953 768 977Q791 1000 813 1036Q831 1067 838 1106Q846
1155 846 1190Z" />
<glyph unicode="&apos;" glyph-name="quotesingle" horiz-adv-x="593" d="M137 1462H457L365 899H229L137 1462Z" />
<glyph unicode="(" glyph-name="parenleft" horiz-adv-x="817" d="M446 651Q446 528 459 412Q471 299 506 190Q543 79 598 -2Q657 -88 754 -154V-285Q590 -219 463 -123Q338 -27 264 86Q188 201 152 344Q117 477 117 651Q117 823 152 956Q189 1097 264 1212Q338
1325 463 1421Q584 1513 754 1581V1452Q662 1391 598 1300Q543 1222 506 1110Q471 1001 459 889Q446 772 446 651Z" />
<glyph unicode=")" glyph-name="parenright" horiz-adv-x="817" d="M373 651Q373 772 360 889Q348 1010 315 1110Q280 1216 221 1300Q158 1390 66 1452V1581Q240 1513 358 1421Q478 1329 555 1212Q635 1089 668 956Q703 811 702 651Q702 489 668 344Q635 207 555
86Q478 -31 358 -123Q233 -219 66 -285V-154Q162 -88 221 -2Q280 86 315 190Q348 290 360 412Q373 528 373 651Z" />
<glyph unicode="*" glyph-name="asterisk" horiz-adv-x="1026" d="M72 1237L164 1444L469 1223L401 1556H631L557 1227L864 1440L956 1235L637 1155L956 1073L864 870L557 1083L629 752H401L467 1085L164 868L72 1071L391 1155L72 1237Z" />
<glyph unicode="+" glyph-name="plus" horiz-adv-x="1144" d="M645 659V293H498V659H133V805H498V1171H645V805H1012V659H645Z" />
<glyph unicode="," glyph-name="comma" horiz-adv-x="600" d="M459 86Q459 18 438 -41Q415 -102 375 -154Q336 -201 262 -246Q192 -289 92 -315V-209Q115 -201 170 -176Q211 -158 227 -143Q245 -127 260 -102Q272 -82 272 -49Q272 -31 260 -18Q244 -2 233 6Q227
10 214 17T197 29Q172 45 162 57Q144 80 134 102T123 170Q123 238 166 274T270 311Q356 311 407 252T459 86Z" />
<glyph unicode="-" glyph-name="hyphen" horiz-adv-x="634" d="M51 451V666H584V451H51Z" />
<glyph unicode="." glyph-name="period" horiz-adv-x="622" d="M143 100T143 147T155 225T193 276Q211 292 246 303Q273 311 311 311Q348 311 375 303Q410 293 428 276Q453 256 465 225Q479 188 479 147T465 70Q455 43 428 20Q405 0 375 -8Q348 -16 311 -16Q272
-16 246 -8Q215 0 193 20Q166 43 156 70Q143 100 143 147Z" />
<glyph unicode="/" glyph-name="slash" horiz-adv-x="589" d="M147 -250L0 -248L446 1556H590L147 -250Z" />
<glyph unicode="0" glyph-name="zero" horiz-adv-x="1144" d="M1075 733Q1075 569 1047 426Q1018 281 958 186Q899 90 803 35Q709 -20 573 -20Q434 -20 338 35Q238 92 182 186Q121 290 96 426Q69 576 70 735Q70 893 96 1042Q119 1175 182 1280Q239 1374 338 1430Q434
1483 575 1483Q706 1483 803 1430Q897 1379 958 1280Q1017 1184 1047 1042Q1075 899 1075 733ZM387 733Q387 571 395 471Q405 344 424 276Q447 194 479 156Q516 113 573 113Q628 113 665 156T723 276Q743 352 750 471Q758 623 758 733T750 995Q744 1112 723 1188Q700
1270 668 1309Q633 1350 575 1350Q516 1350 481 1309Q444 1266 424 1188Q406 1118 395 995Q387 895 387 733Z" />
<glyph unicode="1" glyph-name="one" horiz-adv-x="1144" d="M199 0V109H367Q394 109 412 115Q432 121 444 137Q456 151 463 178Q469 203 469 242V1268L395 1182Q364 1145 330 1114Q301 1089 266 1071Q233 1055 205 1055Q182 1055 158 1065Q136 1074 121 1095T96
1145Q86 1176 86 1206Q92 1208 115 1214T152 1225Q177 1233 223 1255Q264 1273 305 1300Q377 1345 401 1364L545 1470H774V242Q774 217 778 184Q780 164 795 143Q807 125 827 117Q845 109 879 109H1044V0H199Z" />
<glyph unicode="2" glyph-name="two" horiz-adv-x="1144" d="M999 1143Q999 1102 989 1051Q981 1010 954 956Q934 913 889 856Q840 790 791 737Q725 665 653 596L471 420L266 225H743Q806 225 850 262Q895 301 913 367L930 430H1051L1040 0H72V211L375 520Q469
616 530 694T627 844Q661 915 676 985Q690 1051 690 1133Q690 1250 647 1305Q606 1358 530 1358Q428 1358 385 1268Q342 1179 342 1004Q285 1004 236 1016Q181 1030 152 1051Q115 1078 98 1112Q80 1151 80 1206T108 1313T193 1401Q250 1440 334 1460Q424 1483 530
1483Q655 1483 733 1460Q821 1435 879 1393Q938 1350 969 1284Q999 1221 999 1143Z" />
<glyph unicode="3" glyph-name="three" horiz-adv-x="1144" d="M498 -20Q379 -20 299 0Q207 25 162 53Q107 88 82 133Q57 176 57 225Q57 266 72 295Q86 326 109 344Q134 366 164 375Q199 385 231 385Q231 319 249 270T301 188Q335 154 381 139Q430 123 483 123Q534
123 578 137Q631 155 659 184Q693 218 715 276Q735 331 735 424Q735 485 715 532Q695 577 653 616Q618 649 555 672Q500 692 418 692H291V819H426Q494 819 541 840Q594 863 623 901Q656 942 670 997Q686 1056 686 1120Q686 1229 643 1294Q600 1357 516 1358Q459
1358 426 1331Q389 1300 373 1260Q353 1207 346 1157Q340 1098 340 1040Q215 1040 143 1085Q73 1130 74 1223Q74 1278 102 1325Q129 1370 188 1407Q241 1440 330 1462Q412 1482 526 1483Q632 1483 723 1460Q815 1437 872 1397T967 1290Q1000 1231 999 1149Q999
1081 975 1022Q948 961 909 918Q862 869 811 838Q743 799 686 780Q762 766 813 745Q878 720 930 678Q989 629 1018 573Q1051 510 1051 422Q1051 301 1004 213Q959 129 881 76Q805 25 705 2Q602 -20 498 -20Z" />
<glyph unicode="4" glyph-name="four" horiz-adv-x="1144" d="M893 381V256Q893 211 907 178Q919 151 942 135Q960 121 995 115Q1026 109 1061 109H1087V0H369V109H426Q461 109 492 115Q527 121 545 135Q568 151 580 178Q594 211 594 256V381H27V506L608 1462H893V516H1106V381H893ZM594
874Q594 927 598 1067Q602 1204 608 1268L575 1202L528 1116L481 1032Q461 995 446 973L170 516H594V874Z" />
<glyph unicode="5" glyph-name="five" horiz-adv-x="1144" d="M471 123Q518 123 567 139Q612 153 647 193Q682 230 702 293Q722 354 723 451Q723 607 649 680T444 754Q393 754 373 752Q336 748 315 743Q297 739 264 731Q254 729 238 724T217 717L123 754L188 1462H963L973
1090H856L840 1159Q838 1163 835 1174T829 1192Q823 1206 813 1217Q807 1223 786 1231Q770 1237 745 1237H319Q317 1229 317 1219Q317 1213 313 1176Q311 1166 310 1145T309 1114Q307 1098 305 1082T303 1047L287 858Q301 864 328 870Q344 874 385 879Q395 879
415 882T449 887Q472 889 512 889Q635 889 727 862Q829 833 893 780Q965 721 999 643Q1036 561 1036 451Q1036 316 987 227Q936 135 862 82Q790 31 690 4Q594 -21 502 -20Q383 -20 307 0Q223 23 176 55Q127 88 104 135Q81 180 82 227Q82 299 127 334T246 369Q246
324 258 281Q272 230 295 203Q326 164 365 145Q410 123 471 123Z" />
<glyph unicode="6" glyph-name="six" horiz-adv-x="1144" d="M657 1362Q598 1362 549 1325Q504 1290 465 1221Q430 1158 408 1051Q388 955 381 821Q401 835 428 848Q446 856 492 872Q525 884 569 891Q612 897 664 897Q752 897 831 868Q907 841 961 784Q1020 721
1044 651Q1073 569 1073 473Q1073 360 1042 272Q1009 178 954 117T805 16Q717 -21 600 -20Q481 -20 393 20Q301 63 234 149T129 367Q92 500 92 676T127 991Q166 1145 236 1247Q312 1356 418 1419Q527 1482 676 1483Q776 1483 844 1464Q910 1446 956 1413Q999 1382
1018 1341Q1038 1296 1038 1257Q1038 1228 1024 1196Q1012 1169 983 1147Q950 1122 907 1110Q860 1098 793 1098Q793 1147 786 1192Q780 1243 766 1276Q750 1315 725 1337Q697 1362 657 1362ZM588 772Q555 772 528 764Q487 752 469 741Q440 725 418 709Q391 689
381 674Q381 529 399 422T449 248Q482 176 518 147Q561 114 606 115Q684 115 731 195Q776 273 776 453Q776 617 725 696Q676 772 588 772Z" />
<glyph unicode="7" glyph-name="seven" horiz-adv-x="1144" d="M338 0L883 1239H344Q287 1239 260 1212Q231 1183 225 1135L213 1032H90L100 1462H1077V1362L512 0H338Z" />
<glyph unicode="8" glyph-name="eight" horiz-adv-x="1144" d="M61 373Q61 443 82 492Q105 545 143 588Q182 629 240 668Q301 709 362 739Q237 811 174 899Q108 989 109 1110Q109 1182 133 1249Q158 1315 213 1368Q270 1421 360 1452Q452 1483 584 1483Q695 1483
774 1457T909 1380Q966 1329 993 1268T1020 1124Q1020 1061 1001 1016Q985 973 944 930Q907 891 858 858Q813 829 743 793Q841 744 899 702Q971 651 1006 608Q1047 557 1065 504Q1083 449 1083 387Q1083 291 1047 215Q1008 135 944 86Q878 37 780 8Q678 -21 559
-20Q434 -20 338 10Q246 39 182 94Q123 145 90 219Q61 285 61 373ZM518 96T569 96T664 115Q705 133 737 168Q766 199 782 250Q798 299 799 352Q799 407 782 442Q764 483 729 518Q698 549 635 588Q586 617 500 657Q477 643 436 606Q405 579 385 543Q362 502 350
463Q338 420 338 365T354 256Q368 209 401 170Q432 133 475 115ZM762 1128Q762 1171 750 1214Q738 1255 713 1290Q690 1323 653 1343Q618 1363 571 1364Q528 1364 496 1346T442 1298Q417 1263 408 1227Q398 1192 397 1135Q397 1080 412 1042Q428 1001 455 971Q488
936 522 913Q571 882 618 862Q649 880 682 909Q705 929 727 967Q743 994 754 1038Q762 1073 762 1128Z" />
<glyph unicode="9" glyph-name="nine" horiz-adv-x="1144" d="M465 -20Q379 -20 307 0Q244 18 205 51Q164 86 147 125Q129 168 129 211Q129 256 154 287Q177 316 229 328Q247 273 264 242Q287 201 315 172Q340 147 385 127Q426 109 475 109Q614 109 688 258Q764
412 772 702Q743 667 719 647Q682 616 651 602Q610 582 571 573Q524 563 473 563Q383 563 312 589T184 672Q135 721 102 805Q71 885 72 987Q72 1091 104 1190Q135 1280 197 1346Q260 1412 344 1448Q426 1483 541 1483Q654 1483 745 1444Q839 1405 909 1319T1016
1106Q1053 977 1053 795Q1053 621 1020 477Q985 325 918 219Q846 108 735 43Q627 -20 465 -20ZM561 711Q635 711 688 747T772 848Q772 959 754 1073Q740 1157 709 1227Q680 1290 641 1317Q600 1346 553 1346Q467 1346 418 1260T369 999Q369 858 418 785T561 711Z"
/>
<glyph unicode=":" glyph-name="colon" horiz-adv-x="622" d="M143 100T143 147T155 225T193 276Q211 292 246 303Q273 311 311 311Q348 311 375 303Q410 293 428 276Q453 256 465 225Q479 188 479 147T465 70Q455 43 428 20Q405 0 375 -8Q348 -16 311 -16Q272
-16 246 -8Q215 0 193 20Q166 43 156 70Q143 100 143 147ZM143 905T143 952T155 1030T193 1081Q211 1097 246 1108Q273 1116 311 1116Q348 1116 375 1108Q410 1098 428 1081Q453 1061 465 1030Q479 995 479 952T465 874Q453 843 428 823Q410 807 375 797Q348 789
311 788Q272 788 246 797Q211 807 193 823Q168 843 156 874Z" />
<glyph unicode=";" glyph-name="semicolon" horiz-adv-x="600" d="M459 86Q459 18 438 -41Q415 -102 375 -154Q336 -201 262 -246Q192 -289 92 -315V-209Q115 -201 170 -176Q211 -158 227 -143Q245 -127 260 -102Q272 -82 272 -49Q272 -31 260 -18Q244 -2 233
6Q227 10 214 17T197 29Q172 45 162 57Q144 80 134 102T123 170Q123 238 166 274T270 311Q356 311 407 252T459 86ZM143 905T143 952T155 1030T193 1081Q211 1097 246 1108Q273 1116 311 1116Q348 1116 375 1108Q410 1098 428 1081Q453 1061 465 1030Q479 995 479
952T465 874Q453 843 428 823Q410 807 375 797Q348 789 311 788Q272 788 246 797Q211 807 193 823Q168 843 156 874Z" />
<glyph unicode="&lt;" glyph-name="less" horiz-adv-x="1144" d="M133 690V774L1012 1253V1092L352 731L1012 375V213L133 690Z" />
<glyph unicode="=" glyph-name="equal" horiz-adv-x="1144" d="M1016 604V461H129V604H1016ZM1016 1001V858H129V1001H1016Z" />
<glyph unicode="&gt;" glyph-name="greater" horiz-adv-x="1144" d="M133 213V375L793 731L133 1092V1253L1012 774V690L133 213Z" />
<glyph unicode="?" glyph-name="question" horiz-adv-x="1124" d="M1014 1106Q1014 1023 989 958Q966 897 911 840Q862 789 784 741Q712 698 606 653L565 467H440L399 719Q481 750 543 801Q594 844 631 903Q664 956 676 1017T688 1139Q688 1194 680 1229T651 1298Q635
1327 600 1343Q567 1359 528 1360Q479 1360 451 1340T401 1282Q383 1247 373 1200Q365 1159 365 1102Q297 1102 250 1110Q195 1120 158 1137Q119 1155 98 1182Q75 1211 76 1245Q76 1292 102 1339Q125 1380 182 1413Q239 1448 317 1464Q401 1482 512 1483Q621 1483
713 1458Q801 1433 870 1384Q942 1333 977 1266Q1014 1195 1014 1106ZM332 100T332 147T344 225T381 276Q399 292 434 303Q461 311 500 311T565 303Q600 293 618 276Q643 256 655 226T668 148T655 70Q645 43 618 20Q595 0 565 -8Q538 -16 500 -16T434 -8Q403 0
381 20Q354 43 344 70Q332 100 332 147Z" />
<glyph unicode="@" glyph-name="at" horiz-adv-x="1884" d="M1806 803Q1806 651 1769 530Q1732 410 1671 328Q1605 240 1536 201Q1458 158 1384 158Q1298 158 1231 203Q1166 246 1133 350H1120Q1095 305 1071 274Q1034 229 1012 213Q977 186 934 172Q893 158 838
158Q770 158 715 178Q656 201 612 244Q567 289 543 352Q516 422 516 508Q516 561 528 627Q536 674 571 754Q598 815 643 877Q690 940 747 983T889 1055Q971 1084 1067 1083Q1138 1083 1190 1065Q1241 1047 1272 1022L1358 1065H1407L1321 553Q1319 549 1318 539T1317
522Q1315 516 1314 503T1313 483Q1309 454 1309 444Q1309 438 1308 428T1307 414Q1307 375 1317 344Q1327 315 1339 303Q1357 285 1369 281T1405 276Q1446 276 1487 309Q1526 340 1563 410Q1598 476 1618 571Q1641 673 1640 795Q1640 936 1597 1040Q1552 1149 1479
1217Q1401 1289 1300 1323Q1202 1358 1071 1358Q971 1358 879 1331Q789 1304 700 1251Q608 1196 543 1124Q467 1042 418 952Q365 854 334 739Q305 630 305 487Q305 303 358 178Q413 49 506 -31Q602 -115 721 -150Q844 -187 983 -186Q1059 -186 1145 -170Q1229 -154
1294 -131Q1382 -100 1427 -78Q1462 -62 1536 -14L1585 -92Q1524 -137 1462 -170Q1413 -197 1313 -231Q1233 -258 1143 -274Q1049 -290 954 -291Q831 -291 729 -270Q625 -250 526 -205Q438 -166 354 -94Q274 -28 221 59Q164 151 135 256Q104 367 104 500Q104 639
137 762Q170 881 233 993Q294 1099 383 1186Q477 1276 580 1335Q684 1394 815 1430Q940 1463 1085 1462Q1265 1462 1399 1411Q1538 1358 1624 1272Q1713 1183 1759 1063Q1806 940 1806 803ZM768 487Q768 385 805 330Q840 277 899 276Q946 276 975 297Q1008 320
1028 352Q1044 377 1063 430Q1073 461 1085 518L1167 936Q1161 951 1149 961Q1126 977 1122 979Q1102 987 1092 989Q1072 993 1059 993Q1012 993 965 967Q928 947 891 899Q857 856 836 801Q807 727 797 690Q781 629 774 582Q768 528 768 487Z" />
<glyph unicode="A" glyph-name="A" horiz-adv-x="1540" d="M446 481L387 305Q387 303 371 246Q363 215 362 188Q362 168 371 154Q381 138 391 129Q399 123 420 115Q434 109 455 109H541V0H8V109H33Q61 109 82 115Q107 121 125 137Q139 149 162 182Q172 198 197
258L641 1462H922L1350 256Q1362 221 1382 184Q1398 153 1417 139Q1437 123 1458 117Q1487 109 1505 109H1542V0H866V109H946Q956 109 977 113Q989 115 1006 127Q1016 135 1026 152Q1034 166 1034 188Q1034 213 1028 236Q1020 265 1016 276L944 481H446ZM795 942L772
1016Q766 1036 761 1055T750 1094Q738 1135 727 1174Q721 1201 709 1249Q691 1188 688 1182Q676 1145 662 1106Q656 1086 650 1065T635 1026L610 952L489 606H903L795 942Z" />
<glyph unicode="B" glyph-name="B" horiz-adv-x="1374" d="M1241 1090Q1241 1020 1223 971Q1205 924 1170 885T1087 821Q1041 796 983 778V768Q1054 750 1112 719Q1171 688 1214 641Q1255 596 1280 537Q1303 480 1303 401Q1303 198 1155 100Q1003 0 717 0H57V109H141Q159
109 184 113Q200 115 217 131Q229 143 240 172Q248 195 248 242V1223Q248 1268 240 1290Q230 1317 217 1329Q207 1339 182 1348Q164 1354 141 1354H57V1462H655Q944 1462 1094 1372Q1241 1283 1241 1090ZM571 125H707Q779 125 823 139Q870 153 901 188T944 276Q958
339 958 408Q958 484 946 539Q934 592 905 631Q880 664 829 684Q782 702 711 702H571V125ZM571 827H649Q725 827 768 842Q815 858 843 889T885 971Q897 1020 897 1090Q897 1153 883 1206Q871 1255 840 1282Q803 1315 762 1325Q713 1337 645 1337H571V827Z" />
<glyph unicode="C" glyph-name="C" horiz-adv-x="1366" d="M870 143Q952 143 1004 160Q1059 176 1108 207Q1154 235 1188 268Q1227 307 1249 338Q1264 326 1274 301Q1284 274 1284 250Q1284 209 1262 160Q1239 113 1184 72Q1127 29 1040 6Q944 -21 821 -20Q643
-20 510 35Q375 92 289 186T158 426T113 733Q113 901 158 1036Q205 1179 291 1274Q380 1372 512 1427T819 1483Q938 1483 1024 1464Q1106 1448 1169 1413Q1230 1380 1257 1339Q1286 1294 1286 1245Q1286 1210 1270 1174Q1258 1145 1221 1118Q1186 1091 1141 1081Q1084
1067 1030 1067Q1030 1128 1020 1169Q1008 1222 981 1260Q948 1305 911 1327Q868 1352 805 1352Q711 1352 641 1311T533 1192T476 998T457 733Q457 590 479 473Q499 364 551 289Q598 217 677 180T870 143Z" />
<glyph unicode="D" glyph-name="D" horiz-adv-x="1570" d="M1458 758Q1458 592 1411 451Q1364 312 1274 212T1047 55Q912 0 733 0H57V109H143Q159 109 184 113Q200 115 217 131Q229 143 240 172Q248 195 248 242V1229Q248 1272 240 1294Q230 1321 217 1331Q197
1347 184 1350Q159 1354 143 1354H57V1462H733Q897 1462 1038 1417Q1171 1374 1266 1284Q1362 1190 1409 1065Q1458 933 1458 758ZM1112 758Q1112 1049 1004 1194Q898 1337 688 1337H571V127H686Q790 127 870 170T1004 297Q1061 387 1085 494Q1112 606 1112 758Z"
/>
<glyph unicode="E" glyph-name="E" horiz-adv-x="1335" d="M573 125H983Q1016 125 1036 137Q1059 149 1073 170Q1091 197 1100 219Q1106 239 1114 281L1130 377H1272L1257 0H57V109H143Q159 109 184 113Q200 115 217 129Q229 139 240 166Q248 189 248 231V1221Q248
1268 240 1290Q230 1319 217 1331Q201 1347 184 1350Q159 1354 143 1354H57V1462H1194L1202 1085H1059L1049 1182Q1039 1262 1012 1296Q981 1337 918 1337H573V825H1059V702H573V125Z" />
<glyph unicode="F" glyph-name="F" horiz-adv-x="1271" d="M1059 1085L1049 1184Q1040 1264 999 1300Q958 1337 897 1337H571V778H1057V657H571V242Q571 195 580 172Q590 143 602 131Q618 115 637 113Q666 109 678 109H805V0H57V109H143Q159 109 184 113Q200 115
217 129Q229 139 240 166Q248 189 248 231V1229Q248 1272 240 1294Q230 1321 217 1331Q197 1347 184 1350Q159 1354 143 1354H57V1462H1192L1202 1085H1059Z" />
<glyph unicode="G" glyph-name="G" horiz-adv-x="1574" d="M866 -20Q676 -20 535 35Q392 90 299 186Q209 280 160 426Q113 567 113 733Q113 897 162 1036Q211 1173 307 1274Q402 1372 547 1427T877 1483Q1004 1483 1100 1464Q1188 1448 1260 1413Q1330 1380 1358
1339Q1389 1296 1389 1245Q1389 1204 1372 1178Q1354 1145 1321 1122Q1288 1097 1237 1085Q1180 1071 1124 1071Q1124 1137 1110 1186T1063 1274Q1034 1309 983 1331Q936 1351 870 1352Q761 1352 680 1311Q600 1270 551 1192Q500 1108 479 997Q456 874 457 733Q457
586 481 471Q508 352 557 279Q612 199 692 160Q778 119 897 119Q924 119 973 123T1047 133V434Q1047 518 1010 549T901 580H874V688H1518V580H1491Q1458 580 1438 573Q1415 567 1399 547T1376 500Q1370 469 1370 426V90Q1253 37 1128 8Q1001 -20 866 -20Z" />
<glyph unicode="H" glyph-name="H" horiz-adv-x="1675" d="M913 0V109H1001Q1017 109 1042 113Q1058 115 1075 131Q1087 143 1098 172Q1106 195 1106 242V700H571V242Q571 195 580 172Q590 143 602 131Q618 115 635 113Q660 109 676 109H764V0H57V109H143Q159
109 184 113Q200 115 217 131Q229 143 240 172Q248 195 248 242V1229Q248 1272 240 1294Q230 1321 217 1331Q201 1345 182 1348Q145 1354 143 1354H57V1462H764V1354H676Q672 1354 635 1348Q619 1346 602 1329Q590 1317 580 1290Q572 1267 571 1221V825H1106V1221Q1106
1268 1098 1290Q1088 1317 1075 1329Q1059 1345 1042 1348Q1005 1354 1001 1354H913V1462H1620V1354H1534Q1530 1354 1493 1348Q1477 1346 1460 1329Q1448 1317 1438 1290Q1430 1267 1430 1221V231Q1430 188 1438 166Q1447 141 1462 129Q1478 115 1495 113Q1520
109 1534 109H1620V0H913Z" />
<glyph unicode="I" glyph-name="I" horiz-adv-x="819" d="M57 0V109H143Q159 109 184 113Q200 115 217 131Q229 143 240 172Q248 195 248 242V1221Q248 1268 240 1290Q230 1317 217 1329Q201 1345 184 1348Q147 1354 143 1354H57V1462H764V1354H678Q674 1354 637
1348Q617 1344 602 1329Q592 1319 582 1290Q574 1267 573 1221V242Q573 195 582 172Q594 139 602 131Q616 117 637 113Q662 109 678 109H764V0H57Z" />
<glyph unicode="J" glyph-name="J" horiz-adv-x="753" d="M731 1354H645Q629 1354 604 1350Q584 1346 569 1331Q557 1319 547 1290Q539 1267 539 1221V-4Q539 -102 518 -170Q495 -242 461 -295Q424 -348 371 -387Q308 -432 260 -449Q188 -474 131 -481Q55 -491
-6 -492H-80V-373H-43Q8 -373 53 -355T135 -293Q170 -252 193 -180Q216 -106 215 -6V1229Q215 1272 207 1294Q197 1321 184 1331Q164 1347 152 1350Q127 1354 111 1354H25V1462H731V1354Z" />
<glyph unicode="K" glyph-name="K" horiz-adv-x="1501" d="M889 1090Q916 1117 944 1153T981 1206Q993 1229 999 1253Q1005 1275 1006 1296Q1006 1331 981 1343T891 1356V1462H1446V1356Q1403 1356 1366 1344T1292 1307T1223 1249Q1176 1202 1151 1176L881 879L1262
274Q1295 221 1319 195Q1352 160 1374 143Q1397 129 1432 117Q1457 109 1495 109H1503V0H1393Q1295 0 1255 4Q1204 10 1153 20T1075 45Q1044 60 1020 82Q991 107 977 129Q944 178 938 188L662 659L571 588V242Q571 195 580 172Q590 143 602 131Q618 115 637 113Q666
109 678 109H764V0H57V109H143Q159 109 184 113Q200 115 217 129Q229 139 240 166Q248 189 248 231V1229Q248 1272 240 1294Q230 1321 217 1331Q197 1347 184 1350Q159 1354 143 1354H57V1462H764V1354H678Q666 1354 637 1350Q619 1348 602 1331Q590 1319 580 1290Q572
1267 571 1221V743L889 1090Z" />
<glyph unicode="L" glyph-name="L" horiz-adv-x="1337" d="M57 0V109H143Q159 109 184 113Q200 115 217 131Q229 143 240 172Q248 195 248 242V1221Q248 1268 240 1290Q230 1319 217 1331Q201 1347 184 1350Q159 1354 143 1354H57V1462H764V1354H678Q662 1354
637 1350Q625 1348 604 1331Q592 1321 582 1294Q574 1271 573 1229V125H954Q1028 125 1067 170T1124 303L1157 457H1272L1257 0H57Z" />
<glyph unicode="M" glyph-name="M" horiz-adv-x="1949" d="M1237 0V109H1257Q1280 109 1313 113Q1338 115 1354 129Q1368 141 1378 164Q1386 182 1386 223V1260L973 0H834L401 1260V242Q401 199 412 172Q420 149 442 131Q460 117 489 113Q526 109 553 109H565V0H57V109H143Q159
109 184 113Q200 115 217 129Q229 139 240 166Q248 189 248 231V1229Q248 1272 240 1294Q230 1321 217 1331Q197 1347 184 1350Q159 1354 143 1354H57V1462H647L987 473L1313 1462H1892V1354H1806Q1790 1354 1765 1350Q1749 1348 1733 1331Q1721 1319 1710 1290Q1702
1267 1702 1221V242Q1702 195 1710 172Q1720 143 1733 131Q1749 115 1765 113Q1790 109 1806 109H1892V0H1237Z" />
<glyph unicode="N" glyph-name="N" horiz-adv-x="1613" d="M1200 0L401 1128V242Q401 195 410 172Q420 143 432 131Q448 115 465 113Q490 109 506 109H592V0H57V109H143Q159 109 184 113Q200 115 217 131Q229 143 240 172Q248 195 248 242V1229Q248 1272 240 1294Q230
1321 217 1331Q197 1347 182 1350Q157 1354 143 1354H57V1462H512L1235 440V1229Q1235 1272 1227 1294Q1217 1321 1204 1331Q1184 1347 1169 1350Q1144 1354 1130 1354H1044V1462H1579V1354H1493Q1477 1354 1452 1350Q1436 1348 1419 1331Q1407 1319 1397 1290Q1389
1267 1389 1221V0H1200Z" />
<glyph unicode="O" glyph-name="O" horiz-adv-x="1611" d="M1499 733Q1499 561 1454 426Q1407 283 1319 186Q1233 90 1102 35Q973 -20 807 -20Q631 -20 502 35Q367 92 285 186Q201 282 156 426Q113 565 113 735T156 1044Q199 1181 285 1279T502 1431T809 1485Q973
1485 1104 1432Q1229 1381 1321 1280Q1407 1186 1454 1042Q1499 907 1499 733ZM457 733Q457 586 475 471T537 276Q580 198 645 156Q713 113 807 113T969 156Q1039 201 1077 276Q1118 358 1137 471Q1155 586 1155 733T1137 995Q1119 1108 1077 1190Q1040 1266 971
1311Q910 1352 810 1352T645 1311Q579 1268 537 1190Q494 1110 476 995T457 733Z" />
<glyph unicode="P" glyph-name="P" horiz-adv-x="1306" d="M1245 1028Q1245 944 1212 852Q1181 766 1110 700Q1047 641 922 598Q811 559 641 559H571V231Q571 188 580 166Q589 141 604 129Q620 115 639 113Q668 109 680 109H805V0H57V109H143Q159 109 184 113Q200
115 217 131Q229 143 240 172Q248 195 248 242V1229Q248 1272 240 1294Q230 1321 217 1331Q197 1347 184 1350Q159 1354 143 1354H57V1462H686Q829 1462 934 1432Q1036 1401 1108 1346Q1174 1295 1210 1208Q1245 1126 1245 1028ZM571 678H621Q698 678 750 696Q799
712 836 758Q870 798 885 862Q901 932 901 1020Q901 1092 887 1163Q875 1220 844 1262Q811 1305 768 1321Q717 1341 651 1341H571V678Z" />
<glyph unicode="Q" glyph-name="Q" horiz-adv-x="1611" d="M1499 733Q1499 586 1466 467Q1433 344 1370 252T1214 94Q1118 26 1001 0Q1009 -113 1038 -186Q1063 -254 1106 -299Q1145 -340 1196 -356Q1249 -372 1296 -373H1329V-492H1182Q1088 -492 1001 -465Q911
-436 838 -379Q766 -324 717 -229Q670 -139 659 -8Q520 15 418 76T248 233Q182 325 147 457Q112 586 113 735Q113 905 156 1044Q199 1181 285 1279T502 1431T809 1485Q973 1485 1104 1432Q1229 1381 1321 1280Q1407 1186 1454 1042Q1499 907 1499 733ZM457 733Q457
586 475 471T537 276Q580 198 645 156Q713 113 807 113T969 156Q1039 201 1077 276Q1118 358 1137 471Q1155 586 1155 733T1137 995Q1119 1108 1077 1190Q1040 1266 971 1311Q910 1352 810 1352T645 1311Q579 1268 537 1190Q494 1110 476 995T457 733Z" />
<glyph unicode="R" glyph-name="R" horiz-adv-x="1447" d="M57 109H143Q157 109 182 113Q200 115 217 129Q229 139 240 166Q248 189 248 231V1229Q248 1272 240 1294Q230 1321 217 1331Q197 1347 182 1350Q157 1354 143 1354H57V1462H717Q1010 1462 1143 1366Q1278
1268 1278 1083Q1278 1003 1253 938Q1228 875 1190 829Q1149 782 1102 750Q1061 723 999 696L1243 276Q1266 235 1294 201Q1317 174 1343 150Q1368 128 1393 119Q1420 109 1448 109H1456V0H1389Q1297 0 1229 6Q1163 12 1108 34T1020 90Q977 133 950 184L707 635H571V231Q571
188 580 166Q590 139 602 129Q618 115 637 113Q662 109 676 109H764V0H57V109ZM571 754H686Q758 754 805 772T880 829T921 923T934 1055Q934 1137 920 1188Q904 1247 877 1276Q846 1311 799 1325Q746 1341 682 1341H571V754Z" />
<glyph unicode="S" glyph-name="S" horiz-adv-x="1198" d="M541 -20Q412 -20 311 6Q225 29 164 74Q109 114 84 166Q61 213 61 266Q61 317 79 354T133 414Q174 439 207 446Q254 456 293 457Q293 367 313 303Q333 237 373 193Q414 144 461 125Q516 102 573 102Q639
102 680 119Q729 139 760 166Q793 197 811 236Q827 271 827 324T807 416Q782 461 743 492Q698 527 635 557Q561 592 485 625Q385 666 305 715Q231 760 186 815Q139 872 121 934Q103 1000 102 1071Q102 1163 139 1241Q172 1311 246 1370Q318 1427 403 1454Q499 1483
604 1483Q717 1483 799 1464Q877 1448 934 1413Q991 1380 1014 1339Q1041 1292 1040 1245Q1040 1210 1024 1178Q1008 1147 977 1124Q940 1097 899 1087Q853 1075 788 1075Q788 1118 776 1167T739 1260Q714 1301 672 1329Q627 1358 571 1358Q530 1358 494 1346Q451
1332 428 1311Q399 1284 385 1251Q369 1212 369 1169Q369 1122 383 1087Q399 1048 434 1014T537 940Q586 911 707 862Q822 815 887 774Q967 725 1008 678Q1057 621 1077 565Q1097 506 1098 428Q1098 326 1059 246Q1018 162 946 104Q872 45 772 12Q674 -20 541 -20Z"
/>
<glyph unicode="T" glyph-name="T" horiz-adv-x="1335" d="M831 242Q831 195 840 172Q850 143 862 131Q878 115 895 113Q920 109 936 109H1022V0H315V109H401Q417 109 442 113Q458 115 475 131Q487 143 498 172Q506 195 506 242V1337H342Q299 1337 264 1327Q235
1319 215 1299T186 1253Q174 1216 172 1192L158 1065H20L31 1462H1307L1317 1065H1180L1165 1192Q1163 1217 1151 1253Q1143 1278 1122 1298Q1104 1316 1071 1327Q1036 1337 995 1337H831V242Z" />
<glyph unicode="U" glyph-name="U" horiz-adv-x="1529" d="M1497 1354H1409Q1393 1354 1368 1350Q1352 1348 1335 1331Q1323 1319 1313 1290Q1305 1267 1305 1221V422Q1305 316 1276 238Q1247 158 1184 98Q1125 41 1024 10Q926 -21 793 -20Q666 -20 553 6Q449
31 375 86Q307 137 264 231Q225 317 225 446V1229Q225 1272 217 1294Q208 1319 193 1331Q173 1347 160 1350Q135 1354 121 1354H33V1462H739V1354H653Q637 1354 612 1350Q596 1348 580 1331Q568 1319 557 1290Q549 1267 549 1221V430Q549 346 571 285Q591 232 633
193Q672 158 727 141Q786 125 854 125T977 143Q1034 161 1071 196T1130 291Q1150 346 1151 426V1229Q1151 1272 1143 1294Q1133 1321 1120 1331Q1100 1347 1087 1350Q1062 1354 1047 1354H961V1462H1497V1354Z" />
<glyph unicode="V" glyph-name="V" horiz-adv-x="1429" d="M1430 1354H1331Q1319 1354 1307 1348Q1299 1344 1284 1325Q1278 1319 1262 1280Q1248 1249 1233 1204L815 0H610L174 1255Q164 1284 150 1303Q136 1319 115 1333T80 1350Q55 1354 47 1354H0V1462H676V1354H582Q574
1354 553 1350Q539 1348 528 1339Q516 1329 510 1319Q502 1303 502 1286Q502 1266 508 1242T520 1198L729 567Q731 561 734 552T740 532T745 512Q749 500 754 479T762 449Q768 426 776 381Q784 332 786 319Q786 325 790 339T797 365Q801 385 813 430L834 498Q840
516 845 531T854 561L1065 1184Q1069 1194 1073 1208Q1073 1210 1076 1220T1081 1237Q1083 1247 1087 1264Q1089 1272 1090 1284Q1090 1317 1067 1335T1008 1354H901V1462H1430V1354Z" />
<glyph unicode="W" glyph-name="W" horiz-adv-x="2183" d="M1237 1448L1520 666Q1549 590 1554 569Q1556 563 1581 473Q1585 459 1593 431T1606 391Q1610 377 1615 353T1620 326Q1628 363 1636 408Q1640 433 1646 457T1657 502Q1671 568 1679 604Q1683 618 1690
652T1702 705L1810 1147Q1812 1155 1817 1176L1823 1206Q1827 1226 1827 1235Q1827 1239 1828 1247T1829 1257Q1829 1309 1798 1331Q1765 1354 1698 1354H1651V1462H2185V1354H2146Q2113 1354 2093 1348Q2066 1340 2052 1325Q2036 1309 2019 1276Q2009 1253 1991
1194L1673 0H1440L1096 961L801 0H547L172 1245Q164 1274 150 1298Q138 1318 119 1330T80 1350Q66 1354 27 1354H0V1462H684V1354H637Q576 1354 545 1330T514 1255Q514 1241 520 1206Q528 1165 535 1145L672 672Q678 652 684 631T696 588Q700 574 707 543T719 496Q725
473 739 406Q749 363 752 330Q767 395 782 453Q807 537 817 571L1087 1448H1237Z" />
<glyph unicode="X" glyph-name="X" horiz-adv-x="1497" d="M1071 1294Q1071 1312 1063 1323Q1051 1337 1038 1343Q1026 1347 1001 1352Q987 1354 956 1354H950V1462H1430V1354H1411Q1391 1354 1358 1346Q1333 1340 1309 1321Q1289 1305 1262 1276Q1244 1256 1208
1206L911 801L1288 217Q1329 151 1370 131Q1415 108 1452 109H1479V0H803V109H813Q936 109 936 176Q936 190 934 199Q934 201 924 225Q922 229 903 262Q899 268 868 317L680 602L459 303Q451 291 424 244Q406 209 406 178Q406 145 434 127T530 109H537V0H20V109H33Q68
109 98 119Q121 127 150 147Q185 172 199 193Q203 197 219 218T246 252L604 719L266 1245L233 1292Q219 1312 195 1327Q166 1343 150 1348Q125 1354 90 1354H63V1462H741V1354H735Q708 1354 676 1350Q656 1348 639 1337Q625 1329 618 1317Q614 1309 614 1294Q614
1269 629 1241Q643 1210 668 1174L838 920L1016 1169Q1034 1197 1053 1231Q1071 1265 1071 1294Z" />
<glyph unicode="Y" glyph-name="Y" horiz-adv-x="1417" d="M336 0V109H432Q450 109 479 113Q502 117 516 127Q530 139 540 166T551 233V518L172 1245Q168 1253 143 1296Q133 1314 115 1329Q100 1341 78 1348Q58 1354 27 1354H0V1462H686V1354H651Q590 1354 559
1330T528 1262Q528 1233 537 1206Q545 1175 559 1149L711 848Q748 768 764 733L801 635Q809 658 850 752Q881 824 911 885L1030 1130Q1055 1181 1059 1206Q1065 1237 1065 1253Q1065 1304 1032 1329T930 1354H883V1462H1419V1354H1380Q1353 1354 1335 1348Q1315
1342 1300 1323Q1282 1300 1266 1274Q1260 1264 1225 1194L877 516V236Q877 193 887 166T911 127T946 113Q975 109 991 109H1092V0H336Z" />
<glyph unicode="Z" glyph-name="Z" horiz-adv-x="1363" d="M1229 1358L459 125H901Q962 125 1004 143Q1043 161 1067 188Q1094 217 1102 254Q1114 303 1116 330L1126 422H1274L1264 0H86V102L854 1337H451Q410 1337 373 1323Q340 1309 322 1286Q306 1263 295 1227Q285
1192 283 1151L272 1040H125L135 1462H1229V1358Z" />
<glyph unicode="[" glyph-name="bracketleft" horiz-adv-x="847" d="M205 -262V1556H772V1448H684Q639 1448 618 1444Q583 1438 565 1423Q542 1407 530 1378Q516 1345 516 1300V-6Q516 -49 530 -84Q542 -113 565 -129Q583 -143 618 -150Q638 -154 684 -154H772V-262H205Z" />
<glyph unicode="\" glyph-name="backslash" horiz-adv-x="589" d="M0 1556H145L590 -248H442L0 1556Z" />
<glyph unicode="]" glyph-name="bracketright" horiz-adv-x="847" d="M643 1556V-262H76V-154H164Q209 -154 229 -150Q264 -144 283 -129Q310 -111 319 -84Q331 -53 332 -6V1300Q332 1351 320 1378T283 1423Q265 1437 229 1444Q209 1448 164 1448H76V1556H643Z" />
<glyph unicode="^" glyph-name="asciicircum" horiz-adv-x="1144" d="M526 1462H614L1049 537H889L569 1239L254 537H94L526 1462Z" />
<glyph unicode="_" glyph-name="underscore" horiz-adv-x="937" d="M950 -291H-10V-170H950V-291Z" />
<glyph unicode="`" glyph-name="grave" horiz-adv-x="1181" d="M713 1241Q662 1270 606 1311L494 1397Q445 1434 395 1481Q346 1526 332 1548V1569H653Q665 1542 694 1495L748 1413Q762 1388 803 1335Q815 1319 827 1302T852 1268V1241H713Z" />
<glyph unicode="a" glyph-name="a" horiz-adv-x="1226" d="M410 305Q410 217 438 172Q467 129 526 129Q569 129 606 147Q639 163 666 201Q695 240 705 283Q719 340 719 391V545L627 539Q568 537 524 520Q487 506 457 473Q434 448 422 403Q410 360 410 305ZM592
999Q555 999 526 983Q499 969 483 936Q467 901 461 866Q455 827 455 778Q320 778 248 809Q178 840 178 915Q178 972 211 1011T303 1075T436 1112Q512 1124 600 1124Q709 1124 788 1106T922 1047Q977 1006 1004 938Q1031 872 1030 776V254Q1030 213 1036 184Q1042
153 1057 139Q1073 123 1096 117Q1129 109 1153 109H1161V0H780L737 141H719Q674 88 655 70Q626 41 592 18Q563 0 514 -10Q467 -20 414 -20Q342 -20 287 0Q226 23 186 61Q139 108 117 166Q92 227 92 313Q92 479 207 559Q324 641 551 647L719 653V766Q719 803 715
860Q713 899 698 934Q688 959 659 981Q635 999 592 999Z" />
<glyph unicode="b" glyph-name="b" horiz-adv-x="1327" d="M1233 705T1233 553T1206 297Q1179 191 1124 117Q1073 49 993 14Q911 -21 813 -20Q764 -20 707 -6Q660 6 618 31Q579 56 551 86T500 160H481L424 0H35V109H49Q78 109 106 115Q141 123 156 133Q183 151
193 176Q205 205 205 252V1311Q205 1356 193 1382Q183 1407 158 1423Q138 1437 106 1444Q86 1448 43 1448H35V1556H516V1206Q516 1159 514 1130Q511 1087 508 1051L500 958H514Q557 1034 631 1077Q709 1122 821 1122Q917 1122 997 1088T1126 985Q1179 913 1206
809ZM725 971Q664 971 625 946Q584 921 559 868Q536 819 526 737Q516 649 516 553Q516 461 526 373Q536 291 559 242Q584 189 625 160Q664 133 727 133Q825 133 872 242Q917 346 918 555Q918 766 873 868T725 971Z" />
<glyph unicode="c" glyph-name="c" horiz-adv-x="1077" d="M604 -20Q493 -20 397 8Q307 35 238 104Q170 172 133 281Q96 389 96 545Q96 713 135 821Q176 936 240 999Q310 1069 399 1096Q495 1125 598 1124Q690 1124 772 1108Q840 1094 899 1063Q946 1038 977 993Q1004
954 1004 909Q1004 868 993 844Q981 811 953 789T870 750Q821 736 739 735Q739 786 733 836Q727 879 711 920Q697 955 670 977T606 999Q565 999 526 977Q489 955 465 903Q436 844 426 766Q412 666 412 547Q412 338 469 236T655 133Q707 133 754 145Q803 157 840
180T905 233Q934 266 952 299Q977 285 989 258Q1001 233 1001 205Q1001 168 979 127Q959 88 907 53Q864 24 782 0Q713 -20 604 -20Z" />
<glyph unicode="d" glyph-name="d" horiz-adv-x="1327" d="M1122 252Q1122 203 1137 176Q1153 145 1174 133Q1192 121 1227 115Q1258 109 1292 109H1300V0H903L846 160H827Q811 127 774 86Q741 51 707 29Q664 2 621 -8Q572 -20 512 -20Q414 -20 334 14Q252 51
203 117Q148 193 121 293Q94 397 94 547Q94 699 121 803Q148 909 203 983Q255 1054 332 1087Q412 1122 508 1122Q566 1122 612 1110Q657 1098 696 1075Q741 1048 764 1024Q795 989 813 958H827Q825 978 822 1014T819 1065Q819 1073 818 1087T817 1108Q817 1116
815 1129T813 1149T812 1167T811 1184V1208V1321Q811 1360 797 1389Q783 1416 762 1427Q739 1441 709 1444Q668 1448 645 1448H629V1556H1122V252ZM600 133Q663 133 702 158Q739 181 766 236T801 367Q811 455 811 551Q811 643 801 731Q793 807 766 862T702 944Q663
971 600 971Q547 971 512 944Q473 915 453 862Q428 799 420 729Q410 641 410 549Q410 340 453 236Q496 133 600 133Z" />
<glyph unicode="e" glyph-name="e" horiz-adv-x="1167" d="M608 991Q520 991 471 905T416 657H770Q770 741 762 797Q754 854 733 901Q715 946 682 968T608 991ZM627 -20Q502 -20 397 18Q301 55 231 127Q163 199 129 305Q96 405 96 543Q96 693 129 797T229 979Q290
1049 389 1087Q484 1124 604 1124Q710 1124 805 1092Q893 1061 954 999Q1017 936 1050 846T1083 631V526H412Q414 426 434 348Q450 285 489 227Q524 178 573 156Q624 133 686 133Q738 133 784 145Q825 155 866 180Q899 198 930 233Q955 260 975 299Q1030 268 1030
199Q1030 156 1006 115Q983 76 932 45Q887 16 807 -2Q729 -20 627 -20Z" />
<glyph unicode="f" glyph-name="f" horiz-adv-x="833" d="M39 0V109H84Q98 109 131 113Q158 117 178 131T215 172Q229 195 229 242V958H47V1098H229V1174Q229 1270 254 1343Q279 1421 330 1470Q379 1519 461 1548Q539 1575 647 1575Q745 1575 811 1563Q887 1549
918 1532Q959 1509 973 1485Q989 1456 989 1425Q989 1355 926 1323Q865 1292 737 1292Q737 1319 731 1346Q723 1387 715 1401Q703 1428 684 1442Q664 1458 635 1458Q615 1458 592 1444Q576 1434 563 1401Q553 1376 547 1325Q541 1278 541 1210V1098H823V958H541V242Q541
195 555 172Q571 145 591 131T639 113Q672 109 686 109H782V0H39Z" />
<glyph unicode="g" glyph-name="g" horiz-adv-x="1146" d="M1137 1059Q1137 1036 1130 1014Q1126 998 1106 977Q1092 963 1061 953T991 942Q991 964 985 979Q979 993 967 1006Q957 1016 942 1022Q926 1028 913 1028Q895 1028 877 1022Q861 1016 846 1006Q866 986
885 954Q910 913 918 891T938 819Q946 786 946 745Q946 667 922 602Q897 539 846 489Q795 442 717 414Q643 387 532 387H504Q496 387 487 388T469 389Q463 389 453 390T438 391Q432 391 424 392T414 393Q408 389 387 375Q369 363 362 352Q352 338 346 324Q340 308
340 289Q340 254 367 240Q396 224 436 223H684Q782 223 860 201Q934 179 983 139Q1034 98 1055 41Q1078 -20 1077 -90Q1077 -186 1041 -260T932 -385Q858 -437 748 -465Q642 -492 483 -492Q239 -492 123 -420Q4 -346 4 -207Q4 -98 76 -39Q146 18 281 31Q244 47
226 57T178 96Q155 119 143 147T131 213Q131 244 145 276Q157 304 182 332Q200 352 239 381T313 428Q276 440 229 473Q192 498 164 541Q136 581 121 633Q105 688 104 745Q104 925 209 1024Q315 1124 532 1124Q606 1124 668 1106Q723 1090 776 1061Q792 1079 813
1100Q819 1106 860 1137Q876 1149 918 1165Q943 1175 989 1176Q1028 1176 1052 1168T1100 1141Q1120 1125 1128 1104Q1137 1086 1137 1059ZM246 -203Q246 -287 307 -328Q370 -369 487 -369Q667 -369 749 -318T831 -164Q831 -98 791 -74Q748 -47 666 -47H428Q395
-47 365 -53Q332 -59 307 -76Q278 -94 262 -123Q246 -150 246 -203ZM383 745Q383 704 391 647Q397 604 416 573Q436 538 459 524Q484 508 526 508Q565 508 594 524Q619 538 637 573Q653 606 659 649T666 748Q666 806 659 852Q655 889 635 932Q621 965 592 983Q564
1001 524 1001Q487 1001 457 981Q428 963 414 930Q396 887 389 848Q383 802 383 745Z" />
<glyph unicode="h" glyph-name="h" horiz-adv-x="1363" d="M858 0V674Q858 744 850 791Q840 844 821 879Q803 912 770 932Q739 950 694 950Q645 950 608 924Q579 904 555 854Q532 811 524 754Q516 703 516 633V242Q516 199 526 172Q534 149 555 133Q575 115 602
113Q639 109 664 109H670V0H41V109H45Q72 109 109 113Q136 115 160 133Q180 147 193 176Q205 204 205 250V1323Q205 1366 190 1389Q174 1418 154 1427Q131 1441 106 1444Q73 1448 59 1448H35V1556H516V1219Q516 1164 514 1133T508 1049L500 958H518Q545 1009 584
1049Q618 1083 657 1098Q710 1118 739 1120Q796 1124 831 1124Q905 1124 973 1102Q1034 1082 1079 1030Q1126 975 1147 907Q1170 829 1169 729V254Q1169 203 1178 178Q1190 143 1202 133T1245 115Q1270 109 1307 109H1313V0H858Z" />
<glyph unicode="i" glyph-name="i" horiz-adv-x="720" d="M176 1430Q176 1465 190 1497Q202 1524 227 1542T281 1569Q308 1577 350 1577Q391 1577 418 1569Q451 1559 473 1542Q498 1524 512 1497T526 1430Q526 1391 512 1364T473 1319Q446 1299 418 1290Q391 1282
350 1282Q307 1282 281 1290Q256 1298 227 1319Q202 1337 190 1364Q176 1397 176 1430ZM59 109Q73 109 106 113Q133 117 153 131T190 172Q204 195 205 242V864Q205 907 190 930Q175 955 154 967Q125 983 106 985Q73 989 59 989H35V1098H516V242Q516 195 530 172Q546
145 567 131T614 113Q647 109 662 109H686V0H35V109H59Z" />
<glyph unicode="j" glyph-name="j" horiz-adv-x="706" d="M516 1098V-16Q516 -155 477 -245T371 -391Q301 -448 207 -469Q107 -492 0 -492H-41V-365H-27Q28 -365 72 -346Q117 -328 145 -287T190 -174Q204 -108 205 0V854Q205 897 193 924Q183 944 156 965Q131
983 104 985Q63 989 41 989H35V1098H516ZM178 1430Q178 1465 193 1497Q205 1524 229 1542T283 1569Q310 1577 352 1577Q393 1577 420 1569Q453 1559 475 1542Q500 1524 514 1497T528 1430Q528 1391 514 1364T475 1319Q448 1299 420 1290Q393 1282 352 1282Q309
1282 283 1290Q258 1298 229 1319Q204 1337 193 1364Q178 1397 178 1430Z" />
<glyph unicode="k" glyph-name="k" horiz-adv-x="1302" d="M1303 0H1274Q1137 0 1085 4Q1009 10 954 29Q897 47 860 82Q819 121 780 182L598 469L516 408V242Q516 195 530 172Q546 145 567 131T614 113Q647 109 662 109H686V0H35V109H59Q73 109 106 113Q133 117
153 131T190 172Q204 195 205 242V1323Q205 1366 190 1389Q174 1418 154 1427Q131 1441 106 1444Q73 1448 59 1448H35V1556H516V766Q516 758 515 737T514 702Q514 655 512 633L506 553L764 842Q799 881 809 903Q819 928 819 940Q819 965 791 981Q764 995 713 995V1098H1229V995Q1153
995 1090 954Q1014 905 940 821L811 674L1083 268Q1142 184 1192 147Q1245 108 1296 109H1303V0Z" />
<glyph unicode="l" glyph-name="l" horiz-adv-x="720" d="M59 109Q73 109 106 113Q133 117 153 131T190 172Q204 195 205 242V1323Q205 1366 190 1389Q174 1418 154 1427Q131 1441 106 1444Q73 1448 59 1448H35V1556H516V242Q516 195 530 172Q546 145 567 131T614
113Q647 109 662 109H686V0H35V109H59Z" />
<glyph unicode="m" glyph-name="m" horiz-adv-x="2017" d="M858 0V674Q858 744 850 791Q840 844 821 879Q803 912 770 932Q739 950 694 950Q645 950 608 924Q579 904 555 854Q532 811 524 754Q516 703 516 633V242Q516 199 526 172Q534 149 555 133Q575 115 602
113Q639 109 664 109H670V0H41V109H45Q72 109 109 113Q136 115 160 133Q180 147 193 176Q205 204 205 250V862Q205 905 195 932Q187 950 164 971Q144 989 119 991Q82 995 57 995H51V1098H481L508 952H518Q547 1007 584 1044Q617 1077 657 1096Q692 1112 739 1118Q782
1124 831 1124Q942 1124 1024 1083Q1104 1042 1141 952H1159Q1190 1010 1227 1044Q1264 1077 1305 1096Q1342 1112 1391 1118Q1438 1124 1485 1124Q1559 1124 1626 1102Q1687 1082 1733 1030Q1780 975 1800 907Q1823 829 1823 729V254Q1823 203 1831 178Q1841 147
1858 133Q1870 123 1901 115Q1926 109 1960 109H1966V0H1511V674Q1511 807 1475 878T1348 950Q1299 950 1266 926Q1231 901 1210 862Q1188 822 1180 770Q1170 713 1169 657V254Q1169 203 1178 178Q1190 143 1202 133T1245 115Q1270 109 1307 109H1313V0H858Z" />
<glyph unicode="n" glyph-name="n" horiz-adv-x="1363" d="M858 0V674Q858 744 850 791Q840 844 821 879Q803 912 770 932Q739 950 694 950Q645 950 608 924Q579 904 555 854Q532 811 524 754Q516 703 516 633V242Q516 199 526 172Q534 149 555 133Q575 115 602
113Q639 109 664 109H670V0H41V109H45Q72 109 109 113Q136 115 160 133Q180 147 193 176Q205 204 205 250V856Q205 899 195 926Q187 944 164 965Q144 983 119 985Q82 989 57 989H51V1098H481L508 952H518Q547 1007 584 1044Q617 1077 657 1096Q692 1112 739 1118Q782
1124 831 1124Q905 1124 973 1102Q1034 1082 1079 1030Q1126 975 1147 907Q1170 829 1169 729V254Q1169 203 1178 178Q1190 143 1202 133T1245 115Q1270 109 1307 109H1313V0H858Z" />
<glyph unicode="o" glyph-name="o" horiz-adv-x="1253" d="M1159 553Q1159 264 1024 123Q887 -20 625 -20Q502 -20 403 16Q303 53 238 123Q170 194 133 301T96 553Q96 842 231 983T631 1124Q752 1124 852 1090Q948 1057 1018 983Q1086 912 1122 805T1159 553ZM414
664T414 553T426 360Q438 276 462 221T528 138T628 109T729 137T794 221T831 360Q841 430 841 553T831 745Q821 819 793 883Q770 936 727 965Q686 994 627 994T526 965Q483 936 461 883Q438 834 426 745Q414 664 414 553Z" />
<glyph unicode="p" glyph-name="p" horiz-adv-x="1320" d="M51 -383Q67 -383 100 -379Q127 -375 147 -360Q163 -348 182 -319Q196 -296 197 -250V846Q197 891 186 922Q178 949 158 965Q146 975 113 983Q88 989 59 989H45V1098H446L483 938H492Q515 981 543 1012Q570
1041 612 1067Q659 1096 698 1106Q747 1118 805 1118Q907 1118 985 1086T1116 981Q1171 905 1198 803Q1225 699 1225 545Q1225 393 1198 289T1118 113Q1066 42 989 8Q915 -25 813 -25Q700 -25 623 20Q551 61 506 139H492L500 47Q502 22 506 -35Q508 -64 508 -109V-250Q508
-297 522 -319Q538 -346 559 -360T606 -379Q639 -383 653 -383H698V-492H27V-383H51ZM717 127Q821 127 864 231Q909 340 909 543Q909 744 864 856Q821 965 719 965Q656 965 616 938Q579 911 553 856T518 725Q508 637 508 545Q508 449 518 360Q526 284 553 229T616
152Q656 127 717 127Z" />
<glyph unicode="q" glyph-name="q" horiz-adv-x="1325" d="M608 -492V-383H645Q668 -383 709 -379Q740 -377 762 -362Q782 -350 797 -324Q811 -295 811 -256V-106V-82Q811 -78 812 -66T813 -47L817 -6Q817 2 818 15T819 37Q819 51 822 87T827 143H813Q788 106
764 78Q741 53 696 27Q657 4 612 -8Q566 -20 508 -20Q412 -20 332 14T203 117Q148 193 121 295Q94 399 94 551Q94 701 121 805Q148 905 203 981Q254 1051 334 1085Q408 1118 512 1118Q571 1118 621 1106Q664 1096 707 1069Q746 1044 774 1014Q809 977 827 938H846L887
1098H1300V989H1292Q1257 989 1227 983Q1192 977 1174 965Q1154 953 1137 922Q1123 895 1122 846V-256Q1122 -299 1134 -323T1171 -362Q1194 -376 1225 -379Q1266 -383 1288 -383H1325V-492H608ZM600 965Q496 965 453 862Q410 758 410 549Q410 344 453 238T600
131Q663 131 702 157T766 238Q793 293 801 367Q811 453 811 547Q811 643 801 731Q793 807 766 862T702 940Q663 965 600 965Z" />
<glyph unicode="r" glyph-name="r" horiz-adv-x="1069" d="M725 0H41V109H47Q82 109 111 115Q144 123 162 135Q178 147 193 178Q205 205 205 256V850Q205 891 195 922Q187 947 164 965Q144 983 119 985Q82 989 57 989H51V1098H465L506 938H516Q543 995 559 1018Q586
1055 618 1075Q657 1100 696 1110Q741 1122 805 1122Q925 1122 983 1079Q1040 1036 1040 956Q1040 864 973 811Q903 758 780 758Q780 791 776 831Q774 862 760 885Q748 905 729 918Q713 928 680 928Q643 928 618 909Q587 886 573 864Q559 844 545 799Q533 760 526
727Q522 702 518 657Q516 634 516 600V246Q516 197 526 174Q538 146 557 131Q575 115 602 113Q639 109 659 109H725V0Z" />
<glyph unicode="s" glyph-name="s" horiz-adv-x="997" d="M473 -20Q362 -20 283 -2Q207 16 156 47Q109 78 84 125Q61 170 61 219T80 299Q96 326 129 346Q156 362 193 369Q226 375 252 375Q252 316 268 260Q280 217 313 174Q340 139 383 119Q422 101 473 100Q532
100 565 111Q600 121 627 141Q650 157 664 186Q676 211 676 240Q676 274 664 301Q654 321 623 350Q594 377 545 397Q488 422 424 444Q341 472 276 506Q206 543 170 580Q125 625 104 674Q81 729 82 797Q82 879 112 940T203 1042Q256 1079 342 1102Q418 1122 522
1122Q614 1122 686 1106T799 1063Q836 1038 860 1001Q880 968 881 932Q881 864 832 828T672 791Q672 897 627 950Q581 1005 492 1006Q455 1006 428 997Q391 987 375 975Q352 959 340 934Q326 905 326 879Q326 844 338 819Q348 796 383 770Q408 750 469 723Q537
692 606 670Q684 641 731 616Q784 587 831 545Q872 508 895 455Q918 404 918 340Q918 252 889 188Q858 118 803 76Q742 29 662 4Q577 -20 473 -20Z" />
<glyph unicode="t" glyph-name="t" horiz-adv-x="827" d="M643 145Q694 145 719 150Q768 158 788 164V31Q780 27 745 14Q712 4 680 -2Q639 -8 598 -14Q553 -20 498 -20Q432 -20 373 -4Q320 10 279 51T218 151T197 303V958H43V1063Q104 1063 162 1090Q211 1113
244 1149Q307 1212 338 1352H508V1098H770V958H508V324Q508 232 538 189T643 145Z" />
<glyph unicode="u" glyph-name="u" horiz-adv-x="1363" d="M907 0L862 145H852Q821 93 784 59Q753 30 709 10Q670 -8 621 -14Q574 -20 528 -20Q370 -20 283 80Q197 178 197 385V844Q197 893 188 918Q178 949 164 961Q144 979 121 983Q94 989 57 989H53V1098H508V442Q508
393 516 324Q522 271 541 233Q559 194 590 174Q619 154 664 154T747 176T807 238Q832 283 840 336Q850 402 850 465V858Q850 905 838 930Q824 961 807 969Q782 983 760 985Q723 989 702 989H696V1098H1161V238Q1161 195 1171 168T1200 129Q1220 115 1243 113Q1276
109 1298 109H1315V0H907Z" />
<glyph unicode="v" glyph-name="v" horiz-adv-x="1239" d="M1241 989H1200Q1178 989 1163 983Q1143 975 1130 963Q1114 947 1100 918T1067 840L770 0H500L164 891Q148 928 139 938Q125 954 104 969Q84 981 59 985Q26 989 0 989V1098H635V989H549Q520 989 500 973Q482
959 481 924Q481 899 487 874Q491 858 500 834L637 446Q660 389 680 315Q700 245 709 197L723 254Q727 270 732 285T741 315Q749 346 757 370T768 406L907 817Q917 850 924 874Q930 902 930 930Q930 965 908 977T850 989H791V1098H1241V989Z" />
<glyph unicode="w" glyph-name="w" horiz-adv-x="1751" d="M1012 1087L1212 483Q1230 428 1247 358Q1259 309 1266 268H1272Q1274 282 1277 294T1282 317Q1284 331 1292 365Q1302 406 1307 420Q1325 481 1327 487L1417 786Q1419 792 1430 842Q1436 873 1436 889Q1436
940 1403 965Q1368 990 1300 989H1286V1098H1755V989H1729Q1700 989 1678 983T1639 961T1606 911Q1592 884 1575 829L1311 0H1090L866 680L631 0H408L145 881Q131 916 121 934Q109 954 90 967Q76 975 51 983Q28 989 0 989H-6V1098H594V989H567Q506 989 475 971T444
903Q444 878 449 862Q457 829 461 815L537 549Q549 500 555 473Q559 453 564 434T573 397Q579 372 588 328Q596 279 598 268H604Q612 311 629 373Q635 396 670 504L879 1087H1012Z" />
<glyph unicode="x" glyph-name="x" horiz-adv-x="1320" d="M891 928Q891 965 862 977Q835 989 786 989H780V1098H1253V989H1235Q1206 989 1182 983T1135 963Q1108 947 1085 924Q1073 912 1028 858L817 600L1118 217Q1165 158 1204 133Q1245 108 1282 109H1309V0H657V109H668Q791
109 791 176Q791 192 788 201Q786 211 776 227Q776 229 768 243T754 266L713 317L596 459L453 281Q439 261 422 229Q410 204 410 178Q410 145 438 127T537 109H543V0H23V109H41Q78 109 106 115Q129 121 158 137Q191 157 209 176Q223 190 264 240L522 551L264 881Q223
934 178 963Q137 990 88 989H61V1098H705V989H698Q669 989 641 985Q616 981 604 973Q594 965 588 953T582 930Q582 908 594 887Q610 860 629 836L743 696L840 813Q865 842 877 872Q891 905 891 928Z" />
<glyph unicode="y" glyph-name="y" horiz-adv-x="1185" d="M1186 1098V989Q1163 989 1130 981Q1105 975 1090 958Q1070 938 1055 911Q1035 874 1022 840L946 633L868 420L788 207L713 0Q668 -119 645 -174Q614 -248 578 -303Q539 -362 500 -395Q459 -430 400 -452T266
-483Q198 -491 90 -492H55V-373Q157 -373 238 -346Q314 -321 365 -272Q416 -225 449 -158Q486 -84 508 -10L139 891Q125 924 113 938T80 962T43 975Q29 977 0 977V1098H584V989Q527 989 489 973Q454 957 455 913Q455 905 463 872Q469 849 475 834L512 741Q532 690
551 639L586 543Q594 520 602 499T616 459Q632 416 641 389Q653 348 657 332Q665 299 668 285L674 242Q678 275 682 289L694 338Q696 348 702 362T709 379Q713 389 716 395T719 406L854 807Q854 809 856 814T860 823T862 831Q866 847 868 858Q872 878 872 885Q872
889 873 897T874 907Q874 952 836 971Q796 989 725 989V1098H1186Z" />
<glyph unicode="z" glyph-name="z" horiz-adv-x="1081" d="M754 139Q789 139 807 147Q832 157 844 176Q862 203 870 229Q880 262 889 305L901 371H1022L1012 0H37V84L641 958H342Q319 958 301 952Q289 948 272 928Q260 913 248 885Q240 869 225 815L213 766H90L115
1098H999V1010L393 139H754Z" />
<glyph unicode="{" glyph-name="braceleft" horiz-adv-x="903" d="M649 -256Q559 -256 498 -236Q428 -213 387 -174Q342 -131 322 -80Q299 -23 299 47V397Q299 454 281 491T229 551Q204 569 154 580Q125 586 61 590V715Q124 719 154 725Q205 735 229 754Q264 779
281 811Q299 848 299 905V1257Q299 1402 387 1479Q477 1557 649 1556H844V1448H764Q721 1448 693 1436T648 1397T625 1335Q619 1298 618 1249V901Q618 807 565 748Q513 690 393 662V645Q512 616 565 555Q618 492 618 403V53Q618 4 624 -33T647 -96Q661 -119 692
-133Q725 -147 764 -147H844V-256H649Z" />
<glyph unicode="|" glyph-name="bar" horiz-adv-x="1144" d="M645 -492H498V1556H645V-492Z" />
<glyph unicode="}" glyph-name="braceright" horiz-adv-x="903" d="M61 -256V-147H141Q180 -147 213 -133Q244 -119 258 -96Q274 -69 280 -33T287 53V403Q287 491 340 555Q393 616 512 645V662Q392 690 340 748Q287 807 287 901V1249Q287 1298 281 1335Q275 1370
259 1396T213 1435T141 1448H61V1556H256Q428 1556 518 1479Q606 1403 606 1257V905Q606 848 625 811Q641 778 676 754Q703 736 750 725Q779 719 844 715V590Q778 586 750 580Q703 570 676 551Q643 528 625 492T606 397V47Q606 -23 584 -80Q566 -129 516 -174Q473
-213 408 -236Q347 -256 256 -256H61Z" />
<glyph unicode="~" glyph-name="asciitilde" horiz-adv-x="1148" d="M541 664Q484 689 475 690Q469 692 459 696T441 702T426 707Q397 715 383 717T340 719Q317 719 283 709Q258 701 223 684Q203 674 166 645Q139 622 113 598V756Q211 865 360 864Q397 864 413
862T467 852Q495 846 528 834Q571 818 608 801Q618 797 641 788T674 774Q699 764 725 756Q739 752 768 748Q782 746 809 745Q842 745 868 754Q878 758 926 780Q946 790 983 819Q1012 839 1036 866V709Q938 600 788 600Q751 600 735 602T682 612Q654 618 621 631Q578
648 541 664Z" />
<glyph unicode="&#xa0;" glyph-name="uni00A0" horiz-adv-x="530" />
<glyph unicode="&#xa1;" glyph-name="exclamdown" horiz-adv-x="780" d="M569 -369H213L334 627H449L569 -369ZM557 993T557 946T545 869T508 817Q490 801 455 791Q428 783 389 783T324 791Q289 801 270 817Q247 835 236 868Q222 905 222 946T236 1024Q248 1053
270 1073T324 1102Q351 1110 389 1110T455 1102Q486 1094 508 1073Q535 1050 545 1024Q557 993 557 946Z" />
<glyph unicode="&#xa2;" glyph-name="cent" horiz-adv-x="1144" d="M571 170Q471 176 385 211Q301 246 242 313Q183 383 150 483T117 733T152 993Q187 1102 246 1167Q309 1237 389 1270Q465 1301 571 1311V1462H698V1311Q796 1305 854 1288Q920 1270 969 1241Q1012
1214 1038 1176Q1061 1143 1061 1098Q1061 1065 1049 1034Q1037 1001 1008 979Q973 952 928 938Q879 924 797 924Q797 981 793 1008Q785 1061 776 1083Q764 1116 746 1140T698 1178V322Q741 322 795 336Q840 348 879 371Q920 396 944 422Q973 455 991 487Q1018
471 1030 447T1042 393Q1042 356 1022 322Q997 281 958 252Q911 219 852 199Q784 176 698 170V0H571V170ZM430 735Q430 575 463 479Q496 385 571 346V1174Q534 1158 512 1128Q485 1093 467 1044Q451 997 440 915Q430 829 430 735Z" />
<glyph unicode="&#xa3;" glyph-name="sterling" horiz-adv-x="1144" d="M553 711L565 668Q573 645 575 629Q579 604 581 590T584 543Q584 381 399 262L406 252Q408 252 411 253T417 255T424 256Q432 258 453 262L489 268Q501 270 526 270Q553 270 565 268Q594
264 606 260Q612 258 627 253T651 246Q663 242 676 238T707 229Q732 221 788 207Q821 199 870 199Q944 199 993 240Q1045 283 1085 350V121Q1044 47 987 14Q928 -21 848 -20Q830 -20 784 -16Q757 -14 719 -6Q678 2 657 8Q608 22 604 25Q592 29 498 55Q447 69 401
70Q376 70 336 66Q303 62 276 53Q247 43 223 33L201 24Q178 15 168 8L78 -39V145L143 186Q198 225 209 233Q238 258 268 301Q295 340 313 389Q329 432 330 500Q330 559 317 608Q305 661 285 709H49V834H240Q236 842 233 851T224 871T217 891Q207 916 197 958Q185
1007 180 1034Q174 1073 174 1112Q174 1290 291 1386Q410 1482 629 1483Q738 1483 815 1464Q889 1446 942 1413Q989 1382 1012 1339Q1035 1294 1034 1245Q1034 1173 969 1126T778 1079Q778 1110 770 1176Q764 1227 745 1266Q727 1307 696 1331Q663 1358 614 1358Q536
1358 491 1301T446 1120Q446 1077 453 1038Q457 1005 469 961Q481 912 489 891Q505 850 514 834H877V709L553 711Z" />
<glyph unicode="&#xa4;" glyph-name="currency" horiz-adv-x="1144" d="M195 729Q195 782 211 842Q223 887 260 942L137 1065L240 1167L362 1044Q417 1077 459 1090Q514 1106 569 1106Q622 1106 678 1090Q727 1076 776 1042L903 1169L1006 1065L881 938Q912 892
930 840Q946 793 946 729Q946 674 930 618Q918 577 885 522L1006 401L903 299L782 420Q735 389 682 371Q633 355 569 354Q516 354 457 371Q410 383 358 418L240 299L135 403L254 522Q195 616 195 729ZM334 729Q334 680 352 637Q368 600 403 561Q432 528 477 510Q520
492 569 492Q620 492 664 510Q711 530 739 561Q770 596 788 637Q804 676 805 729Q805 784 788 823Q770 864 739 899Q710 930 664 950Q621 968 569 969Q520 969 477 950Q432 932 403 899Q368 860 352 823Q334 780 334 729Z" />
<glyph unicode="&#xa5;" glyph-name="yen" horiz-adv-x="1103" d="M195 0V109H242Q254 109 274 110T305 111Q334 111 358 121Q378 129 395 156Q409 179 410 225V338H123V459H410V578H123V698H375L133 1245Q115 1282 106 1296Q92 1321 80 1331Q70 1339 45 1348Q27
1354 0 1354H-6V1462H580V1354H565Q504 1354 475 1335Q448 1317 449 1274Q449 1245 457 1219Q463 1196 481 1153L559 958Q594 864 604 834Q620 779 631 731Q639 766 651 799Q659 819 667 839T684 881L770 1106Q774 1118 780 1137T791 1165Q799 1188 803 1210Q803
1212 806 1225T809 1245T810 1259T811 1272Q811 1311 782 1333Q755 1353 686 1354H680V1462H1106V1354H1100Q1077 1354 1055 1348Q1035 1342 1016 1323Q1004 1311 981 1274Q975 1262 944 1194L733 698H1001V578H715V459H1001V338H715V236Q715 191 729 162Q741 135
763 123T817 111Q827 111 848 110T883 109H930V0H195Z" />
<glyph unicode="&#xa6;" glyph-name="brokenbar" horiz-adv-x="1144" d="M645 737H498V1556H645V737ZM645 -492H498V328H645V-492Z" />
<glyph unicode="&#xa7;" glyph-name="section" horiz-adv-x="1112" d="M565 -231Q450 -231 373 -207T252 -147Q205 -110 187 -63T168 31Q168 66 182 100Q194 129 219 151T276 182Q313 192 350 193Q350 123 364 68T412 -33Q441 -74 487 -98Q530 -121 592 -121Q692
-121 745 -68Q800 -13 801 78Q801 119 788 152Q776 186 739 219Q712 244 633 291Q570 328 449 387Q361 432 303 471Q244 512 205 561Q168 607 150 659Q134 706 133 772Q133 842 170 897T266 983Q232 1020 205 1081Q178 1140 178 1227Q178 1305 209 1366Q242 1429
293 1470Q348 1513 420 1534Q498 1557 582 1556Q674 1556 741 1538Q813 1520 854 1491Q899 1462 924 1417Q949 1374 948 1323Q948 1264 897 1219Q848 1176 754 1176Q754 1227 745 1268Q735 1323 717 1356Q697 1395 662 1419T573 1444Q487 1444 434 1395Q383 1346
383 1251Q383 1206 399 1169Q413 1138 449 1110Q490 1077 524 1061Q538 1055 572 1038T627 1010Q746 953 813 911Q895 862 940 817Q987 770 1011 717T1036 598Q1036 565 1026 524Q1018 489 997 457Q972 416 956 399Q929 372 905 356Q942 311 958 256Q976 197 977
137Q977 61 950 -12Q925 -82 874 -129T745 -205Q671 -231 565 -231ZM836 526Q836 565 825 592Q811 629 787 655T709 719Q666 750 586 788Q561 800 539 810T501 828T459 850Q404 879 348 915Q332 895 324 874Q316 851 315 825Q315 780 330 750Q346 715 377 686Q410
657 467 625Q543 582 604 553L719 492Q789 453 809 438Q815 444 827 475Q836 493 836 526Z" />
<glyph unicode="&#xa8;" glyph-name="dieresis" horiz-adv-x="1181" d="M258 1376T258 1409T268 1468Q276 1488 295 1507Q311 1523 333 1529T379 1536Q406 1536 426 1530Q444 1524 465 1507Q483 1493 492 1468Q502 1441 502 1409T492 1350Q484 1325 465 1311Q445
1295 426 1288Q406 1282 379 1282Q356 1282 334 1288T295 1311Q277 1329 268 1350Q258 1376 258 1409ZM678 1376T678 1409T688 1468Q696 1493 715 1507Q735 1523 754 1530Q774 1536 801 1536Q824 1536 846 1530Q864 1524 885 1507Q903 1493 911 1468Q921 1441 921
1409T911 1350Q903 1325 885 1311Q865 1295 846 1288Q823 1282 801 1282Q774 1282 754 1288Q736 1294 715 1311Q697 1325 688 1350Q678 1376 678 1409Z" />
<glyph unicode="&#xa9;" glyph-name="copyright" horiz-adv-x="1730" d="M113 731Q113 840 139 932Q170 1034 215 1112Q266 1198 332 1264Q400 1332 485 1382Q565 1429 664 1458Q756 1485 864 1485T1065 1458Q1167 1427 1245 1382Q1325 1335 1396 1264T1516 1112Q1561
1034 1591 932Q1618 840 1618 732T1591 530Q1562 432 1516 352Q1465 266 1397 199Q1331 133 1245 82Q1167 37 1065 6Q973 -21 865 -21T664 6Q566 35 485 82Q395 135 332 198T215 352Q168 432 139 530Q113 622 113 731ZM225 815T225 731T248 561Q268 485 313 410Q364
326 411 279T543 180Q619 135 694 115Q780 92 864 92T1034 115Q1114 135 1188 180Q1266 227 1317 279Q1370 332 1417 410Q1462 486 1483 561Q1506 647 1506 731T1483 901Q1463 981 1418 1054T1317 1183T1188 1284T1034 1350Q948 1373 864 1373T694 1350Q618 1330
543 1284Q465 1237 412 1184Q361 1133 313 1055Q268 981 248 901Q225 815 225 731ZM901 365Q947 365 987 377Q1034 391 1061 410Q1096 435 1116 455Q1132 471 1153 504Q1163 496 1174 479Q1182 465 1182 440Q1182 409 1163 383Q1145 354 1104 330Q1065 305 1008
291Q953 277 874 276Q770 276 696 309Q614 344 567 401Q516 460 492 547Q465 637 465 733T494 915Q523 999 575 1059Q630 1120 713 1153Q793 1186 903 1186Q974 1186 1026 1174Q1081 1162 1114 1143Q1151 1123 1167 1098T1184 1040Q1184 1015 1174 999Q1162 981
1143 969Q1127 957 1098 950Q1073 944 1044 944Q1044 964 1036 1001Q1030 1029 1012 1051Q989 1078 967 1087Q939 1099 899 1100Q825 1100 776 1075Q723 1048 694 1006Q661 959 647 891Q633 828 633 733Q633 559 702 461Q770 365 901 365Z" />
<glyph unicode="&#xaa;" glyph-name="ordfeminine" horiz-adv-x="858" d="M295 991Q295 938 317 916T373 893Q436 893 467 932T498 1034V1118L451 1116Q369 1114 330 1081Q295 1052 295 991ZM416 1384Q393 1384 377 1374T352 1348Q346 1336 342 1307T338 1257Q229
1257 174 1278Q115 1301 115 1346Q115 1381 139 1405T205 1444Q252 1460 301 1466Q356 1472 420 1473Q578 1473 651 1425Q729 1376 729 1260V958Q729 912 748 897Q768 881 817 881V791H578L528 891H514Q502 877 473 848Q455 830 422 811Q395 797 358 786Q327 778
283 778Q183 778 119 831Q60 882 59 987Q59 1087 145 1137Q229 1184 406 1194L498 1198V1253Q498 1290 496 1307Q494 1330 483 1348Q475 1364 459 1374T416 1384Z" />
<glyph unicode="&#xab;" glyph-name="guillemotleft" horiz-adv-x="1134" d="M133 606L446 963H590L383 553L590 143H446L133 500V606ZM545 606L858 963H1001L795 553L1001 143H858L545 500V606Z" />
<glyph unicode="&#xac;" glyph-name="logicalnot" horiz-adv-x="1144" d="M1012 805V293H864V659H133V805H1012Z" />
<glyph unicode="&#xad;" glyph-name="uni00AD" horiz-adv-x="634" d="M51 451V666H584V451H51Z" />
<glyph unicode="&#xae;" glyph-name="registered" horiz-adv-x="1730" d="M477 358H504Q531 358 543 360Q551 362 573 371Q587 377 595 391T604 430V1030Q604 1055 596 1069T573 1090Q550 1098 543 1100Q531 1102 504 1102H477V1174H846Q1198 1174 1198 930Q1198
883 1182 844Q1168 811 1141 780Q1118 755 1081 735Q1052 719 1012 705L1194 412Q1200 400 1214 385Q1224 375 1237 369Q1247 365 1266 360Q1278 358 1309 358V289H1092L866 670H758V430Q762 403 768 391Q776 377 788 371Q802 365 821 360Q833 358 858 358H887V289H477V358ZM758
748H844Q899 748 936 760Q975 774 995 793Q1017 815 1026 848Q1036 885 1036 928Q1036 975 1024 1006Q1010 1045 991 1057Q964 1077 930 1085Q897 1093 838 1094H758V748ZM113 731Q113 840 139 932Q170 1034 215 1112Q266 1198 332 1264Q400 1332 485 1382Q565
1429 664 1458Q756 1485 864 1485T1065 1458Q1167 1427 1245 1382Q1325 1335 1396 1264T1516 1112Q1561 1034 1591 932Q1618 840 1618 732T1591 530Q1562 432 1516 352Q1465 266 1397 199Q1331 133 1245 82Q1167 37 1065 6Q973 -21 865 -21T664 6Q566 35 485 82Q395
135 332 198T215 352Q168 432 139 530Q113 622 113 731ZM225 815T225 731T248 561Q268 485 313 410Q364 326 411 279T543 180Q619 135 694 115Q780 92 864 92T1034 115Q1114 135 1188 180Q1266 227 1317 279Q1370 332 1417 410Q1462 486 1483 561Q1506 647 1506
731T1483 901Q1463 981 1418 1054T1317 1183T1188 1284T1034 1350Q948 1373 864 1373T694 1350Q618 1330 543 1284Q465 1237 412 1184Q361 1133 313 1055Q268 981 248 901Q225 815 225 731Z" />
<glyph unicode="&#xaf;" glyph-name="overscore" horiz-adv-x="937" d="M950 1556H-10V1677H950V1556Z" />
<glyph unicode="&#xb0;" glyph-name="degree" horiz-adv-x="817" d="M98 1085T98 1151T123 1272Q150 1331 188 1370Q231 1413 286 1437T408 1462Q476 1462 531 1438T629 1370Q668 1331 694 1272Q719 1217 719 1151T694 1030Q667 971 629 932T530 866Q475 841 408
842Q342 842 287 866Q228 893 189 932T123 1030Q98 1085 98 1151ZM240 1151Q240 1122 254 1085Q264 1060 289 1032Q309 1007 342 995Q377 981 407 981T475 995Q508 1007 528 1032Q557 1065 565 1085Q577 1116 578 1151Q578 1188 566 1218T528 1274Q505 1297 475
1309Q438 1323 408 1323T342 1309Q311 1297 289 1274Q269 1254 255 1219T240 1151Z" />
<glyph unicode="&#xb1;" glyph-name="plusminus" horiz-adv-x="1144" d="M1012 0H133V145H1012V0ZM645 659V293H498V659H133V805H498V1171H645V805H1012V659H645Z" />
<glyph unicode="&#xb2;" glyph-name="uni00B2" horiz-adv-x="817" d="M698 1264Q698 1221 686 1180Q674 1141 639 1096Q598 1043 549 999Q475 933 403 877L236 745H563Q606 745 624 763T649 813L659 868H735L727 586H76V733L301 922Q358 969 389 1008Q418 1045
442 1090Q460 1123 471 1169Q479 1204 479 1251Q479 1314 457 1354Q435 1391 383 1391Q349 1391 328 1372Q310 1356 296 1325T279 1260Q277 1235 276 1188Q242 1188 209 1194T150 1216T109 1255Q93 1282 92 1311Q92 1350 110 1380T168 1434Q215 1461 258 1470Q313
1482 383 1483Q471 1483 526 1468Q577 1456 623 1423Q660 1396 680 1354Q698 1315 698 1264Z" />
<glyph unicode="&#xb3;" glyph-name="uni00B3" horiz-adv-x="817" d="M479 1260Q479 1323 457 1358Q437 1391 383 1391Q350 1391 330 1376Q305 1360 295 1337Q283 1314 276 1280Q272 1260 272 1212Q243 1212 199 1217Q162 1221 141 1229Q116 1239 106 1255Q94
1273 94 1300Q94 1339 113 1372Q129 1403 170 1430Q205 1455 260 1468Q311 1482 387 1483Q459 1483 514 1468Q575 1452 612 1430Q653 1405 675 1366T698 1280Q698 1190 641 1133Q586 1078 489 1053V1042Q536 1036 580 1024Q627 1010 657 991Q692 968 712 934T733
842Q733 770 694 715Q659 666 598 633Q541 602 471 588Q405 574 338 573Q250 573 186 588Q114 604 80 623V729Q102 720 129 711Q164 701 188 694Q247 682 252 682Q293 678 313 678Q411 678 465 717Q520 757 520 846Q520 916 465 952T297 989H229V1085H297Q336 1085
369 1098Q400 1108 426 1133Q449 1153 465 1188Q479 1219 479 1260Z" />
<glyph unicode="&#xb4;" glyph-name="acute" horiz-adv-x="1181" d="M330 1268Q353 1297 379 1335L434 1413Q459 1450 487 1495Q516 1542 528 1569H850V1548Q836 1525 786 1481Q737 1434 688 1397L575 1311Q520 1270 469 1241H330V1268Z" />
<glyph unicode="&#xb5;" glyph-name="uni00B5" horiz-adv-x="1361" d="M573 -20Q493 -20 428 12Q367 43 328 100Q328 37 336 -57Q342 -123 365 -182Q385 -233 432 -270Q475 -303 547 -313Q547 -352 535 -385Q525 -412 496 -440Q469 -467 436 -479Q401 -491 358
-491T285 -477Q250 -461 223 -432Q198 -403 182 -350Q166 -295 166 -223Q166 -186 170 -96Q173 -28 176 51Q176 69 179 132T184 233Q190 436 190 461V1098H502V422Q502 383 510 317Q516 270 535 233Q555 192 582 174Q611 154 657 154Q700 154 735 176Q766 196 793
242Q822 291 831 342Q843 400 844 471V1098H1155V283Q1155 191 1190 150T1294 109H1309V0H1130Q1026 0 958 49Q888 100 864 178H854Q829 131 803 96Q770 51 743 33Q708 8 670 -6Q628 -20 573 -20Z" />
<glyph unicode="&#xb6;" glyph-name="paragraph" horiz-adv-x="1282" d="M860 1430H688V-227H346V-119H373Q398 -119 438 -115Q467 -113 491 -95T528 -49Q540 -20 541 27V791H395Q305 791 246 823T150 911Q115 964 98 1040Q82 1118 82 1192Q82 1282 98 1341Q116
1404 154 1456Q191 1505 252 1530Q320 1557 399 1556H1202V1448H1176Q1131 1448 1110 1444Q1075 1438 1057 1423Q1034 1407 1022 1378Q1008 1345 1008 1300V27Q1008 -16 1022 -49Q1034 -78 1057 -94Q1082 -112 1110 -115Q1151 -119 1176 -119H1202V-227H860V1430Z"
/>
<glyph unicode="&#xb7;" glyph-name="middot" horiz-adv-x="622" d="M143 680T143 727T155 805T193 856Q211 872 246 883Q273 891 311 891Q348 891 375 883Q410 873 428 856Q453 836 465 805Q479 770 479 727T465 649Q453 618 428 598Q410 582 375 571Q348 563
311 563Q272 563 246 571Q211 581 193 598Q168 618 156 649Z" />
<glyph unicode="&#xb8;" glyph-name="cedilla" horiz-adv-x="681" d="M571 -258Q571 -315 551 -356T492 -430Q459 -459 399 -475Q344 -491 281 -492H242Q234 -492 216 -489T195 -485L145 -479Q125 -477 102 -469V-344Q139 -353 176 -356Q225 -360 242 -360Q301
-360 334 -340T367 -266Q367 -233 356 -217Q344 -199 324 -186Q308 -178 274 -170Q254 -166 213 -162L256 18H373L352 -70Q403 -74 442 -88Q487 -106 512 -127Q541 -152 555 -184Q571 -221 571 -258Z" />
<glyph unicode="&#xb9;" glyph-name="uni00B9" horiz-adv-x="817" d="M528 1473V756Q528 729 535 715Q541 703 555 690Q563 684 586 680Q598 678 623 678H707V588H129V678H233Q260 678 270 680Q290 684 299 690Q313 702 319 715Q325 729 326 756V1337Q277 1279
240 1245Q201 1210 166 1210Q137 1210 117 1239T96 1311Q131 1319 178 1341T285 1405L377 1473H528Z" />
<glyph unicode="&#xba;" glyph-name="ordmasculine" horiz-adv-x="894" d="M311 1126Q311 1003 342 942T448 881T555 942T586 1126T555 1307Q524 1366 446 1366Q372 1366 342 1307Q311 1249 311 1126ZM823 1126Q823 950 727 864T446 778Q268 778 170 864T72 1126Q72
1300 168 1386Q263 1472 451 1473Q543 1473 606 1452Q672 1432 723 1386Q772 1343 797 1280Q823 1210 823 1126Z" />
<glyph unicode="&#xbb;" glyph-name="guillemotright" horiz-adv-x="1134" d="M1001 500L688 143H545L752 553L545 963H688L1001 606V500ZM590 500L276 143H133L340 553L133 963H276L590 606V500Z" />
<glyph unicode="&#xbc;" glyph-name="onequarter" horiz-adv-x="1718" d="M698 1473V756Q698 729 705 715Q711 703 725 690Q733 684 756 680Q768 678 793 678H877V588H299V678H403Q430 678 440 680Q460 684 469 690Q483 702 489 715Q495 729 496 756V1337Q447
1279 410 1245Q371 1210 336 1210Q307 1210 287 1239T266 1311Q301 1319 348 1341T455 1405L547 1473H698ZM578 0H418L1149 1462H1307L578 0ZM1522 239V168Q1522 148 1530 127Q1536 112 1548 102Q1556 96 1575 92Q1585 90 1608 90H1649V0H1178V90H1235Q1258 90
1268 92Q1286 96 1294 102Q1306 111 1313 127Q1319 141 1319 168V239H930V321L1337 885H1522V348H1681V239H1522ZM1319 594Q1319 637 1321 657Q1327 708 1329 727L1313 694Q1311 690 1306 682T1298 669L1065 348H1319V594Z" />
<glyph unicode="&#xbd;" glyph-name="onehalf" horiz-adv-x="1718" d="M698 1473V756Q698 729 705 715Q711 703 725 690Q733 684 756 680Q768 678 793 678H877V588H299V678H403Q430 678 440 680Q460 684 469 690Q483 702 489 715Q495 729 496 756V1337Q447 1279
410 1245Q371 1210 336 1210Q307 1210 287 1239T266 1311Q301 1319 348 1341T455 1405L547 1473H698ZM537 0H377L1108 1462H1266L537 0ZM1628 678Q1628 635 1616 594Q1604 555 1569 510Q1528 457 1479 413Q1405 347 1333 291L1166 159H1493Q1536 159 1554 177T1579
227L1589 282H1665L1657 0H1006V147L1231 336Q1288 383 1319 422Q1348 459 1372 504Q1390 537 1401 583Q1409 618 1409 665Q1409 728 1387 768Q1365 805 1313 805Q1279 805 1258 786Q1240 770 1226 739T1209 674Q1207 649 1206 602Q1172 602 1139 608T1080 630T1039
669Q1023 696 1022 725Q1022 764 1040 794T1098 848Q1145 875 1188 884Q1243 896 1313 897Q1401 897 1456 882Q1507 870 1553 837Q1590 810 1610 768Q1628 729 1628 678Z" />
<glyph unicode="&#xbe;" glyph-name="threequarters" horiz-adv-x="1718" d="M479 1260Q479 1323 457 1358Q437 1391 383 1391Q350 1391 330 1376Q305 1360 295 1337Q283 1314 276 1280Q272 1260 272 1212Q243 1212 199 1217Q162 1221 141 1229Q116 1239 106 1255Q94
1273 94 1300Q94 1339 113 1372Q129 1403 170 1430Q205 1455 260 1468Q311 1482 387 1483Q459 1483 514 1468Q575 1452 612 1430Q653 1405 675 1366T698 1280Q698 1190 641 1133Q586 1078 489 1053V1042Q536 1036 580 1024Q627 1010 657 991Q692 968 712 934T733
842Q733 770 694 715Q659 666 598 633Q541 602 471 588Q405 574 338 573Q250 573 186 588Q114 604 80 623V729Q102 720 129 711Q164 701 188 694Q247 682 252 682Q293 678 313 678Q411 678 465 717Q520 757 520 846Q520 916 465 952T297 989H229V1085H297Q336 1085
369 1098Q400 1108 426 1133Q449 1153 465 1188Q479 1219 479 1260ZM619 0H459L1190 1462H1348L619 0ZM1522 239V168Q1522 148 1530 127Q1536 112 1548 102Q1556 96 1575 92Q1585 90 1608 90H1649V0H1178V90H1235Q1258 90 1268 92Q1286 96 1294 102Q1306 111 1313
127Q1319 141 1319 168V239H930V321L1337 885H1522V348H1681V239H1522ZM1319 594Q1319 637 1321 657Q1327 708 1329 727L1313 694Q1311 690 1306 682T1298 669L1065 348H1319V594Z" />
<glyph unicode="&#xbf;" glyph-name="questiondown" horiz-adv-x="1124" d="M113 -14Q113 64 139 133Q162 192 215 252Q258 299 342 350Q414 393 520 438L561 625H686L727 373Q641 340 584 291T496 188Q461 127 451 74Q439 13 438 -47Q438 -102 446 -137T475 -207Q491
-236 526 -252Q559 -268 598 -268Q647 -268 676 -248Q709 -225 725 -193Q745 -154 754 -109Q762 -68 762 -10Q832 -10 879 -18Q932 -28 969 -45Q1010 -63 1030 -90T1051 -154Q1051 -201 1024 -248Q999 -291 946 -322Q889 -355 809 -373Q725 -391 614 -391Q514 -391
414 -365Q326 -340 256 -291Q188 -242 152 -172Q113 -98 113 -14ZM795 991T795 944T782 866Q770 833 748 815Q730 799 692 788Q665 780 627 780Q590 780 563 788Q528 798 510 815Q485 835 473 866Q459 901 459 944T473 1022Q483 1049 510 1071Q533 1091 563 1100Q590
1108 627 1108Q666 1108 692 1100Q725 1090 748 1071Q771 1051 782 1022Q795 991 795 944Z" />
<glyph unicode="&#xc0;" glyph-name="Agrave" horiz-adv-x="1540" d="M446 481L387 305Q387 303 371 246Q363 215 362 188Q362 168 371 154Q381 138 391 129Q399 123 420 115Q434 109 455 109H541V0H8V109H33Q61 109 82 115Q107 121 125 137Q139 149 162 182Q172
198 197 258L641 1462H922L1350 256Q1362 221 1382 184Q1398 153 1417 139Q1437 123 1458 117Q1487 109 1505 109H1542V0H866V109H946Q956 109 977 113Q989 115 1006 127Q1016 135 1026 152Q1034 166 1034 188Q1034 213 1028 236Q1020 265 1016 276L944 481H446ZM795
942L772 1016Q766 1036 761 1055T750 1094Q738 1135 727 1174Q721 1201 709 1249Q691 1188 688 1182Q676 1145 662 1106Q656 1086 650 1065T635 1026L610 952L489 606H903L795 942ZM758 1579Q707 1608 651 1649L539 1735Q490 1772 440 1819Q391 1864 377 1886V1907H698Q710
1880 739 1833L793 1751Q807 1726 848 1673Q860 1657 872 1640T897 1606V1579H758Z" />
<glyph unicode="&#xc1;" glyph-name="Aacute" horiz-adv-x="1540" d="M446 481L387 305Q387 303 371 246Q363 215 362 188Q362 168 371 154Q381 138 391 129Q399 123 420 115Q434 109 455 109H541V0H8V109H33Q61 109 82 115Q107 121 125 137Q139 149 162 182Q172
198 197 258L641 1462H922L1350 256Q1362 221 1382 184Q1398 153 1417 139Q1437 123 1458 117Q1487 109 1505 109H1542V0H866V109H946Q956 109 977 113Q989 115 1006 127Q1016 135 1026 152Q1034 166 1034 188Q1034 213 1028 236Q1020 265 1016 276L944 481H446ZM795
942L772 1016Q766 1036 761 1055T750 1094Q738 1135 727 1174Q721 1201 709 1249Q691 1188 688 1182Q676 1145 662 1106Q656 1086 650 1065T635 1026L610 952L489 606H903L795 942ZM641 1606Q664 1635 690 1673L745 1751Q770 1788 798 1833Q827 1880 839 1907H1161V1886Q1147
1863 1097 1819Q1048 1772 999 1735L886 1649Q831 1608 780 1579H641V1606Z" />
<glyph unicode="&#xc2;" glyph-name="Acircumflex" horiz-adv-x="1540" d="M446 481L387 305Q387 303 371 246Q363 215 362 188Q362 168 371 154Q381 138 391 129Q399 123 420 115Q434 109 455 109H541V0H8V109H33Q61 109 82 115Q107 121 125 137Q139 149 162
182Q172 198 197 258L641 1462H922L1350 256Q1362 221 1382 184Q1398 153 1417 139Q1437 123 1458 117Q1487 109 1505 109H1542V0H866V109H946Q956 109 977 113Q989 115 1006 127Q1016 135 1026 152Q1034 166 1034 188Q1034 213 1028 236Q1020 265 1016 276L944
481H446ZM795 942L772 1016Q766 1036 761 1055T750 1094Q738 1135 727 1174Q721 1201 709 1249Q691 1188 688 1182Q676 1145 662 1106Q656 1086 650 1065T635 1026L610 952L489 606H903L795 942ZM415 1606L471 1673L536 1751Q563 1786 596 1833Q629 1882 641 1907H917Q929
1882 962 1833Q995 1786 1022 1751L1085 1673L1142 1606V1579H1001L952 1618L890 1667L831 1716L778 1763L725 1716L665 1667Q651 1655 636 1643T606 1618L557 1579H415V1606Z" />
<glyph unicode="&#xc3;" glyph-name="Atilde" horiz-adv-x="1540" d="M446 481L387 305Q387 303 371 246Q363 215 362 188Q362 168 371 154Q381 138 391 129Q399 123 420 115Q434 109 455 109H541V0H8V109H33Q61 109 82 115Q107 121 125 137Q139 149 162 182Q172
198 197 258L641 1462H922L1350 256Q1362 221 1382 184Q1398 153 1417 139Q1437 123 1458 117Q1487 109 1505 109H1542V0H866V109H946Q956 109 977 113Q989 115 1006 127Q1016 135 1026 152Q1034 166 1034 188Q1034 213 1028 236Q1020 265 1016 276L944 481H446ZM795
942L772 1016Q766 1036 761 1055T750 1094Q738 1135 727 1174Q721 1201 709 1249Q691 1188 688 1182Q676 1145 662 1106Q656 1086 650 1065T635 1026L610 952L489 606H903L795 942ZM942 1774Q960 1774 980 1784T1011 1806Q1025 1824 1032 1841Q1040 1864 1042 1882H1175Q1171
1814 1153 1765Q1133 1714 1098 1669Q1065 1628 1020 1604T919 1579Q860 1579 819 1600Q756 1633 737 1643L665 1688Q632 1708 598 1708Q573 1708 557 1700Q543 1692 528 1675Q514 1657 508 1641Q500 1618 497 1600H364Q368 1668 387 1716Q407 1767 442 1813Q473
1852 522 1878Q569 1903 622 1903Q679 1903 721 1882Q797 1845 805 1839L876 1794Q909 1774 942 1774Z" />
<glyph unicode="&#xc4;" glyph-name="Adieresis" horiz-adv-x="1540" d="M446 481L387 305Q387 303 371 246Q363 215 362 188Q362 168 371 154Q381 138 391 129Q399 123 420 115Q434 109 455 109H541V0H8V109H33Q61 109 82 115Q107 121 125 137Q139 149 162 182Q172
198 197 258L641 1462H922L1350 256Q1362 221 1382 184Q1398 153 1417 139Q1437 123 1458 117Q1487 109 1505 109H1542V0H866V109H946Q956 109 977 113Q989 115 1006 127Q1016 135 1026 152Q1034 166 1034 188Q1034 213 1028 236Q1020 265 1016 276L944 481H446ZM795
942L772 1016Q766 1036 761 1055T750 1094Q738 1135 727 1174Q721 1201 709 1249Q691 1188 688 1182Q676 1145 662 1106Q656 1086 650 1065T635 1026L610 952L489 606H903L795 942ZM436 1714T436 1747T446 1806Q454 1826 473 1845Q489 1861 511 1867T557 1874Q584
1874 604 1868Q622 1862 643 1845Q661 1831 670 1806Q680 1779 680 1747T670 1688Q662 1663 643 1649Q623 1633 604 1626Q584 1620 557 1620Q534 1620 512 1626T473 1649Q455 1667 446 1688Q436 1714 436 1747ZM856 1714T856 1747T866 1806Q874 1831 893 1845Q913
1861 932 1868Q952 1874 979 1874Q1002 1874 1024 1868Q1042 1862 1063 1845Q1081 1831 1089 1806Q1099 1779 1099 1747T1089 1688Q1081 1663 1063 1649Q1043 1633 1024 1626Q1001 1620 979 1620Q952 1620 932 1626Q914 1632 893 1649Q875 1663 866 1688Q856 1714
856 1747Z" />
<glyph unicode="&#xc5;" glyph-name="Aring" horiz-adv-x="1540" d="M446 481L387 305Q387 303 371 246Q363 215 362 188Q362 168 371 154Q381 138 391 129Q399 123 420 115Q434 109 455 109H541V0H8V109H33Q61 109 82 115Q107 121 125 137Q139 149 162 182Q172
198 197 258L641 1462H922L1350 256Q1362 221 1382 184Q1398 153 1417 139Q1437 123 1458 117Q1487 109 1505 109H1542V0H866V109H946Q956 109 977 113Q989 115 1006 127Q1016 135 1026 152Q1034 166 1034 188Q1034 213 1028 236Q1020 265 1016 276L944 481H446ZM795
942L772 1016Q766 1036 761 1055T750 1094Q738 1135 727 1174Q721 1201 709 1249Q691 1188 688 1182Q676 1145 662 1106Q656 1086 650 1065T635 1026L610 952L489 606H903L795 942ZM1024 1626T1024 1573T1005 1477Q989 1436 952 1407Q917 1378 874 1364T778 1350T682
1364T604 1407Q567 1436 551 1477Q533 1520 533 1573T551 1669Q567 1710 604 1739Q639 1768 682 1782T778 1796T874 1782T952 1739Q989 1710 1005 1669Q1024 1626 1024 1573ZM899 1573Q899 1600 889 1624Q879 1647 865 1659T825 1677Q802 1683 778 1683T731 1677Q706
1671 692 1659T667 1624Q657 1599 657 1573T667 1522Q677 1499 691 1487T731 1468Q754 1462 778 1462T825 1468Q850 1474 864 1486T889 1522Q899 1546 899 1573Z" />
<glyph unicode="&#xc6;" glyph-name="AE" horiz-adv-x="2033" d="M1270 125H1679Q1712 125 1733 137Q1756 149 1769 170Q1787 197 1796 219Q1802 239 1810 281L1827 377H1968L1954 0H754V109H840Q895 109 920 143Q945 176 944 231V469H473L387 297Q377 283 362
236Q354 211 354 188Q354 145 385 127T477 109H512V0H0V109H25Q80 109 121 147Q160 184 207 268L782 1343L647 1354V1462H1890L1898 1085H1755L1745 1182Q1735 1258 1706 1296Q1675 1337 1614 1337H1270V825H1755V702H1270V125ZM924 1337L539 592H944V1337H924Z"
/>
<glyph unicode="&#xc7;" glyph-name="Ccedilla" horiz-adv-x="1366" d="M870 143Q952 143 1004 160Q1059 176 1108 207Q1154 235 1188 268Q1227 307 1249 338Q1264 326 1274 301Q1284 274 1284 250Q1284 209 1262 160Q1239 113 1184 72Q1127 29 1040 6Q944 -21
821 -20Q643 -20 510 35Q375 92 289 186T158 426T113 733Q113 901 158 1036Q205 1179 291 1274Q380 1372 512 1427T819 1483Q938 1483 1024 1464Q1106 1448 1169 1413Q1230 1380 1257 1339Q1286 1294 1286 1245Q1286 1210 1270 1174Q1258 1145 1221 1118Q1186 1091
1141 1081Q1084 1067 1030 1067Q1030 1128 1020 1169Q1008 1222 981 1260Q948 1305 911 1327Q868 1352 805 1352Q711 1352 641 1311T533 1192T476 998T457 733Q457 590 479 473Q499 364 551 289Q598 217 677 180T870 143ZM962 -258Q962 -315 942 -356T883 -430Q850
-459 790 -475Q735 -491 672 -492H633Q625 -492 607 -489T586 -485L536 -479Q516 -477 493 -469V-344Q530 -353 567 -356Q616 -360 633 -360Q692 -360 725 -340T758 -266Q758 -233 747 -217Q735 -199 715 -186Q699 -178 665 -170Q645 -166 604 -162L647 18H764L743
-70Q794 -74 833 -88Q878 -106 903 -127Q932 -152 946 -184Q962 -221 962 -258Z" />
<glyph unicode="&#xc8;" glyph-name="Egrave" horiz-adv-x="1335" d="M573 125H983Q1016 125 1036 137Q1059 149 1073 170Q1091 197 1100 219Q1106 239 1114 281L1130 377H1272L1257 0H57V109H143Q159 109 184 113Q200 115 217 129Q229 139 240 166Q248 189 248
231V1221Q248 1268 240 1290Q230 1319 217 1331Q201 1347 184 1350Q159 1354 143 1354H57V1462H1194L1202 1085H1059L1049 1182Q1039 1262 1012 1296Q981 1337 918 1337H573V825H1059V702H573V125ZM688 1579Q637 1608 581 1649L469 1735Q420 1772 370 1819Q321
1864 307 1886V1907H628Q640 1880 669 1833L723 1751Q737 1726 778 1673Q790 1657 802 1640T827 1606V1579H688Z" />
<glyph unicode="&#xc9;" glyph-name="Eacute" horiz-adv-x="1335" d="M573 125H983Q1016 125 1036 137Q1059 149 1073 170Q1091 197 1100 219Q1106 239 1114 281L1130 377H1272L1257 0H57V109H143Q159 109 184 113Q200 115 217 129Q229 139 240 166Q248 189 248
231V1221Q248 1268 240 1290Q230 1319 217 1331Q201 1347 184 1350Q159 1354 143 1354H57V1462H1194L1202 1085H1059L1049 1182Q1039 1262 1012 1296Q981 1337 918 1337H573V825H1059V702H573V125ZM523 1606Q546 1635 572 1673L627 1751Q652 1788 680 1833Q709
1880 721 1907H1043V1886Q1029 1863 979 1819Q930 1772 881 1735L768 1649Q713 1608 662 1579H523V1606Z" />
<glyph unicode="&#xca;" glyph-name="Ecircumflex" horiz-adv-x="1335" d="M573 125H983Q1016 125 1036 137Q1059 149 1073 170Q1091 197 1100 219Q1106 239 1114 281L1130 377H1272L1257 0H57V109H143Q159 109 184 113Q200 115 217 129Q229 139 240 166Q248 189
248 231V1221Q248 1268 240 1290Q230 1319 217 1331Q201 1347 184 1350Q159 1354 143 1354H57V1462H1194L1202 1085H1059L1049 1182Q1039 1262 1012 1296Q981 1337 918 1337H573V825H1059V702H573V125ZM288 1606L344 1673L409 1751Q436 1786 469 1833Q502 1882
514 1907H790Q802 1882 835 1833Q868 1786 895 1751L958 1673L1015 1606V1579H874L825 1618L763 1667L704 1716L651 1763L598 1716L538 1667Q524 1655 509 1643T479 1618L430 1579H288V1606Z" />
<glyph unicode="&#xcb;" glyph-name="Edieresis" horiz-adv-x="1335" d="M573 125H983Q1016 125 1036 137Q1059 149 1073 170Q1091 197 1100 219Q1106 239 1114 281L1130 377H1272L1257 0H57V109H143Q159 109 184 113Q200 115 217 129Q229 139 240 166Q248 189
248 231V1221Q248 1268 240 1290Q230 1319 217 1331Q201 1347 184 1350Q159 1354 143 1354H57V1462H1194L1202 1085H1059L1049 1182Q1039 1262 1012 1296Q981 1337 918 1337H573V825H1059V702H573V125ZM356 1714T356 1747T366 1806Q374 1826 393 1845Q409 1861
431 1867T477 1874Q504 1874 524 1868Q542 1862 563 1845Q581 1831 590 1806Q600 1779 600 1747T590 1688Q582 1663 563 1649Q543 1633 524 1626Q504 1620 477 1620Q454 1620 432 1626T393 1649Q375 1667 366 1688Q356 1714 356 1747ZM776 1714T776 1747T786 1806Q794
1831 813 1845Q833 1861 852 1868Q872 1874 899 1874Q922 1874 944 1868Q962 1862 983 1845Q1001 1831 1009 1806Q1019 1779 1019 1747T1009 1688Q1001 1663 983 1649Q963 1633 944 1626Q921 1620 899 1620Q872 1620 852 1626Q834 1632 813 1649Q795 1663 786 1688Q776
1714 776 1747Z" />
<glyph unicode="&#xcc;" glyph-name="Igrave" horiz-adv-x="819" d="M57 0V109H143Q159 109 184 113Q200 115 217 131Q229 143 240 172Q248 195 248 242V1221Q248 1268 240 1290Q230 1317 217 1329Q201 1345 184 1348Q147 1354 143 1354H57V1462H764V1354H678Q674
1354 637 1348Q617 1344 602 1329Q592 1319 582 1290Q574 1267 573 1221V242Q573 195 582 172Q594 139 602 131Q616 117 637 113Q662 109 678 109H764V0H57ZM428 1579Q377 1608 321 1649L209 1735Q160 1772 110 1819Q61 1864 47 1886V1907H368Q380 1880 409 1833L463
1751Q477 1726 518 1673Q530 1657 542 1640T567 1606V1579H428Z" />
<glyph unicode="&#xcd;" glyph-name="Iacute" horiz-adv-x="819" d="M57 0V109H143Q159 109 184 113Q200 115 217 131Q229 143 240 172Q248 195 248 242V1221Q248 1268 240 1290Q230 1317 217 1329Q201 1345 184 1348Q147 1354 143 1354H57V1462H764V1354H678Q674
1354 637 1348Q617 1344 602 1329Q592 1319 582 1290Q574 1267 573 1221V242Q573 195 582 172Q594 139 602 131Q616 117 637 113Q662 109 678 109H764V0H57ZM252 1606Q275 1635 301 1673L356 1751Q381 1788 409 1833Q438 1880 450 1907H772V1886Q758 1863 708 1819Q659
1772 610 1735L497 1649Q442 1608 391 1579H252V1606Z" />
<glyph unicode="&#xce;" glyph-name="Icircumflex" horiz-adv-x="819" d="M57 0V109H143Q159 109 184 113Q200 115 217 131Q229 143 240 172Q248 195 248 242V1221Q248 1268 240 1290Q230 1317 217 1329Q201 1345 184 1348Q147 1354 143 1354H57V1462H764V1354H678Q674
1354 637 1348Q617 1344 602 1329Q592 1319 582 1290Q574 1267 573 1221V242Q573 195 582 172Q594 139 602 131Q616 117 637 113Q662 109 678 109H764V0H57ZM49 1606L105 1673L170 1751Q197 1786 230 1833Q263 1882 275 1907H551Q563 1882 596 1833Q629 1786 656
1751L719 1673L776 1606V1579H635L586 1618L524 1667L465 1716L412 1763L359 1716L299 1667Q285 1655 270 1643T240 1618L191 1579H49V1606Z" />
<glyph unicode="&#xcf;" glyph-name="Idieresis" horiz-adv-x="819" d="M57 0V109H143Q159 109 184 113Q200 115 217 131Q229 143 240 172Q248 195 248 242V1221Q248 1268 240 1290Q230 1317 217 1329Q201 1345 184 1348Q147 1354 143 1354H57V1462H764V1354H678Q674
1354 637 1348Q617 1344 602 1329Q592 1319 582 1290Q574 1267 573 1221V242Q573 195 582 172Q594 139 602 131Q616 117 637 113Q662 109 678 109H764V0H57ZM80 1714T80 1747T90 1806Q98 1826 117 1845Q133 1861 155 1867T201 1874Q228 1874 248 1868Q266 1862
287 1845Q305 1831 314 1806Q324 1779 324 1747T314 1688Q306 1663 287 1649Q267 1633 248 1626Q228 1620 201 1620Q178 1620 156 1626T117 1649Q99 1667 90 1688Q80 1714 80 1747ZM500 1714T500 1747T510 1806Q518 1831 537 1845Q557 1861 576 1868Q596 1874 623
1874Q646 1874 668 1868Q686 1862 707 1845Q725 1831 733 1806Q743 1779 743 1747T733 1688Q725 1663 707 1649Q687 1633 668 1626Q645 1620 623 1620Q596 1620 576 1626Q558 1632 537 1649Q519 1663 510 1688Q500 1714 500 1747Z" />
<glyph unicode="&#xd0;" glyph-name="Eth" horiz-adv-x="1570" d="M1458 758Q1458 592 1411 451Q1364 312 1274 212T1047 55Q912 0 733 0H57V109H143Q159 109 184 113Q200 115 217 131Q229 143 240 172Q248 195 248 242V702H78V827H248V1229Q248 1272 240 1294Q230
1321 217 1331Q197 1347 184 1350Q159 1354 143 1354H57V1462H733Q897 1462 1038 1417Q1171 1374 1266 1284Q1362 1190 1409 1065Q1458 933 1458 758ZM1112 758Q1112 1049 1004 1194Q898 1337 688 1337H571V827H827V702H571V127H686Q790 127 870 170T1004 297Q1061
387 1085 494Q1112 606 1112 758Z" />
<glyph unicode="&#xd1;" glyph-name="Ntilde" horiz-adv-x="1613" d="M1200 0L401 1128V242Q401 195 410 172Q420 143 432 131Q448 115 465 113Q490 109 506 109H592V0H57V109H143Q159 109 184 113Q200 115 217 131Q229 143 240 172Q248 195 248 242V1229Q248
1272 240 1294Q230 1321 217 1331Q197 1347 182 1350Q157 1354 143 1354H57V1462H512L1235 440V1229Q1235 1272 1227 1294Q1217 1321 1204 1331Q1184 1347 1169 1350Q1144 1354 1130 1354H1044V1462H1579V1354H1493Q1477 1354 1452 1350Q1436 1348 1419 1331Q1407
1319 1397 1290Q1389 1267 1389 1221V0H1200ZM998 1774Q1016 1774 1036 1784T1067 1806Q1081 1824 1088 1841Q1096 1864 1098 1882H1231Q1227 1814 1209 1765Q1189 1714 1154 1669Q1121 1628 1076 1604T975 1579Q916 1579 875 1600Q812 1633 793 1643L721 1688Q688
1708 654 1708Q629 1708 613 1700Q599 1692 584 1675Q570 1657 564 1641Q556 1618 553 1600H420Q424 1668 443 1716Q463 1767 498 1813Q529 1852 578 1878Q625 1903 678 1903Q735 1903 777 1882Q853 1845 861 1839L932 1794Q965 1774 998 1774Z" />
<glyph unicode="&#xd2;" glyph-name="Ograve" horiz-adv-x="1611" d="M1499 733Q1499 561 1454 426Q1407 283 1319 186Q1233 90 1102 35Q973 -20 807 -20Q631 -20 502 35Q367 92 285 186Q201 282 156 426Q113 565 113 735T156 1044Q199 1181 285 1279T502 1431T809
1485Q973 1485 1104 1432Q1229 1381 1321 1280Q1407 1186 1454 1042Q1499 907 1499 733ZM457 733Q457 586 475 471T537 276Q580 198 645 156Q713 113 807 113T969 156Q1039 201 1077 276Q1118 358 1137 471Q1155 586 1155 733T1137 995Q1119 1108 1077 1190Q1040
1266 971 1311Q910 1352 810 1352T645 1311Q579 1268 537 1190Q494 1110 476 995T457 733ZM813 1579Q762 1608 706 1649L594 1735Q545 1772 495 1819Q446 1864 432 1886V1907H753Q765 1880 794 1833L848 1751Q862 1726 903 1673Q915 1657 927 1640T952 1606V1579H813Z"
/>
<glyph unicode="&#xd3;" glyph-name="Oacute" horiz-adv-x="1611" d="M1499 733Q1499 561 1454 426Q1407 283 1319 186Q1233 90 1102 35Q973 -20 807 -20Q631 -20 502 35Q367 92 285 186Q201 282 156 426Q113 565 113 735T156 1044Q199 1181 285 1279T502 1431T809
1485Q973 1485 1104 1432Q1229 1381 1321 1280Q1407 1186 1454 1042Q1499 907 1499 733ZM457 733Q457 586 475 471T537 276Q580 198 645 156Q713 113 807 113T969 156Q1039 201 1077 276Q1118 358 1137 471Q1155 586 1155 733T1137 995Q1119 1108 1077 1190Q1040
1266 971 1311Q910 1352 810 1352T645 1311Q579 1268 537 1190Q494 1110 476 995T457 733ZM666 1606Q689 1635 715 1673L770 1751Q795 1788 823 1833Q852 1880 864 1907H1186V1886Q1172 1863 1122 1819Q1073 1772 1024 1735L911 1649Q856 1608 805 1579H666V1606Z"
/>
<glyph unicode="&#xd4;" glyph-name="Ocircumflex" horiz-adv-x="1611" d="M1499 733Q1499 561 1454 426Q1407 283 1319 186Q1233 90 1102 35Q973 -20 807 -20Q631 -20 502 35Q367 92 285 186Q201 282 156 426Q113 565 113 735T156 1044Q199 1181 285 1279T502
1431T809 1485Q973 1485 1104 1432Q1229 1381 1321 1280Q1407 1186 1454 1042Q1499 907 1499 733ZM457 733Q457 586 475 471T537 276Q580 198 645 156Q713 113 807 113T969 156Q1039 201 1077 276Q1118 358 1137 471Q1155 586 1155 733T1137 995Q1119 1108 1077
1190Q1040 1266 971 1311Q910 1352 810 1352T645 1311Q579 1268 537 1190Q494 1110 476 995T457 733ZM440 1606L496 1673L561 1751Q588 1786 621 1833Q654 1882 666 1907H942Q954 1882 987 1833Q1020 1786 1047 1751L1110 1673L1167 1606V1579H1026L977 1618L915
1667L856 1716L803 1763L750 1716L690 1667Q676 1655 661 1643T631 1618L582 1579H440V1606Z" />
<glyph unicode="&#xd5;" glyph-name="Otilde" horiz-adv-x="1611" d="M1499 733Q1499 561 1454 426Q1407 283 1319 186Q1233 90 1102 35Q973 -20 807 -20Q631 -20 502 35Q367 92 285 186Q201 282 156 426Q113 565 113 735T156 1044Q199 1181 285 1279T502 1431T809
1485Q973 1485 1104 1432Q1229 1381 1321 1280Q1407 1186 1454 1042Q1499 907 1499 733ZM457 733Q457 586 475 471T537 276Q580 198 645 156Q713 113 807 113T969 156Q1039 201 1077 276Q1118 358 1137 471Q1155 586 1155 733T1137 995Q1119 1108 1077 1190Q1040
1266 971 1311Q910 1352 810 1352T645 1311Q579 1268 537 1190Q494 1110 476 995T457 733ZM975 1774Q993 1774 1013 1784T1044 1806Q1058 1824 1065 1841Q1073 1864 1075 1882H1208Q1204 1814 1186 1765Q1166 1714 1131 1669Q1098 1628 1053 1604T952 1579Q893
1579 852 1600Q789 1633 770 1643L698 1688Q665 1708 631 1708Q606 1708 590 1700Q576 1692 561 1675Q547 1657 541 1641Q533 1618 530 1600H397Q401 1668 420 1716Q440 1767 475 1813Q506 1852 555 1878Q602 1903 655 1903Q712 1903 754 1882Q830 1845 838 1839L909
1794Q942 1774 975 1774Z" />
<glyph unicode="&#xd6;" glyph-name="Odieresis" horiz-adv-x="1611" d="M1499 733Q1499 561 1454 426Q1407 283 1319 186Q1233 90 1102 35Q973 -20 807 -20Q631 -20 502 35Q367 92 285 186Q201 282 156 426Q113 565 113 735T156 1044Q199 1181 285 1279T502 1431T809
1485Q973 1485 1104 1432Q1229 1381 1321 1280Q1407 1186 1454 1042Q1499 907 1499 733ZM457 733Q457 586 475 471T537 276Q580 198 645 156Q713 113 807 113T969 156Q1039 201 1077 276Q1118 358 1137 471Q1155 586 1155 733T1137 995Q1119 1108 1077 1190Q1040
1266 971 1311Q910 1352 810 1352T645 1311Q579 1268 537 1190Q494 1110 476 995T457 733ZM463 1714T463 1747T473 1806Q481 1826 500 1845Q516 1861 538 1867T584 1874Q611 1874 631 1868Q649 1862 670 1845Q688 1831 697 1806Q707 1779 707 1747T697 1688Q689
1663 670 1649Q650 1633 631 1626Q611 1620 584 1620Q561 1620 539 1626T500 1649Q482 1667 473 1688Q463 1714 463 1747ZM883 1714T883 1747T893 1806Q901 1831 920 1845Q940 1861 959 1868Q979 1874 1006 1874Q1029 1874 1051 1868Q1069 1862 1090 1845Q1108
1831 1116 1806Q1126 1779 1126 1747T1116 1688Q1108 1663 1090 1649Q1070 1633 1051 1626Q1028 1620 1006 1620Q979 1620 959 1626Q941 1632 920 1649Q902 1663 893 1688Q883 1714 883 1747Z" />
<glyph unicode="&#xd7;" glyph-name="multiply" horiz-adv-x="1144" d="M571 631L270 328L166 432L467 735L166 1036L270 1139L571 838L872 1141L977 1036L674 733L977 430L874 328L571 631Z" />
<glyph unicode="&#xd8;" glyph-name="Oslash" horiz-adv-x="1611" d="M1499 733Q1499 561 1454 426Q1407 283 1319 186Q1233 90 1102 35Q973 -20 807 -20Q635 -20 504 33L442 -82H297L391 92Q250 188 182 352Q112 522 113 735Q113 905 156 1044Q199 1181 285 1279T502
1431T809 1485Q899 1485 969 1470Q1049 1454 1110 1427L1174 1546H1317L1221 1368Q1358 1272 1427 1110Q1499 944 1499 733ZM457 733Q457 598 471 504Q487 395 516 324L1022 1266Q987 1305 930 1329Q875 1352 809 1352Q709 1352 645 1311Q579 1268 537 1190Q494
1110 476 995T457 733ZM1155 733Q1155 866 1141 961Q1125 1065 1098 1141L592 197Q631 156 684 133Q733 113 807 113Q901 113 969 156Q1039 201 1077 276Q1118 358 1137 471Q1155 586 1155 733Z" />
<glyph unicode="&#xd9;" glyph-name="Ugrave" horiz-adv-x="1529" d="M1497 1354H1409Q1393 1354 1368 1350Q1352 1348 1335 1331Q1323 1319 1313 1290Q1305 1267 1305 1221V422Q1305 316 1276 238Q1247 158 1184 98Q1125 41 1024 10Q926 -21 793 -20Q666 -20
553 6Q449 31 375 86Q307 137 264 231Q225 317 225 446V1229Q225 1272 217 1294Q208 1319 193 1331Q173 1347 160 1350Q135 1354 121 1354H33V1462H739V1354H653Q637 1354 612 1350Q596 1348 580 1331Q568 1319 557 1290Q549 1267 549 1221V430Q549 346 571 285Q591
232 633 193Q672 158 727 141Q786 125 854 125T977 143Q1034 161 1071 196T1130 291Q1150 346 1151 426V1229Q1151 1272 1143 1294Q1133 1321 1120 1331Q1100 1347 1087 1350Q1062 1354 1047 1354H961V1462H1497V1354ZM813 1579Q762 1608 706 1649L594 1735Q545
1772 495 1819Q446 1864 432 1886V1907H753Q765 1880 794 1833L848 1751Q862 1726 903 1673Q915 1657 927 1640T952 1606V1579H813Z" />
<glyph unicode="&#xda;" glyph-name="Uacute" horiz-adv-x="1529" d="M1497 1354H1409Q1393 1354 1368 1350Q1352 1348 1335 1331Q1323 1319 1313 1290Q1305 1267 1305 1221V422Q1305 316 1276 238Q1247 158 1184 98Q1125 41 1024 10Q926 -21 793 -20Q666 -20
553 6Q449 31 375 86Q307 137 264 231Q225 317 225 446V1229Q225 1272 217 1294Q208 1319 193 1331Q173 1347 160 1350Q135 1354 121 1354H33V1462H739V1354H653Q637 1354 612 1350Q596 1348 580 1331Q568 1319 557 1290Q549 1267 549 1221V430Q549 346 571 285Q591
232 633 193Q672 158 727 141Q786 125 854 125T977 143Q1034 161 1071 196T1130 291Q1150 346 1151 426V1229Q1151 1272 1143 1294Q1133 1321 1120 1331Q1100 1347 1087 1350Q1062 1354 1047 1354H961V1462H1497V1354ZM643 1606Q666 1635 692 1673L747 1751Q772
1788 800 1833Q829 1880 841 1907H1163V1886Q1149 1863 1099 1819Q1050 1772 1001 1735L888 1649Q833 1608 782 1579H643V1606Z" />
<glyph unicode="&#xdb;" glyph-name="Ucircumflex" horiz-adv-x="1529" d="M1497 1354H1409Q1393 1354 1368 1350Q1352 1348 1335 1331Q1323 1319 1313 1290Q1305 1267 1305 1221V422Q1305 316 1276 238Q1247 158 1184 98Q1125 41 1024 10Q926 -21 793 -20Q666
-20 553 6Q449 31 375 86Q307 137 264 231Q225 317 225 446V1229Q225 1272 217 1294Q208 1319 193 1331Q173 1347 160 1350Q135 1354 121 1354H33V1462H739V1354H653Q637 1354 612 1350Q596 1348 580 1331Q568 1319 557 1290Q549 1267 549 1221V430Q549 346 571
285Q591 232 633 193Q672 158 727 141Q786 125 854 125T977 143Q1034 161 1071 196T1130 291Q1150 346 1151 426V1229Q1151 1272 1143 1294Q1133 1321 1120 1331Q1100 1347 1087 1350Q1062 1354 1047 1354H961V1462H1497V1354ZM454 1606L510 1673L575 1751Q602
1786 635 1833Q668 1882 680 1907H956Q968 1882 1001 1833Q1034 1786 1061 1751L1124 1673L1181 1606V1579H1040L991 1618L929 1667L870 1716L817 1763L764 1716L704 1667Q690 1655 675 1643T645 1618L596 1579H454V1606Z" />
<glyph unicode="&#xdc;" glyph-name="Udieresis" horiz-adv-x="1529" d="M1497 1354H1409Q1393 1354 1368 1350Q1352 1348 1335 1331Q1323 1319 1313 1290Q1305 1267 1305 1221V422Q1305 316 1276 238Q1247 158 1184 98Q1125 41 1024 10Q926 -21 793 -20Q666 -20
553 6Q449 31 375 86Q307 137 264 231Q225 317 225 446V1229Q225 1272 217 1294Q208 1319 193 1331Q173 1347 160 1350Q135 1354 121 1354H33V1462H739V1354H653Q637 1354 612 1350Q596 1348 580 1331Q568 1319 557 1290Q549 1267 549 1221V430Q549 346 571 285Q591
232 633 193Q672 158 727 141Q786 125 854 125T977 143Q1034 161 1071 196T1130 291Q1150 346 1151 426V1229Q1151 1272 1143 1294Q1133 1321 1120 1331Q1100 1347 1087 1350Q1062 1354 1047 1354H961V1462H1497V1354ZM494 1714T494 1747T504 1806Q512 1826 531
1845Q547 1861 569 1867T615 1874Q642 1874 662 1868Q680 1862 701 1845Q719 1831 728 1806Q738 1779 738 1747T728 1688Q720 1663 701 1649Q681 1633 662 1626Q642 1620 615 1620Q592 1620 570 1626T531 1649Q513 1667 504 1688Q494 1714 494 1747ZM914 1714T914
1747T924 1806Q932 1831 951 1845Q971 1861 990 1868Q1010 1874 1037 1874Q1060 1874 1082 1868Q1100 1862 1121 1845Q1139 1831 1147 1806Q1157 1779 1157 1747T1147 1688Q1139 1663 1121 1649Q1101 1633 1082 1626Q1059 1620 1037 1620Q1010 1620 990 1626Q972
1632 951 1649Q933 1663 924 1688Q914 1714 914 1747Z" />
<glyph unicode="&#xdd;" glyph-name="Yacute" horiz-adv-x="1417" d="M336 0V109H432Q450 109 479 113Q502 117 516 127Q530 139 540 166T551 233V518L172 1245Q168 1253 143 1296Q133 1314 115 1329Q100 1341 78 1348Q58 1354 27 1354H0V1462H686V1354H651Q590
1354 559 1330T528 1262Q528 1233 537 1206Q545 1175 559 1149L711 848Q748 768 764 733L801 635Q809 658 850 752Q881 824 911 885L1030 1130Q1055 1181 1059 1206Q1065 1237 1065 1253Q1065 1304 1032 1329T930 1354H883V1462H1419V1354H1380Q1353 1354 1335
1348Q1315 1342 1300 1323Q1282 1300 1266 1274Q1260 1264 1225 1194L877 516V236Q877 193 887 166T911 127T946 113Q975 109 991 109H1092V0H336ZM602 1606Q625 1635 651 1673L706 1751Q731 1788 759 1833Q788 1880 800 1907H1122V1886Q1108 1863 1058 1819Q1009
1772 960 1735L847 1649Q792 1608 741 1579H602V1606Z" />
<glyph unicode="&#xde;" glyph-name="Thorn" horiz-adv-x="1306" d="M571 410H621Q698 410 750 428Q799 444 836 489Q869 528 885 596Q901 666 901 752Q901 824 887 895Q875 954 844 995Q813 1034 768 1053Q717 1073 651 1073H571V410ZM1245 760Q1245 676 1212
584Q1181 498 1110 432Q1047 373 922 330Q811 291 641 291H571V231Q575 184 582 166Q591 141 606 129Q622 115 639 113Q664 109 680 109H764V0H57V109H143Q159 109 184 113Q200 115 217 131Q229 143 240 172Q248 195 248 242V1221Q248 1268 240 1290Q230 1319 217
1331Q201 1347 184 1350Q159 1354 143 1354H57V1462H764V1354H680Q668 1354 639 1350Q621 1348 604 1333Q589 1321 580 1296Q572 1273 571 1231V1194H686Q833 1190 934 1161Q1036 1130 1108 1075Q1176 1022 1210 940T1245 760Z" />
<glyph unicode="&#xdf;" glyph-name="germandbls" horiz-adv-x="1445" d="M205 1118Q205 1241 246 1333Q285 1419 358 1477Q426 1530 526 1554Q616 1577 737 1577Q880 1577 978 1540T1139 1430Q1207 1350 1231 1251Q1260 1140 1260 1006H1145Q1094 1006 1051 999Q1006
993 975 979Q942 965 924 936Q906 908 905 868Q905 831 917 805T956 754Q974 738 1028 707Q1063 687 1133 655Q1201 622 1241 588Q1286 549 1313 508Q1338 469 1352 418Q1364 373 1364 324Q1364 234 1337 172Q1310 109 1257 66Q1204 21 1130 0Q1060 -20 961 -20Q869
-20 784 -2Q704 16 635 55V303H745Q751 262 770 225Q793 180 813 160Q841 132 874 117Q911 101 952 100Q1024 100 1061 135Q1102 172 1102 238Q1102 271 1092 305Q1082 336 1059 362Q1032 391 995 418Q954 447 895 473Q823 506 770 549Q725 586 692 635Q661 680
649 731Q637 780 637 834Q637 905 662 956Q685 1005 731 1042Q776 1077 836 1096Q902 1116 969 1118Q969 1208 952 1278Q938 1341 907 1384Q878 1427 838 1444Q795 1462 743 1462Q688 1462 649 1446Q604 1426 575 1393Q544 1356 530 1303Q514 1244 514 1174V0H12V109H100Q116
109 141 113Q157 115 174 131Q186 143 197 172Q205 195 205 242V956H41V1098H205V1118Z" />
<glyph unicode="&#xe0;" glyph-name="agrave" horiz-adv-x="1226" d="M410 305Q410 217 438 172Q467 129 526 129Q569 129 606 147Q639 163 666 201Q695 240 705 283Q719 340 719 391V545L627 539Q568 537 524 520Q487 506 457 473Q434 448 422 403Q410 360 410
305ZM592 999Q555 999 526 983Q499 969 483 936Q467 901 461 866Q455 827 455 778Q320 778 248 809Q178 840 178 915Q178 972 211 1011T303 1075T436 1112Q512 1124 600 1124Q709 1124 788 1106T922 1047Q977 1006 1004 938Q1031 872 1030 776V254Q1030 213 1036
184Q1042 153 1057 139Q1073 123 1096 117Q1129 109 1153 109H1161V0H780L737 141H719Q674 88 655 70Q626 41 592 18Q563 0 514 -10Q467 -20 414 -20Q342 -20 287 0Q226 23 186 61Q139 108 117 166Q92 227 92 313Q92 479 207 559Q324 641 551 647L719 653V766Q719
803 715 860Q713 899 698 934Q688 959 659 981Q635 999 592 999ZM875 1241Q824 1270 768 1311L656 1397Q607 1434 557 1481Q508 1526 494 1548V1569H815Q827 1542 856 1495L910 1413Q924 1388 965 1335Q977 1319 989 1302T1014 1268V1241H875Z" />
<glyph unicode="&#xe1;" glyph-name="aacute" horiz-adv-x="1226" d="M410 305Q410 217 438 172Q467 129 526 129Q569 129 606 147Q639 163 666 201Q695 240 705 283Q719 340 719 391V545L627 539Q568 537 524 520Q487 506 457 473Q434 448 422 403Q410 360 410
305ZM592 999Q555 999 526 983Q499 969 483 936Q467 901 461 866Q455 827 455 778Q320 778 248 809Q178 840 178 915Q178 972 211 1011T303 1075T436 1112Q512 1124 600 1124Q709 1124 788 1106T922 1047Q977 1006 1004 938Q1031 872 1030 776V254Q1030 213 1036
184Q1042 153 1057 139Q1073 123 1096 117Q1129 109 1153 109H1161V0H780L737 141H719Q674 88 655 70Q626 41 592 18Q563 0 514 -10Q467 -20 414 -20Q342 -20 287 0Q226 23 186 61Q139 108 117 166Q92 227 92 313Q92 479 207 559Q324 641 551 647L719 653V766Q719
803 715 860Q713 899 698 934Q688 959 659 981Q635 999 592 999ZM467 1268Q490 1297 516 1335L571 1413Q596 1450 624 1495Q653 1542 665 1569H987V1548Q973 1525 923 1481Q874 1434 825 1397L712 1311Q657 1270 606 1241H467V1268Z" />
<glyph unicode="&#xe2;" glyph-name="acircumflex" horiz-adv-x="1226" d="M410 305Q410 217 438 172Q467 129 526 129Q569 129 606 147Q639 163 666 201Q695 240 705 283Q719 340 719 391V545L627 539Q568 537 524 520Q487 506 457 473Q434 448 422 403Q410 360
410 305ZM592 999Q555 999 526 983Q499 969 483 936Q467 901 461 866Q455 827 455 778Q320 778 248 809Q178 840 178 915Q178 972 211 1011T303 1075T436 1112Q512 1124 600 1124Q709 1124 788 1106T922 1047Q977 1006 1004 938Q1031 872 1030 776V254Q1030 213
1036 184Q1042 153 1057 139Q1073 123 1096 117Q1129 109 1153 109H1161V0H780L737 141H719Q674 88 655 70Q626 41 592 18Q563 0 514 -10Q467 -20 414 -20Q342 -20 287 0Q226 23 186 61Q139 108 117 166Q92 227 92 313Q92 479 207 559Q324 641 551 647L719 653V766Q719
803 715 860Q713 899 698 934Q688 959 659 981Q635 999 592 999ZM256 1268L312 1335L377 1413Q404 1448 437 1495Q470 1544 482 1569H758Q770 1544 803 1495Q836 1448 863 1413L926 1335L983 1268V1241H842L793 1280L731 1329L672 1378L619 1425L566 1378L506 1329Q492
1317 477 1305T447 1280L398 1241H256V1268Z" />
<glyph unicode="&#xe3;" glyph-name="atilde" horiz-adv-x="1226" d="M410 305Q410 217 438 172Q467 129 526 129Q569 129 606 147Q639 163 666 201Q695 240 705 283Q719 340 719 391V545L627 539Q568 537 524 520Q487 506 457 473Q434 448 422 403Q410 360 410
305ZM592 999Q555 999 526 983Q499 969 483 936Q467 901 461 866Q455 827 455 778Q320 778 248 809Q178 840 178 915Q178 972 211 1011T303 1075T436 1112Q512 1124 600 1124Q709 1124 788 1106T922 1047Q977 1006 1004 938Q1031 872 1030 776V254Q1030 213 1036
184Q1042 153 1057 139Q1073 123 1096 117Q1129 109 1153 109H1161V0H780L737 141H719Q674 88 655 70Q626 41 592 18Q563 0 514 -10Q467 -20 414 -20Q342 -20 287 0Q226 23 186 61Q139 108 117 166Q92 227 92 313Q92 479 207 559Q324 641 551 647L719 653V766Q719
803 715 860Q713 899 698 934Q688 959 659 981Q635 999 592 999ZM789 1436Q807 1436 827 1446T858 1468Q872 1486 879 1503Q887 1526 889 1544H1022Q1018 1476 1000 1427Q980 1376 945 1331Q912 1290 867 1266T766 1241Q707 1241 666 1262Q603 1295 584 1305L512
1350Q479 1370 445 1370Q420 1370 404 1362Q390 1354 375 1337Q361 1319 355 1303Q347 1280 344 1262H211Q215 1330 234 1378Q254 1429 289 1475Q320 1514 369 1540Q416 1565 469 1565Q526 1565 568 1544Q644 1507 652 1501L723 1456Q756 1436 789 1436Z" />
<glyph unicode="&#xe4;" glyph-name="adieresis" horiz-adv-x="1226" d="M410 305Q410 217 438 172Q467 129 526 129Q569 129 606 147Q639 163 666 201Q695 240 705 283Q719 340 719 391V545L627 539Q568 537 524 520Q487 506 457 473Q434 448 422 403Q410 360
410 305ZM592 999Q555 999 526 983Q499 969 483 936Q467 901 461 866Q455 827 455 778Q320 778 248 809Q178 840 178 915Q178 972 211 1011T303 1075T436 1112Q512 1124 600 1124Q709 1124 788 1106T922 1047Q977 1006 1004 938Q1031 872 1030 776V254Q1030 213
1036 184Q1042 153 1057 139Q1073 123 1096 117Q1129 109 1153 109H1161V0H780L737 141H719Q674 88 655 70Q626 41 592 18Q563 0 514 -10Q467 -20 414 -20Q342 -20 287 0Q226 23 186 61Q139 108 117 166Q92 227 92 313Q92 479 207 559Q324 641 551 647L719 653V766Q719
803 715 860Q713 899 698 934Q688 959 659 981Q635 999 592 999ZM278 1376T278 1409T288 1468Q296 1488 315 1507Q331 1523 353 1529T399 1536Q426 1536 446 1530Q464 1524 485 1507Q503 1493 512 1468Q522 1441 522 1409T512 1350Q504 1325 485 1311Q465 1295
446 1288Q426 1282 399 1282Q376 1282 354 1288T315 1311Q297 1329 288 1350Q278 1376 278 1409ZM698 1376T698 1409T708 1468Q716 1493 735 1507Q755 1523 774 1530Q794 1536 821 1536Q844 1536 866 1530Q884 1524 905 1507Q923 1493 931 1468Q941 1441 941 1409T931
1350Q923 1325 905 1311Q885 1295 866 1288Q843 1282 821 1282Q794 1282 774 1288Q756 1294 735 1311Q717 1325 708 1350Q698 1376 698 1409Z" />
<glyph unicode="&#xe5;" glyph-name="aring" horiz-adv-x="1226" d="M410 305Q410 217 438 172Q467 129 526 129Q569 129 606 147Q639 163 666 201Q695 240 705 283Q719 340 719 391V545L627 539Q568 537 524 520Q487 506 457 473Q434 448 422 403Q410 360 410
305ZM592 999Q555 999 526 983Q499 969 483 936Q467 901 461 866Q455 827 455 778Q320 778 248 809Q178 840 178 915Q178 972 211 1011T303 1075T436 1112Q512 1124 600 1124Q709 1124 788 1106T922 1047Q977 1006 1004 938Q1031 872 1030 776V254Q1030 213 1036
184Q1042 153 1057 139Q1073 123 1096 117Q1129 109 1153 109H1161V0H780L737 141H719Q674 88 655 70Q626 41 592 18Q563 0 514 -10Q467 -20 414 -20Q342 -20 287 0Q226 23 186 61Q139 108 117 166Q92 227 92 313Q92 479 207 559Q324 641 551 647L719 653V766Q719
803 715 860Q713 899 698 934Q688 959 659 981Q635 999 592 999ZM865 1497T865 1444T846 1348Q830 1307 793 1278Q758 1249 715 1235T619 1221T523 1235T445 1278Q408 1307 392 1348Q374 1391 374 1444T392 1540Q408 1581 445 1610Q480 1639 523 1653T619 1667T715
1653T793 1610Q830 1581 846 1540Q865 1497 865 1444ZM740 1444Q740 1471 730 1495Q720 1518 706 1530T666 1548Q643 1554 619 1554T572 1548Q547 1542 533 1530T508 1495Q498 1470 498 1444T508 1393Q518 1370 532 1358T572 1339Q595 1333 619 1333T666 1339Q691
1345 705 1357T730 1393Q740 1417 740 1444Z" />
<glyph unicode="&#xe6;" glyph-name="ae" horiz-adv-x="1792" d="M410 305Q410 217 438 172Q467 129 526 129Q569 129 606 147Q639 163 666 201Q695 240 705 283Q719 340 719 391V545L627 539Q568 537 524 520Q487 506 457 473Q434 448 422 403Q410 360 410 305ZM1231
991Q1147 991 1094 905Q1045 825 1038 657H1393Q1393 819 1354 903Q1313 991 1231 991ZM1253 -20Q1108 -20 993 31Q882 80 817 176Q751 76 645 27Q541 -20 414 -20Q342 -20 287 0Q226 23 186 61Q139 108 117 166Q92 227 92 313Q92 479 207 559Q324 641 551 647L719
653V766Q719 803 715 860Q713 899 698 934Q688 959 659 981Q634 999 592 999Q555 999 526 983Q499 969 483 936Q467 901 461 866Q455 827 455 778Q320 778 248 809Q178 840 178 915Q178 972 211 1011T303 1075T436 1112Q512 1124 600 1124Q711 1124 791 1098Q869
1071 926 1008Q981 1061 1061 1094Q1135 1125 1227 1124Q1333 1124 1427 1092Q1517 1061 1579 999Q1638 940 1673 846Q1706 756 1706 631V526H1034Q1036 426 1057 348Q1073 280 1110 227Q1143 178 1196 156Q1247 133 1309 133Q1361 133 1407 145Q1448 155 1489
180Q1522 198 1552 233Q1577 260 1597 299Q1652 268 1653 199Q1653 152 1630 115Q1605 76 1556 45Q1511 16 1432 -2Q1355 -20 1253 -20Z" />
<glyph unicode="&#xe7;" glyph-name="ccedilla" horiz-adv-x="1077" d="M604 -20Q493 -20 397 8Q307 35 238 104Q170 172 133 281Q96 389 96 545Q96 713 135 821Q176 936 240 999Q310 1069 399 1096Q495 1125 598 1124Q690 1124 772 1108Q840 1094 899 1063Q946
1038 977 993Q1004 954 1004 909Q1004 868 993 844Q981 811 953 789T870 750Q821 736 739 735Q739 786 733 836Q727 879 711 920Q697 955 670 977T606 999Q565 999 526 977Q489 955 465 903Q436 844 426 766Q412 666 412 547Q412 338 469 236T655 133Q707 133 754
145Q803 157 840 180T905 233Q934 266 952 299Q977 285 989 258Q1001 233 1001 205Q1001 168 979 127Q959 88 907 53Q864 24 782 0Q713 -20 604 -20ZM839 -258Q839 -315 819 -356T760 -430Q727 -459 667 -475Q612 -491 549 -492H510Q502 -492 484 -489T463 -485L413
-479Q393 -477 370 -469V-344Q407 -353 444 -356Q493 -360 510 -360Q569 -360 602 -340T635 -266Q635 -233 624 -217Q612 -199 592 -186Q576 -178 542 -170Q522 -166 481 -162L524 18H641L620 -70Q671 -74 710 -88Q755 -106 780 -127Q809 -152 823 -184Q839 -221
839 -258Z" />
<glyph unicode="&#xe8;" glyph-name="egrave" horiz-adv-x="1167" d="M608 991Q520 991 471 905T416 657H770Q770 741 762 797Q754 854 733 901Q715 946 682 968T608 991ZM627 -20Q502 -20 397 18Q301 55 231 127Q163 199 129 305Q96 405 96 543Q96 693 129 797T229
979Q290 1049 389 1087Q484 1124 604 1124Q710 1124 805 1092Q893 1061 954 999Q1017 936 1050 846T1083 631V526H412Q414 426 434 348Q450 285 489 227Q524 178 573 156Q624 133 686 133Q738 133 784 145Q825 155 866 180Q899 198 930 233Q955 260 975 299Q1030
268 1030 199Q1030 156 1006 115Q983 76 932 45Q887 16 807 -2Q729 -20 627 -20ZM897 1241Q846 1270 790 1311L678 1397Q629 1434 579 1481Q530 1526 516 1548V1569H837Q849 1542 878 1495L932 1413Q946 1388 987 1335Q999 1319 1011 1302T1036 1268V1241H897Z"
/>
<glyph unicode="&#xe9;" glyph-name="eacute" horiz-adv-x="1167" d="M608 991Q520 991 471 905T416 657H770Q770 741 762 797Q754 854 733 901Q715 946 682 968T608 991ZM627 -20Q502 -20 397 18Q301 55 231 127Q163 199 129 305Q96 405 96 543Q96 693 129 797T229
979Q290 1049 389 1087Q484 1124 604 1124Q710 1124 805 1092Q893 1061 954 999Q1017 936 1050 846T1083 631V526H412Q414 426 434 348Q450 285 489 227Q524 178 573 156Q624 133 686 133Q738 133 784 145Q825 155 866 180Q899 198 930 233Q955 260 975 299Q1030
268 1030 199Q1030 156 1006 115Q983 76 932 45Q887 16 807 -2Q729 -20 627 -20ZM473 1268Q496 1297 522 1335L577 1413Q602 1450 630 1495Q659 1542 671 1569H993V1548Q979 1525 929 1481Q880 1434 831 1397L718 1311Q663 1270 612 1241H473V1268Z" />
<glyph unicode="&#xea;" glyph-name="ecircumflex" horiz-adv-x="1167" d="M608 991Q520 991 471 905T416 657H770Q770 741 762 797Q754 854 733 901Q715 946 682 968T608 991ZM627 -20Q502 -20 397 18Q301 55 231 127Q163 199 129 305Q96 405 96 543Q96 693 129
797T229 979Q290 1049 389 1087Q484 1124 604 1124Q710 1124 805 1092Q893 1061 954 999Q1017 936 1050 846T1083 631V526H412Q414 426 434 348Q450 285 489 227Q524 178 573 156Q624 133 686 133Q738 133 784 145Q825 155 866 180Q899 198 930 233Q955 260 975
299Q1030 268 1030 199Q1030 156 1006 115Q983 76 932 45Q887 16 807 -2Q729 -20 627 -20ZM254 1268L310 1335L375 1413Q402 1448 435 1495Q468 1544 480 1569H756Q768 1544 801 1495Q834 1448 861 1413L924 1335L981 1268V1241H840L791 1280L729 1329L670 1378L617
1425L564 1378L504 1329Q490 1317 475 1305T445 1280L396 1241H254V1268Z" />
<glyph unicode="&#xeb;" glyph-name="edieresis" horiz-adv-x="1167" d="M608 991Q520 991 471 905T416 657H770Q770 741 762 797Q754 854 733 901Q715 946 682 968T608 991ZM627 -20Q502 -20 397 18Q301 55 231 127Q163 199 129 305Q96 405 96 543Q96 693 129
797T229 979Q290 1049 389 1087Q484 1124 604 1124Q710 1124 805 1092Q893 1061 954 999Q1017 936 1050 846T1083 631V526H412Q414 426 434 348Q450 285 489 227Q524 178 573 156Q624 133 686 133Q738 133 784 145Q825 155 866 180Q899 198 930 233Q955 260 975
299Q1030 268 1030 199Q1030 156 1006 115Q983 76 932 45Q887 16 807 -2Q729 -20 627 -20ZM281 1376T281 1409T291 1468Q299 1488 318 1507Q334 1523 356 1529T402 1536Q429 1536 449 1530Q467 1524 488 1507Q506 1493 515 1468Q525 1441 525 1409T515 1350Q507
1325 488 1311Q468 1295 449 1288Q429 1282 402 1282Q379 1282 357 1288T318 1311Q300 1329 291 1350Q281 1376 281 1409ZM701 1376T701 1409T711 1468Q719 1493 738 1507Q758 1523 777 1530Q797 1536 824 1536Q847 1536 869 1530Q887 1524 908 1507Q926 1493 934
1468Q944 1441 944 1409T934 1350Q926 1325 908 1311Q888 1295 869 1288Q846 1282 824 1282Q797 1282 777 1288Q759 1294 738 1311Q720 1325 711 1350Q701 1376 701 1409Z" />
<glyph unicode="&#xec;" glyph-name="igrave" horiz-adv-x="720" d="M59 109Q73 109 106 113Q133 117 153 131T190 172Q204 195 205 242V864Q205 907 190 930Q175 955 154 967Q125 983 106 985Q73 989 59 989H35V1098H516V242Q516 195 530 172Q546 145 567 131T614
113Q647 109 662 109H686V0H35V109H59ZM371 1241Q320 1270 264 1311L152 1397Q103 1434 53 1481Q4 1526 -10 1548V1569H311Q323 1542 352 1495L406 1413Q420 1388 461 1335Q473 1319 485 1302T510 1268V1241H371Z" />
<glyph unicode="&#xed;" glyph-name="iacute" horiz-adv-x="720" d="M59 109Q73 109 106 113Q133 117 153 131T190 172Q204 195 205 242V864Q205 907 190 930Q175 955 154 967Q125 983 106 985Q73 989 59 989H35V1098H516V242Q516 195 530 172Q546 145 567 131T614
113Q647 109 662 109H686V0H35V109H59ZM523 1268Q546 1297 572 1335L627 1413Q652 1450 680 1495Q709 1542 721 1569H1043V1548Q1029 1525 979 1481Q930 1434 881 1397L768 1311Q713 1270 662 1241H523V1268Z" />
<glyph unicode="&#xee;" glyph-name="icircumflex" horiz-adv-x="720" d="M59 109Q73 109 106 113Q133 117 153 131T190 172Q204 195 205 242V864Q205 907 190 930Q175 955 154 967Q125 983 106 985Q73 989 59 989H35V1098H516V242Q516 195 530 172Q546 145 567
131T614 113Q647 109 662 109H686V0H35V109H59ZM-29 1268L27 1335L92 1413Q119 1448 152 1495Q185 1544 197 1569H473Q485 1544 518 1495Q551 1448 578 1413L641 1335L698 1268V1241H557L508 1280L446 1329L387 1378L334 1425L281 1378L221 1329Q207 1317 192 1305T162
1280L113 1241H-29V1268Z" />
<glyph unicode="&#xef;" glyph-name="idieresis" horiz-adv-x="720" d="M59 109Q73 109 106 113Q133 117 153 131T190 172Q204 195 205 242V864Q205 907 190 930Q175 955 154 967Q125 983 106 985Q73 989 59 989H35V1098H516V242Q516 195 530 172Q546 145 567
131T614 113Q647 109 662 109H686V0H35V109H59ZM0 1376T0 1409T10 1468Q18 1488 37 1507Q53 1523 75 1529T121 1536Q148 1536 168 1530Q186 1524 207 1507Q225 1493 234 1468Q244 1441 244 1409T234 1350Q226 1325 207 1311Q187 1295 168 1288Q148 1282 121 1282Q98
1282 76 1288T37 1311Q19 1329 10 1350Q0 1376 0 1409ZM420 1376T420 1409T430 1468Q438 1493 457 1507Q477 1523 496 1530Q516 1536 543 1536Q566 1536 588 1530Q606 1524 627 1507Q645 1493 653 1468Q663 1441 663 1409T653 1350Q645 1325 627 1311Q607 1295
588 1288Q565 1282 543 1282Q516 1282 496 1288Q478 1294 457 1311Q439 1325 430 1350Q420 1376 420 1409Z" />
<glyph unicode="&#xf0;" glyph-name="eth" horiz-adv-x="1251" d="M1157 596Q1157 283 1022 132T623 -20Q500 -20 403 12Q303 47 238 113Q170 181 133 283Q96 384 96 522Q96 661 129 760Q164 866 223 928Q291 998 379 1030Q469 1063 590 1063Q656 1063 717 1047Q770
1033 813 1008Q793 1065 788 1073Q772 1110 754 1139Q731 1176 707 1204Q682 1235 639 1268L350 1120V1253L532 1348Q471 1385 424 1399Q367 1417 291 1430V1559Q336 1555 381 1544Q457 1526 489 1516Q573 1487 600 1477Q647 1459 692 1430L950 1561V1425L807 1352Q895
1282 950 1212Q1013 1134 1061 1036Q1104 946 1130 829Q1157 709 1157 596ZM414 520Q414 419 426 342T463 213Q486 164 528 135Q567 108 629 109Q688 109 727 135Q770 164 793 213Q822 272 831 342Q841 405 842 520Q842 639 831 702Q821 772 793 831Q770 880 727
907Q688 932 627 932Q569 932 528 907T463 831Q438 782 426 705T414 520Z" />
<glyph unicode="&#xf1;" glyph-name="ntilde" horiz-adv-x="1363" d="M858 0V674Q858 744 850 791Q840 844 821 879Q803 912 770 932Q739 950 694 950Q645 950 608 924Q579 904 555 854Q532 811 524 754Q516 703 516 633V242Q516 199 526 172Q534 149 555 133Q575
115 602 113Q639 109 664 109H670V0H41V109H45Q72 109 109 113Q136 115 160 133Q180 147 193 176Q205 204 205 250V856Q205 899 195 926Q187 944 164 965Q144 983 119 985Q82 989 57 989H51V1098H481L508 952H518Q547 1007 584 1044Q617 1077 657 1096Q692 1112
739 1118Q782 1124 831 1124Q905 1124 973 1102Q1034 1082 1079 1030Q1126 975 1147 907Q1170 829 1169 729V254Q1169 203 1178 178Q1190 143 1202 133T1245 115Q1270 109 1307 109H1313V0H858ZM842 1436Q860 1436 880 1446T911 1468Q925 1486 932 1503Q940 1526
942 1544H1075Q1071 1476 1053 1427Q1033 1376 998 1331Q965 1290 920 1266T819 1241Q760 1241 719 1262Q656 1295 637 1305L565 1350Q532 1370 498 1370Q473 1370 457 1362Q443 1354 428 1337Q414 1319 408 1303Q400 1280 397 1262H264Q268 1330 287 1378Q307
1429 342 1475Q373 1514 422 1540Q469 1565 522 1565Q579 1565 621 1544Q697 1507 705 1501L776 1456Q809 1436 842 1436Z" />
<glyph unicode="&#xf2;" glyph-name="ograve" horiz-adv-x="1253" d="M1159 553Q1159 264 1024 123Q887 -20 625 -20Q502 -20 403 16Q303 53 238 123Q170 194 133 301T96 553Q96 842 231 983T631 1124Q752 1124 852 1090Q948 1057 1018 983Q1086 912 1122 805T1159
553ZM414 664T414 553T426 360Q438 276 462 221T528 138T628 109T729 137T794 221T831 360Q841 430 841 553T831 745Q821 819 793 883Q770 936 727 965Q686 994 627 994T526 965Q483 936 461 883Q438 834 426 745Q414 664 414 553ZM875 1241Q824 1270 768 1311L656
1397Q607 1434 557 1481Q508 1526 494 1548V1569H815Q827 1542 856 1495L910 1413Q924 1388 965 1335Q977 1319 989 1302T1014 1268V1241H875Z" />
<glyph unicode="&#xf3;" glyph-name="oacute" horiz-adv-x="1253" d="M1159 553Q1159 264 1024 123Q887 -20 625 -20Q502 -20 403 16Q303 53 238 123Q170 194 133 301T96 553Q96 842 231 983T631 1124Q752 1124 852 1090Q948 1057 1018 983Q1086 912 1122 805T1159
553ZM414 664T414 553T426 360Q438 276 462 221T528 138T628 109T729 137T794 221T831 360Q841 430 841 553T831 745Q821 819 793 883Q770 936 727 965Q686 994 627 994T526 965Q483 936 461 883Q438 834 426 745Q414 664 414 553ZM504 1268Q527 1297 553 1335L608
1413Q633 1450 661 1495Q690 1542 702 1569H1024V1548Q1010 1525 960 1481Q911 1434 862 1397L749 1311Q694 1270 643 1241H504V1268Z" />
<glyph unicode="&#xf4;" glyph-name="ocircumflex" horiz-adv-x="1253" d="M1159 553Q1159 264 1024 123Q887 -20 625 -20Q502 -20 403 16Q303 53 238 123Q170 194 133 301T96 553Q96 842 231 983T631 1124Q752 1124 852 1090Q948 1057 1018 983Q1086 912 1122
805T1159 553ZM414 664T414 553T426 360Q438 276 462 221T528 138T628 109T729 137T794 221T831 360Q841 430 841 553T831 745Q821 819 793 883Q770 936 727 965Q686 994 627 994T526 965Q483 936 461 883Q438 834 426 745Q414 664 414 553ZM262 1268L318 1335L383
1413Q410 1448 443 1495Q476 1544 488 1569H764Q776 1544 809 1495Q842 1448 869 1413L932 1335L989 1268V1241H848L799 1280L737 1329L678 1378L625 1425L572 1378L512 1329Q498 1317 483 1305T453 1280L404 1241H262V1268Z" />
<glyph unicode="&#xf5;" glyph-name="otilde" horiz-adv-x="1253" d="M1159 553Q1159 264 1024 123Q887 -20 625 -20Q502 -20 403 16Q303 53 238 123Q170 194 133 301T96 553Q96 842 231 983T631 1124Q752 1124 852 1090Q948 1057 1018 983Q1086 912 1122 805T1159
553ZM414 664T414 553T426 360Q438 276 462 221T528 138T628 109T729 137T794 221T831 360Q841 430 841 553T831 745Q821 819 793 883Q770 936 727 965Q686 994 627 994T526 965Q483 936 461 883Q438 834 426 745Q414 664 414 553ZM795 1436Q813 1436 833 1446T864
1468Q878 1486 885 1503Q893 1526 895 1544H1028Q1024 1476 1006 1427Q986 1376 951 1331Q918 1290 873 1266T772 1241Q713 1241 672 1262Q609 1295 590 1305L518 1350Q485 1370 451 1370Q426 1370 410 1362Q396 1354 381 1337Q367 1319 361 1303Q353 1280 350
1262H217Q221 1330 240 1378Q260 1429 295 1475Q326 1514 375 1540Q422 1565 475 1565Q532 1565 574 1544Q650 1507 658 1501L729 1456Q762 1436 795 1436Z" />
<glyph unicode="&#xf6;" glyph-name="odieresis" horiz-adv-x="1253" d="M1159 553Q1159 264 1024 123Q887 -20 625 -20Q502 -20 403 16Q303 53 238 123Q170 194 133 301T96 553Q96 842 231 983T631 1124Q752 1124 852 1090Q948 1057 1018 983Q1086 912 1122 805T1159
553ZM414 664T414 553T426 360Q438 276 462 221T528 138T628 109T729 137T794 221T831 360Q841 430 841 553T831 745Q821 819 793 883Q770 936 727 965Q686 994 627 994T526 965Q483 936 461 883Q438 834 426 745Q414 664 414 553ZM293 1376T293 1409T303 1468Q311
1488 330 1507Q346 1523 368 1529T414 1536Q441 1536 461 1530Q479 1524 500 1507Q518 1493 527 1468Q537 1441 537 1409T527 1350Q519 1325 500 1311Q480 1295 461 1288Q441 1282 414 1282Q391 1282 369 1288T330 1311Q312 1329 303 1350Q293 1376 293 1409ZM713
1376T713 1409T723 1468Q731 1493 750 1507Q770 1523 789 1530Q809 1536 836 1536Q859 1536 881 1530Q899 1524 920 1507Q938 1493 946 1468Q956 1441 956 1409T946 1350Q938 1325 920 1311Q900 1295 881 1288Q858 1282 836 1282Q809 1282 789 1288Q771 1294 750
1311Q732 1325 723 1350Q713 1376 713 1409Z" />
<glyph unicode="&#xf7;" glyph-name="divide" horiz-adv-x="1144" d="M459 1120Q459 1157 467 1180Q475 1200 491 1216T528 1239T573 1245T618 1239T655 1217T680 1180Q688 1157 688 1120Q688 1085 680 1063T656 1024T619 1002T573 995Q526 995 492 1024Q459 1050
459 1120ZM459 344Q459 381 467 403T492 442Q506 456 528 463Q548 469 573 469T618 463Q641 457 655 442Q671 426 679 404T688 344Q688 309 680 287T656 248T619 225T573 219Q526 219 492 248Q459 274 459 344ZM1012 659H133V805H1012V659Z" />
<glyph unicode="&#xf8;" glyph-name="oslash" horiz-adv-x="1253" d="M1159 553Q1159 264 1024 123Q887 -20 625 -20Q488 -20 383 23L317 -82H172L274 86Q186 158 141 272T96 553Q96 842 231 983T631 1124Q705 1124 768 1112Q827 1102 885 1075L950 1180H1094L989
1008Q1069 940 1114 824T1159 553ZM414 553Q414 510 418 436Q422 368 428 336L780 907Q728 993 627 993Q568 993 526 965Q483 936 461 883Q438 834 426 745Q414 664 414 553ZM842 553Q842 625 840 657Q838 694 829 750L481 184Q534 108 629 109Q688 109 729 137T794
221T831 360Q842 430 842 553Z" />
<glyph unicode="&#xf9;" glyph-name="ugrave" horiz-adv-x="1363" d="M907 0L862 145H852Q821 93 784 59Q753 30 709 10Q670 -8 621 -14Q574 -20 528 -20Q370 -20 283 80Q197 178 197 385V844Q197 893 188 918Q178 949 164 961Q144 979 121 983Q94 989 57 989H53V1098H508V442Q508
393 516 324Q522 271 541 233Q559 194 590 174Q619 154 664 154T747 176T807 238Q832 283 840 336Q850 402 850 465V858Q850 905 838 930Q824 961 807 969Q782 983 760 985Q723 989 702 989H696V1098H1161V238Q1161 195 1171 168T1200 129Q1220 115 1243 113Q1276
109 1298 109H1315V0H907ZM889 1241Q838 1270 782 1311L670 1397Q621 1434 571 1481Q522 1526 508 1548V1569H829Q841 1542 870 1495L924 1413Q938 1388 979 1335Q991 1319 1003 1302T1028 1268V1241H889Z" />
<glyph unicode="&#xfa;" glyph-name="uacute" horiz-adv-x="1363" d="M907 0L862 145H852Q821 93 784 59Q753 30 709 10Q670 -8 621 -14Q574 -20 528 -20Q370 -20 283 80Q197 178 197 385V844Q197 893 188 918Q178 949 164 961Q144 979 121 983Q94 989 57 989H53V1098H508V442Q508
393 516 324Q522 271 541 233Q559 194 590 174Q619 154 664 154T747 176T807 238Q832 283 840 336Q850 402 850 465V858Q850 905 838 930Q824 961 807 969Q782 983 760 985Q723 989 702 989H696V1098H1161V238Q1161 195 1171 168T1200 129Q1220 115 1243 113Q1276
109 1298 109H1315V0H907ZM527 1268Q550 1297 576 1335L631 1413Q656 1450 684 1495Q713 1542 725 1569H1047V1548Q1033 1525 983 1481Q934 1434 885 1397L772 1311Q717 1270 666 1241H527V1268Z" />
<glyph unicode="&#xfb;" glyph-name="ucircumflex" horiz-adv-x="1363" d="M907 0L862 145H852Q821 93 784 59Q753 30 709 10Q670 -8 621 -14Q574 -20 528 -20Q370 -20 283 80Q197 178 197 385V844Q197 893 188 918Q178 949 164 961Q144 979 121 983Q94 989 57
989H53V1098H508V442Q508 393 516 324Q522 271 541 233Q559 194 590 174Q619 154 664 154T747 176T807 238Q832 283 840 336Q850 402 850 465V858Q850 905 838 930Q824 961 807 969Q782 983 760 985Q723 989 702 989H696V1098H1161V238Q1161 195 1171 168T1200
129Q1220 115 1243 113Q1276 109 1298 109H1315V0H907ZM295 1268L351 1335L416 1413Q443 1448 476 1495Q509 1544 521 1569H797Q809 1544 842 1495Q875 1448 902 1413L965 1335L1022 1268V1241H881L832 1280L770 1329L711 1378L658 1425L605 1378L545 1329Q531
1317 516 1305T486 1280L437 1241H295V1268Z" />
<glyph unicode="&#xfc;" glyph-name="udieresis" horiz-adv-x="1363" d="M907 0L862 145H852Q821 93 784 59Q753 30 709 10Q670 -8 621 -14Q574 -20 528 -20Q370 -20 283 80Q197 178 197 385V844Q197 893 188 918Q178 949 164 961Q144 979 121 983Q94 989 57 989H53V1098H508V442Q508
393 516 324Q522 271 541 233Q559 194 590 174Q619 154 664 154T747 176T807 238Q832 283 840 336Q850 402 850 465V858Q850 905 838 930Q824 961 807 969Q782 983 760 985Q723 989 702 989H696V1098H1161V238Q1161 195 1171 168T1200 129Q1220 115 1243 113Q1276
109 1298 109H1315V0H907ZM332 1376T332 1409T342 1468Q350 1488 369 1507Q385 1523 407 1529T453 1536Q480 1536 500 1530Q518 1524 539 1507Q557 1493 566 1468Q576 1441 576 1409T566 1350Q558 1325 539 1311Q519 1295 500 1288Q480 1282 453 1282Q430 1282
408 1288T369 1311Q351 1329 342 1350Q332 1376 332 1409ZM752 1376T752 1409T762 1468Q770 1493 789 1507Q809 1523 828 1530Q848 1536 875 1536Q898 1536 920 1530Q938 1524 959 1507Q977 1493 985 1468Q995 1441 995 1409T985 1350Q977 1325 959 1311Q939 1295
920 1288Q897 1282 875 1282Q848 1282 828 1288Q810 1294 789 1311Q771 1325 762 1350Q752 1376 752 1409Z" />
<glyph unicode="&#xfd;" glyph-name="yacute" horiz-adv-x="1185" d="M1186 1098V989Q1163 989 1130 981Q1105 975 1090 958Q1070 938 1055 911Q1035 874 1022 840L946 633L868 420L788 207L713 0Q668 -119 645 -174Q614 -248 578 -303Q539 -362 500 -395Q459
-430 400 -452T266 -483Q198 -491 90 -492H55V-373Q157 -373 238 -346Q314 -321 365 -272Q416 -225 449 -158Q486 -84 508 -10L139 891Q125 924 113 938T80 962T43 975Q29 977 0 977V1098H584V989Q527 989 489 973Q454 957 455 913Q455 905 463 872Q469 849 475
834L512 741Q532 690 551 639L586 543Q594 520 602 499T616 459Q632 416 641 389Q653 348 657 332Q665 299 668 285L674 242Q678 275 682 289L694 338Q696 348 702 362T709 379Q713 389 716 395T719 406L854 807Q854 809 856 814T860 823T862 831Q866 847 868 858Q872
878 872 885Q872 889 873 897T874 907Q874 952 836 971Q796 989 725 989V1098H1186ZM463 1268Q486 1297 512 1335L567 1413Q592 1450 620 1495Q649 1542 661 1569H983V1548Q969 1525 919 1481Q870 1434 821 1397L708 1311Q653 1270 602 1241H463V1268Z" />
<glyph unicode="&#xfe;" glyph-name="thorn" horiz-adv-x="1320" d="M51 -383Q65 -383 98 -379Q127 -375 147 -360Q163 -348 182 -319Q196 -296 197 -250V1305Q197 1350 186 1380Q178 1407 158 1423Q142 1435 113 1444Q97 1448 59 1448H45V1556H508V1180Q508 1168
504 1110Q500 1057 496 1030L483 938H492Q515 981 543 1012Q570 1041 612 1067Q659 1096 698 1106Q747 1118 805 1118Q907 1118 985 1086T1116 981Q1171 905 1198 803Q1225 699 1225 545Q1225 393 1198 289T1118 113Q1066 42 989 8Q915 -25 813 -25Q700 -25 623
20Q551 61 506 139H492L500 47Q502 22 506 -35Q508 -64 508 -109V-250Q508 -297 522 -319Q538 -346 559 -360T606 -379Q639 -383 653 -383H698V-492H27V-383H51ZM717 127Q821 127 864 231Q909 340 909 543Q909 744 864 856Q821 965 719 965Q656 965 616 938Q579
911 553 856T518 725Q508 637 508 545Q508 449 518 360Q526 284 553 229T616 152Q656 127 717 127Z" />
<glyph unicode="&#xff;" glyph-name="ydieresis" horiz-adv-x="1185" d="M1186 1098V989Q1163 989 1130 981Q1105 975 1090 958Q1070 938 1055 911Q1035 874 1022 840L946 633L868 420L788 207L713 0Q668 -119 645 -174Q614 -248 578 -303Q539 -362 500 -395Q459
-430 400 -452T266 -483Q198 -491 90 -492H55V-373Q157 -373 238 -346Q314 -321 365 -272Q416 -225 449 -158Q486 -84 508 -10L139 891Q125 924 113 938T80 962T43 975Q29 977 0 977V1098H584V989Q527 989 489 973Q454 957 455 913Q455 905 463 872Q469 849 475
834L512 741Q532 690 551 639L586 543Q594 520 602 499T616 459Q632 416 641 389Q653 348 657 332Q665 299 668 285L674 242Q678 275 682 289L694 338Q696 348 702 362T709 379Q713 389 716 395T719 406L854 807Q854 809 856 814T860 823T862 831Q866 847 868 858Q872
878 872 885Q872 889 873 897T874 907Q874 952 836 971Q796 989 725 989V1098H1186ZM266 1376T266 1409T276 1468Q284 1488 303 1507Q319 1523 341 1529T387 1536Q414 1536 434 1530Q452 1524 473 1507Q491 1493 500 1468Q510 1441 510 1409T500 1350Q492 1325
473 1311Q453 1295 434 1288Q414 1282 387 1282Q364 1282 342 1288T303 1311Q285 1329 276 1350Q266 1376 266 1409ZM686 1376T686 1409T696 1468Q704 1493 723 1507Q743 1523 762 1530Q782 1536 809 1536Q832 1536 854 1530Q872 1524 893 1507Q911 1493 919 1468Q929
1441 929 1409T919 1350Q911 1325 893 1311Q873 1295 854 1288Q831 1282 809 1282Q782 1282 762 1288Q744 1294 723 1311Q705 1325 696 1350Q686 1376 686 1409Z" />
<glyph unicode="&#x100;" glyph-name="Amacron" horiz-adv-x="1540" d="M446 481L387 305Q387 303 371 246Q363 215 362 188Q362 168 371 154Q381 138 391 129Q399 123 420 115Q434 109 455 109H541V0H8V109H33Q61 109 82 115Q107 121 125 137Q139 149 162 182Q172
198 197 258L641 1462H922L1350 256Q1362 221 1382 184Q1398 153 1417 139Q1437 123 1458 117Q1487 109 1505 109H1542V0H866V109H946Q956 109 977 113Q989 115 1006 127Q1016 135 1026 152Q1034 166 1034 188Q1034 213 1028 236Q1020 265 1016 276L944 481H446ZM795
942L772 1016Q766 1036 761 1055T750 1094Q738 1135 727 1174Q721 1201 709 1249Q691 1188 688 1182Q676 1145 662 1106Q656 1086 650 1065T635 1026L610 952L489 606H903L795 942ZM1065 1579H471V1741H1065V1579Z" />
<glyph unicode="&#x101;" glyph-name="amacron" horiz-adv-x="1226" d="M410 305Q410 217 438 172Q467 129 526 129Q569 129 606 147Q639 163 666 201Q695 240 705 283Q719 340 719 391V545L627 539Q568 537 524 520Q487 506 457 473Q434 448 422 403Q410 360
410 305ZM592 999Q555 999 526 983Q499 969 483 936Q467 901 461 866Q455 827 455 778Q320 778 248 809Q178 840 178 915Q178 972 211 1011T303 1075T436 1112Q512 1124 600 1124Q709 1124 788 1106T922 1047Q977 1006 1004 938Q1031 872 1030 776V254Q1030 213
1036 184Q1042 153 1057 139Q1073 123 1096 117Q1129 109 1153 109H1161V0H780L737 141H719Q674 88 655 70Q626 41 592 18Q563 0 514 -10Q467 -20 414 -20Q342 -20 287 0Q226 23 186 61Q139 108 117 166Q92 227 92 313Q92 479 207 559Q324 641 551 647L719 653V766Q719
803 715 860Q713 899 698 934Q688 959 659 981Q635 999 592 999ZM885 1241H291V1403H885V1241Z" />
<glyph unicode="&#x102;" glyph-name="Abreve" horiz-adv-x="1540" d="M446 481L387 305Q387 303 371 246Q363 215 362 188Q362 168 371 154Q381 138 391 129Q399 123 420 115Q434 109 455 109H541V0H8V109H33Q61 109 82 115Q107 121 125 137Q139 149 162 182Q172
198 197 258L641 1462H922L1350 256Q1362 221 1382 184Q1398 153 1417 139Q1437 123 1458 117Q1487 109 1505 109H1542V0H866V109H946Q956 109 977 113Q989 115 1006 127Q1016 135 1026 152Q1034 166 1034 188Q1034 213 1028 236Q1020 265 1016 276L944 481H446ZM795
942L772 1016Q766 1036 761 1055T750 1094Q738 1135 727 1174Q721 1201 709 1249Q691 1188 688 1182Q676 1145 662 1106Q656 1086 650 1065T635 1026L610 952L489 606H903L795 942ZM778 1579Q700 1579 637 1607T534 1681Q494 1727 473 1786Q455 1837 450 1901H585Q603
1829 653 1794Q700 1761 778 1761T903 1794Q952 1829 970 1901H1106Q1102 1838 1083 1786Q1061 1728 1022 1681Q983 1636 920 1608T778 1579Z" />
<glyph unicode="&#x103;" glyph-name="abreve" horiz-adv-x="1226" d="M410 305Q410 217 438 172Q467 129 526 129Q569 129 606 147Q639 163 666 201Q695 240 705 283Q719 340 719 391V545L627 539Q568 537 524 520Q487 506 457 473Q434 448 422 403Q410 360 410
305ZM592 999Q555 999 526 983Q499 969 483 936Q467 901 461 866Q455 827 455 778Q320 778 248 809Q178 840 178 915Q178 972 211 1011T303 1075T436 1112Q512 1124 600 1124Q709 1124 788 1106T922 1047Q977 1006 1004 938Q1031 872 1030 776V254Q1030 213 1036
184Q1042 153 1057 139Q1073 123 1096 117Q1129 109 1153 109H1161V0H780L737 141H719Q674 88 655 70Q626 41 592 18Q563 0 514 -10Q467 -20 414 -20Q342 -20 287 0Q226 23 186 61Q139 108 117 166Q92 227 92 313Q92 479 207 559Q324 641 551 647L719 653V766Q719
803 715 860Q713 899 698 934Q688 959 659 981Q635 999 592 999ZM842 1241Q764 1241 701 1269T598 1343Q558 1389 537 1448Q519 1499 514 1563H649Q667 1491 717 1456Q764 1423 842 1423T967 1456Q1016 1491 1034 1563H1170Q1166 1500 1147 1448Q1125 1390 1086
1343Q1047 1298 984 1270T842 1241Z" />
<glyph unicode="&#x104;" glyph-name="Aogonek" horiz-adv-x="1540" d="M446 481L387 305Q387 303 371 246Q363 215 362 188Q362 168 371 154Q381 138 391 129Q399 123 420 115Q434 109 455 109H541V0H8V109H33Q61 109 82 115Q107 121 125 137Q139 149 162 182Q172
198 197 258L641 1462H922L1350 256Q1362 221 1382 184Q1398 153 1417 139Q1437 123 1458 117Q1487 109 1505 109H1542V0H866V109H946Q956 109 977 113Q989 115 1006 127Q1016 135 1026 152Q1034 166 1034 188Q1034 213 1028 236Q1020 265 1016 276L944 481H446ZM795
942L772 1016Q766 1036 761 1055T750 1094Q738 1135 727 1174Q721 1201 709 1249Q691 1188 688 1182Q676 1145 662 1106Q656 1086 650 1065T635 1026L610 952L489 606H903L795 942ZM893 -266Q893 -215 914 -174Q937 -131 967 -96Q996 -65 1045 -37Q1088 -12 1135
0H1293Q1260 -10 1227 -31Q1186 -58 1166 -80Q1137 -111 1121 -147Q1103 -188 1102 -236Q1102 -261 1112 -285Q1120 -303 1141 -317Q1164 -331 1186 -338Q1211 -344 1244 -344Q1262 -344 1303 -340Q1338 -336 1373 -328V-459Q1361 -467 1334 -473Q1299 -481 1287
-483L1237 -489Q1221 -491 1198 -492Q1044 -492 971 -438Q893 -383 893 -266Z" />
<glyph unicode="&#x105;" glyph-name="aogonek" horiz-adv-x="1226" d="M410 305Q410 217 438 172Q467 129 526 129Q569 129 606 147Q639 163 666 201Q695 240 705 283Q719 340 719 391V545L627 539Q568 537 524 520Q487 506 457 473Q434 448 422 403Q410 360
410 305ZM592 999Q555 999 526 983Q499 969 483 936Q467 901 461 866Q455 827 455 778Q320 778 248 809Q178 840 178 915Q178 972 211 1011T303 1075T436 1112Q512 1124 600 1124Q709 1124 788 1106T922 1047Q977 1006 1004 938Q1031 872 1030 776V254Q1030 213
1036 184Q1042 153 1057 139Q1073 123 1096 117Q1129 109 1153 109H1161V0H780L737 141H719Q674 88 655 70Q626 41 592 18Q563 0 514 -10Q467 -20 414 -20Q342 -20 287 0Q226 23 186 61Q139 108 117 166Q92 227 92 313Q92 479 207 559Q324 641 551 647L719 653V766Q719
803 715 860Q713 899 698 934Q688 959 659 981Q635 999 592 999ZM542 -266Q542 -215 563 -174Q586 -131 616 -96Q645 -65 694 -37Q737 -12 784 0H942Q909 -10 876 -31Q835 -58 815 -80Q786 -111 770 -147Q752 -188 751 -236Q751 -261 761 -285Q769 -303 790 -317Q813
-331 835 -338Q860 -344 893 -344Q911 -344 952 -340Q987 -336 1022 -328V-459Q1010 -467 983 -473Q948 -481 936 -483L886 -489Q870 -491 847 -492Q693 -492 620 -438Q542 -383 542 -266Z" />
<glyph unicode="&#x106;" glyph-name="Cacute" horiz-adv-x="1366" d="M870 143Q952 143 1004 160Q1059 176 1108 207Q1154 235 1188 268Q1227 307 1249 338Q1264 326 1274 301Q1284 274 1284 250Q1284 209 1262 160Q1239 113 1184 72Q1127 29 1040 6Q944 -21
821 -20Q643 -20 510 35Q375 92 289 186T158 426T113 733Q113 901 158 1036Q205 1179 291 1274Q380 1372 512 1427T819 1483Q938 1483 1024 1464Q1106 1448 1169 1413Q1230 1380 1257 1339Q1286 1294 1286 1245Q1286 1210 1270 1174Q1258 1145 1221 1118Q1186 1091
1141 1081Q1084 1067 1030 1067Q1030 1128 1020 1169Q1008 1222 981 1260Q948 1305 911 1327Q868 1352 805 1352Q711 1352 641 1311T533 1192T476 998T457 733Q457 590 479 473Q499 364 551 289Q598 217 677 180T870 143ZM670 1606Q693 1635 719 1673L774 1751Q799
1788 827 1833Q856 1880 868 1907H1190V1886Q1176 1863 1126 1819Q1077 1772 1028 1735L915 1649Q860 1608 809 1579H670V1606Z" />
<glyph unicode="&#x107;" glyph-name="cacute" horiz-adv-x="1077" d="M604 -20Q493 -20 397 8Q307 35 238 104Q170 172 133 281Q96 389 96 545Q96 713 135 821Q176 936 240 999Q310 1069 399 1096Q495 1125 598 1124Q690 1124 772 1108Q840 1094 899 1063Q946
1038 977 993Q1004 954 1004 909Q1004 868 993 844Q981 811 953 789T870 750Q821 736 739 735Q739 786 733 836Q727 879 711 920Q697 955 670 977T606 999Q565 999 526 977Q489 955 465 903Q436 844 426 766Q412 666 412 547Q412 338 469 236T655 133Q707 133 754
145Q803 157 840 180T905 233Q934 266 952 299Q977 285 989 258Q1001 233 1001 205Q1001 168 979 127Q959 88 907 53Q864 24 782 0Q713 -20 604 -20ZM447 1268Q470 1297 496 1335L551 1413Q576 1450 604 1495Q633 1542 645 1569H967V1548Q953 1525 903 1481Q854
1434 805 1397L692 1311Q637 1270 586 1241H447V1268Z" />
<glyph unicode="&#x108;" glyph-name="Ccircumflex" horiz-adv-x="1366" d="M870 143Q952 143 1004 160Q1059 176 1108 207Q1154 235 1188 268Q1227 307 1249 338Q1264 326 1274 301Q1284 274 1284 250Q1284 209 1262 160Q1239 113 1184 72Q1127 29 1040 6Q944
-21 821 -20Q643 -20 510 35Q375 92 289 186T158 426T113 733Q113 901 158 1036Q205 1179 291 1274Q380 1372 512 1427T819 1483Q938 1483 1024 1464Q1106 1448 1169 1413Q1230 1380 1257 1339Q1286 1294 1286 1245Q1286 1210 1270 1174Q1258 1145 1221 1118Q1186
1091 1141 1081Q1084 1067 1030 1067Q1030 1128 1020 1169Q1008 1222 981 1260Q948 1305 911 1327Q868 1352 805 1352Q711 1352 641 1311T533 1192T476 998T457 733Q457 590 479 473Q499 364 551 289Q598 217 677 180T870 143ZM413 1606L469 1673L534 1751Q561
1786 594 1833Q627 1882 639 1907H915Q927 1882 960 1833Q993 1786 1020 1751L1083 1673L1140 1606V1579H999L950 1618L888 1667L829 1716L776 1763L723 1716L663 1667Q649 1655 634 1643T604 1618L555 1579H413V1606Z" />
<glyph unicode="&#x109;" glyph-name="ccircumflex" horiz-adv-x="1077" d="M604 -20Q493 -20 397 8Q307 35 238 104Q170 172 133 281Q96 389 96 545Q96 713 135 821Q176 936 240 999Q310 1069 399 1096Q495 1125 598 1124Q690 1124 772 1108Q840 1094 899 1063Q946
1038 977 993Q1004 954 1004 909Q1004 868 993 844Q981 811 953 789T870 750Q821 736 739 735Q739 786 733 836Q727 879 711 920Q697 955 670 977T606 999Q565 999 526 977Q489 955 465 903Q436 844 426 766Q412 666 412 547Q412 338 469 236T655 133Q707 133 754
145Q803 157 840 180T905 233Q934 266 952 299Q977 285 989 258Q1001 233 1001 205Q1001 168 979 127Q959 88 907 53Q864 24 782 0Q713 -20 604 -20ZM227 1268L283 1335L348 1413Q375 1448 408 1495Q441 1544 453 1569H729Q741 1544 774 1495Q807 1448 834 1413L897
1335L954 1268V1241H813L764 1280L702 1329L643 1378L590 1425L537 1378L477 1329Q463 1317 448 1305T418 1280L369 1241H227V1268Z" />
<glyph unicode="&#x10a;" glyph-name="Cdotaccent" horiz-adv-x="1366" d="M870 143Q952 143 1004 160Q1059 176 1108 207Q1154 235 1188 268Q1227 307 1249 338Q1264 326 1274 301Q1284 274 1284 250Q1284 209 1262 160Q1239 113 1184 72Q1127 29 1040 6Q944
-21 821 -20Q643 -20 510 35Q375 92 289 186T158 426T113 733Q113 901 158 1036Q205 1179 291 1274Q380 1372 512 1427T819 1483Q938 1483 1024 1464Q1106 1448 1169 1413Q1230 1380 1257 1339Q1286 1294 1286 1245Q1286 1210 1270 1174Q1258 1145 1221 1118Q1186
1091 1141 1081Q1084 1067 1030 1067Q1030 1128 1020 1169Q1008 1222 981 1260Q948 1305 911 1327Q868 1352 805 1352Q711 1352 641 1311T533 1192T476 998T457 733Q457 590 479 473Q499 364 551 289Q598 217 677 180T870 143ZM621 1768Q621 1803 635 1835Q647
1862 672 1880Q695 1896 727 1907Q754 1915 795 1915T863 1907Q896 1897 918 1880Q943 1862 957 1835T971 1768Q971 1729 957 1702T918 1657Q891 1637 863 1628Q836 1620 795 1620T727 1628Q698 1636 672 1657Q647 1675 635 1702Q621 1735 621 1768Z" />
<glyph unicode="&#x10b;" glyph-name="cdotaccent" horiz-adv-x="1077" d="M604 -20Q493 -20 397 8Q307 35 238 104Q170 172 133 281Q96 389 96 545Q96 713 135 821Q176 936 240 999Q310 1069 399 1096Q495 1125 598 1124Q690 1124 772 1108Q840 1094 899 1063Q946
1038 977 993Q1004 954 1004 909Q1004 868 993 844Q981 811 953 789T870 750Q821 736 739 735Q739 786 733 836Q727 879 711 920Q697 955 670 977T606 999Q565 999 526 977Q489 955 465 903Q436 844 426 766Q412 666 412 547Q412 338 469 236T655 133Q707 133 754
145Q803 157 840 180T905 233Q934 266 952 299Q977 285 989 258Q1001 233 1001 205Q1001 168 979 127Q959 88 907 53Q864 24 782 0Q713 -20 604 -20ZM418 1430Q418 1465 432 1497Q444 1524 469 1542Q492 1558 524 1569Q551 1577 592 1577T660 1569Q693 1559 715
1542Q740 1524 754 1497T768 1430Q768 1391 754 1364T715 1319Q688 1299 660 1290Q633 1282 592 1282T524 1290Q495 1298 469 1319Q444 1337 432 1364Q418 1397 418 1430Z" />
<glyph unicode="&#x10c;" glyph-name="Ccaron" horiz-adv-x="1366" d="M870 143Q952 143 1004 160Q1059 176 1108 207Q1154 235 1188 268Q1227 307 1249 338Q1264 326 1274 301Q1284 274 1284 250Q1284 209 1262 160Q1239 113 1184 72Q1127 29 1040 6Q944 -21
821 -20Q643 -20 510 35Q375 92 289 186T158 426T113 733Q113 901 158 1036Q205 1179 291 1274Q380 1372 512 1427T819 1483Q938 1483 1024 1464Q1106 1448 1169 1413Q1230 1380 1257 1339Q1286 1294 1286 1245Q1286 1210 1270 1174Q1258 1145 1221 1118Q1186 1091
1141 1081Q1084 1067 1030 1067Q1030 1128 1020 1169Q1008 1222 981 1260Q948 1305 911 1327Q868 1352 805 1352Q711 1352 641 1311T533 1192T476 998T457 733Q457 590 479 473Q499 364 551 289Q598 217 677 180T870 143ZM413 1907H555L604 1868Q618 1856 633 1844T663
1819Q677 1809 684 1802T702 1786T723 1768Q735 1758 749 1747T776 1722Q788 1734 802 1745T829 1768Q839 1778 849 1786T867 1801T888 1819L950 1868L999 1907H1140V1880L1083 1813L1020 1735Q979 1682 960 1655Q929 1610 915 1579H639Q625 1610 594 1655Q576
1682 534 1735L469 1813L413 1880V1907Z" />
<glyph unicode="&#x10d;" glyph-name="ccaron" horiz-adv-x="1077" d="M604 -20Q493 -20 397 8Q307 35 238 104Q170 172 133 281Q96 389 96 545Q96 713 135 821Q176 936 240 999Q310 1069 399 1096Q495 1125 598 1124Q690 1124 772 1108Q840 1094 899 1063Q946
1038 977 993Q1004 954 1004 909Q1004 868 993 844Q981 811 953 789T870 750Q821 736 739 735Q739 786 733 836Q727 879 711 920Q697 955 670 977T606 999Q565 999 526 977Q489 955 465 903Q436 844 426 766Q412 666 412 547Q412 338 469 236T655 133Q707 133 754
145Q803 157 840 180T905 233Q934 266 952 299Q977 285 989 258Q1001 233 1001 205Q1001 168 979 127Q959 88 907 53Q864 24 782 0Q713 -20 604 -20ZM229 1569H371L420 1530Q434 1518 449 1506T479 1481Q493 1471 500 1464T518 1448T539 1430Q551 1420 565 1409T592
1384Q604 1396 618 1407T645 1430Q655 1440 665 1448T683 1463T704 1481L766 1530L815 1569H956V1542L899 1475L836 1397Q795 1344 776 1317Q745 1272 731 1241H455Q441 1272 410 1317Q392 1344 350 1397L285 1475L229 1542V1569Z" />
<glyph unicode="&#x10e;" glyph-name="Dcaron" horiz-adv-x="1570" d="M1458 758Q1458 592 1411 451Q1364 312 1274 212T1047 55Q912 0 733 0H57V109H143Q159 109 184 113Q200 115 217 131Q229 143 240 172Q248 195 248 242V1229Q248 1272 240 1294Q230 1321 217
1331Q197 1347 184 1350Q159 1354 143 1354H57V1462H733Q897 1462 1038 1417Q1171 1374 1266 1284Q1362 1190 1409 1065Q1458 933 1458 758ZM1112 758Q1112 1049 1004 1194Q898 1337 688 1337H571V127H686Q790 127 870 170T1004 297Q1061 387 1085 494Q1112 606
1112 758ZM387 1907H529L578 1868Q592 1856 607 1844T637 1819Q651 1809 658 1802T676 1786T697 1768Q709 1758 723 1747T750 1722Q762 1734 776 1745T803 1768Q813 1778 823 1786T841 1801T862 1819L924 1868L973 1907H1114V1880L1057 1813L994 1735Q953 1682
934 1655Q903 1610 889 1579H613Q599 1610 568 1655Q550 1682 508 1735L443 1813L387 1880V1907Z" />
<glyph unicode="&#x10f;" glyph-name="dcaron" horiz-adv-x="1327" d="M1122 252Q1122 203 1137 176Q1153 145 1174 133Q1192 121 1227 115Q1258 109 1292 109H1300V0H903L846 160H827Q811 127 774 86Q741 51 707 29Q664 2 621 -8Q572 -20 512 -20Q414 -20 334
14Q252 51 203 117Q148 193 121 293Q94 397 94 547Q94 699 121 803Q148 909 203 983Q255 1054 332 1087Q412 1122 508 1122Q566 1122 612 1110Q657 1098 696 1075Q741 1048 764 1024Q795 989 813 958H827Q825 978 822 1014T819 1065Q819 1073 818 1087T817 1108Q817
1116 815 1129T813 1149T812 1167T811 1184V1208V1321Q811 1360 797 1389Q783 1416 762 1427Q739 1441 709 1444Q668 1448 645 1448H629V1556H1122V252ZM600 133Q663 133 702 158Q739 181 766 236T801 367Q811 455 811 551Q811 643 801 731Q793 807 766 862T702
944Q663 971 600 971Q547 971 512 944Q473 915 453 862Q428 799 420 729Q410 641 410 549Q410 340 453 236Q496 133 600 133ZM1235 1255Q1253 1316 1255 1323Q1259 1341 1265 1360T1278 1403Q1286 1430 1298 1483Q1312 1544 1314 1556H1552V1536L1515 1464Q1503
1444 1466 1384L1411 1303L1357 1229H1235V1255Z" />
<glyph unicode="&#x110;" glyph-name="Dcroat" horiz-adv-x="1570" d="M1458 758Q1458 592 1411 451Q1364 312 1274 212T1047 55Q912 0 733 0H57V109H143Q159 109 184 113Q200 115 217 131Q229 143 240 172Q248 195 248 242V702H78V827H248V1229Q248 1272 240
1294Q230 1321 217 1331Q197 1347 184 1350Q159 1354 143 1354H57V1462H733Q897 1462 1038 1417Q1171 1374 1266 1284Q1362 1190 1409 1065Q1458 933 1458 758ZM1112 758Q1112 1049 1004 1194Q898 1337 688 1337H571V827H827V702H571V127H686Q790 127 870 170T1004
297Q1061 387 1085 494Q1112 606 1112 758Z" />
<glyph unicode="&#x111;" glyph-name="" horiz-adv-x="1327" d="M1122 1292H1300V1184H1122V252Q1122 203 1137 176Q1153 145 1174 133Q1192 121 1227 115Q1258 109 1292 109H1300V0H903L846 160H827Q811 127 774 86Q741 51 707 29Q664 2 621 -8Q572 -20 512 -20Q416
-20 334 12Q256 43 203 109Q148 177 121 275T94 516Q94 661 120 759T203 930Q252 993 332 1028Q406 1061 508 1061Q566 1061 612 1049Q657 1037 696 1014Q741 987 764 963Q789 934 813 897H827Q825 917 822 955T819 1010Q819 1016 818 1032T817 1055T815 1075T813
1098T812 1118T811 1137V1163V1184H494V1292H811V1321Q811 1360 797 1389Q783 1416 762 1427Q739 1441 709 1444Q668 1448 645 1448H629V1556H1122V1292ZM600 133Q666 133 702 156Q741 181 766 227Q793 280 801 348Q811 430 811 520Q811 604 801 686Q793 758 766
809Q741 858 702 883Q659 910 600 909Q496 909 453 809T410 518Q410 324 453 229Q496 133 600 133Z" />
<glyph unicode="&#x112;" glyph-name="Emacron" horiz-adv-x="1335" d="M573 125H983Q1016 125 1036 137Q1059 149 1073 170Q1091 197 1100 219Q1106 239 1114 281L1130 377H1272L1257 0H57V109H143Q159 109 184 113Q200 115 217 129Q229 139 240 166Q248 189
248 231V1221Q248 1268 240 1290Q230 1319 217 1331Q201 1347 184 1350Q159 1354 143 1354H57V1462H1194L1202 1085H1059L1049 1182Q1039 1262 1012 1296Q981 1337 918 1337H573V825H1059V702H573V125ZM971 1579H377V1741H971V1579Z" />
<glyph unicode="&#x113;" glyph-name="emacron" horiz-adv-x="1167" d="M608 991Q520 991 471 905T416 657H770Q770 741 762 797Q754 854 733 901Q715 946 682 968T608 991ZM627 -20Q502 -20 397 18Q301 55 231 127Q163 199 129 305Q96 405 96 543Q96 693 129
797T229 979Q290 1049 389 1087Q484 1124 604 1124Q710 1124 805 1092Q893 1061 954 999Q1017 936 1050 846T1083 631V526H412Q414 426 434 348Q450 285 489 227Q524 178 573 156Q624 133 686 133Q738 133 784 145Q825 155 866 180Q899 198 930 233Q955 260 975
299Q1030 268 1030 199Q1030 156 1006 115Q983 76 932 45Q887 16 807 -2Q729 -20 627 -20ZM918 1241H324V1403H918V1241Z" />
<glyph unicode="&#x114;" glyph-name="Ebreve" horiz-adv-x="1335" d="M573 125H983Q1016 125 1036 137Q1059 149 1073 170Q1091 197 1100 219Q1106 239 1114 281L1130 377H1272L1257 0H57V109H143Q159 109 184 113Q200 115 217 129Q229 139 240 166Q248 189 248
231V1221Q248 1268 240 1290Q230 1319 217 1331Q201 1347 184 1350Q159 1354 143 1354H57V1462H1194L1202 1085H1059L1049 1182Q1039 1262 1012 1296Q981 1337 918 1337H573V825H1059V702H573V125ZM684 1579Q606 1579 543 1607T440 1681Q400 1727 379 1786Q361
1837 356 1901H491Q509 1829 559 1794Q606 1761 684 1761T809 1794Q858 1829 876 1901H1012Q1008 1838 989 1786Q967 1728 928 1681Q889 1636 826 1608T684 1579Z" />
<glyph unicode="&#x115;" glyph-name="ebreve" horiz-adv-x="1167" d="M608 991Q520 991 471 905T416 657H770Q770 741 762 797Q754 854 733 901Q715 946 682 968T608 991ZM627 -20Q502 -20 397 18Q301 55 231 127Q163 199 129 305Q96 405 96 543Q96 693 129 797T229
979Q290 1049 389 1087Q484 1124 604 1124Q710 1124 805 1092Q893 1061 954 999Q1017 936 1050 846T1083 631V526H412Q414 426 434 348Q450 285 489 227Q524 178 573 156Q624 133 686 133Q738 133 784 145Q825 155 866 180Q899 198 930 233Q955 260 975 299Q1030
268 1030 199Q1030 156 1006 115Q983 76 932 45Q887 16 807 -2Q729 -20 627 -20ZM604 1241Q526 1241 463 1269T360 1343Q320 1389 299 1448Q281 1499 276 1563H411Q429 1491 479 1456Q526 1423 604 1423T729 1456Q778 1491 796 1563H932Q928 1500 909 1448Q887
1390 848 1343Q809 1298 746 1270T604 1241Z" />
<glyph unicode="&#x116;" glyph-name="Edotaccent" horiz-adv-x="1335" d="M573 125H983Q1016 125 1036 137Q1059 149 1073 170Q1091 197 1100 219Q1106 239 1114 281L1130 377H1272L1257 0H57V109H143Q159 109 184 113Q200 115 217 129Q229 139 240 166Q248 189
248 231V1221Q248 1268 240 1290Q230 1319 217 1331Q201 1347 184 1350Q159 1354 143 1354H57V1462H1194L1202 1085H1059L1049 1182Q1039 1262 1012 1296Q981 1337 918 1337H573V825H1059V702H573V125ZM504 1739Q504 1774 518 1806Q530 1833 555 1851Q578 1867
610 1878Q637 1886 678 1886T746 1878Q779 1868 801 1851Q826 1833 840 1806T854 1739Q854 1700 840 1673T801 1628Q774 1608 746 1599Q719 1591 678 1591T610 1599Q581 1607 555 1628Q530 1646 518 1673Q504 1706 504 1739Z" />
<glyph unicode="&#x117;" glyph-name="edotaccent" horiz-adv-x="1167" d="M608 991Q520 991 471 905T416 657H770Q770 741 762 797Q754 854 733 901Q715 946 682 968T608 991ZM627 -20Q502 -20 397 18Q301 55 231 127Q163 199 129 305Q96 405 96 543Q96 693 129
797T229 979Q290 1049 389 1087Q484 1124 604 1124Q710 1124 805 1092Q893 1061 954 999Q1017 936 1050 846T1083 631V526H412Q414 426 434 348Q450 285 489 227Q524 178 573 156Q624 133 686 133Q738 133 784 145Q825 155 866 180Q899 198 930 233Q955 260 975
299Q1030 268 1030 199Q1030 156 1006 115Q983 76 932 45Q887 16 807 -2Q729 -20 627 -20ZM434 1430Q434 1465 448 1497Q460 1524 485 1542Q508 1558 540 1569Q567 1577 608 1577T676 1569Q709 1559 731 1542Q756 1524 770 1497T784 1430Q784 1391 770 1364T731
1319Q704 1299 676 1290Q649 1282 608 1282T540 1290Q511 1298 485 1319Q460 1337 448 1364Q434 1397 434 1430Z" />
<glyph unicode="&#x118;" glyph-name="Eogonek" horiz-adv-x="1335" d="M573 125H983Q1016 125 1036 137Q1059 149 1073 170Q1091 197 1100 219Q1106 239 1114 281L1130 377H1272L1257 0H57V109H143Q159 109 184 113Q200 115 217 129Q229 139 240 166Q248 189
248 231V1221Q248 1268 240 1290Q230 1319 217 1331Q201 1347 184 1350Q159 1354 143 1354H57V1462H1194L1202 1085H1059L1049 1182Q1039 1262 1012 1296Q981 1337 918 1337H573V825H1059V702H573V125ZM712 -266Q712 -215 733 -174Q756 -131 786 -96Q815 -65 864
-37Q907 -12 954 0H1112Q1079 -10 1046 -31Q1005 -58 985 -80Q956 -111 940 -147Q922 -188 921 -236Q921 -261 931 -285Q939 -303 960 -317Q983 -331 1005 -338Q1030 -344 1063 -344Q1081 -344 1122 -340Q1157 -336 1192 -328V-459Q1180 -467 1153 -473Q1118 -481
1106 -483L1056 -489Q1040 -491 1017 -492Q863 -492 790 -438Q712 -383 712 -266Z" />
<glyph unicode="&#x119;" glyph-name="eogonek" horiz-adv-x="1167" d="M608 991Q520 991 471 905T416 657H770Q770 741 762 797Q754 854 733 901Q715 946 682 968T608 991ZM627 -20Q502 -20 397 18Q301 55 231 127Q163 199 129 305Q96 405 96 543Q96 693 129
797T229 979Q290 1049 389 1087Q484 1124 604 1124Q710 1124 805 1092Q893 1061 954 999Q1017 936 1050 846T1083 631V526H412Q414 426 434 348Q450 285 489 227Q524 178 573 156Q624 133 686 133Q738 133 784 145Q825 155 866 180Q899 198 930 233Q955 260 975
299Q1030 268 1030 199Q1030 156 1006 115Q983 76 932 45Q887 16 807 -2Q729 -20 627 -20ZM506 -235Q506 -184 527 -143Q550 -100 580 -65Q609 -34 658 -6Q701 19 748 31H906Q873 21 840 0Q799 -27 779 -49Q750 -80 734 -116Q716 -157 715 -205Q715 -230 725 -254Q733
-272 754 -286Q777 -300 799 -307Q824 -313 857 -313Q875 -313 916 -309Q951 -305 986 -297V-428Q974 -436 947 -442Q912 -450 900 -452L850 -458Q834 -460 811 -461Q657 -461 584 -407Q506 -352 506 -235Z" />
<glyph unicode="&#x11a;" glyph-name="Ecaron" horiz-adv-x="1335" d="M573 125H983Q1016 125 1036 137Q1059 149 1073 170Q1091 197 1100 219Q1106 239 1114 281L1130 377H1272L1257 0H57V109H143Q159 109 184 113Q200 115 217 129Q229 139 240 166Q248 189 248
231V1221Q248 1268 240 1290Q230 1319 217 1331Q201 1347 184 1350Q159 1354 143 1354H57V1462H1194L1202 1085H1059L1049 1182Q1039 1262 1012 1296Q981 1337 918 1337H573V825H1059V702H573V125ZM311 1907H453L502 1868Q516 1856 531 1844T561 1819Q575 1809
582 1802T600 1786T621 1768Q633 1758 647 1747T674 1722Q686 1734 700 1745T727 1768Q737 1778 747 1786T765 1801T786 1819L848 1868L897 1907H1038V1880L981 1813L918 1735Q877 1682 858 1655Q827 1610 813 1579H537Q523 1610 492 1655Q474 1682 432 1735L367
1813L311 1880V1907Z" />
<glyph unicode="&#x11b;" glyph-name="ecaron" horiz-adv-x="1167" d="M608 991Q520 991 471 905T416 657H770Q770 741 762 797Q754 854 733 901Q715 946 682 968T608 991ZM627 -20Q502 -20 397 18Q301 55 231 127Q163 199 129 305Q96 405 96 543Q96 693 129 797T229
979Q290 1049 389 1087Q484 1124 604 1124Q710 1124 805 1092Q893 1061 954 999Q1017 936 1050 846T1083 631V526H412Q414 426 434 348Q450 285 489 227Q524 178 573 156Q624 133 686 133Q738 133 784 145Q825 155 866 180Q899 198 930 233Q955 260 975 299Q1030
268 1030 199Q1030 156 1006 115Q983 76 932 45Q887 16 807 -2Q729 -20 627 -20ZM233 1569H375L424 1530Q438 1518 453 1506T483 1481Q497 1471 504 1464T522 1448T543 1430Q555 1420 569 1409T596 1384Q608 1396 622 1407T649 1430Q659 1440 669 1448T687 1463T708
1481L770 1530L819 1569H960V1542L903 1475L840 1397Q799 1344 780 1317Q749 1272 735 1241H459Q445 1272 414 1317Q396 1344 354 1397L289 1475L233 1542V1569Z" />
<glyph unicode="&#x11c;" glyph-name="Gcircumflex" horiz-adv-x="1574" d="M866 -20Q676 -20 535 35Q392 90 299 186Q209 280 160 426Q113 567 113 733Q113 897 162 1036Q211 1173 307 1274Q402 1372 547 1427T877 1483Q1004 1483 1100 1464Q1188 1448 1260 1413Q1330
1380 1358 1339Q1389 1296 1389 1245Q1389 1204 1372 1178Q1354 1145 1321 1122Q1288 1097 1237 1085Q1180 1071 1124 1071Q1124 1137 1110 1186T1063 1274Q1034 1309 983 1331Q936 1351 870 1352Q761 1352 680 1311Q600 1270 551 1192Q500 1108 479 997Q456 874
457 733Q457 586 481 471Q508 352 557 279Q612 199 692 160Q778 119 897 119Q924 119 973 123T1047 133V434Q1047 518 1010 549T901 580H874V688H1518V580H1491Q1458 580 1438 573Q1415 567 1399 547T1376 500Q1370 469 1370 426V90Q1253 37 1128 8Q1001 -20 866
-20ZM475 1606L531 1673L596 1751Q623 1786 656 1833Q689 1882 701 1907H977Q989 1882 1022 1833Q1055 1786 1082 1751L1145 1673L1202 1606V1579H1061L1012 1618L950 1667L891 1716L838 1763L785 1716L725 1667Q711 1655 696 1643T666 1618L617 1579H475V1606Z"
/>
<glyph unicode="&#x11d;" glyph-name="gcircumflex" horiz-adv-x="1146" d="M1137 1059Q1137 1036 1130 1014Q1126 998 1106 977Q1092 963 1061 953T991 942Q991 964 985 979Q979 993 967 1006Q957 1016 942 1022Q926 1028 913 1028Q895 1028 877 1022Q861 1016
846 1006Q866 986 885 954Q910 913 918 891T938 819Q946 786 946 745Q946 667 922 602Q897 539 846 489Q795 442 717 414Q643 387 532 387H504Q496 387 487 388T469 389Q463 389 453 390T438 391Q432 391 424 392T414 393Q408 389 387 375Q369 363 362 352Q352
338 346 324Q340 308 340 289Q340 254 367 240Q396 224 436 223H684Q782 223 860 201Q934 179 983 139Q1034 98 1055 41Q1078 -20 1077 -90Q1077 -186 1041 -260T932 -385Q858 -437 748 -465Q642 -492 483 -492Q239 -492 123 -420Q4 -346 4 -207Q4 -98 76 -39Q146
18 281 31Q244 47 226 57T178 96Q155 119 143 147T131 213Q131 244 145 276Q157 304 182 332Q200 352 239 381T313 428Q276 440 229 473Q192 498 164 541Q136 581 121 633Q105 688 104 745Q104 925 209 1024Q315 1124 532 1124Q606 1124 668 1106Q723 1090 776
1061Q792 1079 813 1100Q819 1106 860 1137Q876 1149 918 1165Q943 1175 989 1176Q1028 1176 1052 1168T1100 1141Q1120 1125 1128 1104Q1137 1086 1137 1059ZM246 -203Q246 -287 307 -328Q370 -369 487 -369Q667 -369 749 -318T831 -164Q831 -98 791 -74Q748 -47
666 -47H428Q395 -47 365 -53Q332 -59 307 -76Q278 -94 262 -123Q246 -150 246 -203ZM383 745Q383 704 391 647Q397 604 416 573Q436 538 459 524Q484 508 526 508Q565 508 594 524Q619 538 637 573Q653 606 659 649T666 748Q666 806 659 852Q655 889 635 932Q621
965 592 983Q564 1001 524 1001Q487 1001 457 981Q428 963 414 930Q396 887 389 848Q383 802 383 745ZM426 1268L482 1335L547 1413Q574 1448 607 1495Q640 1544 652 1569H928Q940 1544 973 1495Q1006 1448 1033 1413L1096 1335L1153 1268V1241H1012L963 1280L901
1329L842 1378L789 1425L736 1378L676 1329Q662 1317 647 1305T617 1280L568 1241H426V1268Z" />
<glyph unicode="&#x11e;" glyph-name="Gbreve" horiz-adv-x="1574" d="M866 -20Q676 -20 535 35Q392 90 299 186Q209 280 160 426Q113 567 113 733Q113 897 162 1036Q211 1173 307 1274Q402 1372 547 1427T877 1483Q1004 1483 1100 1464Q1188 1448 1260 1413Q1330
1380 1358 1339Q1389 1296 1389 1245Q1389 1204 1372 1178Q1354 1145 1321 1122Q1288 1097 1237 1085Q1180 1071 1124 1071Q1124 1137 1110 1186T1063 1274Q1034 1309 983 1331Q936 1351 870 1352Q761 1352 680 1311Q600 1270 551 1192Q500 1108 479 997Q456 874
457 733Q457 586 481 471Q508 352 557 279Q612 199 692 160Q778 119 897 119Q924 119 973 123T1047 133V434Q1047 518 1010 549T901 580H874V688H1518V580H1491Q1458 580 1438 573Q1415 567 1399 547T1376 500Q1370 469 1370 426V90Q1253 37 1128 8Q1001 -20 866
-20ZM838 1579Q760 1579 697 1607T594 1681Q554 1727 533 1786Q515 1837 510 1901H645Q663 1829 713 1794Q760 1761 838 1761T963 1794Q1012 1829 1030 1901H1166Q1162 1838 1143 1786Q1121 1728 1082 1681Q1043 1636 980 1608T838 1579Z" />
<glyph unicode="&#x11f;" glyph-name="gbreve" horiz-adv-x="1146" d="M1137 1059Q1137 1036 1130 1014Q1126 998 1106 977Q1092 963 1061 953T991 942Q991 964 985 979Q979 993 967 1006Q957 1016 942 1022Q926 1028 913 1028Q895 1028 877 1022Q861 1016 846
1006Q866 986 885 954Q910 913 918 891T938 819Q946 786 946 745Q946 667 922 602Q897 539 846 489Q795 442 717 414Q643 387 532 387H504Q496 387 487 388T469 389Q463 389 453 390T438 391Q432 391 424 392T414 393Q408 389 387 375Q369 363 362 352Q352 338
346 324Q340 308 340 289Q340 254 367 240Q396 224 436 223H684Q782 223 860 201Q934 179 983 139Q1034 98 1055 41Q1078 -20 1077 -90Q1077 -186 1041 -260T932 -385Q858 -437 748 -465Q642 -492 483 -492Q239 -492 123 -420Q4 -346 4 -207Q4 -98 76 -39Q146 18
281 31Q244 47 226 57T178 96Q155 119 143 147T131 213Q131 244 145 276Q157 304 182 332Q200 352 239 381T313 428Q276 440 229 473Q192 498 164 541Q136 581 121 633Q105 688 104 745Q104 925 209 1024Q315 1124 532 1124Q606 1124 668 1106Q723 1090 776 1061Q792
1079 813 1100Q819 1106 860 1137Q876 1149 918 1165Q943 1175 989 1176Q1028 1176 1052 1168T1100 1141Q1120 1125 1128 1104Q1137 1086 1137 1059ZM246 -203Q246 -287 307 -328Q370 -369 487 -369Q667 -369 749 -318T831 -164Q831 -98 791 -74Q748 -47 666 -47H428Q395
-47 365 -53Q332 -59 307 -76Q278 -94 262 -123Q246 -150 246 -203ZM383 745Q383 704 391 647Q397 604 416 573Q436 538 459 524Q484 508 526 508Q565 508 594 524Q619 538 637 573Q653 606 659 649T666 748Q666 806 659 852Q655 889 635 932Q621 965 592 983Q564
1001 524 1001Q487 1001 457 981Q428 963 414 930Q396 887 389 848Q383 802 383 745ZM780 1241Q702 1241 639 1269T536 1343Q496 1389 475 1448Q457 1499 452 1563H587Q605 1491 655 1456Q702 1423 780 1423T905 1456Q954 1491 972 1563H1108Q1104 1500 1085 1448Q1063
1390 1024 1343Q985 1298 922 1270T780 1241Z" />
<glyph unicode="&#x120;" glyph-name="Gdotaccent" horiz-adv-x="1574" d="M866 -20Q676 -20 535 35Q392 90 299 186Q209 280 160 426Q113 567 113 733Q113 897 162 1036Q211 1173 307 1274Q402 1372 547 1427T877 1483Q1004 1483 1100 1464Q1188 1448 1260 1413Q1330
1380 1358 1339Q1389 1296 1389 1245Q1389 1204 1372 1178Q1354 1145 1321 1122Q1288 1097 1237 1085Q1180 1071 1124 1071Q1124 1137 1110 1186T1063 1274Q1034 1309 983 1331Q936 1351 870 1352Q761 1352 680 1311Q600 1270 551 1192Q500 1108 479 997Q456 874
457 733Q457 586 481 471Q508 352 557 279Q612 199 692 160Q778 119 897 119Q924 119 973 123T1047 133V434Q1047 518 1010 549T901 580H874V688H1518V580H1491Q1458 580 1438 573Q1415 567 1399 547T1376 500Q1370 469 1370 426V90Q1253 37 1128 8Q1001 -20 866
-20ZM662 1768Q662 1803 676 1835Q688 1862 713 1880Q736 1896 768 1907Q795 1915 836 1915T904 1907Q937 1897 959 1880Q984 1862 998 1835T1012 1768Q1012 1729 998 1702T959 1657Q932 1637 904 1628Q877 1620 836 1620T768 1628Q739 1636 713 1657Q688 1675
676 1702Q662 1735 662 1768Z" />
<glyph unicode="&#x121;" glyph-name="gdotaccent" horiz-adv-x="1146" d="M1137 1059Q1137 1036 1130 1014Q1126 998 1106 977Q1092 963 1061 953T991 942Q991 964 985 979Q979 993 967 1006Q957 1016 942 1022Q926 1028 913 1028Q895 1028 877 1022Q861 1016
846 1006Q866 986 885 954Q910 913 918 891T938 819Q946 786 946 745Q946 667 922 602Q897 539 846 489Q795 442 717 414Q643 387 532 387H504Q496 387 487 388T469 389Q463 389 453 390T438 391Q432 391 424 392T414 393Q408 389 387 375Q369 363 362 352Q352
338 346 324Q340 308 340 289Q340 254 367 240Q396 224 436 223H684Q782 223 860 201Q934 179 983 139Q1034 98 1055 41Q1078 -20 1077 -90Q1077 -186 1041 -260T932 -385Q858 -437 748 -465Q642 -492 483 -492Q239 -492 123 -420Q4 -346 4 -207Q4 -98 76 -39Q146
18 281 31Q244 47 226 57T178 96Q155 119 143 147T131 213Q131 244 145 276Q157 304 182 332Q200 352 239 381T313 428Q276 440 229 473Q192 498 164 541Q136 581 121 633Q105 688 104 745Q104 925 209 1024Q315 1124 532 1124Q606 1124 668 1106Q723 1090 776
1061Q792 1079 813 1100Q819 1106 860 1137Q876 1149 918 1165Q943 1175 989 1176Q1028 1176 1052 1168T1100 1141Q1120 1125 1128 1104Q1137 1086 1137 1059ZM246 -203Q246 -287 307 -328Q370 -369 487 -369Q667 -369 749 -318T831 -164Q831 -98 791 -74Q748 -47
666 -47H428Q395 -47 365 -53Q332 -59 307 -76Q278 -94 262 -123Q246 -150 246 -203ZM383 745Q383 704 391 647Q397 604 416 573Q436 538 459 524Q484 508 526 508Q565 508 594 524Q619 538 637 573Q653 606 659 649T666 748Q666 806 659 852Q655 889 635 932Q621
965 592 983Q564 1001 524 1001Q487 1001 457 981Q428 963 414 930Q396 887 389 848Q383 802 383 745ZM350 1430Q350 1465 364 1497Q376 1524 401 1542Q424 1558 456 1569Q483 1577 524 1577T592 1569Q625 1559 647 1542Q672 1524 686 1497T700 1430Q700 1391 686
1364T647 1319Q620 1299 592 1290Q565 1282 524 1282T456 1290Q427 1298 401 1319Q376 1337 364 1364Q350 1397 350 1430Z" />
<glyph unicode="&#x122;" glyph-name="Gcommaaccent" horiz-adv-x="1574" d="M866 -20Q676 -20 535 35Q392 90 299 186Q209 280 160 426Q113 567 113 733Q113 897 162 1036Q211 1173 307 1274Q402 1372 547 1427T877 1483Q1004 1483 1100 1464Q1188 1448 1260
1413Q1330 1380 1358 1339Q1389 1296 1389 1245Q1389 1204 1372 1178Q1354 1145 1321 1122Q1288 1097 1237 1085Q1180 1071 1124 1071Q1124 1137 1110 1186T1063 1274Q1034 1309 983 1331Q936 1351 870 1352Q761 1352 680 1311Q600 1270 551 1192Q500 1108 479
997Q456 874 457 733Q457 586 481 471Q508 352 557 279Q612 199 692 160Q778 119 897 119Q924 119 973 123T1047 133V434Q1047 518 1010 549T901 580H874V688H1518V580H1491Q1458 580 1438 573Q1415 567 1399 547T1376 500Q1370 469 1370 426V90Q1253 37 1128 8Q1001
-20 866 -20ZM633 -426Q639 -410 643 -393T654 -356Q658 -342 665 -316T676 -279Q684 -252 697 -199Q711 -138 713 -125H951V-145L914 -217Q896 -250 865 -299L809 -381Q799 -395 781 -419T756 -453H633V-426Z" />
<glyph unicode="&#x123;" glyph-name="gcommaaccent" horiz-adv-x="1146" d="M1137 1059Q1137 1036 1130 1014Q1126 998 1106 977Q1092 963 1061 953T991 942Q991 964 985 979Q979 993 967 1006Q957 1016 942 1022Q926 1028 913 1028Q895 1028 877 1022Q861 1016
846 1006Q866 986 885 954Q910 913 918 891T938 819Q946 786 946 745Q946 667 922 602Q897 539 846 489Q795 442 717 414Q643 387 532 387H504Q496 387 487 388T469 389Q463 389 453 390T438 391Q432 391 424 392T414 393Q408 389 387 375Q369 363 362 352Q352
338 346 324Q340 308 340 289Q340 254 367 240Q396 224 436 223H684Q782 223 860 201Q934 179 983 139Q1034 98 1055 41Q1078 -20 1077 -90Q1077 -186 1041 -260T932 -385Q858 -437 748 -465Q642 -492 483 -492Q239 -492 123 -420Q4 -346 4 -207Q4 -98 76 -39Q146
18 281 31Q244 47 226 57T178 96Q155 119 143 147T131 213Q131 244 145 276Q157 304 182 332Q200 352 239 381T313 428Q276 440 229 473Q192 498 164 541Q136 581 121 633Q105 688 104 745Q104 925 209 1024Q315 1124 532 1124Q606 1124 668 1106Q723 1090 776
1061Q792 1079 813 1100Q819 1106 860 1137Q876 1149 918 1165Q943 1175 989 1176Q1028 1176 1052 1168T1100 1141Q1120 1125 1128 1104Q1137 1086 1137 1059ZM246 -203Q246 -287 307 -328Q370 -369 487 -369Q667 -369 749 -318T831 -164Q831 -98 791 -74Q748 -47
666 -47H428Q395 -47 365 -53Q332 -59 307 -76Q278 -94 262 -123Q246 -150 246 -203ZM383 745Q383 704 391 647Q397 604 416 573Q436 538 459 524Q484 508 526 508Q565 508 594 524Q619 538 637 573Q653 606 659 649T666 748Q666 806 659 852Q655 889 635 932Q621
965 592 983Q564 1001 524 1001Q487 1001 457 981Q428 963 414 930Q396 887 389 848Q383 802 383 745ZM739 1542L717 1473Q713 1459 706 1432T694 1395Q686 1368 673 1315Q669 1297 659 1241H422V1262L458 1333Q485 1382 508 1415L563 1495L616 1569H739V1542Z"
/>
<glyph unicode="&#x124;" glyph-name="Hcircumflex" horiz-adv-x="1675" d="M913 0V109H1001Q1017 109 1042 113Q1058 115 1075 131Q1087 143 1098 172Q1106 195 1106 242V700H571V242Q571 195 580 172Q590 143 602 131Q618 115 635 113Q660 109 676 109H764V0H57V109H143Q159
109 184 113Q200 115 217 131Q229 143 240 172Q248 195 248 242V1229Q248 1272 240 1294Q230 1321 217 1331Q201 1345 182 1348Q145 1354 143 1354H57V1462H764V1354H676Q672 1354 635 1348Q619 1346 602 1329Q590 1317 580 1290Q572 1267 571 1221V825H1106V1221Q1106
1268 1098 1290Q1088 1317 1075 1329Q1059 1345 1042 1348Q1005 1354 1001 1354H913V1462H1620V1354H1534Q1530 1354 1493 1348Q1477 1346 1460 1329Q1448 1317 1438 1290Q1430 1267 1430 1221V231Q1430 188 1438 166Q1447 141 1462 129Q1478 115 1495 113Q1520
109 1534 109H1620V0H913ZM477 1606L533 1673L598 1751Q625 1786 658 1833Q691 1882 703 1907H979Q991 1882 1024 1833Q1057 1786 1084 1751L1147 1673L1204 1606V1579H1063L1014 1618L952 1667L893 1716L840 1763L787 1716L727 1667Q713 1655 698 1643T668 1618L619
1579H477V1606Z" />
<glyph unicode="&#x125;" glyph-name="hcircumflex" horiz-adv-x="1363" d="M858 0V674Q858 744 850 791Q840 844 821 879Q803 912 770 932Q739 950 694 950Q645 950 608 924Q579 904 555 854Q532 811 524 754Q516 703 516 633V242Q516 199 526 172Q534 149 555
133Q575 115 602 113Q639 109 664 109H670V0H41V109H45Q72 109 109 113Q136 115 160 133Q180 147 193 176Q205 204 205 250V1323Q205 1366 190 1389Q174 1418 154 1427Q131 1441 106 1444Q73 1448 59 1448H35V1556H516V1219Q516 1164 514 1133T508 1049L500 958H518Q545
1009 584 1049Q618 1083 657 1098Q710 1118 739 1120Q796 1124 831 1124Q905 1124 973 1102Q1034 1082 1079 1030Q1126 975 1147 907Q1170 829 1169 729V254Q1169 203 1178 178Q1190 143 1202 133T1245 115Q1270 109 1307 109H1313V0H858ZM305 1661L361 1728L426
1806Q453 1841 486 1888Q519 1937 531 1962H807Q819 1937 852 1888Q885 1841 912 1806L975 1728L1032 1661V1634H891L842 1673L780 1722L721 1771L668 1818L615 1771L555 1722Q541 1710 526 1698T496 1673L447 1634H305V1661Z" />
<glyph unicode="&#x126;" glyph-name="Hbar" horiz-adv-x="1675" d="M913 0V109H1001Q1017 109 1042 113Q1058 115 1075 131Q1087 143 1098 172Q1106 195 1106 242V700H571V242Q571 195 580 172Q590 143 602 131Q618 115 635 113Q660 109 676 109H764V0H57V109H143Q159
109 184 113Q200 115 217 131Q229 143 240 172Q248 195 248 242V1022H37V1130H248V1229Q248 1272 240 1294Q230 1321 217 1331Q197 1347 182 1350Q157 1354 143 1354H57V1462H764V1354H676Q660 1354 635 1350Q619 1348 602 1331Q590 1319 580 1290Q572 1267 571
1221V1130H1106V1221Q1106 1268 1098 1290Q1088 1319 1075 1331Q1059 1347 1042 1350Q1017 1354 1001 1354H913V1462H1620V1354H1534Q1518 1354 1493 1350Q1477 1348 1460 1331Q1448 1319 1438 1290Q1430 1267 1430 1221V1130H1640V1022H1430V231Q1430 188 1438
166Q1447 141 1462 129Q1478 115 1495 113Q1520 109 1534 109H1620V0H913ZM1106 825V1022H571V825H1106Z" />
<glyph unicode="&#x127;" glyph-name="hbar" horiz-adv-x="1363" d="M205 1292V1323Q205 1366 190 1389Q174 1418 154 1427Q131 1441 106 1444Q73 1448 59 1448H35V1556H516V1292H834V1184H516V1157Q516 1102 514 1071T508 987L500 897H518Q545 948 584 987Q621
1024 657 1038Q704 1056 739 1059Q796 1063 831 1063Q905 1063 973 1040Q1034 1020 1079 969Q1126 914 1147 846Q1170 768 1169 668V254Q1169 203 1178 178Q1190 143 1202 133T1245 115Q1270 109 1307 109H1313V0H858V612Q858 682 850 729T821 817Q805 850 770
870Q739 888 694 889Q645 889 608 862Q579 842 555 793Q532 750 524 692Q516 641 516 571V242Q516 199 526 172Q534 149 555 133Q575 115 602 113Q639 109 664 109H670V0H41V109H45Q72 109 109 113Q136 115 160 133Q180 147 193 176Q205 204 205 250V1184H27V1292H205Z"
/>
<glyph unicode="&#x128;" glyph-name="Itilde" horiz-adv-x="819" d="M57 0V109H143Q159 109 184 113Q200 115 217 131Q229 143 240 172Q248 195 248 242V1221Q248 1268 240 1290Q230 1317 217 1329Q201 1345 184 1348Q147 1354 143 1354H57V1462H764V1354H678Q674
1354 637 1348Q617 1344 602 1329Q592 1319 582 1290Q574 1267 573 1221V242Q573 195 582 172Q594 139 602 131Q616 117 637 113Q662 109 678 109H764V0H57ZM580 1774Q598 1774 618 1784T649 1806Q663 1824 670 1841Q678 1864 680 1882H813Q809 1814 791 1765Q771
1714 736 1669Q703 1628 658 1604T557 1579Q498 1579 457 1600Q394 1633 375 1643L303 1688Q270 1708 236 1708Q211 1708 195 1700Q181 1692 166 1675Q152 1657 146 1641Q138 1618 135 1600H2Q6 1668 25 1716Q45 1767 80 1813Q111 1852 160 1878Q207 1903 260 1903Q317
1903 359 1882Q435 1845 443 1839L514 1794Q547 1774 580 1774Z" />
<glyph unicode="&#x129;" glyph-name="itilde" horiz-adv-x="720" d="M59 109Q73 109 106 113Q133 117 153 131T190 172Q204 195 205 242V864Q205 907 190 930Q175 955 154 967Q125 983 106 985Q73 989 59 989H35V1098H516V242Q516 195 530 172Q546 145 567 131T614
113Q647 109 662 109H686V0H35V109H59ZM524 1436Q542 1436 562 1446T593 1468Q607 1486 614 1503Q622 1526 624 1544H757Q753 1476 735 1427Q715 1376 680 1331Q647 1290 602 1266T501 1241Q442 1241 401 1262Q338 1295 319 1305L247 1350Q214 1370 180 1370Q155
1370 139 1362Q125 1354 110 1337Q96 1319 90 1303Q82 1280 79 1262H-54Q-50 1330 -31 1378Q-11 1429 24 1475Q55 1514 104 1540Q151 1565 204 1565Q261 1565 303 1544Q379 1507 387 1501L458 1456Q491 1436 524 1436Z" />
<glyph unicode="&#x12a;" glyph-name="Imacron" horiz-adv-x="819" d="M57 0V109H143Q159 109 184 113Q200 115 217 131Q229 143 240 172Q248 195 248 242V1221Q248 1268 240 1290Q230 1317 217 1329Q201 1345 184 1348Q147 1354 143 1354H57V1462H764V1354H678Q674
1354 637 1348Q617 1344 602 1329Q592 1319 582 1290Q574 1267 573 1221V242Q573 195 582 172Q594 139 602 131Q616 117 637 113Q662 109 678 109H764V0H57ZM707 1579H113V1741H707V1579Z" />
<glyph unicode="&#x12b;" glyph-name="imacron" horiz-adv-x="720" d="M59 109Q73 109 106 113Q133 117 153 131T190 172Q204 195 205 242V864Q205 907 190 930Q175 955 154 967Q125 983 106 985Q73 989 59 989H35V1098H516V242Q516 195 530 172Q546 145 567 131T614
113Q647 109 662 109H686V0H35V109H59ZM625 1241H31V1403H625V1241Z" />
<glyph unicode="&#x12c;" glyph-name="Ibreve" horiz-adv-x="819" d="M57 0V109H143Q159 109 184 113Q200 115 217 131Q229 143 240 172Q248 195 248 242V1221Q248 1268 240 1290Q230 1317 217 1329Q201 1345 184 1348Q147 1354 143 1354H57V1462H764V1354H678Q674
1354 637 1348Q617 1344 602 1329Q592 1319 582 1290Q574 1267 573 1221V242Q573 195 582 172Q594 139 602 131Q616 117 637 113Q662 109 678 109H764V0H57ZM410 1579Q332 1579 269 1607T166 1681Q126 1727 105 1786Q87 1837 82 1901H217Q235 1829 285 1794Q332
1761 410 1761T535 1794Q584 1829 602 1901H738Q734 1838 715 1786Q693 1728 654 1681Q615 1636 552 1608T410 1579Z" />
<glyph unicode="&#x12d;" glyph-name="ibreve" horiz-adv-x="720" d="M59 109Q73 109 106 113Q133 117 153 131T190 172Q204 195 205 242V864Q205 907 190 930Q175 955 154 967Q125 983 106 985Q73 989 59 989H35V1098H516V242Q516 195 530 172Q546 145 567 131T614
113Q647 109 662 109H686V0H35V109H59ZM344 1241Q266 1241 203 1269T100 1343Q60 1389 39 1448Q21 1499 16 1563H151Q169 1491 219 1456Q266 1423 344 1423T469 1456Q518 1491 536 1563H672Q668 1500 649 1448Q627 1390 588 1343Q549 1298 486 1270T344 1241Z"
/>
<glyph unicode="&#x12e;" glyph-name="Iogonek" horiz-adv-x="819" d="M57 0V109H143Q159 109 184 113Q200 115 217 131Q229 143 240 172Q248 195 248 242V1221Q248 1268 240 1290Q230 1317 217 1329Q201 1345 184 1348Q147 1354 143 1354H57V1462H764V1354H678Q674
1354 637 1348Q617 1344 602 1329Q592 1319 582 1290Q574 1267 573 1221V242Q573 195 582 172Q594 139 602 131Q616 117 637 113Q662 109 678 109H764V0H57ZM456 -266Q456 -215 477 -174Q500 -131 530 -96Q559 -65 608 -37Q651 -12 698 0H856Q823 -10 790 -31Q749
-58 729 -80Q700 -111 684 -147Q666 -188 665 -236Q665 -261 675 -285Q683 -303 704 -317Q727 -331 749 -338Q774 -344 807 -344Q825 -344 866 -340Q901 -336 936 -328V-459Q924 -467 897 -473Q862 -481 850 -483L800 -489Q784 -491 761 -492Q607 -492 534 -438Q456
-383 456 -266Z" />
<glyph unicode="&#x12f;" glyph-name="iogonek" horiz-adv-x="720" d="M176 1430Q176 1465 190 1497Q202 1524 227 1542T281 1569Q308 1577 350 1577Q391 1577 418 1569Q451 1559 473 1542Q498 1524 512 1497T526 1430Q526 1391 512 1364T473 1319Q446 1299 418
1290Q391 1282 350 1282Q307 1282 281 1290Q256 1298 227 1319Q202 1337 190 1364Q176 1397 176 1430ZM59 109Q73 109 106 113Q133 117 153 131T190 172Q204 195 205 242V864Q205 907 190 930Q175 955 154 967Q125 983 106 985Q73 989 59 989H35V1098H516V242Q516
195 530 172Q546 145 567 131T614 113Q647 109 662 109H686V0H35V109H59ZM143 -266Q143 -215 164 -174Q187 -131 217 -96Q246 -65 295 -37Q338 -12 385 0H543Q510 -10 477 -31Q436 -58 416 -80Q387 -111 371 -147Q353 -188 352 -236Q352 -261 362 -285Q370 -303
391 -317Q414 -331 436 -338Q461 -344 494 -344Q512 -344 553 -340Q588 -336 623 -328V-459Q611 -467 584 -473Q549 -481 537 -483L487 -489Q471 -491 448 -492Q294 -492 221 -438Q143 -383 143 -266Z" />
<glyph unicode="&#x130;" glyph-name="Idot" horiz-adv-x="819" d="M57 0V109H143Q159 109 184 113Q200 115 217 131Q229 143 240 172Q248 195 248 242V1221Q248 1268 240 1290Q230 1317 217 1329Q201 1345 184 1348Q147 1354 143 1354H57V1462H764V1354H678Q674
1354 637 1348Q617 1344 602 1329Q592 1319 582 1290Q574 1267 573 1221V242Q573 195 582 172Q594 139 602 131Q616 117 637 113Q662 109 678 109H764V0H57ZM232 1768Q232 1803 246 1835Q258 1862 283 1880Q306 1896 338 1907Q365 1915 406 1915T474 1907Q507 1897
529 1880Q554 1862 568 1835T582 1768Q582 1729 568 1702T529 1657Q502 1637 474 1628Q447 1620 406 1620T338 1628Q309 1636 283 1657Q258 1675 246 1702Q232 1735 232 1768Z" />
<glyph unicode="&#x131;" glyph-name="dotlessi" horiz-adv-x="720" d="M59 109Q73 109 106 113Q133 117 153 131T190 172Q204 195 205 242V864Q205 907 190 930Q175 955 154 967Q125 983 106 985Q73 989 59 989H35V1098H516V242Q516 195 530 172Q546 145 567
131T614 113Q647 109 662 109H686V0H35V109H59Z" />
<glyph unicode="&#x132;" glyph-name="IJ" horiz-adv-x="1574" d="M57 0V109H143Q159 109 184 113Q200 115 217 131Q229 143 240 172Q248 195 248 242V1221Q248 1268 240 1290Q230 1317 217 1329Q201 1345 184 1348Q147 1354 143 1354H57V1462H764V1354H678Q674
1354 637 1348Q617 1344 602 1329Q592 1319 582 1290Q574 1267 573 1221V242Q573 195 582 172Q594 139 602 131Q616 117 637 113Q662 109 678 109H764V0H57ZM1552 1354H1466Q1450 1354 1425 1350Q1405 1346 1390 1331Q1378 1319 1368 1290Q1360 1267 1360 1221V-4Q1360
-102 1339 -170Q1316 -242 1282 -295Q1245 -348 1192 -387Q1129 -432 1081 -449Q1009 -474 952 -481Q876 -491 815 -492H741V-373H778Q829 -373 874 -355T956 -293Q991 -252 1014 -180Q1037 -106 1036 -6V1229Q1036 1272 1028 1294Q1018 1321 1005 1331Q985 1347
973 1350Q948 1354 932 1354H846V1462H1552V1354Z" />
<glyph unicode="&#x133;" glyph-name="ij" horiz-adv-x="1425" d="M176 1430Q176 1465 190 1497Q202 1524 227 1542T281 1569Q308 1577 350 1577Q391 1577 418 1569Q451 1559 473 1542Q498 1524 512 1497T526 1430Q526 1391 512 1364T473 1319Q446 1299 418 1290Q391
1282 350 1282Q307 1282 281 1290Q256 1298 227 1319Q202 1337 190 1364Q176 1397 176 1430ZM59 109Q73 109 106 113Q133 117 153 131T190 172Q204 195 205 242V864Q205 907 190 930Q175 955 154 967Q125 983 106 985Q73 989 59 989H35V1098H516V242Q516 195 530
172Q546 145 567 131T614 113Q647 109 662 109H686V0H35V109H59ZM1237 1098V-16Q1237 -155 1198 -245T1092 -391Q1022 -448 928 -469Q828 -492 721 -492H680V-365H694Q749 -365 793 -346Q838 -328 866 -287T911 -174Q925 -108 926 0V854Q926 897 914 924Q904 944
877 965Q852 983 825 985Q784 989 762 989H756V1098H1237ZM899 1430Q899 1465 914 1497Q926 1524 950 1542T1004 1569Q1031 1577 1073 1577Q1114 1577 1141 1569Q1174 1559 1196 1542Q1221 1524 1235 1497T1249 1430Q1249 1391 1235 1364T1196 1319Q1169 1299 1141
1290Q1114 1282 1073 1282Q1030 1282 1004 1290Q979 1298 950 1319Q925 1337 914 1364Q899 1397 899 1430Z" />
<glyph unicode="&#x134;" glyph-name="Jcircumflex" horiz-adv-x="753" d="M731 1354H645Q629 1354 604 1350Q584 1346 569 1331Q557 1319 547 1290Q539 1267 539 1221V-4Q539 -102 518 -170Q495 -242 461 -295Q424 -348 371 -387Q308 -432 260 -449Q188 -474
131 -481Q55 -491 -6 -492H-80V-373H-43Q8 -373 53 -355T135 -293Q170 -252 193 -180Q216 -106 215 -6V1229Q215 1272 207 1294Q197 1321 184 1331Q164 1347 152 1350Q127 1354 111 1354H25V1462H731V1354ZM12 1606L68 1673L133 1751Q160 1786 193 1833Q226 1882
238 1907H514Q526 1882 559 1833Q592 1786 619 1751L682 1673L739 1606V1579H598L549 1618L487 1667L428 1716L375 1763L322 1716L262 1667Q248 1655 233 1643T203 1618L154 1579H12V1606Z" />
<glyph unicode="&#x135;" glyph-name="jcircumflex" horiz-adv-x="706" d="M516 1098V-16Q516 -153 479 -246Q442 -336 379 -391Q313 -448 225 -469Q131 -492 31 -492H-8V-365H4Q53 -365 90 -346Q129 -328 152 -287Q183 -234 193 -174Q205 -102 205 0V854Q205
897 193 924Q183 944 156 965Q131 983 104 985Q63 989 41 989H35V1098H516ZM-41 1268L15 1335L80 1413Q107 1448 140 1495Q173 1544 185 1569H461Q473 1544 506 1495Q539 1448 566 1413L629 1335L686 1268V1241H545L496 1280L434 1329L375 1378L322 1425L269 1378L209
1329Q195 1317 180 1305T150 1280L101 1241H-41V1268Z" />
<glyph unicode="&#x136;" glyph-name="Kcommaaccent" horiz-adv-x="1501" d="M889 1090Q916 1117 944 1153T981 1206Q993 1229 999 1253Q1005 1275 1006 1296Q1006 1331 981 1343T891 1356V1462H1446V1356Q1403 1356 1366 1344T1292 1307T1223 1249Q1176 1202
1151 1176L881 879L1262 274Q1295 221 1319 195Q1352 160 1374 143Q1397 129 1432 117Q1457 109 1495 109H1503V0H1393Q1295 0 1255 4Q1204 10 1153 20T1075 45Q1044 60 1020 82Q991 107 977 129Q944 178 938 188L662 659L571 588V242Q571 195 580 172Q590 143
602 131Q618 115 637 113Q666 109 678 109H764V0H57V109H143Q159 109 184 113Q200 115 217 129Q229 139 240 166Q248 189 248 231V1229Q248 1272 240 1294Q230 1321 217 1331Q197 1347 184 1350Q159 1354 143 1354H57V1462H764V1354H678Q666 1354 637 1350Q619
1348 602 1331Q590 1319 580 1290Q572 1267 571 1221V743L889 1090ZM637 -426Q643 -410 647 -393T658 -356Q662 -342 669 -316T680 -279Q688 -252 701 -199Q715 -138 717 -125H955V-145L918 -217Q900 -250 869 -299L813 -381Q803 -395 785 -419T760 -453H637V-426Z"
/>
<glyph unicode="&#x137;" glyph-name="kcommaaccent" horiz-adv-x="1302" d="M1303 0H1274Q1137 0 1085 4Q1009 10 954 29Q897 47 860 82Q819 121 780 182L598 469L516 408V242Q516 195 530 172Q546 145 567 131T614 113Q647 109 662 109H686V0H35V109H59Q73 109
106 113Q133 117 153 131T190 172Q204 195 205 242V1323Q205 1366 190 1389Q174 1418 154 1427Q131 1441 106 1444Q73 1448 59 1448H35V1556H516V766Q516 758 515 737T514 702Q514 655 512 633L506 553L764 842Q799 881 809 903Q819 928 819 940Q819 965 791 981Q764
995 713 995V1098H1229V995Q1153 995 1090 954Q1014 905 940 821L811 674L1083 268Q1142 184 1192 147Q1245 108 1296 109H1303V0ZM522 -426Q528 -410 532 -393T543 -356Q547 -342 554 -316T565 -279Q573 -252 586 -199Q600 -138 602 -125H840V-145L803 -217Q785
-250 754 -299L698 -381Q688 -395 670 -419T645 -453H522V-426Z" />
<glyph unicode="&#x138;" glyph-name="kgreenlandic" horiz-adv-x="1302" d="M1303 0H1274Q1137 0 1085 4Q1009 10 954 29Q897 47 860 82Q819 121 780 182L598 469L516 408V242Q516 195 530 172Q546 145 567 131T614 113Q647 109 662 109H686V0H35V109H59Q73 109
106 113Q133 117 153 131T190 172Q204 195 205 242V864Q205 907 190 930Q175 955 154 967Q125 983 106 985Q73 989 59 989H35V1098H516V766Q516 758 515 737T514 702Q514 655 512 633L506 553L764 842Q799 881 809 903Q819 928 819 940Q819 965 791 981Q764 995
713 995V1098H1229V995Q1153 995 1090 954Q1014 905 940 821L811 674L1083 268Q1142 184 1192 147Q1245 108 1296 109H1303V0Z" />
<glyph unicode="&#x139;" glyph-name="Lacute" horiz-adv-x="1337" d="M57 0V109H143Q159 109 184 113Q200 115 217 131Q229 143 240 172Q248 195 248 242V1221Q248 1268 240 1290Q230 1319 217 1331Q201 1347 184 1350Q159 1354 143 1354H57V1462H764V1354H678Q662
1354 637 1350Q625 1348 604 1331Q592 1321 582 1294Q574 1271 573 1229V125H954Q1028 125 1067 170T1124 303L1157 457H1272L1257 0H57ZM344 1606Q367 1635 393 1673L448 1751Q473 1788 501 1833Q530 1880 542 1907H864V1886Q850 1863 800 1819Q751 1772 702 1735L589
1649Q534 1608 483 1579H344V1606Z" />
<glyph unicode="&#x13a;" glyph-name="lacute" horiz-adv-x="720" d="M59 109Q73 109 106 113Q133 117 153 131T190 172Q204 195 205 242V1323Q205 1366 190 1389Q174 1418 154 1427Q131 1441 106 1444Q73 1448 59 1448H35V1556H516V242Q516 195 530 172Q546 145
567 131T614 113Q647 109 662 109H686V0H35V109H59ZM228 1663Q251 1692 277 1730L332 1808Q357 1845 385 1890Q414 1937 426 1964H748V1943Q734 1920 684 1876Q635 1829 586 1792L473 1706Q418 1665 367 1636H228V1663Z" />
<glyph unicode="&#x13b;" glyph-name="Lcommaaccent" horiz-adv-x="1337" d="M57 0V109H143Q159 109 184 113Q200 115 217 131Q229 143 240 172Q248 195 248 242V1221Q248 1268 240 1290Q230 1319 217 1331Q201 1347 184 1350Q159 1354 143 1354H57V1462H764V1354H678Q662
1354 637 1350Q625 1348 604 1331Q592 1321 582 1294Q574 1271 573 1229V125H954Q1028 125 1067 170T1124 303L1157 457H1272L1257 0H57ZM497 -426Q503 -410 507 -393T518 -356Q522 -342 529 -316T540 -279Q548 -252 561 -199Q575 -138 577 -125H815V-145L778 -217Q760
-250 729 -299L673 -381Q663 -395 645 -419T620 -453H497V-426Z" />
<glyph unicode="&#x13c;" glyph-name="lcommaaccent" horiz-adv-x="720" d="M59 109Q73 109 106 113Q133 117 153 131T190 172Q204 195 205 242V1323Q205 1366 190 1389Q174 1418 154 1427Q131 1441 106 1444Q73 1448 59 1448H35V1556H516V242Q516 195 530 172Q546
145 567 131T614 113Q647 109 662 109H686V0H35V109H59ZM168 -426Q174 -410 178 -393T189 -356Q193 -342 200 -316T211 -279Q219 -252 232 -199Q246 -138 248 -125H486V-145L449 -217Q431 -250 400 -299L344 -381Q334 -395 316 -419T291 -453H168V-426Z" />
<glyph unicode="&#x13d;" glyph-name="Lcaron" horiz-adv-x="1337" d="M57 0V109H143Q159 109 184 113Q200 115 217 131Q229 143 240 172Q248 195 248 242V1221Q248 1268 240 1290Q230 1319 217 1331Q201 1347 184 1350Q159 1354 143 1354H57V1462H764V1354H678Q662
1354 637 1350Q625 1348 604 1331Q592 1321 582 1294Q574 1271 573 1229V125H954Q1028 125 1067 170T1124 303L1157 457H1272L1257 0H57ZM924 1163Q942 1224 944 1231Q948 1249 954 1268T967 1311Q975 1338 987 1391Q1001 1452 1003 1464H1241V1444L1204 1372Q1192
1352 1155 1292L1100 1211L1046 1137H924V1163Z" />
<glyph unicode="&#x13e;" glyph-name="lcaron" horiz-adv-x="720" d="M59 109Q73 109 106 113Q133 117 153 131T190 172Q204 195 205 242V1323Q205 1366 190 1389Q174 1418 154 1427Q131 1441 106 1444Q73 1448 59 1448H35V1556H516V242Q516 195 530 172Q546 145
567 131T614 113Q647 109 662 109H686V0H35V109H59ZM629 1255Q647 1316 649 1323Q653 1341 659 1360T672 1403Q680 1430 692 1483Q706 1544 708 1556H946V1536L909 1464Q897 1444 860 1384L805 1303L751 1229H629V1255Z" />
<glyph unicode="&#x13f;" glyph-name="Ldot" horiz-adv-x="1337" d="M57 0V109H143Q159 109 184 113Q200 115 217 131Q229 143 240 172Q248 195 248 242V1221Q248 1268 240 1290Q230 1319 217 1331Q201 1347 184 1350Q159 1354 143 1354H57V1462H764V1354H678Q662
1354 637 1350Q625 1348 604 1331Q592 1321 582 1294Q574 1271 573 1229V125H954Q1028 125 1067 170T1124 303L1157 457H1272L1257 0H57ZM756 760Q756 795 770 827Q782 854 807 872Q830 888 862 899Q889 907 930 907T998 899Q1031 889 1053 872Q1078 854 1092 827T1106
760Q1106 721 1092 694T1053 649Q1026 629 998 620Q971 612 930 612T862 620Q833 628 807 649Q782 667 770 694Q756 727 756 760Z" />
<glyph unicode="&#x140;" glyph-name="ldot" horiz-adv-x="956" d="M59 109Q73 109 106 113Q133 117 153 131T190 172Q204 195 205 242V1323Q205 1366 190 1389Q174 1418 154 1427Q131 1441 106 1444Q73 1448 59 1448H35V1556H516V242Q516 195 530 172Q546 145
567 131T614 113Q647 109 662 109H686V0H35V109H59ZM658 672Q658 707 672 739Q684 766 709 784Q732 800 764 811Q791 819 832 819T900 811Q933 801 955 784Q980 766 994 739T1008 672Q1008 633 994 606T955 561Q928 541 900 532Q873 524 832 524T764 532Q735 540
709 561Q684 579 672 606Q658 639 658 672Z" />
<glyph unicode="&#x141;" glyph-name="Lslash" horiz-adv-x="1337" d="M57 0V109H143Q159 109 184 113Q200 115 217 131Q229 143 240 172Q248 195 248 242V565L78 469V608L248 707V1221Q248 1268 240 1290Q230 1319 217 1331Q201 1347 184 1350Q159 1354 143 1354H57V1462H764V1354H678Q664
1354 639 1350Q627 1348 606 1331Q594 1321 584 1294Q578 1276 573 1229V895L868 1067V924L573 752V125H954Q1028 125 1067 170T1124 303L1157 457H1272L1257 0H57Z" />
<glyph unicode="&#x142;" glyph-name="lslash" horiz-adv-x="720" d="M59 109Q73 109 106 113Q133 117 153 131T190 172Q204 195 205 242V541L55 457V596L205 682V1323Q205 1366 190 1389Q174 1418 154 1427Q131 1441 106 1444Q73 1448 59 1448H35V1556H516V860L680
952V809L516 717V242Q516 195 530 172Q546 145 567 131T614 113Q647 109 662 109H686V0H35V109H59Z" />
<glyph unicode="&#x143;" glyph-name="Nacute" horiz-adv-x="1613" d="M1200 0L401 1128V242Q401 195 410 172Q420 143 432 131Q448 115 465 113Q490 109 506 109H592V0H57V109H143Q159 109 184 113Q200 115 217 131Q229 143 240 172Q248 195 248 242V1229Q248
1272 240 1294Q230 1321 217 1331Q197 1347 182 1350Q157 1354 143 1354H57V1462H512L1235 440V1229Q1235 1272 1227 1294Q1217 1321 1204 1331Q1184 1347 1169 1350Q1144 1354 1130 1354H1044V1462H1579V1354H1493Q1477 1354 1452 1350Q1436 1348 1419 1331Q1407
1319 1397 1290Q1389 1267 1389 1221V0H1200ZM713 1606Q736 1635 762 1673L817 1751Q842 1788 870 1833Q899 1880 911 1907H1233V1886Q1219 1863 1169 1819Q1120 1772 1071 1735L958 1649Q903 1608 852 1579H713V1606Z" />
<glyph unicode="&#x144;" glyph-name="nacute" horiz-adv-x="1363" d="M858 0V674Q858 744 850 791Q840 844 821 879Q803 912 770 932Q739 950 694 950Q645 950 608 924Q579 904 555 854Q532 811 524 754Q516 703 516 633V242Q516 199 526 172Q534 149 555 133Q575
115 602 113Q639 109 664 109H670V0H41V109H45Q72 109 109 113Q136 115 160 133Q180 147 193 176Q205 204 205 250V856Q205 899 195 926Q187 944 164 965Q144 983 119 985Q82 989 57 989H51V1098H481L508 952H518Q547 1007 584 1044Q617 1077 657 1096Q692 1112
739 1118Q782 1124 831 1124Q905 1124 973 1102Q1034 1082 1079 1030Q1126 975 1147 907Q1170 829 1169 729V254Q1169 203 1178 178Q1190 143 1202 133T1245 115Q1270 109 1307 109H1313V0H858ZM553 1268Q576 1297 602 1335L657 1413Q682 1450 710 1495Q739 1542
751 1569H1073V1548Q1059 1525 1009 1481Q960 1434 911 1397L798 1311Q743 1270 692 1241H553V1268Z" />
<glyph unicode="&#x145;" glyph-name="Ncommaaccent" horiz-adv-x="1613" d="M1200 0L401 1128V242Q401 195 410 172Q420 143 432 131Q448 115 465 113Q490 109 506 109H592V0H57V109H143Q159 109 184 113Q200 115 217 131Q229 143 240 172Q248 195 248 242V1229Q248
1272 240 1294Q230 1321 217 1331Q197 1347 182 1350Q157 1354 143 1354H57V1462H512L1235 440V1229Q1235 1272 1227 1294Q1217 1321 1204 1331Q1184 1347 1169 1350Q1144 1354 1130 1354H1044V1462H1579V1354H1493Q1477 1354 1452 1350Q1436 1348 1419 1331Q1407
1319 1397 1290Q1389 1267 1389 1221V0H1200ZM647 -426Q653 -410 657 -393T668 -356Q672 -342 679 -316T690 -279Q698 -252 711 -199Q725 -138 727 -125H965V-145L928 -217Q910 -250 879 -299L823 -381Q813 -395 795 -419T770 -453H647V-426Z" />
<glyph unicode="&#x146;" glyph-name="ncommaaccent" horiz-adv-x="1363" d="M858 0V674Q858 744 850 791Q840 844 821 879Q803 912 770 932Q739 950 694 950Q645 950 608 924Q579 904 555 854Q532 811 524 754Q516 703 516 633V242Q516 199 526 172Q534 149 555
133Q575 115 602 113Q639 109 664 109H670V0H41V109H45Q72 109 109 113Q136 115 160 133Q180 147 193 176Q205 204 205 250V856Q205 899 195 926Q187 944 164 965Q144 983 119 985Q82 989 57 989H51V1098H481L508 952H518Q547 1007 584 1044Q617 1077 657 1096Q692
1112 739 1118Q782 1124 831 1124Q905 1124 973 1102Q1034 1082 1079 1030Q1126 975 1147 907Q1170 829 1169 729V254Q1169 203 1178 178Q1190 143 1202 133T1245 115Q1270 109 1307 109H1313V0H858ZM508 -426Q514 -410 518 -393T529 -356Q533 -342 540 -316T551
-279Q559 -252 572 -199Q586 -138 588 -125H826V-145L789 -217Q771 -250 740 -299L684 -381Q674 -395 656 -419T631 -453H508V-426Z" />
<glyph unicode="&#x147;" glyph-name="Ncaron" horiz-adv-x="1613" d="M1200 0L401 1128V242Q401 195 410 172Q420 143 432 131Q448 115 465 113Q490 109 506 109H592V0H57V109H143Q159 109 184 113Q200 115 217 131Q229 143 240 172Q248 195 248 242V1229Q248
1272 240 1294Q230 1321 217 1331Q197 1347 182 1350Q157 1354 143 1354H57V1462H512L1235 440V1229Q1235 1272 1227 1294Q1217 1321 1204 1331Q1184 1347 1169 1350Q1144 1354 1130 1354H1044V1462H1579V1354H1493Q1477 1354 1452 1350Q1436 1348 1419 1331Q1407
1319 1397 1290Q1389 1267 1389 1221V0H1200ZM487 1907H629L678 1868Q692 1856 707 1844T737 1819Q751 1809 758 1802T776 1786T797 1768Q809 1758 823 1747T850 1722Q862 1734 876 1745T903 1768Q913 1778 923 1786T941 1801T962 1819L1024 1868L1073 1907H1214V1880L1157
1813L1094 1735Q1053 1682 1034 1655Q1003 1610 989 1579H713Q699 1610 668 1655Q650 1682 608 1735L543 1813L487 1880V1907Z" />
<glyph unicode="&#x148;" glyph-name="ncaron" horiz-adv-x="1363" d="M858 0V674Q858 744 850 791Q840 844 821 879Q803 912 770 932Q739 950 694 950Q645 950 608 924Q579 904 555 854Q532 811 524 754Q516 703 516 633V242Q516 199 526 172Q534 149 555 133Q575
115 602 113Q639 109 664 109H670V0H41V109H45Q72 109 109 113Q136 115 160 133Q180 147 193 176Q205 204 205 250V856Q205 899 195 926Q187 944 164 965Q144 983 119 985Q82 989 57 989H51V1098H481L508 952H518Q547 1007 584 1044Q617 1077 657 1096Q692 1112
739 1118Q782 1124 831 1124Q905 1124 973 1102Q1034 1082 1079 1030Q1126 975 1147 907Q1170 829 1169 729V254Q1169 203 1178 178Q1190 143 1202 133T1245 115Q1270 109 1307 109H1313V0H858ZM325 1569H467L516 1530Q530 1518 545 1506T575 1481Q589 1471 596
1464T614 1448T635 1430Q647 1420 661 1409T688 1384Q700 1396 714 1407T741 1430Q751 1440 761 1448T779 1463T800 1481L862 1530L911 1569H1052V1542L995 1475L932 1397Q891 1344 872 1317Q841 1272 827 1241H551Q537 1272 506 1317Q488 1344 446 1397L381 1475L325
1542V1569Z" />
<glyph unicode="&#x149;" glyph-name="napostrophe" horiz-adv-x="1748" d="M1243 0V674Q1243 744 1235 791Q1225 844 1206 879Q1188 912 1155 932Q1124 950 1079 950Q1030 950 993 924Q964 904 940 854Q917 811 909 754Q901 703 901 633V242Q901 199 911 172Q919
149 940 133Q960 115 987 113Q1024 109 1049 109H1055V0H426V109H430Q457 109 494 113Q521 115 545 133Q565 147 578 176Q590 204 590 250V856Q590 899 580 926Q572 944 549 965Q529 983 504 985Q467 989 442 989H436V1098H866L893 952H903Q932 1007 969 1044Q1002
1077 1042 1096Q1077 1112 1124 1118Q1167 1124 1216 1124Q1290 1124 1358 1102Q1419 1082 1464 1030Q1511 975 1532 907Q1555 829 1554 729V254Q1554 203 1563 178Q1575 143 1587 133T1630 115Q1655 109 1692 109H1698V0H1243ZM656 1237Q656 1169 635 1110Q612
1049 572 997Q533 950 459 905Q389 862 289 836V942Q312 950 367 975Q408 993 424 1008Q442 1024 457 1049Q469 1069 469 1102Q469 1122 457 1135Q451 1141 430 1157Q424 1161 411 1168T394 1180Q369 1196 359 1208Q341 1231 331 1253T320 1321Q320 1389 363 1425T467
1462Q553 1462 604 1403T656 1237Z" />
<glyph unicode="&#x14a;" glyph-name="Eng" horiz-adv-x="1613" d="M401 1128V242Q401 195 410 172Q420 143 432 131Q448 115 465 113Q490 109 506 109H592V0H57V109H143Q159 109 184 113Q200 115 217 131Q229 143 240 172Q248 195 248 242V1229Q248 1272 240
1294Q230 1321 217 1331Q197 1347 182 1350Q157 1354 143 1354H57V1462H512L1235 485V1229Q1235 1272 1227 1294Q1217 1321 1204 1331Q1184 1347 1169 1350Q1144 1354 1130 1354H1044V1462H1579V1354H1493Q1477 1354 1452 1350Q1436 1348 1419 1331Q1407 1319 1397
1290Q1389 1267 1389 1221V-16Q1389 -161 1366 -246Q1343 -332 1296 -391Q1251 -448 1190 -469Q1122 -492 1049 -492H981V-373H1030Q1073 -373 1108 -352Q1149 -327 1174 -291Q1201 -250 1219 -180Q1235 -121 1235 -18V0L401 1128Z" />
<glyph unicode="&#x14b;" glyph-name="eng" horiz-adv-x="1359" d="M645 -365H657Q706 -365 743 -346Q782 -328 805 -287Q834 -238 844 -174Q858 -92 858 0V674Q858 744 850 791Q840 844 821 879Q803 912 770 932Q739 950 694 950Q645 950 608 924Q579 904 555
854Q532 811 524 754Q516 703 516 633V242Q516 199 526 172Q534 149 555 133Q575 115 602 113Q639 109 664 109H670V0H41V109H45Q72 109 109 113Q136 115 160 133Q180 147 193 176Q205 204 205 250V856Q205 899 195 926Q187 944 164 965Q144 983 119 985Q82 989
57 989H51V1098H481L508 952H518Q547 1007 584 1044Q617 1077 657 1096Q692 1112 739 1118Q782 1124 831 1124Q905 1124 973 1102Q1034 1082 1079 1030Q1126 975 1147 907Q1170 829 1169 729V-16Q1169 -153 1133 -246Q1096 -336 1032 -391Q966 -448 879 -469Q785
-492 684 -492H645V-365Z" />
<glyph unicode="&#x14c;" glyph-name="Omacron" horiz-adv-x="1611" d="M1499 733Q1499 561 1454 426Q1407 283 1319 186Q1233 90 1102 35Q973 -20 807 -20Q631 -20 502 35Q367 92 285 186Q201 282 156 426Q113 565 113 735T156 1044Q199 1181 285 1279T502 1431T809
1485Q973 1485 1104 1432Q1229 1381 1321 1280Q1407 1186 1454 1042Q1499 907 1499 733ZM457 733Q457 586 475 471T537 276Q580 198 645 156Q713 113 807 113T969 156Q1039 201 1077 276Q1118 358 1137 471Q1155 586 1155 733T1137 995Q1119 1108 1077 1190Q1040
1266 971 1311Q910 1352 810 1352T645 1311Q579 1268 537 1190Q494 1110 476 995T457 733ZM1100 1579H506V1741H1100V1579Z" />
<glyph unicode="&#x14d;" glyph-name="omacron" horiz-adv-x="1253" d="M1159 553Q1159 264 1024 123Q887 -20 625 -20Q502 -20 403 16Q303 53 238 123Q170 194 133 301T96 553Q96 842 231 983T631 1124Q752 1124 852 1090Q948 1057 1018 983Q1086 912 1122 805T1159
553ZM414 664T414 553T426 360Q438 276 462 221T528 138T628 109T729 137T794 221T831 360Q841 430 841 553T831 745Q821 819 793 883Q770 936 727 965Q686 994 627 994T526 965Q483 936 461 883Q438 834 426 745Q414 664 414 553ZM918 1241H324V1403H918V1241Z"
/>
<glyph unicode="&#x14e;" glyph-name="Obreve" horiz-adv-x="1611" d="M1499 733Q1499 561 1454 426Q1407 283 1319 186Q1233 90 1102 35Q973 -20 807 -20Q631 -20 502 35Q367 92 285 186Q201 282 156 426Q113 565 113 735T156 1044Q199 1181 285 1279T502 1431T809
1485Q973 1485 1104 1432Q1229 1381 1321 1280Q1407 1186 1454 1042Q1499 907 1499 733ZM457 733Q457 586 475 471T537 276Q580 198 645 156Q713 113 807 113T969 156Q1039 201 1077 276Q1118 358 1137 471Q1155 586 1155 733T1137 995Q1119 1108 1077 1190Q1040
1266 971 1311Q910 1352 810 1352T645 1311Q579 1268 537 1190Q494 1110 476 995T457 733ZM799 1579Q721 1579 658 1607T555 1681Q515 1727 494 1786Q476 1837 471 1901H606Q624 1829 674 1794Q721 1761 799 1761T924 1794Q973 1829 991 1901H1127Q1123 1838 1104
1786Q1082 1728 1043 1681Q1004 1636 941 1608T799 1579Z" />
<glyph unicode="&#x14f;" glyph-name="obreve" horiz-adv-x="1253" d="M1159 553Q1159 264 1024 123Q887 -20 625 -20Q502 -20 403 16Q303 53 238 123Q170 194 133 301T96 553Q96 842 231 983T631 1124Q752 1124 852 1090Q948 1057 1018 983Q1086 912 1122 805T1159
553ZM414 664T414 553T426 360Q438 276 462 221T528 138T628 109T729 137T794 221T831 360Q841 430 841 553T831 745Q821 819 793 883Q770 936 727 965Q686 994 627 994T526 965Q483 936 461 883Q438 834 426 745Q414 664 414 553ZM623 1241Q545 1241 482 1269T379
1343Q339 1389 318 1448Q300 1499 295 1563H430Q448 1491 498 1456Q545 1423 623 1423T748 1456Q797 1491 815 1563H951Q947 1500 928 1448Q906 1390 867 1343Q828 1298 765 1270T623 1241Z" />
<glyph unicode="&#x150;" glyph-name="Ohungarumlaut" horiz-adv-x="1611" d="M1499 733Q1499 561 1454 426Q1407 283 1319 186Q1233 90 1102 35Q973 -20 807 -20Q631 -20 502 35Q367 92 285 186Q201 282 156 426Q113 565 113 735T156 1044Q199 1181 285 1279T502
1431T809 1485Q973 1485 1104 1432Q1229 1381 1321 1280Q1407 1186 1454 1042Q1499 907 1499 733ZM457 733Q457 586 475 471T537 276Q580 198 645 156Q713 113 807 113T969 156Q1039 201 1077 276Q1118 358 1137 471Q1155 586 1155 733T1137 995Q1119 1108 1077
1190Q1040 1266 971 1311Q910 1352 810 1352T645 1311Q579 1268 537 1190Q494 1110 476 995T457 733ZM473 1579V1606Q496 1639 518 1677Q528 1693 540 1713T566 1755Q576 1773 588 1793T611 1833Q633 1873 647 1907H908V1886Q896 1868 877 1843Q854 1812 834 1790Q822
1776 779 1733L721 1675L666 1622Q656 1612 638 1598T615 1579H473ZM863 1579V1606L908 1677Q941 1730 955 1755Q965 1773 977 1793T1000 1833Q1022 1873 1037 1907H1297V1886Q1285 1868 1266 1843Q1243 1812 1223 1790Q1211 1776 1168 1733L1110 1675L1055 1622Q1045
1612 1027 1598T1004 1579H863Z" />
<glyph unicode="&#x151;" glyph-name="ohungarumlaut" horiz-adv-x="1253" d="M1159 553Q1159 264 1024 123Q887 -20 625 -20Q502 -20 403 16Q303 53 238 123Q170 194 133 301T96 553Q96 842 231 983T631 1124Q752 1124 852 1090Q948 1057 1018 983Q1086 912 1122
805T1159 553ZM414 664T414 553T426 360Q438 276 462 221T528 138T628 109T729 137T794 221T831 360Q841 430 841 553T831 745Q821 819 793 883Q770 936 727 965Q686 994 627 994T526 965Q483 936 461 883Q438 834 426 745Q414 664 414 553ZM294 1241V1268Q317
1301 339 1339Q349 1355 361 1375T387 1417Q397 1435 409 1455T432 1495Q454 1535 468 1569H729V1548Q717 1530 698 1505Q675 1474 655 1452Q643 1438 600 1395L542 1337L487 1284Q477 1274 459 1260T436 1241H294ZM684 1241V1268L729 1339Q762 1392 776 1417Q786
1435 798 1455T821 1495Q843 1535 858 1569H1118V1548Q1106 1530 1087 1505Q1064 1474 1044 1452Q1032 1438 989 1395L931 1337L876 1284Q866 1274 848 1260T825 1241H684Z" />
<glyph unicode="&#x152;" glyph-name="OE" horiz-adv-x="2086" d="M1323 125H1733Q1766 125 1786 137Q1809 149 1823 170Q1841 197 1849 219Q1855 239 1864 281L1880 377H2021L2007 0H1020Q983 -8 918 -14Q860 -20 807 -20Q631 -20 502 35Q367 92 285 186Q201
282 156 426Q113 565 113 735T156 1044Q199 1181 285 1279T502 1431T809 1485Q864 1485 922 1479Q994 1471 1026 1462H1944L1952 1085H1808L1798 1182Q1788 1258 1759 1296Q1728 1337 1667 1337H1323V825H1808V702H1323V125ZM807 113Q870 113 913 127T997 172V1290Q962
1315 915 1333Q866 1351 809 1352Q709 1352 645 1311Q579 1268 537 1190Q494 1110 476 996T457 734T475 471T537 276Q580 198 645 156Q713 113 807 113Z" />
<glyph unicode="&#x153;" glyph-name="oe" horiz-adv-x="1914" d="M414 664T414 553T426 360Q438 276 462 221T528 138T629 109Q682 109 725 135Q762 158 788 213Q817 272 827 340Q837 410 842 516V571Q842 778 791 887Q742 993 627 993Q568 993 526 965Q483 936
461 883Q438 834 426 745Q414 664 414 553ZM1354 991Q1270 991 1217 905Q1168 825 1161 657H1516Q1516 819 1477 903Q1436 991 1354 991ZM1376 -20Q1259 -20 1165 20Q1069 61 1004 137Q932 53 842 18Q742 -21 625 -20Q502 -20 403 16Q303 53 238 123Q170 194 133
301T96 553Q96 842 231 983T631 1124Q748 1124 838 1086T997 967Q1065 1049 1149 1085Q1235 1124 1350 1124Q1456 1124 1550 1092Q1640 1061 1702 999Q1761 940 1796 846Q1829 756 1829 631V526H1159Q1159 524 1158 520T1157 514V502Q1163 396 1182 336Q1202 268
1237 221Q1270 176 1321 154Q1368 134 1432 133Q1484 133 1530 145Q1571 155 1612 180Q1645 198 1675 233Q1700 260 1720 299Q1775 268 1776 199Q1776 152 1753 115Q1728 76 1679 45Q1634 16 1556 -2T1376 -20Z" />
<glyph unicode="&#x154;" glyph-name="Racute" horiz-adv-x="1447" d="M57 109H143Q157 109 182 113Q200 115 217 129Q229 139 240 166Q248 189 248 231V1229Q248 1272 240 1294Q230 1321 217 1331Q197 1347 182 1350Q157 1354 143 1354H57V1462H717Q1010 1462
1143 1366Q1278 1268 1278 1083Q1278 1003 1253 938Q1228 875 1190 829Q1149 782 1102 750Q1061 723 999 696L1243 276Q1266 235 1294 201Q1317 174 1343 150Q1368 128 1393 119Q1420 109 1448 109H1456V0H1389Q1297 0 1229 6Q1163 12 1108 34T1020 90Q977 133
950 184L707 635H571V231Q571 188 580 166Q590 139 602 129Q618 115 637 113Q662 109 676 109H764V0H57V109ZM571 754H686Q758 754 805 772T880 829T921 923T934 1055Q934 1137 920 1188Q904 1247 877 1276Q846 1311 799 1325Q746 1341 682 1341H571V754ZM549 1606Q572
1635 598 1673L653 1751Q678 1788 706 1833Q735 1880 747 1907H1069V1886Q1055 1863 1005 1819Q956 1772 907 1735L794 1649Q739 1608 688 1579H549V1606Z" />
<glyph unicode="&#x155;" glyph-name="racute" horiz-adv-x="1069" d="M725 0H41V109H47Q82 109 111 115Q144 123 162 135Q178 147 193 178Q205 205 205 256V850Q205 891 195 922Q187 947 164 965Q144 983 119 985Q82 989 57 989H51V1098H465L506 938H516Q543
995 559 1018Q586 1055 618 1075Q657 1100 696 1110Q741 1122 805 1122Q925 1122 983 1079Q1040 1036 1040 956Q1040 864 973 811Q903 758 780 758Q780 791 776 831Q774 862 760 885Q748 905 729 918Q713 928 680 928Q643 928 618 909Q587 886 573 864Q559 844
545 799Q533 760 526 727Q522 702 518 657Q516 634 516 600V246Q516 197 526 174Q538 146 557 131Q575 115 602 113Q639 109 659 109H725V0ZM369 1268Q392 1297 418 1335L473 1413Q498 1450 526 1495Q555 1542 567 1569H889V1548Q875 1525 825 1481Q776 1434 727
1397L614 1311Q559 1270 508 1241H369V1268Z" />
<glyph unicode="&#x156;" glyph-name="Rcommaaccent" horiz-adv-x="1447" d="M57 109H143Q157 109 182 113Q200 115 217 129Q229 139 240 166Q248 189 248 231V1229Q248 1272 240 1294Q230 1321 217 1331Q197 1347 182 1350Q157 1354 143 1354H57V1462H717Q1010
1462 1143 1366Q1278 1268 1278 1083Q1278 1003 1253 938Q1228 875 1190 829Q1149 782 1102 750Q1061 723 999 696L1243 276Q1266 235 1294 201Q1317 174 1343 150Q1368 128 1393 119Q1420 109 1448 109H1456V0H1389Q1297 0 1229 6Q1163 12 1108 34T1020 90Q977
133 950 184L707 635H571V231Q571 188 580 166Q590 139 602 129Q618 115 637 113Q662 109 676 109H764V0H57V109ZM571 754H686Q758 754 805 772T880 829T921 923T934 1055Q934 1137 920 1188Q904 1247 877 1276Q846 1311 799 1325Q746 1341 682 1341H571V754ZM549
-426Q555 -410 559 -393T570 -356Q574 -342 581 -316T592 -279Q600 -252 613 -199Q627 -138 629 -125H867V-145L830 -217Q812 -250 781 -299L725 -381Q715 -395 697 -419T672 -453H549V-426Z" />
<glyph unicode="&#x157;" glyph-name="rcommaaccent" horiz-adv-x="1069" d="M725 0H41V109H47Q82 109 111 115Q144 123 162 135Q178 147 193 178Q205 205 205 256V850Q205 891 195 922Q187 947 164 965Q144 983 119 985Q82 989 57 989H51V1098H465L506 938H516Q543
995 559 1018Q586 1055 618 1075Q657 1100 696 1110Q741 1122 805 1122Q925 1122 983 1079Q1040 1036 1040 956Q1040 864 973 811Q903 758 780 758Q780 791 776 831Q774 862 760 885Q748 905 729 918Q713 928 680 928Q643 928 618 909Q587 886 573 864Q559 844
545 799Q533 760 526 727Q522 702 518 657Q516 634 516 600V246Q516 197 526 174Q538 146 557 131Q575 115 602 113Q639 109 659 109H725V0ZM186 -426Q192 -410 196 -393T207 -356Q211 -342 218 -316T229 -279Q237 -252 250 -199Q264 -138 266 -125H504V-145L467
-217Q449 -250 418 -299L362 -381Q352 -395 334 -419T309 -453H186V-426Z" />
<glyph unicode="&#x158;" glyph-name="Rcaron" horiz-adv-x="1447" d="M57 109H143Q157 109 182 113Q200 115 217 129Q229 139 240 166Q248 189 248 231V1229Q248 1272 240 1294Q230 1321 217 1331Q197 1347 182 1350Q157 1354 143 1354H57V1462H717Q1010 1462
1143 1366Q1278 1268 1278 1083Q1278 1003 1253 938Q1228 875 1190 829Q1149 782 1102 750Q1061 723 999 696L1243 276Q1266 235 1294 201Q1317 174 1343 150Q1368 128 1393 119Q1420 109 1448 109H1456V0H1389Q1297 0 1229 6Q1163 12 1108 34T1020 90Q977 133
950 184L707 635H571V231Q571 188 580 166Q590 139 602 129Q618 115 637 113Q662 109 676 109H764V0H57V109ZM571 754H686Q758 754 805 772T880 829T921 923T934 1055Q934 1137 920 1188Q904 1247 877 1276Q846 1311 799 1325Q746 1341 682 1341H571V754ZM307 1907H449L498
1868Q512 1856 527 1844T557 1819Q571 1809 578 1802T596 1786T617 1768Q629 1758 643 1747T670 1722Q682 1734 696 1745T723 1768Q733 1778 743 1786T761 1801T782 1819L844 1868L893 1907H1034V1880L977 1813L914 1735Q873 1682 854 1655Q823 1610 809 1579H533Q519
1610 488 1655Q470 1682 428 1735L363 1813L307 1880V1907Z" />
<glyph unicode="&#x159;" glyph-name="rcaron" horiz-adv-x="1069" d="M725 0H41V109H47Q82 109 111 115Q144 123 162 135Q178 147 193 178Q205 205 205 256V850Q205 891 195 922Q187 947 164 965Q144 983 119 985Q82 989 57 989H51V1098H465L506 938H516Q543
995 559 1018Q586 1055 618 1075Q657 1100 696 1110Q741 1122 805 1122Q925 1122 983 1079Q1040 1036 1040 956Q1040 864 973 811Q903 758 780 758Q780 791 776 831Q774 862 760 885Q748 905 729 918Q713 928 680 928Q643 928 618 909Q587 886 573 864Q559 844
545 799Q533 760 526 727Q522 702 518 657Q516 634 516 600V246Q516 197 526 174Q538 146 557 131Q575 115 602 113Q639 109 659 109H725V0ZM440 1569H582L631 1530Q645 1518 660 1506T690 1481Q704 1471 711 1464T729 1448T750 1430Q762 1420 776 1409T803 1384Q815
1396 829 1407T856 1430Q866 1440 876 1448T894 1463T915 1481L977 1530L1026 1569H1167V1542L1110 1475L1047 1397Q1006 1344 987 1317Q956 1272 942 1241H666Q652 1272 621 1317Q603 1344 561 1397L496 1475L440 1542V1569Z" />
<glyph unicode="&#x15a;" glyph-name="Sacute" horiz-adv-x="1198" d="M541 -20Q412 -20 311 6Q225 29 164 74Q109 114 84 166Q61 213 61 266Q61 317 79 354T133 414Q174 439 207 446Q254 456 293 457Q293 367 313 303Q333 237 373 193Q414 144 461 125Q516 102
573 102Q639 102 680 119Q729 139 760 166Q793 197 811 236Q827 271 827 324T807 416Q782 461 743 492Q698 527 635 557Q561 592 485 625Q385 666 305 715Q231 760 186 815Q139 872 121 934Q103 1000 102 1071Q102 1163 139 1241Q172 1311 246 1370Q318 1427 403
1454Q499 1483 604 1483Q717 1483 799 1464Q877 1448 934 1413Q991 1380 1014 1339Q1041 1292 1040 1245Q1040 1210 1024 1178Q1008 1147 977 1124Q940 1097 899 1087Q853 1075 788 1075Q788 1118 776 1167T739 1260Q714 1301 672 1329Q627 1358 571 1358Q530 1358
494 1346Q451 1332 428 1311Q399 1284 385 1251Q369 1212 369 1169Q369 1122 383 1087Q399 1048 434 1014T537 940Q586 911 707 862Q822 815 887 774Q967 725 1008 678Q1057 621 1077 565Q1097 506 1098 428Q1098 326 1059 246Q1018 162 946 104Q872 45 772 12Q674
-20 541 -20ZM502 1606Q525 1635 551 1673L606 1751Q631 1788 659 1833Q688 1880 700 1907H1022V1886Q1008 1863 958 1819Q909 1772 860 1735L747 1649Q692 1608 641 1579H502V1606Z" />
</font>
</defs>
</svg>
