<?xml version="1.0" standalone="no"?>
<!DOCTYPE svg PUBLIC "-//W3C//DTD SVG 1.1//EN" "http://www.w3.org/Graphics/SVG/1.1/DTD/svg11.dtd" >
<svg xmlns="http://www.w3.org/2000/svg">
<metadata></metadata>
<defs>
<font id="brisko_sans_bold_italicRg" horiz-adv-x="1318" >
<font-face units-per-em="2048" ascent="1536" descent="-512" />
<missing-glyph horiz-adv-x="327" />
<glyph horiz-adv-x="0" />
<glyph unicode="&#xd;" horiz-adv-x="2048" />
<glyph horiz-adv-x="952" d="M209 377l80 457h456l-79 -457h-457z" />
<glyph horiz-adv-x="952" d="M209 377l80 457h456l-79 -457h-457z" />
<glyph unicode=" "  horiz-adv-x="327" />
<glyph unicode="&#x09;" horiz-adv-x="327" />
<glyph unicode="&#xa0;" horiz-adv-x="327" />
<glyph unicode="!" horiz-adv-x="657" d="M190 0l50 276h272l-47 -276h-275zM295 393l137 1041h291l-221 -1041h-207z" />
<glyph unicode="&#x22;" horiz-adv-x="1015" d="M354 987l84 471h248l-84 -471h-248zM760 987l84 471h246l-84 -471h-246z" />
<glyph unicode="#" horiz-adv-x="1667" d="M203 344l35 201h260l114 336h-233l35 200h268l121 353h250l-123 -353h321l123 353h252l-123 -353h211l-35 -200h-243l-117 -336h217l-33 -201h-252l-121 -344h-249l118 344h-321l-121 -344h-250l121 344h-225zM745 545h324l115 336h-322z" />
<glyph unicode="$" horiz-adv-x="1357" d="M47 147l156 199q214 -146 465 -153l77 452q-74 20 -126 36.5t-110.5 40.5t-97.5 51t-73 61.5t-50 79.5t-16 98q0 104 47.5 187t132 137t195.5 84.5t242 35.5l37 219h161l-38 -221q241 -17 432 -123l-146 -182l2 4q-160 74 -327 86l-72 -408q2 -2 8 -2q197 -57 269 -91 q140 -65 175 -174q13 -41 13 -91q0 -103 -37 -185.5t-96 -135.5t-141.5 -90.5t-165 -56t-175.5 -25.5l-36 -213h-160l37 208q-345 10 -582 172zM539 1040q0 -51 51 -85t196 -78l64 362q-150 -5 -230.5 -49t-80.5 -150zM829 203q58 9 108 25.5t95.5 42t71.5 65t26 88.5 q0 67 -59.5 107t-171.5 73z" />
<glyph unicode="%" horiz-adv-x="1826" d="M328 1038q0 113 31 196.5t86.5 131t123 70t148.5 22.5q264 0 264 -262q0 -111 -30.5 -195t-84 -133.5t-121 -73.5t-147.5 -24q-122 0 -196 65t-74 203zM348 0l1129 1434h266l-1127 -1434h-268zM541 1063q0 -115 88 -115q139 0 139 226q0 60 -21.5 83t-60.5 23 q-68 0 -106.5 -49t-38.5 -168zM1100 244q0 91 21 163t56 119.5t85 79t105.5 45t119.5 13.5q122 0 193 -62.5t71 -200.5q0 -90 -20.5 -162t-55.5 -121t-84 -81.5t-105 -47t-120 -14.5q-121 0 -193.5 65t-72.5 204zM1313 268q0 -114 84 -114q139 0 139 225q0 60 -20.5 83 t-59.5 23q-68 0 -105.5 -48.5t-37.5 -168.5z" />
<glyph unicode="&#x26;" horiz-adv-x="1382" d="M131 326q0 153 87 250.5t271 156.5q-89 44 -133.5 108t-44.5 160q0 215 149 336t431 121q245 0 461 -125l-154 -182q-163 104 -324 104q-309 0 -309 -233q0 -60 27.5 -102.5t76.5 -65.5t104 -33t120 -10h197l30 186h248l-33 -186h189l-33 -190h-188l-39 -228 q-37 -208 -203 -313t-422 -105q-233 0 -370.5 89.5t-137.5 261.5zM389 362q0 -91 80.5 -137.5t206.5 -46.5q88 0 158 22t119.5 71t62.5 122l39 228h-197q-88 0 -163 -11t-148 -37.5t-115.5 -80t-42.5 -130.5z" />
<glyph unicode="'" horiz-adv-x="614" d="M354 987l84 471h250l-84 -471h-250z" />
<glyph unicode="(" horiz-adv-x="874" d="M205 473q38 208 118.5 382.5t188.5 295.5t233.5 199.5t262.5 109.5l36 -198q-96 -22 -186 -82.5t-168.5 -157t-139 -238t-91.5 -311.5q-54 -336 35.5 -540.5t273.5 -249.5l-104 -199q-127 31 -225 108.5t-164 202.5t-84.5 294t14.5 384z" />
<glyph unicode=")" horiz-adv-x="874" d="M-4 -317q201 45 362.5 249.5t223.5 540.5q54 334 -36 539t-274 250l105 198q127 -31 225 -108.5t163.5 -201.5t84 -293t-13.5 -384q-39 -208 -119.5 -382.5t-188 -296.5t-233 -200.5t-262.5 -109.5z" />
<glyph unicode="*" horiz-adv-x="1175" d="M322 1038l124 232l236 -94l31 258h248l-54 -258l267 94l40 -232l-276 -69l137 -205l-229 -150l-111 224l-188 -224l-180 148l206 207z" />
<glyph unicode="+" horiz-adv-x="1261" d="M229 504l35 201h373l68 376h229l-66 -376h373l-35 -201h-372l-66 -373h-231l65 373h-373z" />
<glyph unicode="," horiz-adv-x="645" d="M135 -268l170 508h260l-270 -508h-160z" />
<glyph unicode="-" horiz-adv-x="1067" d="M229 504l35 201h783l-35 -201h-783z" />
<glyph unicode="." horiz-adv-x="624" d="M182 0l47 260h260l-47 -260h-260z" />
<glyph unicode="/" horiz-adv-x="1079" d="M61 0l947 1434h270l-950 -1434h-267z" />
<glyph unicode="0" horiz-adv-x="1474" d="M205 541q0 193 41.5 349t113.5 260.5t173 175t215 101.5t243 31q117 0 210.5 -31t166 -96t111.5 -175t39 -259q0 -193 -41.5 -348.5t-113.5 -261t-172 -177t-215 -103.5t-245 -32q-116 0 -209 31.5t-165.5 97t-112 176.5t-39.5 261zM473 563q0 -200 79 -285t218 -85 q84 0 154 22t131 73t103.5 128.5t66.5 194.5t24 266q0 102 -21.5 174t-63 113t-93 59t-119.5 18q-82 0 -151.5 -21.5t-131 -71.5t-104.5 -126.5t-67.5 -193t-24.5 -265.5z" />
<glyph unicode="1" horiz-adv-x="860" d="M297 1116l35 203h110q164 0 258 115h226l-246 -1434h-262l198 1147q-68 -31 -192 -31h-127z" />
<glyph unicode="2" horiz-adv-x="1095" d="M61 0l29 162l383 301q445 326 445 602q0 176 -197 176q-39 0 -70 -3t-105.5 -27.5t-158.5 -71.5l-76 192q145 76 259 101.5t223 25.5q196 0 295.5 -98.5t99.5 -259.5q0 -74 -20 -144t-68 -140t-90.5 -122.5t-125.5 -125.5t-132.5 -113t-149.5 -119l-57 -45l-109 -86h635 l-37 -205h-973z" />
<glyph unicode="3" horiz-adv-x="1198" d="M61 113l158 196q101 -62 208 -89t179 -27q159 0 251.5 64.5t92.5 203.5q0 64 -37.5 109.5t-101.5 68t-131 32t-145 9.5l24 137l428 414h-645l37 203h985l-31 -177l-483 -403q170 -18 270.5 -108.5t100.5 -247.5q0 -130 -49 -230.5t-136.5 -164t-204.5 -96t-258 -32.5 q-107 0 -250.5 31.5t-261.5 106.5z" />
<glyph unicode="4" horiz-adv-x="1251" d="M109 399l26 146l840 889h264l-145 -832h221l-35 -203h-221l-70 -399h-262l70 399h-688zM469 602h362l82 475z" />
<glyph unicode="5" horiz-adv-x="1198" d="M63 127l162 192q46 -41 110 -69t127 -39t101 -14.5t68 -3.5q52 0 98.5 8t92.5 28.5t79 53t53.5 85.5t20.5 121q0 106 -66 154.5t-168 48.5q-139 0 -272 -37l-135 64l184 715h834l-52 -213h-573l-90 -351q78 41 197 41q79 0 149.5 -21.5t130.5 -65t95.5 -120t35.5 -176.5 q0 -116 -34 -209t-93 -156.5t-142.5 -106t-180 -62t-207.5 -19.5q-314 0 -525 152z" />
<glyph unicode="6" horiz-adv-x="1312" d="M193 473q0 122 24.5 241.5t71.5 229.5t120.5 203.5t165.5 163t212 108.5t255 39q224 0 400 -110l-129 -191q-145 84 -297 84q-336 0 -455 -383q77 71 178.5 102t194.5 31q88 0 167.5 -29.5t144.5 -92.5t88 -160.5t-3 -233.5q-28 -129 -96.5 -227.5t-161 -156.5 t-195.5 -87t-212 -29q-71 0 -133 12t-126.5 46t-110 88t-74.5 144t-29 208zM473 606q-10 -66 -11 -121t7 -95.5t22 -72.5t34 -53t41.5 -35.5t47 -22t47.5 -10.5t46 -3q126 0 226 75.5t134 212.5q16 78 5.5 133.5t-45.5 90.5t-80 51t-97 16q-84 0 -186.5 -42t-190.5 -124z " />
<glyph unicode="7" horiz-adv-x="1134" d="M141 0l840 1221h-725l37 213h1053l-23 -134l-899 -1300h-283z" />
<glyph unicode="8" horiz-adv-x="1351" d="M129 317q0 258 385 424q-188 116 -188 289q0 94 37 169t96.5 122.5t139.5 79t161.5 44.5t167.5 13q91 0 171 -16.5t150.5 -51.5t112 -100.5t41.5 -154.5q0 -74 -25.5 -137t-74 -111t-100 -82.5t-120.5 -69.5q267 -122 267 -319q0 -97 -43 -175t-111 -126.5t-159 -81 t-181.5 -45.5t-183.5 -13q-80 0 -154.5 10.5t-146 36t-124.5 63.5t-85.5 97.5t-32.5 134.5zM399 354q0 -47 28.5 -80t77 -50t98.5 -24t106 -7q65 0 124.5 9t119 30t95 63t35.5 100q0 78 -86.5 133t-257.5 105q-61 -17 -117.5 -41.5t-108 -59t-83 -81t-31.5 -97.5zM592 1036 q0 -37 15.5 -67.5t36.5 -50t57 -38t61.5 -27.5t66.5 -22q48 15 82 28t79.5 37t73.5 49.5t48.5 65t20.5 85.5q0 145 -242 145q-299 0 -299 -205z" />
<glyph unicode="9" horiz-adv-x="1312" d="M121 86l129 190q143 -83 297 -83q338 0 454 382q-76 -71 -177 -102t-195 -31q-88 0 -167.5 29.5t-145 92.5t-88.5 160.5t3 233.5q28 129 96.5 227.5t161.5 156.5t196.5 87t213.5 29q70 0 132 -12t126 -46t109.5 -87.5t74.5 -143.5t29 -208q0 -147 -34.5 -288.5 t-105.5 -268t-170 -222t-239 -151.5t-303 -56q-219 0 -397 111zM498 952q-17 -78 -7 -133.5t45.5 -90t80 -50.5t96.5 -16q84 0 187 41.5t192 123.5q14 77 10.5 136.5t-13 103t-31 74.5t-44 50.5t-52 30.5t-54.5 15t-52 4q-126 0 -225.5 -76t-132.5 -213z" />
<glyph unicode=":" horiz-adv-x="624" d="M180 0l45 260h260l-45 -260h-260zM315 764l45 260h261l-46 -260h-260z" />
<glyph unicode=";" horiz-adv-x="706" d="M135 -268l172 508h258l-272 -508h-158zM397 764l45 260h260l-45 -260h-260z" />
<glyph unicode="&#x3c;" horiz-adv-x="1214" d="M172 528l27 150l1122 407l-37 -215l-774 -268l680 -268l-37 -213z" />
<glyph unicode="=" horiz-adv-x="1204" d="M195 303l34 201h920l-35 -201h-919zM266 705l35 200h920l-35 -200h-920z" />
<glyph unicode="&#x3e;" horiz-adv-x="1214" d="M102 121l35 213l774 268l-678 268l37 215l981 -407l-26 -150z" />
<glyph unicode="?" horiz-adv-x="1136" d="M274 1331q260 127 529 127q216 0 332 -85t116 -240q0 -86 -28.5 -157.5t-75 -122.5t-119.5 -94.5t-146 -73.5t-171 -60l-41 -232h-267l66 371q241 74 330 117q162 78 180 185q2 15 2 30q0 71 -63.5 108t-182.5 37q-191 0 -370 -100zM330 0l49 276h274l-49 -276h-274z" />
<glyph unicode="@" horiz-adv-x="2148" d="M139 156q0 170 46 334.5t129 308t205 265.5t268 209t324 136t368 49q329 0 515.5 -163.5t186.5 -477.5q0 -204 -77 -400t-242 -417h-459q-81 47 -84 190q-221 -215 -451 -215q-137 0 -209 66.5t-73 186.5t59 288q99 271 267.5 402t361.5 131q187 0 246 -140l43 115h249 l-241 -664q-36 -94 -23 -159h191q90 145 139 302t49 292q0 227 -124 343.5t-353 116.5q-147 0 -287 -42t-255.5 -116t-212.5 -176.5t-163.5 -222t-103.5 -254.5t-37 -272q0 -105 27 -190.5t83.5 -151.5t152.5 -102.5t225 -36.5q226 0 487 100l41 -188q-305 -115 -573 -115 q-177 0 -312 50t-218 141t-124 210.5t-41 266.5zM887 492q-116 -314 63 -314q72 0 171.5 49t197.5 138l123 333q-23 71 -75 109.5t-124 38.5q-105 0 -197 -84t-159 -270z" />
<glyph unicode="A" horiz-adv-x="1521" d="M4 0l887 1434h285l364 -1434h-276l-109 406h-600l-250 -406h-301zM676 608h430l-121 527z" />
<glyph unicode="B" horiz-adv-x="1427" d="M182 0l250 1434h539q479 0 479 -312q0 -256 -227 -348q217 -82 217 -278q0 -235 -166.5 -365.5t-452.5 -130.5h-639zM481 213h377q147 0 229 65.5t82 192.5q0 182 -235 182h-377zM594 854h280q155 0 228.5 48t73.5 171q0 81 -60 114.5t-180 33.5h-279z" />
<glyph unicode="C" horiz-adv-x="1409" d="M207 557q0 136 26.5 254.5t73.5 209t113 164t142 124t163 84.5t175 49.5t179 15.5q264 0 484 -121l-113 -188q-185 92 -401 92q-78 0 -155 -20t-153.5 -68t-134 -120t-93.5 -185.5t-36 -253.5q0 -91 22.5 -163t58 -115.5t83 -72t92.5 -39.5t92 -11q112 0 246 36.5 t246 96.5l74 -193q-125 -72 -289.5 -115t-321.5 -43q-85 0 -163.5 17.5t-154.5 60t-131.5 107t-89.5 167t-34 230.5z" />
<glyph unicode="D" horiz-adv-x="1558" d="M182 0l250 1434h500q110 0 206 -18.5t181.5 -62t146 -109t96 -164.5t35.5 -224q0 -133 -27 -247.5t-74.5 -201t-115 -155.5t-146 -115.5t-170.5 -78t-186 -45t-194 -13.5h-502zM481 213h240q95 0 179.5 18t164.5 62.5t137.5 112.5t92 175t34.5 242q0 110 -34.5 189.5 t-96 123.5t-135.5 64.5t-164 20.5h-242z" />
<glyph unicode="E" horiz-adv-x="1224" d="M182 0l250 1434h993l-36 -213h-732l-71 -404h499l-34 -201h-500l-70 -403h740l-37 -213h-1002z" />
<glyph unicode="F" horiz-adv-x="1183" d="M182 0l250 1434h981l-37 -213h-719l-77 -441h499l-35 -205h-499l-101 -575h-262z" />
<glyph unicode="G" horiz-adv-x="1593" d="M209 598q0 174 49 318.5t132.5 243.5t198 167t243.5 99.5t270 31.5q288 0 508 -123l-113 -192q-233 98 -420 98q-94 0 -179 -21t-163 -68.5t-134.5 -117.5t-90 -175t-33.5 -234q0 -88 15 -157.5t43 -115.5t62 -78.5t77.5 -49.5t83.5 -24t86 -7q97 0 197 28t159 90l35 224 h-399l32 213h662l-57 -361q-13 -86 20.5 -142t112.5 -102l-193 -170q-69 24 -106.5 59t-49.5 93q-165 -150 -450 -150q-66 0 -125.5 8t-121 28t-112.5 51t-96 80t-76 112.5t-49 151t-18 192.5z" />
<glyph unicode="H" horiz-adv-x="1615" d="M182 0l250 1434h262l-100 -570h727l100 570h262l-249 -1434h-263l115 651h-729l-113 -651h-262z" />
<glyph unicode="I" horiz-adv-x="626" d="M182 0l250 1434h262l-250 -1434h-262z" />
<glyph unicode="J" horiz-adv-x="704" d="M-4 -25l37 209q128 2 202.5 55t94.5 171l180 1024h262l-182 -1043q-19 -106 -69.5 -186t-128.5 -129.5t-176.5 -74t-219.5 -26.5z" />
<glyph unicode="K" horiz-adv-x="1390" d="M182 0l250 1434h262l-98 -564h53l672 564h338l-789 -656l299 -483q52 -81 95 -103.5t137 -13.5l-35 -196q-72 -7 -90 -7q-124 0 -189 29.5t-124 126.5l-324 545h-78l-117 -676h-262z" />
<glyph unicode="L" horiz-adv-x="1165" d="M182 0l250 1434h262l-213 -1221h701l-37 -213h-963z" />
<glyph unicode="M" horiz-adv-x="1843" d="M182 0l250 1434h365l209 -961l536 961h369l-250 -1434h-248l199 1143l-520 -924h-273l-198 922l-199 -1141h-240z" />
<glyph unicode="N" horiz-adv-x="1615" d="M182 0l250 1434h273l532 -1059l184 1059h262l-249 -1434h-275l-532 1057l-183 -1057h-262z" />
<glyph unicode="O" horiz-adv-x="1728" d="M211 571q0 184 49.5 334.5t134.5 252t201.5 170t247 99.5t274.5 31q112 0 208 -21t178.5 -66.5t140.5 -114t91 -168.5t33 -224q0 -185 -49 -335.5t-133.5 -252t-201.5 -170.5t-248 -100t-277 -31q-110 0 -205.5 21t-178 66.5t-141 114t-91.5 169t-33 225.5zM481 600 q0 -109 31.5 -189t89.5 -127t131.5 -69t165.5 -22q98 0 184 21t164 69t134 120.5t89 181.5t33 246q0 110 -32 190.5t-91 127.5t-133 69.5t-166 22.5q-99 0 -185.5 -21t-163.5 -70t-132 -121.5t-87 -182t-32 -246.5z" />
<glyph unicode="P" horiz-adv-x="1345" d="M182 0l250 1434h588q225 0 346 -93.5t121 -275.5q0 -257 -165.5 -393.5t-457.5 -136.5h-327l-93 -535h-262zM573 748h328q152 0 234 72t82 212q0 189 -234 189h-326z" />
<glyph unicode="Q" horiz-adv-x="1728" d="M211 569q0 185 49.5 335.5t134.5 252t201.5 170.5t247 100t274.5 31q141 0 257 -34t205.5 -103.5t139 -185.5t49.5 -271q0 -163 -42 -300t-119.5 -240t-178 -178t-227.5 -128q33 -9 53 -47l131 -235l-229 -144l-135 246q-41 74 -74.5 105.5t-83.5 31.5h-8 q-138 0 -252.5 34t-203.5 103.5t-139 186t-50 270.5zM481 600q0 -109 31.5 -189t89.5 -127t131.5 -69t165.5 -22q98 0 184 21t164 69.5t134 121t89 182.5t33 247q0 109 -32 189t-90.5 127t-133 69t-166.5 22q-99 0 -185.5 -21t-163.5 -70t-132 -121.5t-87 -182t-32 -246.5z " />
<glyph unicode="R" horiz-adv-x="1441" d="M182 0l250 1434h610q232 0 353 -79t121 -259q0 -82 -19.5 -156t-61 -143t-116.5 -120t-176 -75l94 -246q34 -92 55 -122q51 -72 140 -64l-35 -188q-72 -7 -111 -7q-57 0 -98 15t-70 47.5t-47 66.5t-39 89l-147 391h-340l-101 -584h-262zM584 797h348q160 0 236.5 56 t76.5 204q0 93 -60 128.5t-179 35.5h-349z" />
<glyph unicode="S" horiz-adv-x="1277" d="M47 147l154 197q117 -77 224 -114t224 -37q51 0 101 6t105 22.5t96.5 42.5t68.5 70t27 100q0 20 -5.5 38t-12.5 31.5t-23 27t-26.5 22t-35.5 19t-36.5 15.5t-42.5 14t-42 12t-45 12q-90 24 -149.5 42.5t-123.5 44t-103 52t-72 61t-47.5 78t-14.5 96.5q0 223 169 341 t474 118q283 0 498 -121l-113 -196q-111 52 -211.5 76t-228.5 24q-164 0 -240.5 -43.5t-76.5 -155.5q0 -33 24 -61t107.5 -67.5t232.5 -84.5q161 -48 206 -67q143 -60 186 -164q22 -53 22 -121q0 -119 -43 -210t-110.5 -145t-161.5 -88.5t-184.5 -46.5t-192.5 -12 q-172 0 -309 40.5t-269 131.5z" />
<glyph unicode="T" horiz-adv-x="1302" d="M256 1229l37 205h1220l-36 -205h-478l-215 -1229h-262l215 1229h-481z" />
<glyph unicode="U" horiz-adv-x="1525" d="M256 537l156 897h262l-160 -906q-20 -115 -2.5 -189.5t86 -110t199.5 -35.5q196 0 285.5 78t121.5 257l158 906h252l-156 -897q-52 -292 -214 -427t-486 -135t-439 135t-63 427z" />
<glyph unicode="V" horiz-adv-x="1396" d="M246 1434h280l240 -1082l620 1082h291l-837 -1434h-260z" />
<glyph unicode="W" horiz-adv-x="1765" d="M264 1434h273l43 -1123l389 903h260l65 -901l441 1121h268l-588 -1434h-336l-45 877l-368 -877h-310z" />
<glyph unicode="X" horiz-adv-x="1464" d="M-82 0l772 758l-414 676h328l295 -504l475 504h334l-676 -689l459 -745h-328l-334 571l-553 -571h-358z" />
<glyph unicode="Y" horiz-adv-x="1337" d="M244 1434h297l282 -684l533 684h307l-750 -926l-86 -508h-262l88 504z" />
<glyph unicode="Z" horiz-adv-x="1193" d="M20 0l25 137l991 1084h-760l35 213h1112l-24 -148l-981 -1073h776l-37 -213h-1137z" />
<glyph unicode="[" horiz-adv-x="997" d="M94 -512l340 1946h764l-37 -201h-516l-270 -1544h518l-35 -201h-764z" />
<glyph unicode="\" horiz-adv-x="1079" d="M309 1434h271l448 -1434h-268z" />
<glyph unicode="]" horiz-adv-x="997" d="M-41 -512l35 201h516l270 1544h-516l37 201h764l-342 -1946h-764z" />
<glyph unicode="^" horiz-adv-x="1558" d="M262 678l672 756h199l403 -756h-289l-262 485l-434 -485h-289z" />
<glyph unicode="_" horiz-adv-x="1437" d="M129 -285l35 201h1073l-35 -201h-1073z" />
<glyph unicode="`" horiz-adv-x="780" d="M428 1421l195 131l190 -309l-151 -98z" />
<glyph unicode="a" d="M127 397q0 139 34.5 252t90 186t129 122.5t148 70.5t151.5 21q201 0 274 -134l19 109h248l-115 -657q-24 -156 115 -230l-185 -162q-133 39 -174 187q-185 -187 -397 -187q-77 0 -135.5 20.5t-106 67t-72 130.5t-24.5 204zM383 420q0 -129 37 -185.5t110 -56.5 q75 0 163.5 47.5t162.5 124.5l57 338q-37 68 -98.5 113t-136.5 45q-54 0 -104.5 -24t-94 -72.5t-70 -133.5t-26.5 -196z" />
<glyph unicode="b" horiz-adv-x="1363" d="M166 137q170 77 196 236l203 1163h248l-111 -641q151 154 357 154q149 0 240.5 -97t91.5 -299q0 -126 -23 -230.5t-64.5 -177t-94.5 -126t-117 -84.5t-127.5 -45.5t-130.5 -14.5q-234 0 -338 162q-80 -135 -201 -162zM604 336q42 -67 106 -112.5t128 -45.5q45 0 85 13.5 t79.5 46t67.5 82.5t45.5 129.5t17.5 179.5q0 217 -142 217q-75 0 -163 -46t-164 -124z" />
<glyph unicode="c" horiz-adv-x="1044" d="M156 395q0 137 38 249t100 186t145 124.5t169.5 72.5t175.5 22q226 0 385 -93l-90 -180q-178 70 -307 70q-54 0 -102 -11.5t-96 -41.5t-82.5 -76t-56 -121t-21.5 -172q0 -72 18.5 -123t50.5 -76t65.5 -36t72.5 -11q156 0 325 90l68 -182q-211 -111 -434 -111 q-80 0 -151 21.5t-134.5 68t-101 131.5t-37.5 199z" />
<glyph unicode="d" horiz-adv-x="1230" d="M154 371q0 150 34.5 269.5t89 194.5t128 124.5t146 69.5t148.5 20q206 0 281 -134l109 621h245l-266 -1536h-248l31 168q-152 -193 -381 -193q-139 0 -228 97.5t-89 298.5zM410 397q0 -112 39.5 -165.5t109.5 -53.5q73 0 161.5 47.5t164.5 126.5l55 336q-37 68 -98.5 113 t-136.5 45q-43 0 -83.5 -13.5t-79.5 -46t-68 -82.5t-46.5 -129t-17.5 -178z" />
<glyph unicode="e" horiz-adv-x="1157" d="M160 420q0 145 49.5 265t134 199t195 122t233.5 43q104 0 186 -31t129.5 -84t66.5 -121t7 -143q-19 -116 -103.5 -190.5t-243 -103.5t-390.5 11q6 -110 67 -159.5t158 -49.5q74 0 171.5 24t176.5 66l70 -182q-105 -54 -229.5 -82.5t-233.5 -28.5q-69 0 -129 11.5 t-119.5 43t-101.5 80t-68 128t-26 182.5zM449 563q155 -16 256 -12.5t152 35t61 100.5q6 47 -8.5 80.5t-44.5 49.5t-60 23t-64 7q-48 0 -91.5 -14t-84.5 -45.5t-71.5 -88.5t-44.5 -135z" />
<glyph unicode="f" horiz-adv-x="798" d="M-2 -315q73 6 114 53t58 143l166 940h-109l35 203h109l20 117q35 201 158 298t307 97q104 0 207 -33l-35 -207q-47 21 -114 29t-99 4q-78 -7 -118.5 -53t-57.5 -143l-18 -109h307l-33 -203h-311q-12 -68 -73 -415t-93 -533q-59 -329 -355 -385z" />
<glyph unicode="g" horiz-adv-x="1241" d="M121 -420l117 180q57 -39 117 -54t149 -15q46 0 89 9.5t85.5 33t76.5 59t61 91t40 126.5l29 158q-152 -193 -381 -193q-67 0 -123 22.5t-100.5 68t-69.5 124t-25 181.5q0 150 34.5 269.5t89 194.5t128 124.5t146 69.5t147.5 20q208 0 283 -134l18 109h248l-178 -1022 q-24 -134 -87.5 -236t-150.5 -161t-183.5 -88t-199.5 -29q-115 0 -196.5 21t-163.5 71zM442 397q0 -112 40 -165.5t110 -53.5q73 0 161 47.5t162 126.5l58 336q-39 69 -100 113.5t-138 44.5q-43 0 -82.5 -13.5t-78.5 -46t-68 -82.5t-46.5 -129t-17.5 -178z" />
<glyph unicode="h" horiz-adv-x="1308" d="M162 0l268 1536h248l-113 -647q84 84 181.5 122t187.5 38q182 0 271.5 -99t54.5 -301l-52 -287q-23 -150 115 -225l-184 -162q-106 31 -155.5 135.5t-27.5 229.5l52 293q40 213 -131 213q-81 0 -175.5 -47t-175.5 -129l-116 -670h-248z" />
<glyph unicode="i" horiz-adv-x="690" d="M268 838l33 186h399l-116 -659q-23 -153 118 -228l-186 -162q-106 31 -155.5 134.5t-28.5 228.5l88 500h-152zM473 1171l43 263h260l-45 -263h-258z" />
<glyph unicode="j" horiz-adv-x="663" d="M-63 -340l38 201q121 2 194.5 52t94.5 161l164 950h248l-168 -969q-35 -198 -184.5 -295t-386.5 -100zM453 1178l45 256h254l-43 -256h-256z" />
<glyph unicode="k" horiz-adv-x="1163" d="M162 0l268 1536h248l-158 -895h74l444 383h328l-594 -496l166 -268q38 -61 76 -80t116 -14l-30 -186q-50 -5 -103 -5q-91 0 -153.5 27t-104.5 109l-168 329h-84l-77 -440h-248z" />
<glyph unicode="l" horiz-adv-x="688" d="M219 340l211 1196h246l-205 -1169q-23 -155 115 -230l-185 -162q-106 31 -155 135.5t-27 229.5z" />
<glyph unicode="m" horiz-adv-x="2056" d="M276 0l113 649q27 162 -110 242l178 158q63 -20 102.5 -66.5t46.5 -110.5q180 177 404 177q226 0 284 -179q96 95 195 137t215 42q372 0 303 -400l-49 -282q-24 -156 115 -230l-185 -162q-71 21 -118 77.5t-63 131t-1 156.5l49 293q21 113 -5 163t-101 50 q-79 0 -162.5 -44.5t-159.5 -125.5l-117 -676h-247l110 633q21 114 -5.5 163.5t-102.5 49.5t-163.5 -46.5t-160.5 -123.5l-119 -676h-246z" />
<glyph unicode="n" horiz-adv-x="1425" d="M281 0l114 649q27 162 -110 242l178 158q64 -20 104 -68.5t51 -112.5q195 181 433 181q180 0 271 -99t56 -301l-51 -287q-20 -152 117 -225l-184 -162q-106 31 -155.5 135.5t-27.5 229.5l49 293q40 213 -129 213q-83 0 -177 -47t-173 -129l-121 -670h-245z" />
<glyph unicode="o" horiz-adv-x="1284" d="M160 412q0 132 37.5 240.5t101 181t150 122t180.5 71.5t196 22q100 0 185 -25t152 -76t105 -136.5t38 -197.5q0 -132 -37.5 -240.5t-101 -181.5t-149.5 -122.5t-181 -72t-199 -22.5q-99 0 -183 25t-151 76t-105 137t-38 199zM416 438q0 -71 20.5 -122.5t57.5 -81 t81.5 -43t98.5 -13.5q59 0 112 13t102 43.5t84 76.5t56 117t21 160q0 135 -73 196.5t-188 61.5q-57 0 -109 -13t-100.5 -43.5t-84 -76t-57 -116.5t-21.5 -159z" />
<glyph unicode="p" horiz-adv-x="1230" d="M74 -512l266 1536h248l-29 -168q150 193 379 193q67 0 122.5 -22.5t100 -68t69.5 -123.5t25 -182q0 -150 -34 -269.5t-88.5 -194.5t-127.5 -124.5t-145.5 -69.5t-148.5 -20q-208 0 -283 134l-109 -621h-245zM469 336q39 -69 100 -113.5t138 -44.5q43 0 82.5 13.5t78.5 46 t67.5 82.5t46 129t17.5 178q0 219 -147 219q-73 0 -161.5 -47.5t-164.5 -126.5z" />
<glyph unicode="q" horiz-adv-x="1366" d="M154 373q0 150 34 269t89 193.5t129.5 124t149.5 69.5t155 20q239 0 336 -160q79 130 206 160l127 -158q-89 -40 -136 -90t-60 -129l-207 -1184h-248l105 598q-153 -111 -330 -111q-77 0 -139 22.5t-110 68.5t-74.5 124t-26.5 183zM410 395q0 -111 38.5 -164t106.5 -53 q73 0 161 47t165 127l57 336q-38 70 -98.5 114t-134.5 44q-43 0 -83.5 -13.5t-79.5 -46t-68 -82.5t-46.5 -129.5t-17.5 -179.5z" />
<glyph unicode="r" horiz-adv-x="954" d="M276 0l113 649q27 163 -110 242l178 158q63 -20 101.5 -63t45.5 -103q80 85 165.5 125.5t162.5 40.5q66 0 162 -29l-31 -176q-125 17 -205 0q-53 -12 -114 -52t-101 -110l-121 -682h-246z" />
<glyph unicode="s" horiz-adv-x="1021" d="M59 109l131 184q179 -115 351 -115q33 0 54 1t56 4t57.5 11.5t46 22t35 36t11.5 52.5q0 14 -3.5 25.5t-14 21t-18.5 15.5t-29 13.5t-32.5 11t-41.5 12t-44 12.5q-59 17 -95 28t-84 28.5t-76 32.5t-59.5 37t-48 45.5t-27.5 54.5t-11 67q0 108 68 186.5t177.5 116 t246.5 37.5q250 0 413 -91l-94 -182q-66 33 -165 51.5t-197 18.5q-44 0 -74.5 -3t-60 -12t-44 -27.5t-14.5 -47.5q0 -34 46.5 -59.5t189.5 -67.5q59 -18 93 -29.5t81 -30.5t73.5 -38.5t53 -47t38 -63t11.5 -78.5q0 -86 -36 -153t-91.5 -106.5t-130.5 -64.5t-144 -34t-141 -9 q-265 0 -457 134z" />
<glyph unicode="t" horiz-adv-x="692" d="M184 821l37 203h107l47 266h248l-48 -266h277l-37 -203h-274l-80 -450q-20 -110 33 -154t198 -35l-35 -200q-89 -7 -122 -7q-60 0 -108.5 7.5t-91 25.5t-70 46.5t-46.5 70t-20 97.5t10 128l84 471h-109z" />
<glyph unicode="u" horiz-adv-x="1419" d="M227 375l113 649h248l-111 -633q-37 -213 131 -213q80 0 173 46t175 128l119 672h246l-113 -649q-27 -161 111 -242l-178 -158q-62 21 -102.5 70.5t-51.5 112.5q-192 -183 -434 -183q-182 0 -271.5 99t-54.5 301z" />
<glyph unicode="v" horiz-adv-x="1110" d="M170 1024h279l155 -731l430 731h279l-631 -1024h-256z" />
<glyph unicode="w" horiz-adv-x="1435" d="M195 1024h249l9 -797l288 658h250l56 -658l311 797h244l-426 -1024h-275l-65 649l-289 -649h-301z" />
<glyph unicode="x" horiz-adv-x="1128" d="M-82 0l582 547l-293 477h301l182 -319l330 319h332l-533 -504l328 -520h-309l-209 360l-365 -360h-346z" />
<glyph unicode="y" horiz-adv-x="1150" d="M-20 -510l36 205q87 -5 166.5 27t126.5 104l133 203l-219 995h269l139 -719l465 719h274l-854 -1294q-85 -129 -202.5 -185.5t-274.5 -56.5q-43 0 -59 2z" />
<glyph unicode="z" horiz-adv-x="995" d="M20 0l25 137l709 694h-574l33 193h917l-22 -145l-694 -686h596l-35 -193h-955z" />
<glyph unicode="{" horiz-adv-x="974" d="M195 401l26 148q49 14 87.5 30.5t66 32.5t48.5 39t34 41.5t24.5 50t17.5 53.5t15 62q20 73 31.5 112.5t37.5 104.5t52.5 103t73 89t102.5 83t137 63t180 51l21 -194q-68 -11 -122.5 -33t-92.5 -54.5t-64.5 -65.5t-47 -81.5t-32 -86t-24.5 -93.5q-12 -52 -19 -78.5 t-19.5 -65t-25 -59.5t-33.5 -49t-47 -47t-62.5 -40.5t-84.5 -41.5q98 -55 124 -148t26 -341q0 -54 10 -98.5t35.5 -89t76.5 -75.5t125 -45l-90 -194q-74 16 -131 40.5t-99 56t-71 77t-47 94.5t-28 118.5t-13.5 138.5t-3.5 165q0 84 -41 138.5t-153 88.5z" />
<glyph unicode="|" horiz-adv-x="612" d="M94 -512l340 1946h248l-342 -1946h-246z" />
<glyph unicode="}" horiz-adv-x="974" d="M-6 -322q48 8 89 22.5t72.5 30t58.5 39.5t46 44.5t36 51.5t27 53t21 58t16.5 56.5t14.5 58.5q15 62 25 95t32 80t50 77.5t75.5 65.5t112.5 65q-92 45 -131 97t-40 119.5t9 164.5q5 41 7.5 70.5t2.5 66.5t-5 64.5t-15 58t-29 53t-45.5 43t-65 35t-86.5 23.5l88 194 q158 -34 252.5 -97.5t123 -142.5t35.5 -174t-9 -192q-8 -56 -7 -103t15 -84t57.5 -67.5t120.5 -54.5l-26 -148q-43 -12 -77.5 -25.5t-61 -30t-46 -31t-35 -37t-25.5 -38.5t-20 -45.5t-15.5 -48.5t-14.5 -55q-16 -66 -27.5 -105.5t-36 -102.5t-51.5 -103.5t-73.5 -91.5 t-103 -85t-139 -66t-182.5 -52z" />
<glyph unicode="~" horiz-adv-x="1626" d="M252 631q119 195 274.5 268t345.5 6l246 -88q114 -38 176.5 -6.5t137.5 156.5l206 -76q-114 -194 -270.5 -268.5t-347.5 -6.5l-248 89q-108 38 -170.5 7.5t-140.5 -157.5z" />
<glyph unicode="&#xa1;" horiz-adv-x="657" d="M94 -512l223 1040h207l-139 -1040h-291zM305 645l45 277h275l-47 -277h-273z" />
<glyph unicode="&#xa2;" horiz-adv-x="1044" d="M156 395q0 126 32.5 231.5t86.5 178t127 124.5t151 79.5t162 35.5l30 175h162l-30 -177q170 -16 292 -86l-90 -180q-178 70 -307 70q-54 0 -102 -11.5t-96 -41.5t-82.5 -76t-56 -121t-21.5 -172q0 -72 18.5 -123t50.5 -76t65.5 -36t72.5 -11q156 0 325 90l68 -182 q-154 -80 -324 -102l-31 -179h-159l28 172q-73 6 -136.5 31.5t-118 73t-86 128t-31.5 185.5z" />
<glyph unicode="&#xa3;" horiz-adv-x="1366" d="M55 84q110 116 207 156l57 335h-137l37 201h139q34 157 83 273.5t111 194.5t143.5 126t172.5 68t205 20q264 0 473 -125l-114 -184q-163 106 -390 106q-86 0 -147 -19t-116 -70.5t-95.5 -147t-71.5 -242.5h566l-37 -201h-568l-55 -315q19 0 43 -6l301 -57q43 -9 78 -9 q82 0 126.5 46t90.5 155l225 -59q-68 -174 -171.5 -264.5t-260.5 -90.5q-62 0 -153 17l-295 57q-42 8 -75 8t-58 -5t-52.5 -23t-49 -36.5t-58.5 -53.5z" />
<glyph unicode="&#xa4;" horiz-adv-x="1298" d="M158 324l192 155q-33 74 -33 160q0 138 111 262l-137 156l184 149l146 -162q113 48 217 48q106 0 200 -48l205 162l137 -151l-196 -156q35 -68 35 -160q0 -135 -109 -260l141 -155l-188 -150l-150 162q-102 -45 -215 -45q-112 0 -200 45l-203 -162zM565 662 q0 -71 48.5 -119.5t121.5 -48.5q95 0 166.5 66t71.5 159q0 73 -47 121.5t-121 48.5q-94 0 -167 -67.5t-73 -159.5z" />
<glyph unicode="&#xa5;" horiz-adv-x="1355" d="M244 317l18 107h395l15 80l-13 26h-378l20 107h311l-350 797h297l283 -684l532 684h307l-645 -797h316l-21 -107h-379l-18 -22l-14 -84h393l-19 -107h-393l-55 -317h-262l55 317h-395z" />
<glyph unicode="&#xa6;" horiz-adv-x="612" d="M94 -512l144 819h249l-145 -819h-248zM291 614l143 820h250l-145 -820h-248z" />
<glyph unicode="&#xa7;" horiz-adv-x="1298" d="M47 -342l154 197q118 -77 224.5 -114.5t223.5 -37.5q51 0 101 6t105 22.5t96.5 42.5t68.5 70.5t27 100.5q0 25 -8 46.5t-20 37t-33.5 29.5t-40 23.5t-49 19.5t-51.5 16t-55 15l-12 3q-89 24 -149.5 43t-123.5 44t-102.5 51.5t-72.5 61.5t-47.5 78.5t-14.5 96.5 q0 176 107 289q-86 74 -86 200q0 223 169 341t474 118q283 0 498 -121l-113 -196q-111 52 -211.5 76t-228.5 24q-164 0 -241 -43.5t-77 -155.5q0 -24 13.5 -45.5t51 -47.5t112 -56t188.5 -64q161 -48 206 -67q143 -60 185 -164q22 -53 22 -121q0 -174 -94 -293 q74 -77 74 -196t-43 -210t-110.5 -145t-161.5 -88.5t-184.5 -46.5t-192.5 -12q-172 0 -309 40.5t-269 131.5zM539 553q0 -33 24 -61t107.5 -67.5t232.5 -84.5q11 -3 52.5 -15.5t62.5 -19.5q49 52 49 129q0 26 -9 48t-20 37.5t-36 30.5t-41 23.5t-52 20t-52 16t-58 15.5 q-98 25 -213 61q-47 -47 -47 -133z" />
<glyph unicode="&#xa8;" horiz-adv-x="829" d="M344 1163l35 203h201l-35 -203h-201zM690 1163l33 203h201l-33 -203h-201z" />
<glyph unicode="&#xa9;" horiz-adv-x="1748" d="M211 578q0 183 52 332.5t139.5 249.5t206.5 168.5t249.5 99t271.5 30.5q109 0 205.5 -21t180.5 -67.5t144.5 -115t95 -170t34.5 -226.5q0 -183 -52 -333.5t-139.5 -251t-206.5 -169t-249 -99t-271 -30.5q-109 0 -205.5 21t-181 67.5t-144.5 116t-95 171t-35 227.5z M408 590q0 -98 24.5 -174.5t67.5 -128t105 -84.5t134.5 -47.5t159.5 -14.5q116 0 216 22.5t189 74.5t152.5 131.5t100 200t36.5 272.5q0 98 -25 175.5t-68.5 128.5t-107 84t-135 47.5t-157.5 14.5q-117 0 -217 -22.5t-189 -74.5t-151.5 -131.5t-98.5 -200t-36 -273.5z M594 629q0 124 42 217.5t114 148t159 81t187 26.5q74 0 130 -16.5t124 -55.5l-74 -141q-36 21 -92.5 37t-112.5 16q-55 0 -102.5 -15.5t-88 -48t-64 -90t-23.5 -133.5q0 -50 15.5 -86t41.5 -55.5t54.5 -28t60.5 -8.5q103 0 256 78l55 -141q-174 -97 -346 -97 q-51 0 -97.5 9.5t-90.5 32t-76.5 57.5t-52 89.5t-19.5 123.5z" />
<glyph unicode="&#xaa;" horiz-adv-x="829" d="M330 1077q0 41 15 74t39.5 54.5t56 36t62.5 20.5t62 6q100 0 142 -47l4 24q10 68 -19 93.5t-88 25.5q-65 0 -145 -39l-33 88q88 45 209 45q116 0 164 -52.5t24 -184.5l-18 -109q-6 -36 9 -57.5t50 -42.5l-90 -78q-67 20 -72 74q-74 -74 -190 -74q-73 0 -127.5 35 t-54.5 108zM455 1090q0 -32 28.5 -47t63.5 -15q76 0 139 70l2 14q-35 59 -117 59q-45 0 -80.5 -19t-35.5 -62z" />
<glyph unicode="&#xab;" horiz-adv-x="1290" d="M178 553l19 100l319 254h336l-383 -305l274 -305h-333zM694 553l17 100l323 254h334l-383 -305l277 -305h-336z" />
<glyph unicode="&#xac;" horiz-adv-x="1226" d="M285 823l32 201h945l-91 -510h-247l55 309h-694z" />
<glyph unicode="&#xad;" horiz-adv-x="1067" d="M229 504l35 201h783l-35 -201h-783z" />
<glyph unicode="&#xae;" horiz-adv-x="1748" d="M211 578q0 183 52 332.5t139.5 249.5t206.5 168.5t249.5 99t271.5 30.5q109 0 205.5 -21t180.5 -67.5t144.5 -115t95 -170t34.5 -226.5q0 -183 -52 -333.5t-139.5 -251t-206.5 -169t-249 -99t-271 -30.5q-109 0 -205.5 21t-181 67.5t-144.5 116t-95 171t-35 227.5z M408 590q0 -98 24.5 -174.5t67.5 -128t105 -84.5t134.5 -47.5t159.5 -14.5q116 0 216 22.5t189 74.5t152.5 131.5t100 200t36.5 272.5q0 98 -25 175.5t-68.5 128.5t-107 84t-135 47.5t-157.5 14.5q-117 0 -217 -22.5t-189 -74.5t-151.5 -131.5t-98.5 -200t-36 -273.5z M616 340l134 758h344q130 0 196 -43.5t66 -143.5q0 -197 -164 -252l108 -249l-180 -88l-129 311h-129l-53 -293h-193zM889 793h149q63 0 93 18t30 70q0 61 -96 61h-152z" />
<glyph unicode="&#xaf;" horiz-adv-x="776" d="M348 1182l35 194h494l-35 -194h-494z" />
<glyph unicode="&#xb0;" horiz-adv-x="589" d="M367 1280q0 71 55.5 124.5t126.5 53.5q56 0 92.5 -38.5t36.5 -94.5q0 -71 -56 -123.5t-126 -52.5q-56 0 -92.5 37.5t-36.5 93.5zM424 1288q0 -34 23.5 -58t58.5 -24q43 0 77.5 33.5t34.5 77.5q0 34 -23 58t-58 24q-43 0 -78 -33.5t-35 -77.5z" />
<glyph unicode="&#xb1;" horiz-adv-x="1261" d="M141 0l35 201h977l-35 -201h-977zM256 645l35 201h373l63 377h231l-63 -377h373l-35 -201h-373l-67 -373h-232l68 373h-373z" />
<glyph unicode="&#xb2;" horiz-adv-x="802" d="M150 510l26 147l240 183q60 46 97.5 78t79.5 76t62.5 87.5t20.5 87.5q0 84 -92 84h-7h-10t-13 -0.5t-17.5 -2.5t-21 -5.5t-26.5 -9t-31 -12.5t-37.5 -17.5t-43.5 -23.5l-72 184q184 92 334 92q145 0 220 -69.5t75 -178.5q0 -30 -6.5 -59.5t-15 -54t-29 -53.5t-34.5 -49 t-46 -50.5t-51 -48t-61.5 -51t-63.5 -50t-72 -54.5t-74 -56h381l-31 -174h-681z" />
<glyph unicode="&#xb3;" horiz-adv-x="899" d="M143 592l154 186q143 -86 264 -86q141 0 141 111q0 53 -46.5 72.5t-131.5 19.5l27 149l194 199h-419l32 191h686l-20 -125l-238 -250q89 -11 132 -71t43 -146q0 -90 -34.5 -160t-94.5 -112t-136.5 -63.5t-165.5 -21.5q-217 0 -387 107z" />
<glyph unicode="&#xb4;" horiz-adv-x="778" d="M401 1245l295 307l150 -131l-326 -272z" />
<glyph unicode="&#xb6;" horiz-adv-x="1368" d="M236 850q0 297 170.5 440.5t480.5 143.5h549l-338 -1946h-219l303 1745h-178l-304 -1745h-219l168 963q-413 36 -413 399z" />
<glyph unicode="&#xb7;" horiz-adv-x="591" d="M268 489l39 230h228l-39 -230h-228z" />
<glyph unicode="&#xb8;" horiz-adv-x="690" d="M61 -469l39 135q103 -20 186 -4.5t83 66.5q0 25 -43 34t-140 9h-20l76 258l149 -6l-59 -134q68 -2 120 -35.5t52 -101.5q0 -57 -20.5 -100.5t-57.5 -68t-80.5 -39.5t-95.5 -19t-97.5 -2t-91.5 8z" />
<glyph unicode="&#xb9;" horiz-adv-x="731" d="M305 1178l33 190h72q116 0 176 66h213l-162 -932h-254l123 700q-13 -7 -31 -12t-32.5 -7.5t-38 -3.5t-34 -1h-36h-29.5z" />
<glyph unicode="&#xba;" horiz-adv-x="833" d="M344 1147q0 80 28 141.5t75 97.5t104 54t121 18q103 0 169 -52.5t66 -160.5q0 -80 -27.5 -141.5t-75 -97.5t-104.5 -54t-122 -18q-102 0 -168 53t-66 160zM471 1159q0 -127 125 -127q80 0 132 47.5t52 153.5q0 67 -35 97t-92 30q-78 0 -130 -47.5t-52 -153.5z" />
<glyph unicode="&#xbb;" horiz-adv-x="1290" d="M133 297l381 305l-272 305h333l234 -254l-18 -100l-322 -256h-336zM651 297l381 305l-274 305h336l229 -254l-16 -100l-322 -256h-334z" />
<glyph unicode="&#xbc;" horiz-adv-x="2205" d="M346 1178l33 190h72q116 0 176 66h213l-162 -932h-254l121 700q-13 -7 -30.5 -12t-31.5 -7.5t-37.5 -3.5t-34 -1h-36h-29.5zM532 0l949 1434h258l-948 -1434h-259zM1290 262l25 133l522 537h250l-84 -477h137l-33 -193h-139l-43 -262h-252l45 262h-428zM1575 455h176 l39 221z" />
<glyph unicode="&#xbd;" horiz-adv-x="2191" d="M346 1178l33 190h72q116 0 176 66h213l-162 -932h-254l121 700q-13 -7 -30.5 -12t-31.5 -7.5t-37.5 -3.5t-34 -1h-36h-29.5zM532 0l949 1434h258l-948 -1434h-259zM1366 0l27 147l239 183q60 46 97.5 78t79.5 76t62.5 87.5t20.5 87.5q0 84 -92 84h-7h-10t-13 -0.5 t-17.5 -2.5t-21 -5.5t-26.5 -9t-31 -12.5t-37.5 -17.5t-43.5 -23.5l-71 184q184 92 333 92q145 0 220 -69.5t75 -178.5q0 -30 -6.5 -59.5t-15.5 -54t-28.5 -53t-34.5 -49.5t-46.5 -50.5t-51 -48t-60.5 -51t-64 -50t-71.5 -54.5t-73.5 -56h381l-31 -174h-682z" />
<glyph unicode="&#xbe;" horiz-adv-x="2445" d="M248 592l151 186q143 -86 267 -86q139 0 139 111q0 36 -25 57.5t-61 28t-90 6.5l26 149l195 199h-420l33 191h684l-21 -125l-235 -250q87 -11 130.5 -71t43.5 -146q0 -90 -34.5 -160t-94.5 -112t-136 -63.5t-165 -21.5q-219 0 -387 107zM774 0l950 1434h258l-950 -1434 h-258zM1532 262l22 133l527 537h250l-86 -477h137l-33 -193h-137l-47 -262h-250l45 262h-428zM1817 455h176l41 221z" />
<glyph unicode="&#xbf;" horiz-adv-x="1136" d="M53 -186q0 86 29 157.5t75 122t119 95t146.5 74t171.5 59.5l41 231h266l-65 -371q-62 -19 -91.5 -28t-83.5 -27t-81.5 -29.5t-70.5 -30.5t-64.5 -34t-49.5 -37t-41 -43t-22.5 -47.5t-9.5 -55.5q0 -72 63 -108.5t182 -36.5q192 0 371 100l92 -190q-260 -127 -528 -127 q-216 0 -332.5 85.5t-116.5 240.5zM651 670l49 276h273l-49 -276h-273z" />
<glyph unicode="&#xc0;" horiz-adv-x="1521" d="M4 0l887 1434h285l364 -1434h-276l-109 406h-600l-250 -406h-301zM676 608h430l-121 527zM729 1831l195 131l190 -309l-151 -99z" />
<glyph unicode="&#xc1;" horiz-adv-x="1521" d="M4 0l887 1434h285l364 -1434h-276l-109 406h-600l-250 -406h-301zM676 608h430l-121 527zM989 1655l295 307l150 -131l-326 -272z" />
<glyph unicode="&#xc2;" horiz-adv-x="1521" d="M4 0l887 1434h285l364 -1434h-276l-109 406h-600l-250 -406h-301zM670 1552l338 254h161l246 -254h-239l-111 129l-158 -129h-237zM676 608h430l-121 527z" />
<glyph unicode="&#xc3;" horiz-adv-x="1521" d="M4 0l887 1434h285l364 -1434h-276l-109 406h-600l-250 -406h-301zM641 1595q63 101 131 153t158 52q43 0 96 -20l115 -41q39 -13 49 -13q23 1 41 23t51 80l172 -68q-118 -205 -280 -205q-52 0 -107 19l-104 39q-35 14 -56 14q-24 0 -45 -24.5t-49 -77.5zM676 608h430 l-121 527z" />
<glyph unicode="&#xc4;" horiz-adv-x="1521" d="M4 0l887 1434h285l364 -1434h-276l-109 406h-600l-250 -406h-301zM676 608h430l-121 527zM776 1573l35 203h201l-35 -203h-201zM1122 1573l33 203h201l-33 -203h-201z" />
<glyph unicode="&#xc5;" horiz-adv-x="1521" d="M4 0l887 1434h285l364 -1434h-276l-109 406h-600l-250 -406h-301zM676 608h430l-121 527zM883 1696q0 93 74 163t167 70q73 0 121.5 -51t48.5 -125q0 -93 -74 -163t-167 -70q-74 0 -122 51t-48 125zM1016 1714q0 -28 16 -45.5t43 -17.5q34 0 62 25.5t28 58.5 q0 28 -17.5 46.5t-45.5 18.5q-34 0 -60 -26t-26 -60z" />
<glyph unicode="&#xc6;" horiz-adv-x="2115" d="M4 0l1227 1434h1106l-37 -213h-793l-71 -404h561l-35 -201h-561l-70 -403h801l-37 -213h-1063l68 387h-486l-331 -387h-279zM793 600h344l88 500z" />
<glyph unicode="&#xc7;" horiz-adv-x="1409" d="M207 557q0 136 26.5 254.5t73.5 209t113 164t142 124t163 84.5t175 49.5t179 15.5q264 0 484 -121l-113 -188q-185 92 -401 92q-78 0 -155 -20t-153.5 -68t-134 -120t-93.5 -185.5t-36 -253.5q0 -91 22.5 -163t58 -115.5t83 -72t92.5 -39.5t92 -11q112 0 246 36.5 t246 96.5l74 -193q-104 -60 -241 -100.5t-276 -52.5l-38 -91q68 -2 120 -35.5t52 -101.5q0 -57 -20.5 -100.5t-57.5 -68t-80.5 -39.5t-95.5 -19t-97.5 -2t-91.5 8l39 135q103 -20 185.5 -4.5t82.5 66.5q0 25 -43 34t-139 9h-20l59 206q-67 4 -128 19.5t-121 44.5 t-108.5 75.5t-86 107.5t-58 146t-20.5 187z" />
<glyph unicode="&#xc8;" horiz-adv-x="1224" d="M182 0l250 1434h993l-36 -213h-732l-71 -404h499l-34 -201h-500l-70 -403h740l-37 -213h-1002zM666 1831l194 131l191 -309l-152 -99z" />
<glyph unicode="&#xc9;" horiz-adv-x="1224" d="M182 0l250 1434h993l-36 -213h-732l-71 -404h499l-34 -201h-500l-70 -403h740l-37 -213h-1002zM883 1655l295 307l149 -131l-326 -272z" />
<glyph unicode="&#xca;" horiz-adv-x="1224" d="M182 0l250 1434h993l-36 -213h-732l-71 -404h499l-34 -201h-500l-70 -403h740l-37 -213h-1002zM590 1552l338 254h162l245 -254h-239l-111 129l-158 -129h-237z" />
<glyph unicode="&#xcb;" horiz-adv-x="1224" d="M182 0l250 1434h993l-36 -213h-732l-71 -404h499l-34 -201h-500l-70 -403h740l-37 -213h-1002zM690 1573l35 203h201l-35 -203h-201zM1036 1573l33 203h201l-33 -203h-201z" />
<glyph unicode="&#xcc;" horiz-adv-x="626" d="M182 0l250 1434h262l-250 -1434h-262zM287 1831l194 131l191 -309l-152 -99z" />
<glyph unicode="&#xcd;" horiz-adv-x="626" d="M182 0l250 1434h262l-250 -1434h-262zM549 1655l295 307l149 -131l-325 -272z" />
<glyph unicode="&#xce;" horiz-adv-x="626" d="M182 0l250 1434h262l-250 -1434h-262zM213 1552l338 254h162l245 -254h-239l-111 129l-157 -129h-238z" />
<glyph unicode="&#xcf;" horiz-adv-x="626" d="M182 0l250 1434h262l-250 -1434h-262zM319 1573l35 203h201l-35 -203h-201zM666 1573l32 203h201l-33 -203h-200z" />
<glyph unicode="&#xd0;" horiz-adv-x="1619" d="M127 612l37 213h223l107 609h499q110 0 205.5 -18.5t181.5 -62t147 -109t96.5 -164.5t35.5 -224q0 -185 -52 -333t-138.5 -244t-206 -160.5t-248 -91.5t-271.5 -27h-501l108 612h-223zM541 213h241q95 0 179.5 18t164.5 62.5t137.5 112.5t92.5 175t35 242 q0 88 -23.5 157.5t-63 114t-95.5 73.5t-117.5 41t-133.5 12h-241l-68 -396h309l-36 -213h-310z" />
<glyph unicode="&#xd1;" horiz-adv-x="1615" d="M182 0l250 1434h273l532 -1059l184 1059h262l-249 -1434h-275l-532 1057l-183 -1057h-262zM668 1595q63 102 130.5 153.5t157.5 51.5q44 0 97 -20l114 -41q39 -13 50 -13q23 1 41 23t51 80l172 -68q-118 -205 -281 -205q-51 0 -106 19l-105 39q-35 14 -55 14 q-24 0 -45 -24.5t-49 -77.5z" />
<glyph unicode="&#xd2;" horiz-adv-x="1728" d="M211 571q0 184 49.5 334.5t134.5 252t201.5 170t247 99.5t274.5 31q112 0 208 -21t178.5 -66.5t140.5 -114t91 -168.5t33 -224q0 -185 -49 -335.5t-133.5 -252t-201.5 -170.5t-248 -100t-277 -31q-110 0 -205.5 21t-178 66.5t-141 114t-91.5 169t-33 225.5zM481 600 q0 -109 31.5 -189t89.5 -127t131.5 -69t165.5 -22q98 0 184 21t164 69t134 120.5t89 181.5t33 246q0 110 -32 190.5t-91 127.5t-133 69.5t-166 22.5q-99 0 -185.5 -21t-163.5 -70t-132 -121.5t-87 -182t-32 -246.5zM897 1831l195 131l190 -309l-152 -99z" />
<glyph unicode="&#xd3;" horiz-adv-x="1728" d="M211 571q0 184 49.5 334.5t134.5 252t201.5 170t247 99.5t274.5 31q112 0 208 -21t178.5 -66.5t140.5 -114t91 -168.5t33 -224q0 -185 -49 -335.5t-133.5 -252t-201.5 -170.5t-248 -100t-277 -31q-110 0 -205.5 21t-178 66.5t-141 114t-91.5 169t-33 225.5zM481 600 q0 -109 31.5 -189t89.5 -127t131.5 -69t165.5 -22q98 0 184 21t164 69t134 120.5t89 181.5t33 246q0 110 -32 190.5t-91 127.5t-133 69.5t-166 22.5q-99 0 -185.5 -21t-163.5 -70t-132 -121.5t-87 -182t-32 -246.5zM1143 1655l295 307l149 -131l-325 -272z" />
<glyph unicode="&#xd4;" horiz-adv-x="1728" d="M211 571q0 184 49.5 334.5t134.5 252t201.5 170t247 99.5t274.5 31q112 0 208 -21t178.5 -66.5t140.5 -114t91 -168.5t33 -224q0 -185 -49 -335.5t-133.5 -252t-201.5 -170.5t-248 -100t-277 -31q-110 0 -205.5 21t-178 66.5t-141 114t-91.5 169t-33 225.5zM481 600 q0 -109 31.5 -189t89.5 -127t131.5 -69t165.5 -22q98 0 184 21t164 69t134 120.5t89 181.5t33 246q0 110 -32 190.5t-91 127.5t-133 69.5t-166 22.5q-99 0 -185.5 -21t-163.5 -70t-132 -121.5t-87 -182t-32 -246.5zM758 1552l338 254h161l246 -254h-239l-111 129l-158 -129 h-237z" />
<glyph unicode="&#xd5;" horiz-adv-x="1728" d="M211 571q0 184 49.5 334.5t134.5 252t201.5 170t247 99.5t274.5 31q112 0 208 -21t178.5 -66.5t140.5 -114t91 -168.5t33 -224q0 -185 -49 -335.5t-133.5 -252t-201.5 -170.5t-248 -100t-277 -31q-110 0 -205.5 21t-178 66.5t-141 114t-91.5 169t-33 225.5zM481 600 q0 -109 31.5 -189t89.5 -127t131.5 -69t165.5 -22q98 0 184 21t164 69t134 120.5t89 181.5t33 246q0 110 -32 190.5t-91 127.5t-133 69.5t-166 22.5q-99 0 -185.5 -21t-163.5 -70t-132 -121.5t-87 -182t-32 -246.5zM723 1595q63 101 131 153t158 52q43 0 96 -20l115 -41 q39 -13 49 -13q23 1 41 23t51 80l172 -68q-118 -205 -281 -205q-51 0 -106 19l-105 39q-35 14 -55 14q-24 0 -45 -24.5t-49 -77.5z" />
<glyph unicode="&#xd6;" horiz-adv-x="1728" d="M211 571q0 184 49.5 334.5t134.5 252t201.5 170t247 99.5t274.5 31q112 0 208 -21t178.5 -66.5t140.5 -114t91 -168.5t33 -224q0 -185 -49 -335.5t-133.5 -252t-201.5 -170.5t-248 -100t-277 -31q-110 0 -205.5 21t-178 66.5t-141 114t-91.5 169t-33 225.5zM481 600 q0 -109 31.5 -189t89.5 -127t131.5 -69t165.5 -22q98 0 184 21t164 69t134 120.5t89 181.5t33 246q0 110 -32 190.5t-91 127.5t-133 69.5t-166 22.5q-99 0 -185.5 -21t-163.5 -70t-132 -121.5t-87 -182t-32 -246.5zM840 1573l34 203h201l-35 -203h-200zM1186 1573l33 203 h200l-33 -203h-200z" />
<glyph unicode="&#xd7;" horiz-adv-x="1114" d="M209 356l305 265l-215 266l166 141l217 -266l309 266l133 -164l-309 -266l217 -266l-164 -144l-219 267l-307 -262z" />
<glyph unicode="&#xd8;" horiz-adv-x="1748" d="M231 575q0 184 50 333.5t135 250.5t201 169.5t243.5 99t267.5 30.5q84 0 160 -12l94 184h168l-114 -223q333 -127 333 -549q0 -184 -49.5 -333.5t-134.5 -250.5t-200.5 -169.5t-244.5 -99t-270 -30.5q-69 0 -165 15l-97 -187h-170l117 228q-324 128 -324 544zM502 606 q0 -141 40.5 -228.5t125.5 -131.5l510 989q-43 6 -86 6q-94 0 -178 -20.5t-160.5 -68.5t-131.5 -120t-87.5 -181t-32.5 -245zM813 199q31 -6 96 -6q93 0 176.5 20.5t160.5 68t133 119t89 180t33 244.5q0 275 -178 365z" />
<glyph unicode="&#xd9;" horiz-adv-x="1525" d="M256 537l156 897h262l-160 -906q-20 -115 -2.5 -189.5t86 -110t199.5 -35.5q196 0 285.5 78t121.5 257l158 906h252l-156 -897q-52 -292 -214 -427t-486 -135t-439 135t-63 427zM754 1831l194 131l191 -309l-152 -99z" />
<glyph unicode="&#xda;" horiz-adv-x="1525" d="M256 537l156 897h262l-160 -906q-20 -115 -2.5 -189.5t86 -110t199.5 -35.5q196 0 285.5 78t121.5 257l158 906h252l-156 -897q-52 -292 -214 -427t-486 -135t-439 135t-63 427zM991 1655l295 307l150 -131l-326 -272z" />
<glyph unicode="&#xdb;" horiz-adv-x="1525" d="M256 537l156 897h262l-160 -906q-20 -115 -2.5 -189.5t86 -110t199.5 -35.5q196 0 285.5 78t121.5 257l158 906h252l-156 -897q-52 -292 -214 -427t-486 -135t-439 135t-63 427zM678 1552l338 254h162l245 -254h-239l-111 129l-158 -129h-237z" />
<glyph unicode="&#xdc;" horiz-adv-x="1525" d="M256 537l156 897h262l-160 -906q-20 -115 -2.5 -189.5t86 -110t199.5 -35.5q196 0 285.5 78t121.5 257l158 906h252l-156 -897q-52 -292 -214 -427t-486 -135t-439 135t-63 427zM776 1573l35 203h201l-35 -203h-201zM1122 1573l33 203h201l-33 -203h-201z" />
<glyph unicode="&#xdd;" horiz-adv-x="1337" d="M244 1434h297l282 -684l533 684h307l-750 -926l-86 -508h-262l88 504zM895 1655l295 307l149 -131l-325 -272z" />
<glyph unicode="&#xde;" horiz-adv-x="1388" d="M94 -512l340 1946h262l-73 -410h249q558 0 558 -412q0 -612 -736 -612h-250l-90 -512h-260zM483 213h250q222 0 324 87t102 275q0 124 -78.5 180t-242.5 56h-252z" />
<glyph unicode="&#xdf;" horiz-adv-x="1263" d="M162 0l235 1343q231 115 498 115q214 0 325 -83.5t111 -237.5q0 -247 -223 -351q91 -35 134.5 -110t43.5 -176q0 -132 -45.5 -235t-124 -165t-177 -93.5t-212.5 -31.5q-121 0 -248 41l105 197q90 -35 168 -35q111 0 191.5 70t80.5 198q0 218 -315 218l32 196 q136 0 235 64.5t99 175.5q0 74 -59 114.5t-164 40.5q-114 0 -229 -36l-213 -1219h-248z" />
<glyph unicode="&#xe0;" d="M127 397q0 139 34.5 252t90 186t129 122.5t148 70.5t151.5 21q201 0 274 -134l19 109h248l-115 -657q-24 -156 115 -230l-185 -162q-133 39 -174 187q-185 -187 -397 -187q-77 0 -135.5 20.5t-106 67t-72 130.5t-24.5 204zM383 420q0 -129 37 -185.5t110 -56.5 q75 0 163.5 47.5t162.5 124.5l57 338q-37 68 -98.5 113t-136.5 45q-54 0 -104.5 -24t-94 -72.5t-70 -133.5t-26.5 -196zM385 1421l195 131l190 -309l-152 -98z" />
<glyph unicode="&#xe1;" d="M127 397q0 139 34.5 252t90 186t129 122.5t148 70.5t151.5 21q201 0 274 -134l19 109h248l-115 -657q-24 -156 115 -230l-185 -162q-133 39 -174 187q-185 -187 -397 -187q-77 0 -135.5 20.5t-106 67t-72 130.5t-24.5 204zM383 420q0 -129 37 -185.5t110 -56.5 q75 0 163.5 47.5t162.5 124.5l57 338q-37 68 -98.5 113t-136.5 45q-54 0 -104.5 -24t-94 -72.5t-70 -133.5t-26.5 -196zM705 1245l294 307l150 -131l-326 -272z" />
<glyph unicode="&#xe2;" d="M127 397q0 139 34.5 252t90 186t129 122.5t148 70.5t151.5 21q201 0 274 -134l19 109h248l-115 -657q-24 -156 115 -230l-185 -162q-133 39 -174 187q-185 -187 -397 -187q-77 0 -135.5 20.5t-106 67t-72 130.5t-24.5 204zM328 1143l338 254h161l246 -254h-239l-111 129 l-158 -129h-237zM383 420q0 -129 37 -185.5t110 -56.5q75 0 163.5 47.5t162.5 124.5l57 338q-37 68 -98.5 113t-136.5 45q-54 0 -104.5 -24t-94 -72.5t-70 -133.5t-26.5 -196z" />
<glyph unicode="&#xe3;" d="M127 397q0 139 34.5 252t90 186t129 122.5t148 70.5t151.5 21q201 0 274 -134l19 109h248l-115 -657q-24 -156 115 -230l-185 -162q-133 39 -174 187q-185 -187 -397 -187q-77 0 -135.5 20.5t-106 67t-72 130.5t-24.5 204zM293 1186q63 101 131 153t158 52q41 0 96 -21 l115 -41q36 -12 49 -12q23 1 41 23t51 79l172 -67q-118 -205 -281 -205q-53 0 -106 18l-105 39q-38 15 -55 15q-24 0 -45 -25t-49 -78zM383 420q0 -129 37 -185.5t110 -56.5q75 0 163.5 47.5t162.5 124.5l57 338q-37 68 -98.5 113t-136.5 45q-54 0 -104.5 -24t-94 -72.5 t-70 -133.5t-26.5 -196z" />
<glyph unicode="&#xe4;" d="M127 397q0 139 34.5 252t90 186t129 122.5t148 70.5t151.5 21q201 0 274 -134l19 109h248l-115 -657q-24 -156 115 -230l-185 -162q-133 39 -174 187q-185 -187 -397 -187q-77 0 -135.5 20.5t-106 67t-72 130.5t-24.5 204zM383 420q0 -129 37 -185.5t110 -56.5 q75 0 163.5 47.5t162.5 124.5l57 338q-37 68 -98.5 113t-136.5 45q-54 0 -104.5 -24t-94 -72.5t-70 -133.5t-26.5 -196zM410 1163l34 203h201l-35 -203h-200zM756 1163l32 203h201l-33 -203h-200z" />
<glyph unicode="&#xe5;" d="M127 397q0 139 34.5 252t90 186t129 122.5t148 70.5t151.5 21q201 0 274 -134l19 109h248l-115 -657q-24 -156 115 -230l-185 -162q-133 39 -174 187q-185 -187 -397 -187q-77 0 -135.5 20.5t-106 67t-72 130.5t-24.5 204zM383 420q0 -129 37 -185.5t110 -56.5 q75 0 163.5 47.5t162.5 124.5l57 338q-37 68 -98.5 113t-136.5 45q-54 0 -104.5 -24t-94 -72.5t-70 -133.5t-26.5 -196zM557 1286q0 93 74.5 163.5t167.5 70.5q73 0 121.5 -51.5t48.5 -125.5q0 -93 -74.5 -163t-167.5 -70q-74 0 -122 51t-48 125zM690 1305q0 -28 16.5 -46 t43.5 -18q34 0 62 25.5t28 58.5q0 28 -18 47t-46 19q-34 0 -60 -26t-26 -60z" />
<glyph unicode="&#xe6;" horiz-adv-x="1832" d="M162 270q0 79 30.5 145t80.5 110t114 74.5t130 44t130 13.5q77 0 157 -21.5t122 -72.5l8 51q12 72 0.5 121t-44 74t-72.5 35t-95 10q-84 0 -147.5 -19.5t-149.5 -60.5l-72 180q183 95 420 95q149 0 233 -44.5t101 -148.5q76 94 181.5 143.5t226.5 49.5q95 0 174 -33 t136 -100t78 -169.5t-1 -240.5l-15 -82h-727q-6 -70 11 -120t51.5 -76.5t74.5 -38t88 -11.5q75 0 172.5 24t176.5 66l69 -182q-103 -53 -226.5 -82t-231.5 -29q-286 0 -363 220q-23 -33 -63 -70q-153 -150 -381 -150q-69 0 -134 17.5t-120.5 52t-89 93t-33.5 132.5zM416 299 q0 -62 58.5 -95.5t131.5 -33.5q76 0 148 36.5t129 104.5l4 29q-30 59 -92 91t-136 32q-58 0 -111.5 -16t-92.5 -55t-39 -93zM1186 584h471q6 72 -9 125.5t-45 81.5t-64.5 41.5t-72.5 13.5q-84 0 -161.5 -62.5t-118.5 -199.5z" />
<glyph unicode="&#xe7;" horiz-adv-x="1044" d="M156 395q0 137 38 249t100 186t145 124.5t169.5 72.5t175.5 22q226 0 385 -93l-90 -180q-178 70 -307 70q-54 0 -102 -11.5t-96 -41.5t-82.5 -76t-56 -121t-21.5 -172q0 -72 18.5 -123t50.5 -76t65.5 -36t72.5 -11q156 0 325 90l68 -182q-177 -91 -363 -106l-39 -91 q68 -2 120 -35.5t52 -101.5q0 -57 -20.5 -100.5t-57 -68t-80 -39.5t-95.5 -19t-97.5 -2t-91.5 8l39 135q103 -20 185.5 -4.5t82.5 66.5q0 25 -43 34t-139 9h-21l62 211q-71 8 -131 34t-111 73t-80.5 125.5t-29.5 180.5z" />
<glyph unicode="&#xe8;" horiz-adv-x="1112" d="M160 420q0 145 49.5 265t134 199t195 122t233.5 43q104 0 186 -31t129.5 -84t66.5 -121t7 -143q-19 -116 -103.5 -190.5t-243 -103.5t-390.5 11q6 -110 67 -159.5t158 -49.5q74 0 171.5 24t176.5 66l70 -182q-105 -54 -229.5 -82.5t-233.5 -28.5q-69 0 -129 11.5 t-119.5 43t-101.5 80t-68 128t-26 182.5zM449 563q155 -16 256 -12.5t152 35t61 100.5q6 47 -8.5 80.5t-44.5 49.5t-60 23t-64 7q-48 0 -91.5 -14t-84.5 -45.5t-71.5 -88.5t-44.5 -135zM535 1421l194 131l191 -309l-152 -98z" />
<glyph unicode="&#xe9;" horiz-adv-x="1112" d="M160 420q0 145 49.5 265t134 199t195 122t233.5 43q104 0 186 -31t129.5 -84t66.5 -121t7 -143q-19 -116 -103.5 -190.5t-243 -103.5t-390.5 11q6 -110 67 -159.5t158 -49.5q74 0 171.5 24t176.5 66l70 -182q-105 -54 -229.5 -82.5t-233.5 -28.5q-69 0 -129 11.5 t-119.5 43t-101.5 80t-68 128t-26 182.5zM449 563q155 -16 256 -12.5t152 35t61 100.5q6 47 -8.5 80.5t-44.5 49.5t-60 23t-64 7q-48 0 -91.5 -14t-84.5 -45.5t-71.5 -88.5t-44.5 -135zM844 1245l295 307l149 -131l-325 -272z" />
<glyph unicode="&#xea;" horiz-adv-x="1112" d="M160 420q0 145 49.5 265t134 199t195 122t233.5 43q104 0 186 -31t129.5 -84t66.5 -121t7 -143q-19 -116 -103.5 -190.5t-243 -103.5t-390.5 11q6 -110 67 -159.5t158 -49.5q74 0 171.5 24t176.5 66l70 -182q-105 -54 -229.5 -82.5t-233.5 -28.5q-69 0 -129 11.5 t-119.5 43t-101.5 80t-68 128t-26 182.5zM449 563q155 -16 256 -12.5t152 35t61 100.5q6 47 -8.5 80.5t-44.5 49.5t-60 23t-64 7q-48 0 -91.5 -14t-84.5 -45.5t-71.5 -88.5t-44.5 -135zM451 1143l337 254h162l246 -254h-240l-110 129l-158 -129h-237z" />
<glyph unicode="&#xeb;" horiz-adv-x="1112" d="M160 420q0 145 49.5 265t134 199t195 122t233.5 43q104 0 186 -31t129.5 -84t66.5 -121t7 -143q-19 -116 -103.5 -190.5t-243 -103.5t-390.5 11q6 -110 67 -159.5t158 -49.5q74 0 171.5 24t176.5 66l70 -182q-105 -54 -229.5 -82.5t-233.5 -28.5q-69 0 -129 11.5 t-119.5 43t-101.5 80t-68 128t-26 182.5zM449 563q155 -16 256 -12.5t152 35t61 100.5q6 47 -8.5 80.5t-44.5 49.5t-60 23t-64 7q-48 0 -91.5 -14t-84.5 -45.5t-71.5 -88.5t-44.5 -135zM530 1163l35 203h201l-35 -203h-201zM877 1163l32 203h201l-33 -203h-200z" />
<glyph unicode="&#xec;" horiz-adv-x="751" d="M266 823l35 201h467l-178 -1024h-248l145 823h-221zM307 1421l195 131l190 -309l-151 -98z" />
<glyph unicode="&#xed;" horiz-adv-x="751" d="M266 823l35 201h467l-178 -1024h-248l145 823h-221zM543 1245l295 307l149 -131l-325 -272z" />
<glyph unicode="&#xee;" horiz-adv-x="751" d="M209 1143l338 254h162l245 -254h-239l-111 129l-158 -129h-237zM266 823l35 201h467l-178 -1024h-248l145 823h-221z" />
<glyph unicode="&#xef;" horiz-adv-x="751" d="M266 823l35 201h467l-178 -1024h-248l145 823h-221zM279 1163l34 203h201l-35 -203h-200zM625 1163l32 203h201l-33 -203h-200z" />
<glyph unicode="&#xf0;" horiz-adv-x="1286" d="M158 403q0 140 36 253t94 184.5t136.5 120t159 68.5t164.5 20q236 0 315 -166q12 189 -84 340l-199 -88l-20 61l180 80q-55 67 -131 96l199 164q111 -54 182 -150l158 72l22 -61l-143 -66q114 -191 114 -473q0 -149 -23 -273.5t-62 -214t-95 -159t-118 -113.5 t-135.5 -72.5t-142.5 -39.5t-144 -11q-69 0 -131 11t-124.5 41t-107 76.5t-72.5 123.5t-28 176zM414 432q0 -73 22 -125.5t59.5 -79t77.5 -38t86 -11.5q43 0 83.5 9t91.5 39t92.5 79.5t79.5 139t59 208.5q-37 96 -116 144.5t-179 48.5q-165 0 -260.5 -114.5t-95.5 -299.5z " />
<glyph unicode="&#xf1;" horiz-adv-x="1425" d="M281 0l114 649q27 162 -110 242l178 158q64 -20 104 -68.5t51 -112.5q195 181 433 181q180 0 271 -99t56 -301l-51 -287q-20 -152 117 -225l-184 -162q-106 31 -155.5 135.5t-27.5 229.5l49 293q40 213 -129 213q-83 0 -177 -47t-173 -129l-121 -670h-245zM612 1186 q63 101 131 153t158 52q41 0 96 -21l115 -41q36 -12 49 -12q23 1 41 23t51 79l172 -67q-118 -205 -280 -205q-55 0 -107 18l-104 39q-38 15 -55 15q-24 0 -45.5 -25t-49.5 -78z" />
<glyph unicode="&#xf2;" horiz-adv-x="1284" d="M160 412q0 132 37.5 240.5t101 181t150 122t180.5 71.5t196 22q100 0 185 -25t152 -76t105 -136.5t38 -197.5q0 -132 -37.5 -240.5t-101 -181.5t-149.5 -122.5t-181 -72t-199 -22.5q-99 0 -183 25t-151 76t-105 137t-38 199zM416 438q0 -71 20.5 -122.5t57.5 -81 t81.5 -43t98.5 -13.5q59 0 112 13t102 43.5t84 76.5t56 117t21 160q0 135 -73 196.5t-188 61.5q-57 0 -109 -13t-100.5 -43.5t-84 -76t-57 -116.5t-21.5 -159zM510 1421l195 131l190 -309l-152 -98z" />
<glyph unicode="&#xf3;" horiz-adv-x="1284" d="M160 412q0 132 37.5 240.5t101 181t150 122t180.5 71.5t196 22q100 0 185 -25t152 -76t105 -136.5t38 -197.5q0 -132 -37.5 -240.5t-101 -181.5t-149.5 -122.5t-181 -72t-199 -22.5q-99 0 -183 25t-151 76t-105 137t-38 199zM416 438q0 -71 20.5 -122.5t57.5 -81 t81.5 -43t98.5 -13.5q59 0 112 13t102 43.5t84 76.5t56 117t21 160q0 135 -73 196.5t-188 61.5q-57 0 -109 -13t-100.5 -43.5t-84 -76t-57 -116.5t-21.5 -159zM815 1245l295 307l150 -131l-326 -272z" />
<glyph unicode="&#xf4;" horiz-adv-x="1284" d="M160 412q0 132 37.5 240.5t101 181t150 122t180.5 71.5t196 22q100 0 185 -25t152 -76t105 -136.5t38 -197.5q0 -132 -37.5 -240.5t-101 -181.5t-149.5 -122.5t-181 -72t-199 -22.5q-99 0 -183 25t-151 76t-105 137t-38 199zM416 438q0 -71 20.5 -122.5t57.5 -81 t81.5 -43t98.5 -13.5q59 0 112 13t102 43.5t84 76.5t56 117t21 160q0 135 -73 196.5t-188 61.5q-57 0 -109 -13t-100.5 -43.5t-84 -76t-57 -116.5t-21.5 -159zM453 1143l338 254h161l246 -254h-240l-110 129l-158 -129h-237z" />
<glyph unicode="&#xf5;" horiz-adv-x="1284" d="M160 412q0 132 37.5 240.5t101 181t150 122t180.5 71.5t196 22q100 0 185 -25t152 -76t105 -136.5t38 -197.5q0 -132 -37.5 -240.5t-101 -181.5t-149.5 -122.5t-181 -72t-199 -22.5q-99 0 -183 25t-151 76t-105 137t-38 199zM416 438q0 -71 20.5 -122.5t57.5 -81 t81.5 -43t98.5 -13.5q59 0 112 13t102 43.5t84 76.5t56 117t21 160q0 135 -73 196.5t-188 61.5q-57 0 -109 -13t-100.5 -43.5t-84 -76t-57 -116.5t-21.5 -159zM420 1186q63 101 131 153t158 52q41 0 96 -21l115 -41q36 -12 49 -12q23 1 41 23t51 79l172 -67 q-118 -205 -281 -205q-54 0 -106 18l-105 39q-37 15 -55 15q-24 0 -45 -25t-49 -78z" />
<glyph unicode="&#xf6;" horiz-adv-x="1284" d="M160 412q0 132 37.5 240.5t101 181t150 122t180.5 71.5t196 22q100 0 185 -25t152 -76t105 -136.5t38 -197.5q0 -132 -37.5 -240.5t-101 -181.5t-149.5 -122.5t-181 -72t-199 -22.5q-99 0 -183 25t-151 76t-105 137t-38 199zM416 438q0 -71 20.5 -122.5t57.5 -81 t81.5 -43t98.5 -13.5q59 0 112 13t102 43.5t84 76.5t56 117t21 160q0 135 -73 196.5t-188 61.5q-57 0 -109 -13t-100.5 -43.5t-84 -76t-57 -116.5t-21.5 -159zM537 1163l34 203h201l-35 -203h-200zM883 1163l32 203h201l-33 -203h-200z" />
<glyph unicode="&#xf7;" horiz-adv-x="1132" d="M229 504l35 201h850l-35 -201h-850zM481 166l39 231h230l-39 -231h-230zM592 811l41 231h229l-41 -231h-229z" />
<glyph unicode="&#xf8;" horiz-adv-x="1284" d="M158 412q0 132 37.5 240.5t101 181t150 122t180.5 71.5t196 22q71 0 154 -17l129 197h174l-164 -252q187 -113 187 -363q0 -132 -37.5 -240.5t-101 -181.5t-149.5 -122.5t-181 -72t-199 -22.5q-86 0 -150 17l-127 -197h-178l162 252q-184 113 -184 365zM414 438 q0 -124 61 -188l379 590q-30 6 -68 6q-57 0 -109 -13t-100.5 -43.5t-84 -76t-57 -116.5t-21.5 -159zM608 182q40 -4 64 -4q59 0 112 13t102 43.5t84 76.5t56 117t21 160q0 119 -62 184z" />
<glyph unicode="&#xf9;" horiz-adv-x="1419" d="M227 375l113 649h248l-111 -633q-37 -213 131 -213q80 0 173 46t175 128l119 672h246l-113 -649q-27 -161 111 -242l-178 -158q-62 21 -102.5 70.5t-51.5 112.5q-192 -183 -434 -183q-182 0 -271.5 99t-54.5 301zM539 1421l194 131l191 -309l-152 -98z" />
<glyph unicode="&#xfa;" horiz-adv-x="1419" d="M227 375l113 649h248l-111 -633q-37 -213 131 -213q80 0 173 46t175 128l119 672h246l-113 -649q-27 -161 111 -242l-178 -158q-62 21 -102.5 70.5t-51.5 112.5q-192 -183 -434 -183q-182 0 -271.5 99t-54.5 301zM836 1245l294 307l150 -131l-326 -272z" />
<glyph unicode="&#xfb;" horiz-adv-x="1419" d="M227 375l113 649h248l-111 -633q-37 -213 131 -213q80 0 173 46t175 128l119 672h246l-113 -649q-27 -161 111 -242l-178 -158q-62 21 -102.5 70.5t-51.5 112.5q-192 -183 -434 -183q-182 0 -271.5 99t-54.5 301zM502 1143l338 254h161l246 -254h-239l-111 129l-158 -129 h-237z" />
<glyph unicode="&#xfc;" horiz-adv-x="1419" d="M227 375l113 649h248l-111 -633q-37 -213 131 -213q80 0 173 46t175 128l119 672h246l-113 -649q-27 -161 111 -242l-178 -158q-62 21 -102.5 70.5t-51.5 112.5q-192 -183 -434 -183q-182 0 -271.5 99t-54.5 301zM584 1163l34 203h201l-35 -203h-200zM930 1163l33 203 h200l-33 -203h-200z" />
<glyph unicode="&#xfd;" horiz-adv-x="1153" d="M-20 -510l36 205q87 -5 166.5 27t126.5 104l133 203l-219 995h269l139 -719l465 719h274l-854 -1294q-85 -129 -202.5 -185.5t-274.5 -56.5q-43 0 -59 2zM764 1245l295 307l149 -131l-325 -272z" />
<glyph unicode="&#xfe;" horiz-adv-x="1230" d="M74 -512l356 2048h250l-105 -600q165 113 332 113q159 0 253.5 -96.5t94.5 -301.5q0 -150 -33.5 -268.5t-89 -193.5t-132 -124.5t-156 -69.5t-168.5 -20q-83 0 -141.5 21.5t-110.5 71.5l-102 -580h-248zM471 332q40 -67 103 -110.5t137 -43.5q34 0 67 9.5t66 30 t60.5 56.5t49 84t33.5 117.5t12 153.5q0 217 -145 217q-73 0 -162 -46.5t-164 -123.5z" />
<glyph unicode="&#xff;" horiz-adv-x="1153" d="M-20 -510l36 205q87 -5 166.5 27t126.5 104l133 203l-219 995h269l139 -719l465 719h274l-854 -1294q-85 -129 -202.5 -185.5t-274.5 -56.5q-43 0 -59 2zM551 1163l35 203h200l-34 -203h-201zM897 1163l33 203h200l-32 -203h-201z" />
<glyph unicode="&#x152;" horiz-adv-x="2363" d="M211 569q0 184 50 335.5t133 252.5t195 170t232.5 100t247.5 31q287 0 432 -172l25 148h1054l-36 -213h-793l-70 -404h560l-35 -201h-559l-72 -403h801l-39 -213h-1061l27 147q-209 -172 -494 -172q-97 0 -183.5 20.5t-163 66.5t-132 114t-87.5 168.5t-32 224.5zM481 598 q0 -107 30 -187.5t82.5 -127t116.5 -68.5t138 -22q80 0 156 21t149 69.5t127.5 120.5t87.5 183t33 247q0 87 -20.5 157t-55 116t-83 76.5t-101 44t-111.5 13.5q-80 0 -156 -21t-148.5 -70t-126 -121.5t-86 -183.5t-32.5 -247z" />
<glyph unicode="&#x153;" horiz-adv-x="1900" d="M147 410q0 132 38 241.5t100.5 181.5t144.5 122t168 72t174 22q248 0 346 -183q88 89 201.5 136t234.5 47q99 0 179.5 -33t138 -100t77.5 -169.5t-3 -240.5l-15 -82h-727q-9 -70 8.5 -120.5t54 -76.5t78 -37.5t89.5 -11.5q74 0 171.5 24t176.5 66l69 -182 q-103 -53 -228.5 -82t-233.5 -29q-124 0 -228 45.5t-162 143.5q-163 -189 -415 -189q-67 0 -129.5 15t-119 49t-98 84t-66 123.5t-24.5 163.5zM403 436q0 -69 19.5 -121t52.5 -81t69.5 -42.5t76.5 -13.5q45 0 89 13t89 43.5t78.5 76.5t55 118t21.5 161q0 68 -19 119.5 t-51 80t-69.5 42.5t-79.5 14t-85.5 -12.5t-88.5 -43.5t-79.5 -76.5t-56.5 -117.5t-22 -160zM1229 584h475q6 72 -9.5 125.5t-46 81.5t-65 41.5t-72.5 13.5q-85 0 -164.5 -63t-117.5 -199z" />
<glyph unicode="&#x178;" horiz-adv-x="1337" d="M244 1434h297l282 -684l533 684h307l-750 -926l-86 -508h-262l88 504zM682 1573l35 203h201l-35 -203h-201zM1028 1573l33 203h201l-33 -203h-201z" />
<glyph unicode="&#x2c6;" horiz-adv-x="1028" d="M348 1143l338 254h162l246 -254h-240l-111 129l-157 -129h-238z" />
<glyph unicode="&#x2dc;" horiz-adv-x="1069" d="M346 1186q63 101 131 153t158 52q40 0 96 -21l115 -41q36 -12 49 -12q23 1 41 23t51 79l172 -67q-118 -205 -280 -205q-54 0 -107 18l-104 39q-37 15 -56 15q-24 0 -45 -25t-49 -78z" />
<glyph unicode="&#x2000;" horiz-adv-x="981" />
<glyph unicode="&#x2001;" horiz-adv-x="1962" />
<glyph unicode="&#x2002;" horiz-adv-x="981" />
<glyph unicode="&#x2003;" horiz-adv-x="1962" />
<glyph unicode="&#x2004;" horiz-adv-x="654" />
<glyph unicode="&#x2005;" horiz-adv-x="490" />
<glyph unicode="&#x2006;" horiz-adv-x="327" />
<glyph unicode="&#x2007;" horiz-adv-x="327" />
<glyph unicode="&#x2008;" horiz-adv-x="245" />
<glyph unicode="&#x2009;" horiz-adv-x="392" />
<glyph unicode="&#x200a;" horiz-adv-x="109" />
<glyph unicode="&#x2010;" horiz-adv-x="1067" d="M229 504l35 201h783l-35 -201h-783z" />
<glyph unicode="&#x2011;" horiz-adv-x="1067" d="M229 504l35 201h783l-35 -201h-783z" />
<glyph unicode="&#x2012;" horiz-adv-x="1067" d="M229 504l35 201h783l-35 -201h-783z" />
<glyph unicode="&#x2013;" d="M229 504l35 201h1034l-34 -201h-1035z" />
<glyph unicode="&#x2014;" horiz-adv-x="1703" d="M229 504l35 201h1419l-34 -201h-1420z" />
<glyph unicode="&#x2018;" horiz-adv-x="706" d="M365 1028l272 508h158l-170 -508h-260z" />
<glyph unicode="&#x2019;" horiz-adv-x="706" d="M365 1028l170 508h260l-273 -508h-157z" />
<glyph unicode="&#x201a;" horiz-adv-x="706" d="M135 -268l170 508h260l-270 -508h-160z" />
<glyph unicode="&#x201c;" horiz-adv-x="1112" d="M365 1028l272 508h158l-170 -508h-260zM770 1028l272 508h158l-170 -508h-260z" />
<glyph unicode="&#x201d;" horiz-adv-x="1112" d="M362 1028l170 508h261l-273 -508h-158zM768 1028l170 508h260l-272 -508h-158z" />
<glyph unicode="&#x201e;" horiz-adv-x="1112" d="M135 -268l170 508h260l-270 -508h-160zM541 -268l170 508h260l-271 -508h-159z" />
<glyph unicode="&#x2022;" horiz-adv-x="739" d="M244 569q0 105 82.5 185t187.5 80q84 0 139.5 -57.5t55.5 -141.5q0 -104 -84.5 -183t-190.5 -79q-84 0 -137 56t-53 140z" />
<glyph unicode="&#x2026;" horiz-adv-x="1435" d="M182 0l47 260h260l-47 -260h-260zM588 0l47 260h260l-47 -260h-260zM993 0l47 260h260l-47 -260h-260z" />
<glyph unicode="&#x202f;" horiz-adv-x="392" />
<glyph unicode="&#x2039;" horiz-adv-x="772" d="M178 553l19 100l319 254h336l-383 -305l274 -305h-333z" />
<glyph unicode="&#x203a;" horiz-adv-x="772" d="M133 297l381 305l-272 305h333l232 -254l-19 -100l-319 -256h-336z" />
<glyph unicode="&#x205f;" horiz-adv-x="490" />
<glyph unicode="&#x20ac;" horiz-adv-x="1585" d="M125 489l16 99h242q3 101 16 168h-227l16 98h232q34 126 99 228.5t146.5 171.5t180.5 115.5t201 67.5t208 21q266 0 484 -121l-111 -188q-185 92 -401 92q-79 0 -156 -21t-151.5 -64.5t-135.5 -121t-94 -180.5h778l-51 -98h-751q-13 -80 -13 -162v-6h672l-51 -99h-612 q11 -67 38 -120t61.5 -85t77 -53.5t82 -29.5t80.5 -8q112 0 246 36.5t246 96.5l74 -193q-125 -72 -288.5 -115t-320.5 -43q-81 0 -155.5 15.5t-148 53.5t-129 95t-94 147t-46.5 203h-260z" />
<glyph unicode="&#x2122;" horiz-adv-x="1484" d="M371 1315l20 119h522l-20 -119h-186l-76 -430h-142l74 430h-192zM922 885l96 549h147l86 -306l193 306h147l-94 -549h-135l53 303l-133 -213h-115l-57 211l-53 -301h-135z" />
<glyph unicode="&#xe000;" horiz-adv-x="1024" d="M0 0v1024h1024v-1024h-1024z" />
<glyph unicode="&#xfb01;" horiz-adv-x="1337" d="M-2 -315q73 6 114 53t58 143l166 940h-109l35 203h109l20 117q35 201 158 298t307 97q104 0 207 -33l-35 -207q-47 21 -114 29t-99 4q-78 -7 -118.5 -53t-57.5 -143l-18 -109h729l-115 -659q-23 -152 117 -228l-185 -162q-106 32 -156 135t-28 228l84 483h-483 q-12 -68 -73 -415t-93 -533q-59 -329 -355 -385zM1122 1171l45 263h260l-45 -263h-260z" />
<glyph unicode="&#xfb02;" horiz-adv-x="1447" d="M-2 -315q73 6 114 53t58 143l166 940h-109l35 203h109l20 117q36 207 168 301t373 94q54 0 103.5 -5t85.5 -11.5t73.5 -19t59.5 -21.5t51.5 -26t41 -25t36.5 -26t30 -22l-176 -1013q-26 -155 115 -230l-187 -162q-105 32 -154.5 136t-27.5 229l162 928q-119 61 -248 61 t-184.5 -46.5t-73.5 -149.5l-18 -109h307l-33 -203h-311q-12 -68 -73 -415t-93 -533q-59 -329 -355 -385z" />
</font>
</defs>
</svg>
