<?xml version="1.0" standalone="no"?> <!DOCTYPE svg PUBLIC "-//W3C//DTD SVG 1.0//EN" "http://www.w3.org/TR/2001/REC-SVG-20010904/DTD/svg10.dtd" > <svg xmlns="http://www.w3.org/2000/svg" width="100%" height="100%">
<defs >
<font id="DroidSerif-Italic" horiz-adv-x="1218" ><font-face
    font-family="Droid Serif"
    units-per-em="2048"
    panose-1="2 2 6 0 6 5 0 9 2 0"
    ascent="2005"
    descent="-571"
    alphabetic="0" />
<missing-glyph horiz-adv-x="1228" d="M193 1462H1034V0H193V1462ZM297 104H930V1358H297V104Z" />
<glyph unicode=" " glyph-name="space" horiz-adv-x="530" />
<glyph unicode="!" glyph-name="exclam" horiz-adv-x="681" d="M410 1462H647L352 412H258L410 1462ZM250 -16Q123 -16 123 109Q123 181 160 223T258 266Q385 266 385 141Q385 69 348 27T250 -16Z" />
<glyph unicode="&quot;" glyph-name="quotedbl" horiz-adv-x="835" d="M694 1462H911L748 981H653L694 1462ZM309 1462H526L362 981H268L309 1462Z" />
<glyph unicode="#" glyph-name="numbersign" horiz-adv-x="1144" d="M1038 537L1024 416H766L645 0H522L643 416H358L238 0H115L236 416H68L82 537H272L391 938H147L160 1059H426L543 1462H668L549 1059H834L952 1462H1075L956 1059H1116L1104 938H922L805 537H1038ZM397
537H682L799 938H514L397 537Z" />
<glyph unicode="$" glyph-name="dollar" horiz-adv-x="1144" d="M412 76Q240 88 145 164Q49 242 49 352Q49 428 100 475Q147 520 207 520Q207 385 268 293Q331 199 432 178L539 680Q269 815 268 1030Q268 1196 379 1294Q488 1390 694 1401L727 1556H829L797 1401Q1092
1376 1092 1196Q1092 1055 926 1055Q926 1276 776 1309L672 817L694 805Q882 701 930 631Q979 557 979 469Q979 303 856 195Q731 86 512 74L463 -162H360L412 76ZM580 864L674 1311Q459 1274 459 1059Q459 942 580 864ZM633 635L535 174Q646 182 717 254Q785 322
784 424Q785 555 633 635Z" />
<glyph unicode="%" glyph-name="percent" horiz-adv-x="1832" d="M565 1481Q837 1481 838 1155Q838 950 717 762Q598 576 399 575Q276 575 205 659Q135 741 135 901Q135 1114 254 1298Q370 1481 565 1481ZM297 870Q297 659 408 659Q521 659 594 836Q668 1014 668
1188Q668 1399 557 1399Q444 1399 371 1223Q297 1044 297 870ZM494 0H342L1370 1462H1513L494 0ZM1470 889Q1742 889 1743 563Q1743 358 1622 170Q1503 -16 1305 -16Q1041 -16 1040 309Q1040 524 1156 706T1470 889ZM1202 279Q1202 68 1313 68Q1426 68 1499 244Q1573
418 1573 596Q1573 807 1462 807Q1349 807 1276 631T1202 279Z" />
<glyph unicode="&amp;" glyph-name="ampersand" horiz-adv-x="1519" d="M1096 0L973 170Q789 -20 520 -20Q311 -20 190 84Q71 188 72 362Q72 518 168 631Q260 740 502 829Q404 995 403 1130Q403 1298 514 1390T840 1483Q1006 1483 1096 1411T1186 1217Q1186 1088
1110 1001Q1038 921 739 813L1026 420Q1110 580 1155 782L1171 862H1540L1522 776H1503Q1402 776 1356 745Q1311 716 1288 686Q1270 663 1186 487Q1135 385 1096 326L1208 172Q1274 86 1409 86H1427L1409 0H1096ZM682 895Q856 961 927 1026T999 1202Q999 1282 952
1333Q905 1382 825 1382Q600 1382 600 1145Q600 1028 682 895ZM909 258L561 741Q401 667 338 586T274 367Q274 248 346 170Q416 94 541 94Q751 94 909 258Z" />
<glyph unicode="&apos;" glyph-name="quotesingle" horiz-adv-x="450" d="M301 1462H518L354 981H260L301 1462Z" />
<glyph unicode="(" glyph-name="parenleft" horiz-adv-x="708" d="M469 -168L449 -262Q87 -102 86 381Q86 797 285 1126Q488 1462 836 1556L815 1464Q532 1310 406 946T279 285Q279 -35 469 -168Z" />
<glyph unicode=")" glyph-name="parenright" horiz-adv-x="708" d="M266 1446L287 1540Q649 1384 649 897Q649 485 449 150Q250 -182 -100 -279L-80 -186Q203 -32 330 334Q457 703 457 993Q456 1315 266 1446Z" />
<glyph unicode="*" glyph-name="asterisk" horiz-adv-x="1024" d="M281 1354L385 1497L651 1237L668 1567L842 1530L719 1225L1069 1348L1106 1176L745 1149L1063 979L961 840L690 1092L678 764L504 801L623 1106L274 981L238 1153L596 1182L281 1354Z" />
<glyph unicode="+" glyph-name="plus" horiz-adv-x="1144" d="M649 672V293H526V672H150V793H526V1171H649V793H1028V672H649Z" />
<glyph unicode="," glyph-name="comma" horiz-adv-x="512" d="M-57 -299L-49 -213Q160 -167 160 -41Q160 -6 94 37Q26 80 27 141Q27 194 61 229Q94 262 154 262Q224 262 268 217T313 94Q313 -53 217 -160Q123 -262 -57 -299Z" />
<glyph unicode="-" glyph-name="hyphen" horiz-adv-x="634" d="M29 481L61 635H594L561 481H29Z" />
<glyph unicode="." glyph-name="period" horiz-adv-x="585" d="M217 -16Q90 -16 90 109Q90 181 127 223T225 266Q352 266 352 141Q352 69 315 27T217 -16Z" />
<glyph unicode="/" glyph-name="slash" horiz-adv-x="589" d="M-61 -248H-190L651 1556H780L-61 -248Z" />
<glyph unicode="0" glyph-name="zero" horiz-adv-x="1144" d="M696 1485Q876 1485 980 1362T1085 1016Q1085 625 918 299Q752 -23 477 -23Q295 -23 189 108T82 473Q82 864 252 1176Q420 1485 696 1485ZM494 90Q672 90 780 385Q886 678 887 1055Q887 1374 676 1374Q496
1374 389 1077Q280 776 281 414Q281 90 494 90Z" />
<glyph unicode="1" glyph-name="one" horiz-adv-x="1144" d="M872 1470L608 225Q600 192 600 168Q600 86 748 86H858L840 0H78L94 86H203Q301 86 344 123Q389 162 403 233L563 987Q590 1118 639 1309H631Q496 1178 438 1139Q372 1096 322 1096Q240 1096 240 1206Q381
1239 575 1364L741 1470H872Z" />
<glyph unicode="2" glyph-name="two" horiz-adv-x="1144" d="M-35 0L8 166L489 600Q684 776 758 897Q834 1022 834 1174Q834 1272 782 1325Q729 1380 645 1380Q409 1380 354 1071Q209 1071 209 1202Q209 1316 332 1399Q457 1483 655 1483Q837 1483 939 1405T1042
1184Q1042 1065 954 932Q866 801 616 578L156 164H631Q701 164 745 195Q794 228 834 317L848 350H934L852 0H-35Z" />
<glyph unicode="3" glyph-name="three" horiz-adv-x="1144" d="M362 705L383 809H449Q623 809 735 915T848 1194Q848 1380 674 1380Q449 1380 383 1075Q231 1075 231 1206Q231 1327 358 1405Q483 1483 682 1483Q860 1483 958 1405Q1058 1325 1059 1190Q1059 1033
948 920Q835 803 647 770Q794 755 874 672Q954 590 954 461Q954 231 795 104Q637 -21 391 -20Q196 -20 94 39Q-6 96 -6 195Q-6 263 37 305Q78 346 150 346Q150 233 217 164Q285 92 406 92Q553 92 645 184Q739 278 739 438Q739 565 664 635T451 705H362Z" />
<glyph unicode="4" glyph-name="four" horiz-adv-x="1144" d="M262 0L279 86H369Q467 86 510 123Q555 162 569 233L602 401H-29L-10 485L829 1462H1026L823 516H1077L1053 401H799L764 225Q756 190 756 168Q756 86 903 86H950L932 0H262ZM707 899Q756 1137 807
1296Q721 1167 627 1061L162 516H627L707 899Z" />
<glyph unicode="5" glyph-name="five" horiz-adv-x="1144" d="M258 717L188 731L408 1462H1092L1036 1153H950Q956 1229 956 1249Q956 1298 862 1298H465L330 842Q434 875 526 874Q729 874 842 774Q957 672 956 498Q956 271 797 125Q635 -20 375 -20Q17 -20 16
184Q16 311 170 311Q176 92 393 92Q561 92 651 195Q743 299 743 483Q743 612 672 688Q601 762 481 762Q369 762 258 717Z" />
<glyph unicode="6" glyph-name="six" horiz-adv-x="1144" d="M360 782Q510 888 662 889Q824 889 916 791T1008 530Q1008 288 874 135Q739 -21 508 -20Q336 -20 230 111T123 475Q123 889 321 1186T823 1483Q968 1483 1052 1430T1137 1298Q1137 1144 958 1145Q958
1282 924 1333T819 1384Q512 1384 360 782ZM338 666Q309 498 309 399Q309 92 520 92Q645 92 725 213Q805 332 805 518Q805 784 621 784Q488 785 338 666Z" />
<glyph unicode="7" glyph-name="seven" horiz-adv-x="1144" d="M221 0L979 1298H440Q327 1298 299 1194L270 1092H184L272 1462H1188L1176 1403L375 0H221Z" />
<glyph unicode="8" glyph-name="eight" horiz-adv-x="1144" d="M426 748Q225 893 225 1087Q225 1273 352 1378Q478 1482 715 1483Q891 1483 991 1401T1092 1184Q1092 1052 1012 956Q930 860 735 780Q995 630 995 414Q995 207 850 92Q707 -21 455 -20Q258 -20 139
78T20 332Q20 473 110 569T426 748ZM637 829Q909 946 909 1169Q909 1269 854 1324T698 1380Q573 1380 498 1307T422 1110Q422 946 637 829ZM520 694Q217 583 217 328Q217 215 288 148T481 80Q624 80 712 155T801 365Q801 471 733 546T520 694Z" />
<glyph unicode="9" glyph-name="nine" horiz-adv-x="1144" d="M809 702Q674 563 496 563Q336 563 244 655Q150 749 150 903Q150 1151 307 1319Q463 1483 690 1483Q864 1483 964 1377T1065 1079Q1065 686 877 332Q691 -20 358 -20Q71 -20 72 164Q72 213 104 250Q135
283 193 283Q195 193 246 135Q295 80 375 80Q516 80 618 225Q719 368 809 702ZM842 850Q875 991 874 1092Q874 1371 684 1370Q549 1370 451 1227Q355 1086 354 897Q354 784 406 731Q458 676 547 676Q711 676 842 850Z" />
<glyph unicode=":" glyph-name="colon" horiz-adv-x="587" d="M377 825Q250 825 250 950Q250 1022 287 1065T385 1108Q512 1108 512 983Q512 909 475 866Q440 825 377 825ZM193 -16Q66 -16 66 109Q66 181 102 223T201 266Q260 266 295 231Q328 198 328 141Q328
69 291 27T193 -16Z" />
<glyph unicode=";" glyph-name="semicolon" horiz-adv-x="585" d="M381 825Q254 825 254 950Q254 1022 291 1065T389 1108Q516 1108 516 983Q516 909 479 866Q444 825 381 825ZM37 -299L45 -213Q254 -167 254 -41Q254 -6 188 37Q120 80 121 141Q121 194 156 229Q189
262 248 262Q316 262 362 215Q407 170 408 94Q408 -53 311 -160Q219 -262 37 -299Z" />
<glyph unicode="&lt;" glyph-name="less" horiz-adv-x="1144" d="M150 696V768L1028 1241V1104L340 731L1028 362V225L150 696Z" />
<glyph unicode="=" glyph-name="equal" horiz-adv-x="1144" d="M1028 993V872H150V993H1028ZM1028 590V469H150V590H1028Z" />
<glyph unicode="&gt;" glyph-name="greater" horiz-adv-x="1144" d="M150 225V362L838 731L150 1104V1241L1028 768V696L150 225Z" />
<glyph unicode="?" glyph-name="question" horiz-adv-x="1024" d="M565 649L514 412H389L453 715Q869 869 868 1159Q868 1257 813 1318T670 1380Q459 1380 416 1090Q269 1090 268 1212Q268 1325 383 1405Q494 1483 682 1483Q1069 1483 1069 1143Q1069 833 565
649ZM406 -16Q279 -16 279 109Q279 181 315 223T414 266Q473 266 508 231Q541 198 541 141Q541 69 504 27T406 -16Z" />
<glyph unicode="@" glyph-name="at" horiz-adv-x="1884" d="M1135 344H1124Q1026 158 848 158Q711 158 623 252Q537 344 537 508Q537 727 678 905T1059 1083Q1176 1083 1251 1022L1333 1065H1382L1278 543Q1264 477 1264 406Q1264 347 1298 305Q1331 266 1389
266Q1489 266 1571 417T1653 809Q1653 1063 1497 1210Q1340 1357 1073 1358Q756 1358 524 1102Q295 848 295 451Q295 150 459 -18Q623 -184 905 -184T1425 -14L1473 -88Q1197 -291 885 -291Q535 -291 334 -97T133 446Q133 884 403 1173T1085 1462Q1407 1462 1593
1282Q1777 1104 1778 803Q1778 524 1653 342Q1528 158 1376 158Q1198 158 1135 344ZM1182 938Q1155 999 1067 999Q911 999 819 832T727 479Q727 371 770 319Q813 266 883 266Q1055 266 1104 522L1182 938Z" />
<glyph unicode="A" glyph-name="A" horiz-adv-x="1443" d="M408 489L285 274Q246 208 246 160Q246 86 360 86H408L391 0H-115L-98 86H-59Q-6 86 33 114T131 246L844 1462H1004L1198 195Q1206 132 1233 109T1319 86H1346L1329 0H772L788 86H836Q983 86 983 190Q983
223 979 260L946 489H408ZM881 950Q852 1159 848 1274Q801 1159 688 969L469 592H932L881 950Z" />
<glyph unicode="B" glyph-name="B" horiz-adv-x="1337" d="M-27 86H0Q170 86 201 233L414 1237Q422 1270 422 1294Q422 1376 274 1376H248L266 1462H797Q1276 1462 1276 1155Q1276 850 942 774L940 766Q1190 717 1190 467Q1190 242 1039 121T600 0H-43L-27 86ZM530
817H688Q1053 817 1053 1128Q1053 1359 770 1360H647L530 817ZM379 102H578Q969 102 969 481Q969 714 682 715H510L379 102Z" />
<glyph unicode="C" glyph-name="C" horiz-adv-x="1282" d="M1073 299Q1100 281 1100 231Q1100 135 985 58T672 -20Q406 -20 256 123T106 528Q106 919 348 1200Q591 1483 950 1483Q1126 1483 1229 1421Q1329 1360 1329 1255Q1329 1181 1274 1139T1128 1096Q1128
1375 924 1374Q672 1374 500 1098Q330 826 330 496Q330 113 694 113Q932 113 1073 299Z" />
<glyph unicode="D" glyph-name="D" horiz-adv-x="1484" d="M-27 86H0Q170 86 201 233L414 1237Q422 1270 422 1294Q422 1376 274 1376H248L266 1462H840Q1119 1462 1270 1317T1421 905Q1421 510 1198 256Q973 0 602 0H-43L-27 86ZM557 104Q854 104 1026 331T1198
928Q1198 1360 809 1360H647L379 104H557Z" />
<glyph unicode="E" glyph-name="E" horiz-adv-x="1275" d="M379 102H774Q948 102 1006 270L1038 358H1145L1055 0H-43L-27 86H0Q106 86 145 123Q182 158 199 223L412 1229Q418 1257 418 1278Q418 1327 389 1351T274 1376H248L266 1462H1298L1233 1104H1126L1133
1167Q1137 1200 1137 1223Q1137 1360 991 1360H647L530 815H1024L1004 715H510L379 102Z" />
<glyph unicode="F" glyph-name="F" horiz-adv-x="1206" d="M-27 86H0Q96 86 137 119Q180 153 199 223L414 1237Q422 1270 422 1294Q422 1376 274 1376H248L266 1462H1298L1233 1104H1126L1130 1141Q1130 1164 1133 1176Q1137 1221 1137 1223Q1137 1360 983 1360H647L520
768H1014L993 668H500L408 233Q402 200 401 182Q401 86 543 86H610L594 0H-43L-27 86Z" />
<glyph unicode="G" glyph-name="G" horiz-adv-x="1460" d="M1430 676L1411 590H1403Q1319 590 1282 553Q1243 514 1229 442L1151 74Q936 -20 688 -20Q405 -20 256 123T106 528Q106 934 356 1208T987 1483Q1192 1483 1305 1421Q1420 1360 1419 1262Q1419 1186 1358
1143T1202 1100Q1202 1232 1135 1303Q1067 1375 944 1374Q692 1374 510 1112Q330 852 330 496Q330 97 725 96Q836 96 956 125L1024 451Q1032 484 1032 508Q1032 590 885 590H866L885 676H1430Z" />
<glyph unicode="H" glyph-name="H" horiz-adv-x="1622" d="M829 0L846 86H872Q970 86 1014 123Q1059 162 1073 233L1174 713H508L406 225Q398 186 397 168Q397 86 545 86H571L553 0H-43L-27 86H0Q98 86 141 123T201 233L414 1237Q422 1270 422 1294Q422 1376 274
1376H248L266 1462H862L844 1376H817Q719 1376 676 1339Q635 1304 618 1229L530 815H1196L1286 1237Q1294 1270 1294 1294Q1294 1376 1147 1376H1120L1139 1462H1735L1716 1376H1690Q1592 1376 1548 1339Q1507 1304 1491 1229L1278 225Q1270 192 1270 168Q1270
86 1417 86H1444L1425 0H829Z" />
<glyph unicode="I" glyph-name="I" horiz-adv-x="751" d="M862 1462L844 1376H817Q719 1376 676 1339Q635 1304 618 1229L406 225Q398 186 397 168Q397 86 545 86H571L553 0H-43L-27 86H0Q170 86 201 233L414 1237Q422 1270 422 1294Q422 1376 274 1376H248L266
1462H862Z" />
<glyph unicode="J" glyph-name="J" horiz-adv-x="729" d="M852 1462L834 1376H807Q709 1376 666 1339Q625 1304 608 1229L342 -16Q287 -264 170 -379Q55 -492 -150 -492Q-238 -492 -317 -469L-289 -377Q-238 -395 -156 -395Q-37 -395 29 -305Q97 -213 137 -18L403
1237Q411 1276 412 1294Q412 1376 264 1376H238L256 1462H852Z" />
<glyph unicode="K" glyph-name="K" horiz-adv-x="1433" d="M-27 86H0Q98 86 141 123T201 233L414 1237Q422 1270 422 1294Q422 1376 274 1376H248L266 1462H862L844 1376H817Q719 1376 676 1339Q635 1304 618 1229L530 815L494 664L1022 1149Q1176 1290 1176 1333Q1176
1378 1085 1378L1102 1462H1554L1538 1378Q1481 1378 1420 1344T1223 1186L850 848L1098 250Q1166 86 1292 86H1298L1280 0H1251Q1087 0 1010 33T883 190L684 696L473 549L406 225Q398 186 397 168Q397 86 545 86H571L553 0H-43L-27 86Z" />
<glyph unicode="L" glyph-name="L" horiz-adv-x="1275" d="M-23 86H4Q98 86 141 123Q180 156 201 233L414 1237Q422 1270 422 1294Q422 1376 274 1376H248L266 1462H862L844 1376H817Q723 1376 678 1341Q637 1308 621 1237L379 102H782Q940 102 1001 287L1055
440H1161L1055 0H-41L-23 86Z" />
<glyph unicode="M" glyph-name="M" horiz-adv-x="1918" d="M1178 0L1196 86H1202Q1290 86 1323 119Q1360 156 1376 215L1610 1309L862 0H752L553 1309L324 225Q316 186 315 168Q315 86 463 86H489L471 0H-41L-23 86H4Q105 86 145 123Q182 158 199 223L414 1237Q422
1270 422 1294Q422 1376 274 1376H248L266 1462H731L905 295L1575 1462H2032L2013 1376H1987Q1889 1376 1845 1339Q1804 1304 1788 1229L1575 225Q1567 192 1567 168Q1567 86 1714 86H1741L1722 0H1178Z" />
<glyph unicode="N" glyph-name="N" horiz-adv-x="1562" d="M1327 1237Q1335 1270 1335 1294Q1335 1376 1188 1376H1161L1180 1462H1694L1675 1376H1649Q1553 1376 1510 1340T1450 1229L1190 0H1057L530 1200L324 225Q316 186 315 168Q315 86 463 86H489L471 0H-41L-23
86H4Q98 86 141 123Q180 156 201 233L414 1237Q422 1270 422 1294Q422 1376 274 1376H248L266 1462H639L1135 332L1327 1237Z" />
<glyph unicode="O" glyph-name="O" horiz-adv-x="1519" d="M926 1485Q1164 1485 1311 1337Q1456 1192 1456 922Q1456 574 1229 274Q1002 -23 643 -23Q401 -23 254 131T106 545Q106 899 336 1192T926 1485ZM655 90Q911 90 1071 372T1231 977Q1231 1170 1147 1272T909
1374Q655 1374 492 1090Q330 809 330 487Q330 297 418 193Q503 90 655 90Z" />
<glyph unicode="P" glyph-name="P" horiz-adv-x="1269" d="M-41 0L-23 86H4Q100 86 143 123Q184 158 201 233L414 1237Q422 1270 422 1294Q422 1376 274 1376H248L266 1462H791Q1014 1462 1135 1360Q1258 1256 1257 1067Q1257 836 1100 703T631 569H479L406 225Q398
186 397 168Q397 86 545 86H612L594 0H-41ZM500 666H608Q1040 666 1040 1065Q1040 1364 741 1364H647L500 666Z" />
<glyph unicode="Q" glyph-name="Q" horiz-adv-x="1519" d="M752 -14Q760 -194 813 -278T973 -362Q1049 -362 1112 -344L1126 -430Q1026 -463 924 -463Q549 -463 530 -12Q331 21 219 170T106 545Q106 899 335 1192T926 1485Q1164 1485 1311 1337Q1456 1192 1456
922Q1456 613 1266 324T752 -14ZM655 90Q911 90 1071 372T1231 977Q1231 1170 1147 1272T909 1374Q655 1374 492 1090Q330 809 330 487Q330 297 418 193Q503 90 655 90Z" />
<glyph unicode="R" glyph-name="R" horiz-adv-x="1323" d="M461 645L371 225Q363 186 362 168Q362 86 510 86H578L559 0H-76L-57 86H-31Q70 86 111 123Q148 158 164 223L379 1237Q387 1270 387 1294Q387 1376 240 1376H213L231 1462H768Q1237 1462 1237 1114Q1237
776 858 686L1006 248Q1043 142 1079 115Q1118 86 1174 86H1190L1174 0H1147Q973 0 897 47Q825 92 782 240L664 645H461ZM481 741H639Q823 741 921 833T1020 1102Q1020 1239 961 1300Q900 1363 752 1364H612L481 741Z" />
<glyph unicode="S" glyph-name="S" horiz-adv-x="1112" d="M172 428Q172 272 256 176T483 80Q622 80 711 152Q795 222 795 344Q795 442 748 508Q703 569 537 665T309 860Q246 960 246 1087Q246 1263 381 1374Q514 1483 743 1483Q917 1483 1026 1421Q1132 1360
1133 1262Q1133 1121 952 1120Q952 1241 895 1310T727 1380Q602 1380 526 1311Q448 1239 449 1122Q449 1036 492 971Q535 908 702 809Q866 713 934 623Q1006 529 1006 410Q1006 209 864 94Q721 -21 469 -20Q262 -20 137 63Q14 146 14 272Q14 340 59 385Q102 428
172 428Z" />
<glyph unicode="T" glyph-name="T" horiz-adv-x="1253" d="M657 225Q649 192 649 168Q649 86 797 86H844L825 0H188L207 86H254Q360 86 397 121T451 223L692 1360H496Q349 1360 291 1192L262 1104H156L242 1462H1395L1329 1104H1223Q1233 1192 1233 1229Q1233
1360 1098 1360H899L657 225Z" />
<glyph unicode="U" glyph-name="U" horiz-adv-x="1492" d="M205 1376L223 1462H819L803 1376H776Q680 1376 637 1340T575 1229L422 506Q397 389 397 315Q397 102 692 102Q856 102 954 176T1090 422L1264 1237Q1272 1270 1272 1294Q1272 1376 1124 1376H1098L1116
1462H1630L1614 1376H1587Q1491 1376 1448 1340T1386 1229L1214 418Q1122 -20 662 -20Q439 -20 318 72T197 334Q197 414 219 516L371 1237Q379 1270 379 1294Q379 1376 231 1376H205Z" />
<glyph unicode="V" glyph-name="V" horiz-adv-x="1380" d="M639 201Q713 371 805 537L1169 1188Q1208 1258 1208 1303Q1208 1377 1094 1376H1047L1063 1462H1569L1550 1376H1511Q1441 1376 1407 1341Q1374 1308 1323 1217L641 0H492L317 1268Q309 1325 283 1352Q258
1377 195 1376H168L186 1462H743L727 1376H680Q614 1376 573 1348T532 1272T537 1202L618 537Q639 373 639 201Z" />
<glyph unicode="W" glyph-name="W" horiz-adv-x="2138" d="M1915 1188Q1954 1264 1954 1303Q1954 1377 1839 1376H1790L1806 1462H2306L2288 1376H2249Q2186 1376 2146 1343Q2109 1312 2060 1217L1456 0H1268L1176 1135L625 0H438L332 1268Q326 1321 301 1350Q276
1377 209 1376H182L201 1462H758L739 1376H692Q545 1376 545 1272Q545 1239 549 1202L598 547Q612 373 612 201Q704 418 780 569L1210 1448H1358L1425 561Q1439 383 1436 201Q1528 416 1589 537L1915 1188Z" />
<glyph unicode="X" glyph-name="X" horiz-adv-x="1351" d="M1458 1376H1440Q1383 1376 1339 1346Q1290 1311 1208 1223L821 795L1067 195Q1114 86 1208 86H1235L1217 0H664L682 86H705Q768 86 801 106Q836 129 836 158Q836 203 797 299L664 625L358 285Q276 195
276 141Q276 86 397 86H403L385 0H-100L-82 86H-74Q-8 86 45 121Q92 152 168 233L621 727L401 1272Q358 1376 242 1376H215L233 1462H788L770 1376H723Q627 1376 627 1319Q627 1291 664 1196L780 897L1036 1192Q1114 1282 1114 1325Q1114 1376 1016 1376H1010L1028
1462H1477L1458 1376Z" />
<glyph unicode="Y" glyph-name="Y" horiz-adv-x="1280" d="M729 1462L711 1376H608Q524 1376 524 1321Q524 1280 551 1202L643 928Q692 781 698 682Q729 737 852 897L1047 1157Q1123 1261 1122 1323Q1122 1376 1024 1376H948L967 1462H1473L1454 1376H1415Q1380
1376 1337 1343Q1302 1316 1229 1221L752 596L672 225Q664 192 664 168Q664 86 811 86H858L840 0H203L221 86H268Q374 86 411 121T465 223L545 600L307 1268Q287 1329 262 1354Q239 1377 184 1376H158L176 1462H729Z" />
<glyph unicode="Z" glyph-name="Z" horiz-adv-x="1236" d="M1276 1378L244 102H791Q943 102 997 270L1026 358H1133L1047 0H-35L-18 82L1012 1360H535Q385 1360 330 1192L301 1104H195L281 1462H1292L1276 1378Z" />
<glyph unicode="[" glyph-name="bracketleft" horiz-adv-x="733" d="M10 -262L397 1556H854L836 1470H748Q652 1470 608 1434Q563 1395 549 1323L258 -37Q250 -70 250 -94Q250 -176 397 -176H485L467 -262H10Z" />
<glyph unicode="\" glyph-name="backslash" horiz-adv-x="589" d="M231 1556H350L438 -248H317L231 1556Z" />
<glyph unicode="]" glyph-name="bracketright" horiz-adv-x="735" d="M-96 -262L-78 -176H10Q106 -176 150 -139Q191 -104 207 -29L498 1331Q506 1364 506 1389Q506 1471 358 1470H270L289 1556H745L358 -262H-96Z" />
<glyph unicode="^" glyph-name="asciicircum" horiz-adv-x="1144" d="M553 1462H625L1055 545H918L588 1274L258 545H121L553 1462Z" />
<glyph unicode="_" glyph-name="underscore" horiz-adv-x="937" d="M772 -291H-186L-160 -170H799L772 -291Z" />
<glyph unicode="`" glyph-name="grave" horiz-adv-x="1181" d="M829 1241Q675 1392 565 1548L571 1569H776Q842 1407 913 1268L907 1241H829Z" />
<glyph unicode="a" glyph-name="a" horiz-adv-x="1185" d="M748 309H735Q588 -21 352 -20Q229 -20 158 78Q88 174 88 354Q88 635 264 876T698 1118Q836 1118 938 1044L1028 1096H1094L954 440Q923 299 924 213Q924 109 991 109Q1048 109 1139 162L1176 102Q1029
-21 887 -20Q727 -20 727 150Q728 219 748 309ZM864 952Q819 1026 709 1026Q537 1026 416 803Q297 584 297 347T426 109Q528 109 639 260Q752 414 788 590L864 952Z" />
<glyph unicode="b" glyph-name="b" horiz-adv-x="1150" d="M213 53L121 -6H55L326 1266Q344 1348 344 1374Q344 1470 201 1470H184L203 1556H590L492 1096Q470 998 418 825H428Q580 1118 803 1118Q926 1118 993 1024Q1063 926 1063 748Q1063 465 887 221Q713 -21
453 -20Q305 -21 213 53ZM285 145Q346 71 444 72Q620 72 737 299T854 750Q854 990 725 989Q612 989 506 834Q402 682 373 551L285 145Z" />
<glyph unicode="c" glyph-name="c" horiz-adv-x="995" d="M821 256Q841 244 842 205Q842 123 746 52T487 -20Q309 -20 199 92T88 403Q88 670 260 895Q432 1118 698 1118Q837 1118 917 1063T997 922Q997 861 948 819Q897 778 815 778Q815 887 772 954Q731 1020
657 1020Q514 1020 408 807T301 387Q301 108 526 109Q704 109 821 256Z" />
<glyph unicode="d" glyph-name="d" horiz-adv-x="1185" d="M748 309H735Q588 -21 352 -20Q229 -20 158 78Q88 174 88 354Q88 635 264 876T698 1118Q813 1118 899 1069Q911 1151 922 1184L942 1282Q956 1345 956 1374Q956 1470 813 1470H797L815 1556H1192L954
440Q923 299 924 213Q924 109 991 109Q1048 109 1139 162L1176 102Q1029 -21 887 -20Q727 -20 727 150Q728 219 748 309ZM864 952Q819 1026 709 1026Q537 1026 416 803Q297 584 297 347T426 109Q528 109 639 260Q752 414 788 590L864 952Z" />
<glyph unicode="e" glyph-name="e" horiz-adv-x="1009" d="M821 256Q841 244 842 205Q842 123 746 52T487 -20Q309 -20 199 92T88 403Q88 670 260 895Q432 1118 698 1118Q827 1118 899 1057T971 883Q971 717 799 594T377 471H342Q317 471 305 473Q301 436 301
387Q301 108 526 109Q701 109 821 256ZM324 567H344Q528 567 643 655Q760 745 760 882T641 1020Q543 1020 457 895Q369 766 324 567Z" />
<glyph unicode="f" glyph-name="f" horiz-adv-x="649" d="M719 981H489L276 -16Q225 -260 121 -377Q19 -492 -168 -492Q-231 -492 -287 -475L-268 -381Q-219 -395 -174 -395Q-78 -395 -18 -309Q37 -227 84 -18L299 981H113L125 1055L322 1098L344 1210Q416 1577
733 1577Q866 1577 930 1536Q998 1493 997 1425Q997 1292 827 1292Q827 1482 723 1483Q649 1483 606 1421Q567 1364 541 1229L514 1098H741L719 981Z" />
<glyph unicode="g" glyph-name="g" horiz-adv-x="1138" d="M901 1053Q999 1198 1122 1198Q1224 1198 1225 1104Q1225 977 1104 977Q1104 1051 1047 1051Q1010 1051 946 1004Q991 941 991 846Q991 676 862 530Q733 387 522 387Q481 387 457 391Q312 334 311 262Q311
210 416 201L612 180Q929 147 930 -88Q930 -278 787 -385T375 -492Q-71 -492 -72 -225Q-72 -114 18 -37Q106 39 262 70Q164 119 164 211Q164 272 205 317T358 420Q215 488 215 662Q215 834 346 977Q475 1118 690 1118Q819 1119 901 1053ZM545 485Q664 485 733 602Q805
721 805 856Q805 1024 664 1024Q544 1024 473 907Q403 792 403 653Q404 485 545 485ZM561 6L362 25Q344 25 274 4Q196 -19 147 -74Q94 -133 94 -213Q94 -391 383 -391Q561 -391 657 -324Q751 -256 752 -145Q751 -12 561 6Z" />
<glyph unicode="h" glyph-name="h" horiz-adv-x="1226" d="M471 840Q639 1116 850 1116Q1069 1116 1069 889Q1069 823 1032 664L979 422Q952 303 952 207Q952 109 1024 109Q1083 109 1155 156L1192 96Q1057 -21 942 -20Q856 -20 807 35Q756 92 756 184Q756 280
795 461L842 674Q873 797 872 864Q872 985 778 985Q661 985 543 829Q422 669 391 524L281 0H90L356 1266Q374 1356 375 1374Q375 1470 231 1470H215L233 1556H610L530 1180Q489 996 449 840H471Z" />
<glyph unicode="i" glyph-name="i" horiz-adv-x="622" d="M459 1303Q344 1303 344 1415Q344 1481 377 1520T467 1559Q582 1559 582 1446Q582 1378 547 1339Q512 1303 459 1303ZM127 1012L145 1098H512L373 440Q342 293 342 213Q342 109 410 109Q467 109 557 162L594
102Q453 -21 317 -20Q240 -20 195 35Q148 92 147 174Q147 270 193 496L272 872Q278 905 279 926Q279 1012 154 1012H127Z" />
<glyph unicode="j" glyph-name="j" horiz-adv-x="595" d="M461 1303Q346 1303 346 1415Q346 1481 379 1520T469 1559Q584 1559 584 1446Q584 1378 549 1339Q516 1303 461 1303ZM-287 -475L-268 -381Q-219 -395 -174 -395Q-70 -395 -12 -303Q47 -211 86 -16L274
872Q280 905 281 926Q281 1012 156 1012H129L147 1098H514L279 -16Q226 -262 123 -377T-168 -492Q-232 -491 -287 -475Z" />
<glyph unicode="k" glyph-name="k" horiz-adv-x="1163" d="M694 786Q846 919 846 979Q846 1010 754 1010L772 1096H1225L1206 1010Q1085 1010 877 819L692 649L879 244Q959 72 1087 72L1069 -14Q897 -14 819 25Q739 65 684 197L551 524L365 406L281 0H90L356 1266Q374
1356 375 1374Q375 1470 231 1470H215L233 1556H610L530 1180Q419 660 371 506L694 786Z" />
<glyph unicode="l" glyph-name="l" horiz-adv-x="622" d="M207 1470L225 1556H612L375 440Q344 293 344 213Q344 109 412 109Q469 109 559 162L596 102Q455 -21 319 -20Q241 -20 197 35Q150 92 150 174Q150 276 195 496L362 1282Q374 1343 375 1374Q375 1470 231
1470H207Z" />
<glyph unicode="m" glyph-name="m" horiz-adv-x="1832" d="M920 0H725Q725 33 752 213Q777 377 795 461L842 674Q873 797 872 864Q872 985 778 985Q661 985 543 829Q422 669 391 524L281 0H90L262 823Q274 881 274 915Q274 1011 131 1012H115L133 1098H512L457
840H477Q643 1116 850 1116Q1069 1116 1069 889Q1069 873 1065 840H1085Q1251 1116 1458 1116Q1677 1116 1677 889Q1677 823 1640 664L1587 422Q1560 293 1561 207Q1561 109 1632 109Q1691 109 1763 156L1800 96Q1671 -21 1550 -20Q1467 -20 1415 35Q1364 88 1364
184T1403 461L1438 621Q1481 818 1481 864Q1481 985 1386 985Q1280 985 1169 850Q1056 711 1012 569L979 422Q959 334 942 203Q920 33 920 0Z" />
<glyph unicode="n" glyph-name="n" horiz-adv-x="1226" d="M281 0H90L262 823Q274 881 274 915Q274 1011 131 1012H115L133 1098H512L457 840H477Q643 1116 850 1116Q1069 1116 1069 889Q1069 823 1032 664L979 422Q952 303 952 207Q952 109 1024 109Q1083 109
1155 156L1192 96Q1057 -21 942 -20Q856 -20 807 35Q756 92 756 184Q756 280 795 461L842 674Q873 797 872 864Q872 985 778 985Q664 985 545 832T391 524L281 0Z" />
<glyph unicode="o" glyph-name="o" horiz-adv-x="1175" d="M698 1118Q878 1118 982 1010T1087 694Q1087 424 920 201Q754 -20 481 -20Q299 -20 193 92Q89 203 88 403Q88 682 256 899Q426 1118 698 1118ZM504 80Q672 80 774 281Q874 480 874 725Q874 1010 674 1010Q508
1010 403 809Q301 612 301 362Q301 80 504 80Z" />
<glyph unicode="p" glyph-name="p" horiz-adv-x="1181" d="M389 -406L371 -492H-14L258 807Q276 893 276 915Q276 1011 133 1012H117L135 1098H498L449 825H459Q606 1118 834 1118Q959 1118 1026 1024Q1094 929 1094 748Q1094 474 922 227Q748 -21 483 -20Q366
-20 283 27Q271 -53 266 -72L238 -197Q220 -283 219 -311Q219 -405 362 -406H389ZM315 145Q381 71 477 72Q647 72 766 295T885 750Q885 990 756 989Q652 989 543 842Q432 690 399 535L315 145Z" />
<glyph unicode="q" glyph-name="q" horiz-adv-x="1146" d="M735 309Q583 -21 352 -20Q229 -20 158 78Q88 174 88 354Q88 635 264 876T698 1118Q823 1118 926 1063L977 1092Q1024 1119 1028 1118H1100L817 -217Q805 -275 805 -309Q805 -405 946 -406H963L944 -492H571L657
-82L748 309H735ZM864 952Q819 1026 709 1026Q529 1026 414 801Q297 574 297 344Q297 108 426 109Q526 109 639 258Q748 403 788 590L864 952Z" />
<glyph unicode="r" glyph-name="r" horiz-adv-x="956" d="M799 821Q799 983 717 983Q623 983 516 797Q412 615 358 373L281 0H90L262 823Q274 881 274 915Q274 1011 111 1012H94L113 1098H475L432 803H453Q537 989 614 1053Q696 1119 801 1118Q969 1118 969 977Q969
821 799 821Z" />
<glyph unicode="s" glyph-name="s" horiz-adv-x="948" d="M741 795Q741 899 692 960T557 1022Q463 1022 412 973Q359 924 358 846Q358 778 409 729T567 635Q813 524 813 317Q813 165 696 74Q577 -20 389 -20Q237 -20 143 43Q51 104 51 211Q51 279 88 311Q127 346
180 346Q180 220 242 150Q303 78 414 78Q635 78 635 268Q635 340 588 391T428 494Q281 564 231 639Q180 717 180 811Q180 946 289 1030Q400 1116 575 1116Q725 1116 811 1061Q895 1008 895 922Q895 795 741 795Z" />
<glyph unicode="t" glyph-name="t" horiz-adv-x="753" d="M616 154L651 78Q513 -20 375 -20Q152 -20 152 219Q152 301 172 391L297 981H141L160 1063Q359 1063 473 1350H567L514 1098H762L737 981H489L365 397Q340 280 340 221Q340 108 449 109Q534 109 616 154Z" />
<glyph unicode="u" glyph-name="u" horiz-adv-x="1226" d="M135 1098H516L381 485Q340 292 340 238Q340 113 440 113Q542 113 666 264Q789 414 825 588L932 1098H1130L989 440Q958 296 958 213Q958 109 1026 109Q1085 109 1157 154L1194 94Q1063 -21 934 -20Q856
-20 809 35Q762 92 762 174Q762 219 772 295H756Q647 115 557 47Q469 -19 360 -18Q141 -18 141 209Q141 275 178 434L258 793Q276 873 276 915Q276 1011 133 1012H117L135 1098Z" />
<glyph unicode="v" glyph-name="v" horiz-adv-x="1101" d="M197 903Q179 1012 55 1012H35L51 1098H358L453 492Q486 285 500 129H506Q660 276 770 473Q883 674 883 788Q883 856 848 901Q814 944 756 944Q756 1016 797 1063Q836 1108 895 1108Q1034 1108 1034 918Q1034
734 893 483Q750 229 524 2L340 -18L197 903Z" />
<glyph unicode="w" glyph-name="w" horiz-adv-x="1675" d="M246 -18L231 864Q231 936 203 975Q176 1012 96 1012H76L104 1098H412Q418 665 418 164H426Q688 627 883 1079L1053 1087Q1096 548 1096 150H1110Q1286 367 1386 555Q1495 756 1495 874Q1495 970 1407
997Q1425 1118 1528 1118Q1637 1118 1636 965Q1636 670 1122 2L920 -20L889 866Q805 663 457 6L246 -18Z" />
<glyph unicode="x" glyph-name="x" horiz-adv-x="1116" d="M-41 0L-18 86H8Q63 86 106 111Q141 131 221 227L483 545L350 864Q313 954 285 985Q260 1012 203 1012H176L193 1098H465L621 684L893 1098H1155L1122 1012H1096Q1037 1012 996 983T883 864L668 588L809
233Q846 139 870 113T956 86H983L967 0H692L526 451L219 0H-41Z" />
<glyph unicode="y" glyph-name="y" horiz-adv-x="1079" d="M164 903Q146 962 115 987T23 1012H2L18 1098H317L477 545Q551 287 563 174H569Q845 594 846 854Q846 965 745 965Q745 1037 784 1075Q825 1116 879 1116Q1018 1116 1018 944Q1018 698 741 250Q467 -194
299 -344Q133 -491 -139 -492Q-245 -492 -332 -455L-301 -352Q-227 -375 -141 -375Q152 -375 434 -2L164 903Z" />
<glyph unicode="z" glyph-name="z" horiz-adv-x="1046" d="M616 117Q663 117 704 147T791 285L811 332H897L817 0H-2L14 82L711 981H451Q383 981 342 946Q305 915 258 815L254 807H168L250 1098H967L950 1014L252 117H616Z" />
<glyph unicode="{" glyph-name="braceleft" horiz-adv-x="876" d="M676 -262Q537 -262 459 -184T381 33V389Q381 600 139 606V692Q381 698 381 907V1264Q381 1557 676 1556H811V1468H750Q582 1468 582 1253V903Q582 688 354 651V649Q581 610 582 395V41Q582 -174
750 -174H811V-262H676Z" />
<glyph unicode="|" glyph-name="bar" horiz-adv-x="1144" d="M649 -492H526V1556H649V-492Z" />
<glyph unicode="}" glyph-name="braceright" horiz-adv-x="876" d="M129 -174H190Q358 -174 358 41V395Q358 610 586 649V651Q359 688 358 903V1253Q358 1468 190 1468H129V1556H264Q559 1556 559 1264V907Q559 698 801 692V606Q559 600 559 389V33Q559 -106 481
-184T264 -262H129V-174Z" />
<glyph unicode="~" glyph-name="asciitilde" horiz-adv-x="1148" d="M250 551H129Q156 909 387 909Q481 909 635 774Q744 672 803 672Q860 672 887 733Q912 788 928 909H1051Q1012 551 793 551Q697 551 555 680Q436 789 379 788Q320 788 291 729Q262 668 250 551Z" />
<glyph unicode="&#xa0;" glyph-name="uni00A0" horiz-adv-x="530" />
<glyph unicode="&#xa1;" glyph-name="exclamdown" horiz-adv-x="681" d="M420 1112Q547 1112 547 987Q547 915 510 872T412 829Q285 829 285 954Q285 1026 322 1069T420 1112ZM260 -367H23L317 684H412L260 -367Z" />
<glyph unicode="&#xa2;" glyph-name="cent" horiz-adv-x="1144" d="M496 182Q339 207 256 317Q172 430 172 600Q172 848 328 1069Q482 1288 733 1313L766 1462H868L836 1311Q953 1299 1016 1247Q1082 1194 1081 1118Q1081 1057 1032 1016Q981 975 899 975Q899
1141 811 1196L623 305Q792 311 905 453Q925 439 926 401Q926 321 838 252T596 176L559 0H457L496 182ZM524 319L713 1212Q576 1187 479 981Q385 778 385 584Q385 372 524 319Z" />
<glyph unicode="&#xa3;" glyph-name="sterling" horiz-adv-x="1144" d="M530 690Q536 647 537 582Q537 344 279 193L281 184Q365 221 438 221Q499 221 616 182Q731 143 776 143Q889 143 981 236L1036 168Q852 -20 688 -20Q625 -20 500 27Q379 72 301 72Q182 72
63 12L35 -2L-2 80L70 121Q365 290 365 563Q365 618 350 690H123L145 793H334Q307 914 307 999Q307 1224 442 1353T807 1483Q963 1483 1055 1428T1147 1282Q1147 1120 977 1120Q977 1380 776 1380Q635 1380 561 1284T487 1012Q487 936 516 793H864L842 690H530Z"
/>
<glyph unicode="&#xa4;" glyph-name="currency" horiz-adv-x="1144" d="M283 952L147 1087L233 1174L367 1038Q467 1110 588 1110Q703 1110 805 1038L942 1176L1028 1087L893 952Q965 852 965 733T893 514L1028 379L944 293L807 428Q705 358 588 358Q463 358 369
428L233 293L147 379L281 514Q213 612 213 733Q213 858 283 952ZM588 471Q694 471 772 549T850 733Q850 844 774 920Q696 998 588 997Q482 997 403 920Q327 844 328 733Q328 627 406 549T588 471Z" />
<glyph unicode="&#xa5;" glyph-name="yen" horiz-adv-x="1103" d="M582 225Q574 186 573 168Q573 86 721 86H768L750 0H121L139 86H186Q290 86 330 123Q371 162 383 223L412 362H125L145 459H432L463 602H176L197 698H444L287 1268Q273 1325 248 1352Q225 1377
164 1376H158L176 1462H655L637 1376H633Q565 1376 529 1364T492 1307Q492 1266 516 1176L569 956Q604 806 612 707Q635 750 719 874L889 1124Q981 1259 981 1317Q981 1376 870 1376H864L883 1462H1300L1282 1376H1264Q1217 1376 1186 1352T1075 1217L715 698H969L948
602H662L631 459H918L897 362H610L582 225Z" />
<glyph unicode="&#xa6;" glyph-name="brokenbar" horiz-adv-x="1144" d="M649 737H526V1556H649V737ZM649 -492H526V328H649V-492Z" />
<glyph unicode="&#xa7;" glyph-name="section" horiz-adv-x="1112" d="M170 131Q170 12 237 -61T420 -135Q546 -135 623 -68Q701 0 700 106Q700 172 649 231Q598 292 408 393Q181 516 180 723Q180 891 360 1001Q311 1084 311 1186Q311 1352 434 1454Q559 1556
748 1556Q892 1556 981 1495Q1071 1434 1071 1352Q1071 1278 1034 1243Q999 1210 905 1210Q905 1325 856 1392T711 1460Q611 1460 541 1405Q469 1350 469 1251Q469 1167 510 1118Q557 1061 739 963Q989 828 989 645Q989 475 811 336Q852 258 852 184Q852 4 725
-117Q600 -236 389 -236Q231 -236 137 -172Q41 -106 41 -4Q41 62 78 96Q117 131 170 131ZM406 944Q324 883 324 799Q324 727 375 670Q424 615 561 539Q688 467 760 401Q836 483 836 557Q836 682 625 795Q476 876 406 944Z" />
<glyph unicode="&#xa8;" glyph-name="dieresis" horiz-adv-x="1181" d="M514 1294Q412 1294 412 1397Q412 1526 522 1526Q624 1526 625 1423Q625 1294 514 1294ZM903 1294Q801 1294 801 1397Q801 1526 911 1526Q1013 1526 1014 1423Q1014 1294 903 1294Z" />
<glyph unicode="&#xa9;" glyph-name="copyright" horiz-adv-x="1730" d="M571 1485T880 1485T1411 1264Q1634 1041 1634 732T1413 201T881 -20T348 201Q129 420 129 731T350 1263ZM616 92T880 92T1333 280T1522 731Q1522 995 1334 1183T881 1372Q615 1372 429
1184T242 731T428 281Q616 92 880 92ZM1169 504Q1198 481 1198 440Q1198 374 1114 326Q1032 277 891 276Q696 276 590 395Q481 516 481 733Q481 942 598 1065Q713 1186 920 1186Q1055 1186 1126 1147Q1200 1106 1200 1040Q1200 997 1161 971T1061 944Q1061 1100
915 1100Q649 1100 649 733Q649 559 719 461Q787 365 918 365Q1089 365 1169 504Z" />
<glyph unicode="&#xaa;" glyph-name="ordfeminine" horiz-adv-x="804" d="M573 995H565Q456 782 303 782Q215 782 170 842Q123 905 123 1008Q123 1176 241 1321T543 1466Q643 1466 707 1423L770 1452H815L719 1073Q699 993 698 942Q698 881 739 881Q772 881 827
913L850 874Q758 782 672 782Q559 782 559 885Q559 946 573 995ZM629 1350Q600 1391 539 1391Q437 1391 369 1266Q301 1139 301 1012Q301 879 371 879Q426 879 487 965Q548 1049 575 1147L629 1350Z" />
<glyph unicode="&#xab;" glyph-name="guillemotleft" horiz-adv-x="1052" d="M139 586L528 942H631L336 543L465 164H362L125 520L139 586ZM510 586L899 942H1001L707 543L836 164H733L496 520L510 586Z" />
<glyph unicode="&#xac;" glyph-name="logicalnot" horiz-adv-x="1144" d="M1028 793V252H905V672H150V793H1028Z" />
<glyph unicode="&#xad;" glyph-name="uni00AD" horiz-adv-x="634" d="M29 481L61 635H594L561 481H29Z" />
<glyph unicode="&#xae;" glyph-name="registered" horiz-adv-x="1730" d="M571 1485T880 1485T1411 1264Q1634 1041 1634 732T1413 201T881 -20T348 201Q129 420 129 731T350 1263ZM616 92T880 92T1333 280T1522 731Q1522 995 1334 1183T881 1372Q615 1372 429
1184T242 731T428 281Q616 92 880 92ZM494 358H520Q620 358 621 430V1030Q621 1102 520 1102H494V1174H862Q1214 1174 1214 930Q1214 766 1028 705L1210 412Q1233 377 1251 369Q1276 359 1325 358V289H1108L883 670H774V430Q774 358 874 358H903V289H494V358ZM774
748H860Q960 748 1008 788Q1053 827 1053 928Q1053 1020 1008 1057Q962 1094 854 1094H774V748Z" />
<glyph unicode="&#xaf;" glyph-name="overscore" horiz-adv-x="937" d="M950 1556H-10V1677H950V1556Z" />
<glyph unicode="&#xb0;" glyph-name="degree" horiz-adv-x="817" d="M481 1462Q608 1462 700 1370T793 1151T702 934Q610 842 481 842T262 932T172 1151Q172 1282 264 1372Q358 1462 481 1462ZM481 963Q559 963 614 1018T670 1151Q670 1231 615 1286T481 1341Q405
1341 350 1286T295 1151Q295 1073 350 1018T481 963Z" />
<glyph unicode="&#xb1;" glyph-name="plusminus" horiz-adv-x="1144" d="M649 672V293H526V672H150V793H526V1171H649V793H1028V672H649ZM1028 0H150V121H1028V0Z" />
<glyph unicode="&#xb2;" glyph-name="uni00B2" horiz-adv-x="817" d="M41 586L51 647L369 909Q482 1003 535 1085Q590 1171 590 1282Q590 1401 487 1401Q426 1401 379 1348Q334 1297 322 1206Q259 1206 225 1233Q190 1262 190 1305Q190 1385 274 1432Q364 1483
502 1483Q631 1483 698 1430Q770 1375 770 1288Q770 1194 707 1108T487 897L242 702H524Q602 702 633 786L649 829H719L662 586H41Z" />
<glyph unicode="&#xb3;" glyph-name="uni00B3" horiz-adv-x="817" d="M197 842Q197 764 242 717Q289 666 362 666Q557 666 557 848Q557 916 508 958T371 1001H303L319 1085H387Q483 1085 548 1146T614 1304T520 1401Q385 1401 348 1223Q213 1223 213 1309Q213
1385 297 1432Q387 1483 526 1483Q657 1483 729 1432Q803 1381 803 1296Q803 1108 541 1055L539 1044Q746 1015 745 856Q745 721 637 647T348 573Q217 573 150 616Q80 661 80 731Q80 842 197 842Z" />
<glyph unicode="&#xb4;" glyph-name="acute" horiz-adv-x="1181" d="M508 1268Q629 1407 727 1569H946L940 1548Q783 1364 584 1241H502L508 1268Z" />
<glyph unicode="&#xb5;" glyph-name="uni00B5" horiz-adv-x="1236" d="M223 100Q190 -64 190 -147Q190 -294 303 -313Q285 -491 129 -492Q-4 -492 -4 -344Q-4 -254 57 -35Q149 305 182 461L317 1098H510L375 457Q352 344 352 268Q352 110 502 111Q606 111 690
201Q772 289 803 442L942 1098H1135L971 332Q946 215 946 174Q946 108 1006 109Q1049 109 1118 143L1153 74Q1020 -20 915 -20Q771 -20 762 176H752Q619 -21 455 -20Q289 -21 223 100Z" />
<glyph unicode="&#xb6;" glyph-name="paragraph" horiz-adv-x="1263" d="M877 1452H682V-227H362V-141H389Q487 -141 522 -102T557 6V791H412Q99 791 98 1192Q98 1557 416 1556H1196V1470H1169Q1071 1470 1036 1432T1001 1323V6Q1001 -66 1036 -104Q1069 -141
1169 -141H1196V-227H877V1452Z" />
<glyph unicode="&#xb7;" glyph-name="middot" horiz-adv-x="585" d="M315 588Q188 588 188 713Q188 785 225 827T324 870Q451 870 451 745Q451 673 414 631T315 588Z" />
<glyph unicode="&#xb8;" glyph-name="cedilla" horiz-adv-x="681" d="M387 -70Q461 -78 506 -127Q551 -174 551 -240Q551 -359 465 -426Q381 -492 225 -492Q149 -492 72 -469L94 -365Q170 -381 231 -381Q383 -381 383 -256Q383 -154 252 -141L330 18H426L387 -70Z" />
<glyph unicode="&#xb9;" glyph-name="uni00B9" horiz-adv-x="817" d="M135 588L150 657H244Q328 657 344 735L469 1325H279L293 1395H395Q538 1395 582 1473H684L541 795Q527 729 526 709Q526 658 598 657H692L678 588H135Z" />
<glyph unicode="&#xba;" glyph-name="ordmasculine" horiz-adv-x="811" d="M420 780Q287 780 213 848Q137 918 137 1036Q137 1198 254 1333T557 1468Q688 1468 762 1401T836 1217Q836 1055 721 918T420 780ZM543 1386Q445 1386 381 1268T317 1014Q317 862 420
862Q520 862 582 981Q643 1102 643 1241Q643 1386 543 1386Z" />
<glyph unicode="&#xbb;" glyph-name="guillemotright" horiz-adv-x="1052" d="M911 520L522 164H420L719 563L586 942H688L926 586L911 520ZM541 520L152 164H49L348 563L215 942H317L555 586L541 520Z" />
<glyph unicode="&#xbc;" glyph-name="onequarter" horiz-adv-x="1718" d="M282 588L297 657H391Q475 657 491 735L616 1325H426L440 1395H542Q685 1395 729 1473H831L688 795Q674 729 673 709Q673 658 745 657H839L825 588H282ZM420 0H277L1309 1462H1448L420
0ZM1437 260L1419 176Q1411 143 1411 121Q1411 70 1482 69H1523L1509 0H1058L1073 69H1130Q1214 69 1230 147L1255 260H892L903 330L1404 885H1568L1456 348H1652L1634 260H1437ZM1323 571Q1346 675 1364 731L1321 672L1030 348H1273L1323 571Z" />
<glyph unicode="&#xbd;" glyph-name="onehalf" horiz-adv-x="1718" d="M282 588L297 657H391Q475 657 491 735L616 1325H426L440 1395H542Q685 1395 729 1473H831L688 795Q674 729 673 709Q673 658 745 657H839L825 588H282ZM399 0H256L1288 1462H1427L399 0ZM922
0L932 61L1250 323Q1363 417 1416 499Q1471 585 1471 696Q1471 815 1368 815Q1307 815 1260 762Q1215 711 1203 620Q1140 620 1106 647Q1071 676 1071 719Q1071 799 1155 846Q1245 897 1383 897Q1512 897 1579 844Q1651 789 1651 702Q1651 608 1588 522T1368 311L1123
116H1405Q1483 116 1514 200L1530 243H1600L1543 0H922Z" />
<glyph unicode="&#xbe;" glyph-name="threequarters" horiz-adv-x="1718" d="M410 842Q410 764 455 717Q502 666 575 666Q770 666 770 848Q770 916 721 958T584 1001H516L532 1085H600Q696 1085 761 1146T827 1304T733 1401Q598 1401 561 1223Q426 1223 426 1309Q426
1385 510 1432Q600 1483 739 1483Q870 1483 942 1432Q1016 1381 1016 1296Q1016 1108 754 1055L752 1044Q959 1015 958 856Q958 721 850 647T561 573Q430 573 363 616Q293 661 293 731Q293 842 410 842ZM475 0H332L1364 1462H1503L475 0ZM1458 260L1440 176Q1432
143 1432 121Q1432 70 1503 69H1544L1530 0H1079L1094 69H1151Q1235 69 1251 147L1276 260H913L924 330L1425 885H1589L1477 348H1673L1655 260H1458ZM1344 571Q1367 675 1385 731L1342 672L1051 348H1294L1344 571Z" />
<glyph unicode="&#xbf;" glyph-name="questiondown" horiz-adv-x="1024" d="M666 1110Q793 1110 793 985Q793 913 756 870T657 827Q598 827 563 862Q530 895 530 952Q530 1026 567 1069Q603 1110 666 1110ZM506 444L557 682H682L618 379Q202 227 203 -66Q203 -168
256 -227T401 -287Q612 -287 655 4Q802 4 803 -119Q803 -232 688 -311Q577 -389 389 -389Q2 -389 2 -49Q2 262 506 444Z" />
<glyph unicode="&#xc0;" glyph-name="Agrave" horiz-adv-x="1443" d="M408 489L285 274Q246 208 246 160Q246 86 360 86H408L391 0H-115L-98 86H-59Q-6 86 33 114T131 246L844 1462H1004L1198 195Q1206 132 1233 109T1319 86H1346L1329 0H772L788 86H836Q983 86
983 190Q983 223 979 260L946 489H408ZM881 950Q852 1159 848 1274Q801 1159 688 969L469 592H932L881 950ZM923 1579Q769 1730 659 1886L665 1907H870Q936 1745 1007 1606L1001 1579H923Z" />
<glyph unicode="&#xc1;" glyph-name="Aacute" horiz-adv-x="1443" d="M408 489L285 274Q246 208 246 160Q246 86 360 86H408L391 0H-115L-98 86H-59Q-6 86 33 114T131 246L844 1462H1004L1198 195Q1206 132 1233 109T1319 86H1346L1329 0H772L788 86H836Q983 86
983 190Q983 223 979 260L946 489H408ZM881 950Q852 1159 848 1274Q801 1159 688 969L469 592H932L881 950ZM838 1606Q959 1745 1057 1907H1276L1270 1886Q1113 1702 914 1579H832L838 1606Z" />
<glyph unicode="&#xc2;" glyph-name="Acircumflex" horiz-adv-x="1443" d="M408 489L285 274Q246 208 246 160Q246 86 360 86H408L391 0H-115L-98 86H-59Q-6 86 33 114T131 246L844 1462H1004L1198 195Q1206 132 1233 109T1319 86H1346L1329 0H772L788 86H836Q983
86 983 190Q983 223 979 260L946 489H408ZM881 950Q852 1159 848 1274Q801 1159 688 969L469 592H932L881 950ZM617 1606Q804 1790 887 1907H1082Q1109 1792 1221 1606L1215 1579H1143Q1047 1645 961 1763Q811 1638 699 1579H611L617 1606Z" />
<glyph unicode="&#xc3;" glyph-name="Atilde" horiz-adv-x="1443" d="M408 489L285 274Q246 208 246 160Q246 86 360 86H408L391 0H-115L-98 86H-59Q-6 86 33 114T131 246L844 1462H1004L1198 195Q1206 132 1233 109T1319 86H1346L1329 0H772L788 86H836Q983 86
983 190Q983 223 979 260L946 489H408ZM881 950Q852 1159 848 1274Q801 1159 688 969L469 592H932L881 950ZM1229 1821H1321Q1251 1579 1055 1579Q975 1579 885 1645Q797 1708 760 1708Q672 1708 637 1600H545Q617 1842 813 1841Q897 1841 981 1778Q1069 1712 1106
1712Q1194 1712 1229 1821Z" />
<glyph unicode="&#xc4;" glyph-name="Adieresis" horiz-adv-x="1443" d="M408 489L285 274Q246 208 246 160Q246 86 360 86H408L391 0H-115L-98 86H-59Q-6 86 33 114T131 246L844 1462H1004L1198 195Q1206 132 1233 109T1319 86H1346L1329 0H772L788 86H836Q983
86 983 190Q983 223 979 260L946 489H408ZM881 950Q852 1159 848 1274Q801 1159 688 969L469 592H932L881 950ZM756 1632Q654 1632 654 1735Q654 1864 764 1864Q866 1864 867 1761Q867 1632 756 1632ZM1145 1632Q1043 1632 1043 1735Q1043 1864 1153 1864Q1255
1864 1256 1761Q1256 1632 1145 1632Z" />
<glyph unicode="&#xc5;" glyph-name="Aring" horiz-adv-x="1443" d="M408 489L285 274Q246 208 246 160Q246 86 360 86H408L391 0H-115L-98 86H-59Q-6 86 33 114T131 246L844 1462H1004L1198 195Q1206 132 1233 109T1319 86H1346L1329 0H772L788 86H836Q983 86
983 190Q983 223 979 260L946 489H408ZM881 950Q852 1159 848 1274Q801 1159 688 969L469 592H932L881 950ZM914 1362Q810 1362 738 1421Q668 1478 668 1585Q668 1689 737 1748T914 1808Q1023 1808 1092 1749Q1160 1690 1160 1585Q1160 1479 1090 1421Q1018 1362
914 1362ZM914 1708Q779 1708 779 1585Q779 1462 914 1462Q1049 1462 1049 1585Q1049 1708 914 1708Z" />
<glyph unicode="&#xc6;" glyph-name="AE" horiz-adv-x="1947" d="M-127 0L-98 86H-59Q-6 86 35 114T152 246L967 1364L793 1376L811 1462H1970L1905 1104H1798Q1808 1182 1808 1223Q1808 1360 1663 1360H1319L1202 815H1696L1675 715H1182L1051 102H1446Q1620
102 1677 270L1710 358H1817L1726 0H629L645 86H672Q778 86 815 121Q858 162 870 223L926 489H463L309 274Q254 196 254 154Q254 86 358 86H406L377 0H-127ZM1110 1360H1071Q975 1194 811 969L539 592H948L1110 1360Z" />
<glyph unicode="&#xc7;" glyph-name="Ccedilla" horiz-adv-x="1282" d="M1073 299Q1100 281 1100 231Q1100 135 985 58T672 -20Q406 -20 256 123T106 528Q106 919 348 1200Q591 1483 950 1483Q1126 1483 1229 1421Q1329 1360 1329 1255Q1329 1181 1274 1139T1128
1096Q1128 1375 924 1374Q672 1374 500 1098Q330 826 330 496Q330 113 694 113Q932 113 1073 299ZM649 -70Q723 -78 768 -127Q813 -174 813 -240Q813 -359 727 -426Q643 -492 487 -492Q411 -492 334 -469L356 -365Q432 -381 493 -381Q645 -381 645 -256Q645 -154
514 -141L592 18H688L649 -70Z" />
<glyph unicode="&#xc8;" glyph-name="Egrave" horiz-adv-x="1275" d="M379 102H774Q948 102 1006 270L1038 358H1145L1055 0H-43L-27 86H0Q106 86 145 123Q182 158 199 223L412 1229Q418 1257 418 1278Q418 1327 389 1351T274 1376H248L266 1462H1298L1233 1104H1126L1133
1167Q1137 1200 1137 1223Q1137 1360 991 1360H647L530 815H1024L1004 715H510L379 102ZM849 1579Q695 1730 585 1886L591 1907H796Q862 1745 933 1606L927 1579H849Z" />
<glyph unicode="&#xc9;" glyph-name="Eacute" horiz-adv-x="1275" d="M379 102H774Q948 102 1006 270L1038 358H1145L1055 0H-43L-27 86H0Q106 86 145 123Q182 158 199 223L412 1229Q418 1257 418 1278Q418 1327 389 1351T274 1376H248L266 1462H1298L1233 1104H1126L1133
1167Q1137 1200 1137 1223Q1137 1360 991 1360H647L530 815H1024L1004 715H510L379 102ZM725 1606Q846 1745 944 1907H1163L1157 1886Q1000 1702 801 1579H719L725 1606Z" />
<glyph unicode="&#xca;" glyph-name="Ecircumflex" horiz-adv-x="1275" d="M379 102H774Q948 102 1006 270L1038 358H1145L1055 0H-43L-27 86H0Q106 86 145 123Q182 158 199 223L412 1229Q418 1257 418 1278Q418 1327 389 1351T274 1376H248L266 1462H1298L1233
1104H1126L1133 1167Q1137 1200 1137 1223Q1137 1360 991 1360H647L530 815H1024L1004 715H510L379 102ZM551 1606Q738 1790 821 1907H1016Q1043 1792 1155 1606L1149 1579H1077Q981 1645 895 1763Q745 1638 633 1579H545L551 1606Z" />
<glyph unicode="&#xcb;" glyph-name="Edieresis" horiz-adv-x="1275" d="M379 102H774Q948 102 1006 270L1038 358H1145L1055 0H-43L-27 86H0Q106 86 145 123Q182 158 199 223L412 1229Q418 1257 418 1278Q418 1327 389 1351T274 1376H248L266 1462H1298L1233
1104H1126L1133 1167Q1137 1200 1137 1223Q1137 1360 991 1360H647L530 815H1024L1004 715H510L379 102ZM643 1632Q541 1632 541 1735Q541 1864 651 1864Q753 1864 754 1761Q754 1632 643 1632ZM1032 1632Q930 1632 930 1735Q930 1864 1040 1864Q1142 1864 1143
1761Q1143 1632 1032 1632Z" />
<glyph unicode="&#xcc;" glyph-name="Igrave" horiz-adv-x="751" d="M862 1462L844 1376H817Q719 1376 676 1339Q635 1304 618 1229L406 225Q398 186 397 168Q397 86 545 86H571L553 0H-43L-27 86H0Q170 86 201 233L414 1237Q422 1270 422 1294Q422 1376 274 1376H248L266
1462H862ZM608 1579Q454 1730 344 1886L350 1907H555Q621 1745 692 1606L686 1579H608Z" />
<glyph unicode="&#xcd;" glyph-name="Iacute" horiz-adv-x="751" d="M862 1462L844 1376H817Q719 1376 676 1339Q635 1304 618 1229L406 225Q398 186 397 168Q397 86 545 86H571L553 0H-43L-27 86H0Q170 86 201 233L414 1237Q422 1270 422 1294Q422 1376 274 1376H248L266
1462H862ZM475 1606Q596 1745 694 1907H913L907 1886Q750 1702 551 1579H469L475 1606Z" />
<glyph unicode="&#xce;" glyph-name="Icircumflex" horiz-adv-x="751" d="M862 1462L844 1376H817Q719 1376 676 1339Q635 1304 618 1229L406 225Q398 186 397 168Q397 86 545 86H571L553 0H-43L-27 86H0Q170 86 201 233L414 1237Q422 1270 422 1294Q422 1376
274 1376H248L266 1462H862ZM281 1606Q468 1790 551 1907H746Q773 1792 885 1606L879 1579H807Q711 1645 625 1763Q475 1638 363 1579H275L281 1606Z" />
<glyph unicode="&#xcf;" glyph-name="Idieresis" horiz-adv-x="751" d="M862 1462L844 1376H817Q719 1376 676 1339Q635 1304 618 1229L406 225Q398 186 397 168Q397 86 545 86H571L553 0H-43L-27 86H0Q170 86 201 233L414 1237Q422 1270 422 1294Q422 1376 274
1376H248L266 1462H862ZM403 1632Q301 1632 301 1735Q301 1864 411 1864Q513 1864 514 1761Q514 1632 403 1632ZM792 1632Q690 1632 690 1735Q690 1864 800 1864Q902 1864 903 1761Q903 1632 792 1632Z" />
<glyph unicode="&#xd0;" glyph-name="Eth" horiz-adv-x="1529" d="M-27 86H0Q170 86 201 233L303 715H104L127 815H324L414 1237Q422 1270 422 1294Q422 1376 274 1376H248L266 1462H881Q1160 1462 1311 1317T1462 905Q1462 510 1239 256Q1014 0 643 0H-43L-27
86ZM598 104Q895 104 1065 330Q1239 559 1239 928Q1239 1360 850 1360H647L530 815H918L895 715H508L379 104H598Z" />
<glyph unicode="&#xd1;" glyph-name="Ntilde" horiz-adv-x="1562" d="M1327 1237Q1335 1270 1335 1294Q1335 1376 1188 1376H1161L1180 1462H1694L1675 1376H1649Q1553 1376 1510 1340T1450 1229L1190 0H1057L530 1200L324 225Q316 186 315 168Q315 86 463 86H489L471
0H-41L-23 86H4Q98 86 141 123Q180 156 201 233L414 1237Q422 1270 422 1294Q422 1376 274 1376H248L266 1462H639L1135 332L1327 1237ZM1347 1821H1439Q1369 1579 1173 1579Q1093 1579 1003 1645Q915 1708 878 1708Q790 1708 755 1600H663Q735 1842 931 1841Q1015
1841 1099 1778Q1187 1712 1224 1712Q1312 1712 1347 1821Z" />
<glyph unicode="&#xd2;" glyph-name="Ograve" horiz-adv-x="1519" d="M926 1485Q1164 1485 1311 1337Q1456 1192 1456 922Q1456 574 1229 274Q1002 -23 643 -23Q401 -23 254 131T106 545Q106 899 336 1192T926 1485ZM655 90Q911 90 1071 372T1231 977Q1231 1170
1147 1272T909 1374Q655 1374 492 1090Q330 809 330 487Q330 297 418 193Q503 90 655 90ZM1022 1579Q868 1730 758 1886L764 1907H969Q1035 1745 1106 1606L1100 1579H1022Z" />
<glyph unicode="&#xd3;" glyph-name="Oacute" horiz-adv-x="1519" d="M926 1485Q1164 1485 1311 1337Q1456 1192 1456 922Q1456 574 1229 274Q1002 -23 643 -23Q401 -23 254 131T106 545Q106 899 336 1192T926 1485ZM655 90Q911 90 1071 372T1231 977Q1231 1170
1147 1272T909 1374Q655 1374 492 1090Q330 809 330 487Q330 297 418 193Q503 90 655 90ZM827 1606Q948 1745 1046 1907H1265L1259 1886Q1102 1702 903 1579H821L827 1606Z" />
<glyph unicode="&#xd4;" glyph-name="Ocircumflex" horiz-adv-x="1519" d="M926 1485Q1164 1485 1311 1337Q1456 1192 1456 922Q1456 574 1229 274Q1002 -23 643 -23Q401 -23 254 131T106 545Q106 899 336 1192T926 1485ZM655 90Q911 90 1071 372T1231 977Q1231
1170 1147 1272T909 1374Q655 1374 492 1090Q330 809 330 487Q330 297 418 193Q503 90 655 90ZM639 1606Q826 1790 909 1907H1104Q1131 1792 1243 1606L1237 1579H1165Q1069 1645 983 1763Q833 1638 721 1579H633L639 1606Z" />
<glyph unicode="&#xd5;" glyph-name="Otilde" horiz-adv-x="1519" d="M926 1485Q1164 1485 1311 1337Q1456 1192 1456 922Q1456 574 1229 274Q1002 -23 643 -23Q401 -23 254 131T106 545Q106 899 336 1192T926 1485ZM655 90Q911 90 1071 372T1231 977Q1231 1170
1147 1272T909 1374Q655 1374 492 1090Q330 809 330 487Q330 297 418 193Q503 90 655 90ZM1272 1821H1364Q1294 1579 1098 1579Q1018 1579 928 1645Q840 1708 803 1708Q715 1708 680 1600H588Q660 1842 856 1841Q940 1841 1024 1778Q1112 1712 1149 1712Q1237 1712
1272 1821Z" />
<glyph unicode="&#xd6;" glyph-name="Odieresis" horiz-adv-x="1519" d="M926 1485Q1164 1485 1311 1337Q1456 1192 1456 922Q1456 574 1229 274Q1002 -23 643 -23Q401 -23 254 131T106 545Q106 899 336 1192T926 1485ZM655 90Q911 90 1071 372T1231 977Q1231
1170 1147 1272T909 1374Q655 1374 492 1090Q330 809 330 487Q330 297 418 193Q503 90 655 90ZM780 1632Q678 1632 678 1735Q678 1864 788 1864Q890 1864 891 1761Q891 1632 780 1632ZM1169 1632Q1067 1632 1067 1735Q1067 1864 1177 1864Q1279 1864 1280 1761Q1280
1632 1169 1632Z" />
<glyph unicode="&#xd7;" glyph-name="multiply" horiz-adv-x="1144" d="M571 647L231 307L145 395L485 735L145 1073L231 1159L571 819L911 1161L997 1073L657 733L997 393L911 307L571 647Z" />
<glyph unicode="&#xd8;" glyph-name="Oslash" horiz-adv-x="1519" d="M1217 1409L1323 1546H1442L1292 1352Q1456 1200 1456 922Q1456 574 1229 274Q1002 -23 643 -23Q477 -23 354 51L258 -82H137L274 109Q106 265 106 545Q106 899 335 1192T926 1485Q1092 1485
1217 1409ZM379 250L1130 1288Q1047 1374 909 1374Q655 1374 492 1090Q330 809 330 487Q330 348 379 250ZM1188 1204L438 168Q526 90 655 90Q911 90 1071 372T1231 977Q1231 1106 1188 1204Z" />
<glyph unicode="&#xd9;" glyph-name="Ugrave" horiz-adv-x="1492" d="M205 1376L223 1462H819L803 1376H776Q680 1376 637 1340T575 1229L422 506Q397 389 397 315Q397 102 692 102Q856 102 954 176T1090 422L1264 1237Q1272 1270 1272 1294Q1272 1376 1124 1376H1098L1116
1462H1630L1614 1376H1587Q1491 1376 1448 1340T1386 1229L1214 418Q1122 -20 662 -20Q439 -20 318 72T197 334Q197 414 219 516L371 1237Q379 1270 379 1294Q379 1376 231 1376H205ZM981 1579Q827 1730 717 1886L723 1907H928Q994 1745 1065 1606L1059 1579H981Z"
/>
<glyph unicode="&#xda;" glyph-name="Uacute" horiz-adv-x="1492" d="M205 1376L223 1462H819L803 1376H776Q680 1376 637 1340T575 1229L422 506Q397 389 397 315Q397 102 692 102Q856 102 954 176T1090 422L1264 1237Q1272 1270 1272 1294Q1272 1376 1124 1376H1098L1116
1462H1630L1614 1376H1587Q1491 1376 1448 1340T1386 1229L1214 418Q1122 -20 662 -20Q439 -20 318 72T197 334Q197 414 219 516L371 1237Q379 1270 379 1294Q379 1376 231 1376H205ZM864 1606Q985 1745 1083 1907H1302L1296 1886Q1139 1702 940 1579H858L864 1606Z"
/>
<glyph unicode="&#xdb;" glyph-name="Ucircumflex" horiz-adv-x="1492" d="M205 1376L223 1462H819L803 1376H776Q680 1376 637 1340T575 1229L422 506Q397 389 397 315Q397 102 692 102Q856 102 954 176T1090 422L1264 1237Q1272 1270 1272 1294Q1272 1376 1124
1376H1098L1116 1462H1630L1614 1376H1587Q1491 1376 1448 1340T1386 1229L1214 418Q1122 -20 662 -20Q439 -20 318 72T197 334Q197 414 219 516L371 1237Q379 1270 379 1294Q379 1376 231 1376H205ZM680 1606Q867 1790 950 1907H1145Q1172 1792 1284 1606L1278
1579H1206Q1110 1645 1024 1763Q874 1638 762 1579H674L680 1606Z" />
<glyph unicode="&#xdc;" glyph-name="Udieresis" horiz-adv-x="1492" d="M205 1376L223 1462H819L803 1376H776Q680 1376 637 1340T575 1229L422 506Q397 389 397 315Q397 102 692 102Q856 102 954 176T1090 422L1264 1237Q1272 1270 1272 1294Q1272 1376 1124
1376H1098L1116 1462H1630L1614 1376H1587Q1491 1376 1448 1340T1386 1229L1214 418Q1122 -20 662 -20Q439 -20 318 72T197 334Q197 414 219 516L371 1237Q379 1270 379 1294Q379 1376 231 1376H205ZM774 1632Q672 1632 672 1735Q672 1864 782 1864Q884 1864 885
1761Q885 1632 774 1632ZM1163 1632Q1061 1632 1061 1735Q1061 1864 1171 1864Q1273 1864 1274 1761Q1274 1632 1163 1632Z" />
<glyph unicode="&#xdd;" glyph-name="Yacute" horiz-adv-x="1280" d="M729 1462L711 1376H608Q524 1376 524 1321Q524 1280 551 1202L643 928Q692 781 698 682Q729 737 852 897L1047 1157Q1123 1261 1122 1323Q1122 1376 1024 1376H948L967 1462H1473L1454 1376H1415Q1380
1376 1337 1343Q1302 1316 1229 1221L752 596L672 225Q664 192 664 168Q664 86 811 86H858L840 0H203L221 86H268Q374 86 411 121T465 223L545 600L307 1268Q287 1329 262 1354Q239 1377 184 1376H158L176 1462H729ZM770 1606Q891 1745 989 1907H1208L1202 1886Q1045
1702 846 1579H764L770 1606Z" />
<glyph unicode="&#xde;" glyph-name="Thorn" horiz-adv-x="1236" d="M-41 0L-23 86H4Q100 86 143 123Q184 158 201 233L414 1237Q422 1270 422 1294Q422 1376 274 1376H248L266 1462H883L864 1376H817Q713 1376 674 1337Q633 1296 618 1229L614 1208H735Q958 1208
1079 1106Q1202 1002 1202 813Q1202 582 1045 449T575 315H424L406 225Q398 184 397 168Q397 86 545 86H592L573 0H-41ZM444 412H553Q985 412 985 811Q985 1110 686 1110H592L444 412Z" />
<glyph unicode="&#xdf;" glyph-name="germandbls" horiz-adv-x="1282" d="M-279 -475L-260 -381Q-211 -395 -166 -395Q-66 -395 -6 -307Q47 -227 92 -18L309 1001H143L164 1098H330L344 1159Q438 1567 856 1567Q1229 1567 1229 1253Q1229 1149 1200 1006H1024Q799
1006 799 838Q799 770 844 721Q889 674 969 627Q1162 512 1161 319Q1161 157 1059 68Q959 -20 766 -20Q622 -20 539 35Q455 90 455 188Q455 247 498 284T608 322Q608 78 780 78Q868 78 926 131Q981 183 981 272Q981 409 825 502Q620 629 621 795Q621 1102 1028
1102Q1051 1211 1051 1272Q1051 1475 850 1475Q608 1475 543 1188L285 -16Q230 -266 130 -379T-160 -492Q-224 -491 -279 -475Z" />
<glyph unicode="&#xe0;" glyph-name="agrave" horiz-adv-x="1185" d="M748 309H735Q588 -21 352 -20Q229 -20 158 78Q88 174 88 354Q88 635 264 876T698 1118Q836 1118 938 1044L1028 1096H1094L954 440Q923 299 924 213Q924 109 991 109Q1048 109 1139 162L1176
102Q1029 -21 887 -20Q727 -20 727 150Q728 219 748 309ZM864 952Q819 1026 709 1026Q537 1026 416 803Q297 584 297 347T426 109Q528 109 639 260Q752 414 788 590L864 952ZM960 1241Q806 1392 696 1548L702 1569H907Q973 1407 1044 1268L1038 1241H960Z" />
<glyph unicode="&#xe1;" glyph-name="aacute" horiz-adv-x="1185" d="M748 309H735Q588 -21 352 -20Q229 -20 158 78Q88 174 88 354Q88 635 264 876T698 1118Q836 1118 938 1044L1028 1096H1094L954 440Q923 299 924 213Q924 109 991 109Q1048 109 1139 162L1176
102Q1029 -21 887 -20Q727 -20 727 150Q728 219 748 309ZM864 952Q819 1026 709 1026Q537 1026 416 803Q297 584 297 347T426 109Q528 109 639 260Q752 414 788 590L864 952ZM637 1268Q758 1407 856 1569H1075L1069 1548Q912 1364 713 1241H631L637 1268Z" />
<glyph unicode="&#xe2;" glyph-name="acircumflex" horiz-adv-x="1185" d="M748 309H735Q588 -21 352 -20Q229 -20 158 78Q88 174 88 354Q88 635 264 876T698 1118Q836 1118 938 1044L1028 1096H1094L954 440Q923 299 924 213Q924 109 991 109Q1048 109 1139 162L1176
102Q1029 -21 887 -20Q727 -20 727 150Q728 219 748 309ZM864 952Q819 1026 709 1026Q537 1026 416 803Q297 584 297 347T426 109Q528 109 639 260Q752 414 788 590L864 952ZM410 1268Q597 1452 680 1569H875Q902 1454 1014 1268L1008 1241H936Q840 1307 754 1425Q604
1300 492 1241H404L410 1268Z" />
<glyph unicode="&#xe3;" glyph-name="atilde" horiz-adv-x="1185" d="M748 309H735Q588 -21 352 -20Q229 -20 158 78Q88 174 88 354Q88 635 264 876T698 1118Q836 1118 938 1044L1028 1096H1094L954 440Q923 299 924 213Q924 109 991 109Q1048 109 1139 162L1176
102Q1029 -21 887 -20Q727 -20 727 150Q728 219 748 309ZM864 952Q819 1026 709 1026Q537 1026 416 803Q297 584 297 347T426 109Q528 109 639 260Q752 414 788 590L864 952ZM1282 1483H1374Q1304 1241 1108 1241Q1028 1241 938 1307Q850 1370 813 1370Q725 1370
690 1262H598Q670 1504 866 1503Q950 1503 1034 1440Q1122 1374 1159 1374Q1247 1374 1282 1483Z" />
<glyph unicode="&#xe4;" glyph-name="adieresis" horiz-adv-x="1185" d="M748 309H735Q588 -21 352 -20Q229 -20 158 78Q88 174 88 354Q88 635 264 876T698 1118Q836 1118 938 1044L1028 1096H1094L954 440Q923 299 924 213Q924 109 991 109Q1048 109 1139 162L1176
102Q1029 -21 887 -20Q727 -20 727 150Q728 219 748 309ZM864 952Q819 1026 709 1026Q537 1026 416 803Q297 584 297 347T426 109Q528 109 639 260Q752 414 788 590L864 952ZM762 1294Q660 1294 660 1397Q660 1526 770 1526Q872 1526 873 1423Q873 1294 762 1294ZM1151
1294Q1049 1294 1049 1397Q1049 1526 1159 1526Q1261 1526 1262 1423Q1262 1294 1151 1294Z" />
<glyph unicode="&#xe5;" glyph-name="aring" horiz-adv-x="1185" d="M748 309H735Q588 -21 352 -20Q229 -20 158 78Q88 174 88 354Q88 635 264 876T698 1118Q836 1118 938 1044L1028 1096H1094L954 440Q923 299 924 213Q924 109 991 109Q1048 109 1139 162L1176
102Q1029 -21 887 -20Q727 -20 727 150Q728 219 748 309ZM864 952Q819 1026 709 1026Q537 1026 416 803Q297 584 297 347T426 109Q528 109 639 260Q752 414 788 590L864 952ZM737 1221Q633 1221 561 1280Q491 1337 491 1444Q491 1548 560 1607T737 1667Q846 1667
915 1608Q983 1549 983 1444Q983 1338 913 1280Q841 1221 737 1221ZM737 1567Q602 1567 602 1444Q602 1321 737 1321Q872 1321 872 1444Q872 1567 737 1567Z" />
<glyph unicode="&#xe6;" glyph-name="ae" horiz-adv-x="1662" d="M1477 256Q1497 242 1497 205Q1497 123 1401 52T1143 -20Q1004 -20 899 55Q799 129 764 274Q647 -21 397 -20Q258 -20 172 88Q88 192 88 387Q88 666 252 891Q418 1118 686 1118Q848 1118 999 991Q1155
1118 1354 1118Q1483 1118 1554 1057T1626 883Q1626 717 1454 594T1032 471H997Q972 471 961 473Q957 457 956 387Q956 108 1182 109Q1354 109 1477 256ZM905 893Q807 1026 696 1026Q522 1026 410 809T297 365Q297 242 342 176Q389 108 469 109Q569 109 645 209Q723
313 750 475Q786 705 905 893ZM979 567H999Q1183 567 1298 655Q1415 745 1415 882T1296 1020Q1194 1020 1110 893Q1022 760 979 567Z" />
<glyph unicode="&#xe7;" glyph-name="ccedilla" horiz-adv-x="995" d="M821 256Q841 244 842 205Q842 123 746 52T487 -20Q309 -20 199 92T88 403Q88 670 260 895Q432 1118 698 1118Q837 1118 917 1063T997 922Q997 861 948 819Q897 778 815 778Q815 887 772 954Q731
1020 657 1020Q514 1020 408 807T301 387Q301 108 526 109Q704 109 821 256ZM487 -70Q561 -78 606 -127Q651 -174 651 -240Q651 -359 565 -426Q481 -492 325 -492Q249 -492 172 -469L194 -365Q270 -381 331 -381Q483 -381 483 -256Q483 -154 352 -141L430 18H526L487
-70Z" />
<glyph unicode="&#xe8;" glyph-name="egrave" horiz-adv-x="1009" d="M821 256Q841 244 842 205Q842 123 746 52T487 -20Q309 -20 199 92T88 403Q88 670 260 895Q432 1118 698 1118Q827 1118 899 1057T971 883Q971 717 799 594T377 471H342Q317 471 305 473Q301
436 301 387Q301 108 526 109Q701 109 821 256ZM324 567H344Q528 567 643 655Q760 745 760 882T641 1020Q543 1020 457 895Q369 766 324 567ZM976 1241Q822 1392 712 1548L718 1569H923Q989 1407 1060 1268L1054 1241H976Z" />
<glyph unicode="&#xe9;" glyph-name="eacute" horiz-adv-x="1009" d="M821 256Q841 244 842 205Q842 123 746 52T487 -20Q309 -20 199 92T88 403Q88 670 260 895Q432 1118 698 1118Q827 1118 899 1057T971 883Q971 717 799 594T377 471H342Q317 471 305 473Q301
436 301 387Q301 108 526 109Q701 109 821 256ZM324 567H344Q528 567 643 655Q760 745 760 882T641 1020Q543 1020 457 895Q369 766 324 567ZM614 1268Q735 1407 833 1569H1052L1046 1548Q889 1364 690 1241H608L614 1268Z" />
<glyph unicode="&#xea;" glyph-name="ecircumflex" horiz-adv-x="1009" d="M821 256Q841 244 842 205Q842 123 746 52T487 -20Q309 -20 199 92T88 403Q88 670 260 895Q432 1118 698 1118Q827 1118 899 1057T971 883Q971 717 799 594T377 471H342Q317 471 305 473Q301
436 301 387Q301 108 526 109Q701 109 821 256ZM324 567H344Q528 567 643 655Q760 745 760 882T641 1020Q543 1020 457 895Q369 766 324 567ZM387 1268Q574 1452 657 1569H852Q879 1454 991 1268L985 1241H913Q817 1307 731 1425Q581 1300 469 1241H381L387 1268Z"
/>
<glyph unicode="&#xeb;" glyph-name="edieresis" horiz-adv-x="1009" d="M821 256Q841 244 842 205Q842 123 746 52T487 -20Q309 -20 199 92T88 403Q88 670 260 895Q432 1118 698 1118Q827 1118 899 1057T971 883Q971 717 799 594T377 471H342Q317 471 305 473Q301
436 301 387Q301 108 526 109Q701 109 821 256ZM324 567H344Q528 567 643 655Q760 745 760 882T641 1020Q543 1020 457 895Q369 766 324 567ZM766 1294Q664 1294 664 1397Q664 1526 774 1526Q876 1526 877 1423Q877 1294 766 1294ZM1155 1294Q1053 1294 1053 1397Q1053
1526 1163 1526Q1265 1526 1266 1423Q1266 1294 1155 1294Z" />
<glyph unicode="&#xec;" glyph-name="igrave" horiz-adv-x="622" d="M127 1012L145 1098H512L373 440Q342 293 342 213Q342 109 410 109Q467 109 557 162L594 102Q453 -21 317 -20Q240 -20 195 35Q148 92 147 174Q147 270 193 496L272 872Q278 905 279 926Q279
1012 154 1012H127ZM454 1241Q300 1392 190 1548L196 1569H401Q467 1407 538 1268L532 1241H454Z" />
<glyph unicode="&#xed;" glyph-name="iacute" horiz-adv-x="622" d="M127 1012L145 1098H512L373 440Q342 293 342 213Q342 109 410 109Q467 109 557 162L594 102Q453 -21 317 -20Q240 -20 195 35Q148 92 147 174Q147 270 193 496L272 872Q278 905 279 926Q279
1012 154 1012H127ZM334 1268Q455 1407 553 1569H772L766 1548Q609 1364 410 1241H328L334 1268Z" />
<glyph unicode="&#xee;" glyph-name="icircumflex" horiz-adv-x="622" d="M127 1012L145 1098H512L373 440Q342 293 342 213Q342 109 410 109Q467 109 557 162L594 102Q453 -21 317 -20Q240 -20 195 35Q148 92 147 174Q147 270 193 496L272 872Q278 905 279 926Q279
1012 154 1012H127ZM80 1268Q267 1452 350 1569H545Q572 1454 684 1268L678 1241H606Q510 1307 424 1425Q274 1300 162 1241H74L80 1268Z" />
<glyph unicode="&#xef;" glyph-name="idieresis" horiz-adv-x="622" d="M127 1012L145 1098H512L373 440Q342 293 342 213Q342 109 410 109Q467 109 557 162L594 102Q453 -21 317 -20Q240 -20 195 35Q148 92 147 174Q147 270 193 496L272 872Q278 905 279 926Q279
1012 154 1012H127ZM209 1294Q107 1294 107 1397Q107 1526 217 1526Q319 1526 320 1423Q320 1294 209 1294ZM598 1294Q496 1294 496 1397Q496 1526 606 1526Q708 1526 709 1423Q709 1294 598 1294Z" />
<glyph unicode="&#xf0;" glyph-name="eth" horiz-adv-x="1181" d="M877 983Q830 1167 733 1274L440 1124L465 1239L664 1341Q572 1411 438 1456L473 1559Q651 1514 797 1407L1094 1561L1067 1444L866 1341Q970 1237 1028 1079Q1087 917 1087 741Q1087 391 926
180Q762 -33 481 -33Q301 -33 195 73T88 369Q88 625 256 831T698 1038Q806 1038 877 983ZM504 68Q674 68 774 254T874 664Q874 932 674 932Q504 932 403 745Q301 557 301 336Q301 68 504 68Z" />
<glyph unicode="&#xf1;" glyph-name="ntilde" horiz-adv-x="1226" d="M281 0H90L262 823Q274 881 274 915Q274 1011 131 1012H115L133 1098H512L457 840H477Q643 1116 850 1116Q1069 1116 1069 889Q1069 823 1032 664L979 422Q952 303 952 207Q952 109 1024 109Q1083
109 1155 156L1192 96Q1057 -21 942 -20Q856 -20 807 35Q756 92 756 184Q756 280 795 461L842 674Q873 797 872 864Q872 985 778 985Q664 985 545 832T391 524L281 0ZM1046 1483H1138Q1068 1241 872 1241Q792 1241 702 1307Q614 1370 577 1370Q489 1370 454 1262H362Q434
1504 630 1503Q714 1503 798 1440Q886 1374 923 1374Q1011 1374 1046 1483Z" />
<glyph unicode="&#xf2;" glyph-name="ograve" horiz-adv-x="1175" d="M698 1118Q878 1118 982 1010T1087 694Q1087 424 920 201Q754 -20 481 -20Q299 -20 193 92Q89 203 88 403Q88 682 256 899Q426 1118 698 1118ZM504 80Q672 80 774 281Q874 480 874 725Q874
1010 674 1010Q508 1010 403 809Q301 612 301 362Q301 80 504 80ZM991 1241Q837 1392 727 1548L733 1569H938Q1004 1407 1075 1268L1069 1241H991Z" />
<glyph unicode="&#xf3;" glyph-name="oacute" horiz-adv-x="1175" d="M698 1118Q878 1118 982 1010T1087 694Q1087 424 920 201Q754 -20 481 -20Q299 -20 193 92Q89 203 88 403Q88 682 256 899Q426 1118 698 1118ZM504 80Q672 80 774 281Q874 480 874 725Q874
1010 674 1010Q508 1010 403 809Q301 612 301 362Q301 80 504 80ZM629 1268Q750 1407 848 1569H1067L1061 1548Q904 1364 705 1241H623L629 1268Z" />
<glyph unicode="&#xf4;" glyph-name="ocircumflex" horiz-adv-x="1175" d="M698 1118Q878 1118 982 1010T1087 694Q1087 424 920 201Q754 -20 481 -20Q299 -20 193 92Q89 203 88 403Q88 682 256 899Q426 1118 698 1118ZM504 80Q672 80 774 281Q874 480 874 725Q874
1010 674 1010Q508 1010 403 809Q301 612 301 362Q301 80 504 80ZM399 1268Q586 1452 669 1569H864Q891 1454 1003 1268L997 1241H925Q829 1307 743 1425Q593 1300 481 1241H393L399 1268Z" />
<glyph unicode="&#xf5;" glyph-name="otilde" horiz-adv-x="1175" d="M698 1118Q878 1118 982 1010T1087 694Q1087 424 920 201Q754 -20 481 -20Q299 -20 193 92Q89 203 88 403Q88 682 256 899Q426 1118 698 1118ZM504 80Q672 80 774 281Q874 480 874 725Q874
1010 674 1010Q508 1010 403 809Q301 612 301 362Q301 80 504 80ZM1280 1483H1372Q1302 1241 1106 1241Q1026 1241 936 1307Q848 1370 811 1370Q723 1370 688 1262H596Q668 1504 864 1503Q948 1503 1032 1440Q1120 1374 1157 1374Q1245 1374 1280 1483Z" />
<glyph unicode="&#xf6;" glyph-name="odieresis" horiz-adv-x="1175" d="M698 1118Q878 1118 982 1010T1087 694Q1087 424 920 201Q754 -20 481 -20Q299 -20 193 92Q89 203 88 403Q88 682 256 899Q426 1118 698 1118ZM504 80Q672 80 774 281Q874 480 874 725Q874
1010 674 1010Q508 1010 403 809Q301 612 301 362Q301 80 504 80ZM518 1294Q416 1294 416 1397Q416 1526 526 1526Q628 1526 629 1423Q629 1294 518 1294ZM907 1294Q805 1294 805 1397Q805 1526 915 1526Q1017 1526 1018 1423Q1018 1294 907 1294Z" />
<glyph unicode="&#xf7;" glyph-name="divide" horiz-adv-x="1144" d="M485 1233T589 1233T694 1121T590 1008T485 1120ZM1028 672H150V793H1028V672ZM485 457T589 457T694 344T590 231T485 344Z" />
<glyph unicode="&#xf8;" glyph-name="oslash" horiz-adv-x="1181" d="M942 1044L1057 1180H1176L1010 977Q1088 868 1087 694Q1087 420 920 197Q754 -24 481 -25Q340 -25 238 47L131 -82H10L172 113Q88 226 88 403Q88 682 256 899Q426 1118 698 1118Q848 1118
942 1044ZM305 274L838 918Q789 1010 674 1010Q508 1010 403 809Q301 612 301 362Q301 303 305 274ZM868 809L338 168Q384 76 504 76Q672 76 772 276Q874 481 874 725Q874 770 868 809Z" />
<glyph unicode="&#xf9;" glyph-name="ugrave" horiz-adv-x="1226" d="M135 1098H516L381 485Q340 292 340 238Q340 113 440 113Q542 113 666 264Q789 414 825 588L932 1098H1130L989 440Q958 296 958 213Q958 109 1026 109Q1085 109 1157 154L1194 94Q1063 -21
934 -20Q856 -20 809 35Q762 92 762 174Q762 219 772 295H756Q647 115 557 47Q469 -19 360 -18Q141 -18 141 209Q141 275 178 434L258 793Q276 873 276 915Q276 1011 133 1012H117L135 1098ZM1005 1241Q851 1392 741 1548L747 1569H952Q1018 1407 1089 1268L1083
1241H1005Z" />
<glyph unicode="&#xfa;" glyph-name="uacute" horiz-adv-x="1226" d="M135 1098H516L381 485Q340 292 340 238Q340 113 440 113Q542 113 666 264Q789 414 825 588L932 1098H1130L989 440Q958 296 958 213Q958 109 1026 109Q1085 109 1157 154L1194 94Q1063 -21
934 -20Q856 -20 809 35Q762 92 762 174Q762 219 772 295H756Q647 115 557 47Q469 -19 360 -18Q141 -18 141 209Q141 275 178 434L258 793Q276 873 276 915Q276 1011 133 1012H117L135 1098ZM647 1268Q768 1407 866 1569H1085L1079 1548Q922 1364 723 1241H641L647
1268Z" />
<glyph unicode="&#xfb;" glyph-name="ucircumflex" horiz-adv-x="1226" d="M135 1098H516L381 485Q340 292 340 238Q340 113 440 113Q542 113 666 264Q789 414 825 588L932 1098H1130L989 440Q958 296 958 213Q958 109 1026 109Q1085 109 1157 154L1194 94Q1063
-21 934 -20Q856 -20 809 35Q762 92 762 174Q762 219 772 295H756Q647 115 557 47Q469 -19 360 -18Q141 -18 141 209Q141 275 178 434L258 793Q276 873 276 915Q276 1011 133 1012H117L135 1098ZM434 1268Q621 1452 704 1569H899Q926 1454 1038 1268L1032 1241H960Q864
1307 778 1425Q628 1300 516 1241H428L434 1268Z" />
<glyph unicode="&#xfc;" glyph-name="udieresis" horiz-adv-x="1226" d="M135 1098H516L381 485Q340 292 340 238Q340 113 440 113Q542 113 666 264Q789 414 825 588L932 1098H1130L989 440Q958 296 958 213Q958 109 1026 109Q1085 109 1157 154L1194 94Q1063
-21 934 -20Q856 -20 809 35Q762 92 762 174Q762 219 772 295H756Q647 115 557 47Q469 -19 360 -18Q141 -18 141 209Q141 275 178 434L258 793Q276 873 276 915Q276 1011 133 1012H117L135 1098ZM571 1294Q469 1294 469 1397Q469 1526 579 1526Q681 1526 682 1423Q682
1294 571 1294ZM960 1294Q858 1294 858 1397Q858 1526 968 1526Q1070 1526 1071 1423Q1071 1294 960 1294Z" />
<glyph unicode="&#xfd;" glyph-name="yacute" horiz-adv-x="1079" d="M164 903Q146 962 115 987T23 1012H2L18 1098H317L477 545Q551 287 563 174H569Q845 594 846 854Q846 965 745 965Q745 1037 784 1075Q825 1116 879 1116Q1018 1116 1018 944Q1018 698 741
250Q467 -194 299 -344Q133 -491 -139 -492Q-245 -492 -332 -455L-301 -352Q-227 -375 -141 -375Q152 -375 434 -2L164 903ZM535 1268Q656 1407 754 1569H973L967 1548Q810 1364 611 1241H529L535 1268Z" />
<glyph unicode="&#xfe;" glyph-name="thorn" horiz-adv-x="1150" d="M248 27Q238 -57 233 -72L203 -223Q189 -278 188 -317Q188 -405 332 -406H358L340 -492H-49L324 1266Q342 1352 342 1374Q342 1470 199 1470H182L201 1556H578L473 1065Q455 985 412 825H424Q571
1118 799 1118Q924 1118 993 1024T1063 748Q1063 474 891 227Q717 -21 451 -20Q332 -20 248 27ZM281 145Q344 71 444 72Q616 72 735 295T854 750Q854 865 819 926Q782 989 721 989Q615 989 506 838Q393 680 365 535L281 145Z" />
<glyph unicode="&#xff;" glyph-name="ydieresis" horiz-adv-x="1079" d="M164 903Q146 962 115 987T23 1012H2L18 1098H317L477 545Q551 287 563 174H569Q845 594 846 854Q846 965 745 965Q745 1037 784 1075Q825 1116 879 1116Q1018 1116 1018 944Q1018 698 741
250Q467 -194 299 -344Q133 -491 -139 -492Q-245 -492 -332 -455L-301 -352Q-227 -375 -141 -375Q152 -375 434 -2L164 903ZM670 1294Q568 1294 568 1397Q568 1526 678 1526Q780 1526 781 1423Q781 1294 670 1294ZM1059 1294Q957 1294 957 1397Q957 1526 1067 1526Q1169
1526 1170 1423Q1170 1294 1059 1294Z" />
<glyph unicode="&#x100;" glyph-name="Amacron" horiz-adv-x="1443" d="M408 489L285 274Q246 208 246 160Q246 86 360 86H408L391 0H-115L-98 86H-59Q-6 86 33 114T131 246L844 1462H1004L1198 195Q1206 132 1233 109T1319 86H1346L1329 0H772L788 86H836Q983
86 983 190Q983 223 979 260L946 489H408ZM881 950Q852 1159 848 1274Q801 1159 688 969L469 592H932L881 950ZM1230 1579H637L663 1700H1257L1230 1579Z" />
<glyph unicode="&#x101;" glyph-name="amacron" horiz-adv-x="1185" d="M748 309H735Q588 -21 352 -20Q229 -20 158 78Q88 174 88 354Q88 635 264 876T698 1118Q836 1118 938 1044L1028 1096H1094L954 440Q923 299 924 213Q924 109 991 109Q1048 109 1139 162L1176
102Q1029 -21 887 -20Q727 -20 727 150Q728 219 748 309ZM864 952Q819 1026 709 1026Q537 1026 416 803Q297 584 297 347T426 109Q528 109 639 260Q752 414 788 590L864 952ZM1024 1241H431L457 1362H1051L1024 1241Z" />
<glyph unicode="&#x102;" glyph-name="Abreve" horiz-adv-x="1443" d="M408 489L285 274Q246 208 246 160Q246 86 360 86H408L391 0H-115L-98 86H-59Q-6 86 33 114T131 246L844 1462H1004L1198 195Q1206 132 1233 109T1319 86H1346L1329 0H772L788 86H836Q983
86 983 190Q983 223 979 260L946 489H408ZM881 950Q852 1159 848 1274Q801 1159 688 969L469 592H932L881 950ZM677 1860H772Q786 1721 950 1721T1171 1860H1265Q1230 1725 1144 1653Q1055 1579 935 1579Q695 1579 677 1860Z" />
<glyph unicode="&#x103;" glyph-name="abreve" horiz-adv-x="1185" d="M748 309H735Q588 -21 352 -20Q229 -20 158 78Q88 174 88 354Q88 635 264 876T698 1118Q836 1118 938 1044L1028 1096H1094L954 440Q923 299 924 213Q924 109 991 109Q1048 109 1139 162L1176
102Q1029 -21 887 -20Q727 -20 727 150Q728 219 748 309ZM864 952Q819 1026 709 1026Q537 1026 416 803Q297 584 297 347T426 109Q528 109 639 260Q752 414 788 590L864 952ZM485 1522H580Q594 1383 758 1383T979 1522H1073Q1038 1387 952 1315Q863 1241 743 1241Q503
1241 485 1522Z" />
<glyph unicode="&#x104;" glyph-name="Aogonek" horiz-adv-x="1443" d="M408 489L285 274Q246 208 246 160Q246 86 360 86H408L391 0H-115L-98 86H-59Q-6 86 33 114T131 246L844 1462H1004L1198 195Q1206 132 1233 109T1319 86H1346L1329 0H772L788 86H836Q983
86 983 190Q983 223 979 260L946 489H408ZM881 950Q852 1159 848 1274Q801 1159 688 969L469 592H932L881 950ZM1256 0Q1147 -37 1080 -104T1012 -254Q1012 -303 1045 -336Q1074 -365 1129 -365Q1190 -365 1262 -348L1237 -459Q1163 -492 1074 -492Q834 -492 834
-283Q834 -181 914 -107T1139 0H1256Z" />
<glyph unicode="&#x105;" glyph-name="aogonek" horiz-adv-x="1185" d="M748 309H735Q588 -21 352 -20Q229 -20 158 78Q88 174 88 354Q88 635 264 876T698 1118Q836 1118 938 1044L1028 1096H1094L954 440Q923 299 924 213Q924 109 991 109Q1048 109 1139 162L1176
102Q1029 -21 887 -20Q727 -20 727 150Q728 219 748 309ZM864 952Q819 1026 709 1026Q537 1026 416 803Q297 584 297 347T426 109Q528 109 639 260Q752 414 788 590L864 952ZM981 0Q872 -37 805 -104T737 -254Q737 -303 770 -336Q799 -365 854 -365Q915 -365 987
-348L962 -459Q888 -492 799 -492Q559 -492 559 -283Q559 -181 639 -107T864 0H981Z" />
<glyph unicode="&#x106;" glyph-name="Cacute" horiz-adv-x="1282" d="M1073 299Q1100 281 1100 231Q1100 135 985 58T672 -20Q406 -20 256 123T106 528Q106 919 348 1200Q591 1483 950 1483Q1126 1483 1229 1421Q1329 1360 1329 1255Q1329 1181 1274 1139T1128
1096Q1128 1375 924 1374Q672 1374 500 1098Q330 826 330 496Q330 113 694 113Q932 113 1073 299ZM901 1606Q1022 1745 1120 1907H1339L1333 1886Q1176 1702 977 1579H895L901 1606Z" />
<glyph unicode="&#x107;" glyph-name="cacute" horiz-adv-x="995" d="M821 256Q841 244 842 205Q842 123 746 52T487 -20Q309 -20 199 92T88 403Q88 670 260 895Q432 1118 698 1118Q837 1118 917 1063T997 922Q997 861 948 819Q897 778 815 778Q815 887 772 954Q731
1020 657 1020Q514 1020 408 807T301 387Q301 108 526 109Q704 109 821 256ZM637 1268Q758 1407 856 1569H1075L1069 1548Q912 1364 713 1241H631L637 1268Z" />
<glyph unicode="&#x108;" glyph-name="Ccircumflex" horiz-adv-x="1282" d="M1073 299Q1100 281 1100 231Q1100 135 985 58T672 -20Q406 -20 256 123T106 528Q106 919 348 1200Q591 1483 950 1483Q1126 1483 1229 1421Q1329 1360 1329 1255Q1329 1181 1274 1139T1128
1096Q1128 1375 924 1374Q672 1374 500 1098Q330 826 330 496Q330 113 694 113Q932 113 1073 299ZM670 1606Q857 1790 940 1907H1135Q1162 1792 1274 1606L1268 1579H1196Q1100 1645 1014 1763Q864 1638 752 1579H664L670 1606Z" />
<glyph unicode="&#x109;" glyph-name="ccircumflex" horiz-adv-x="995" d="M821 256Q841 244 842 205Q842 123 746 52T487 -20Q309 -20 199 92T88 403Q88 670 260 895Q432 1118 698 1118Q837 1118 917 1063T997 922Q997 861 948 819Q897 778 815 778Q815 887 772
954Q731 1020 657 1020Q514 1020 408 807T301 387Q301 108 526 109Q704 109 821 256ZM432 1268Q619 1452 702 1569H897Q924 1454 1036 1268L1030 1241H958Q862 1307 776 1425Q626 1300 514 1241H426L432 1268Z" />
<glyph unicode="&#x10a;" glyph-name="Cdotaccent" horiz-adv-x="1282" d="M1073 299Q1100 281 1100 231Q1100 135 985 58T672 -20Q406 -20 256 123T106 528Q106 919 348 1200Q591 1483 950 1483Q1126 1483 1229 1421Q1329 1360 1329 1255Q1329 1181 1274 1139T1128
1096Q1128 1375 924 1374Q672 1374 500 1098Q330 826 330 496Q330 113 694 113Q932 113 1073 299ZM1030 1641Q915 1641 915 1753Q915 1819 948 1858T1038 1897Q1153 1897 1153 1784Q1153 1716 1118 1677Q1083 1641 1030 1641Z" />
<glyph unicode="&#x10b;" glyph-name="cdotaccent" horiz-adv-x="995" d="M821 256Q841 244 842 205Q842 123 746 52T487 -20Q309 -20 199 92T88 403Q88 670 260 895Q432 1118 698 1118Q837 1118 917 1063T997 922Q997 861 948 819Q897 778 815 778Q815 887 772
954Q731 1020 657 1020Q514 1020 408 807T301 387Q301 108 526 109Q704 109 821 256ZM762 1303Q647 1303 647 1415Q647 1481 680 1520T770 1559Q885 1559 885 1446Q885 1378 850 1339Q815 1303 762 1303Z" />
<glyph unicode="&#x10c;" glyph-name="Ccaron" horiz-adv-x="1282" d="M1073 299Q1100 281 1100 231Q1100 135 985 58T672 -20Q406 -20 256 123T106 528Q106 919 348 1200Q591 1483 950 1483Q1126 1483 1229 1421Q1329 1360 1329 1255Q1329 1181 1274 1139T1128
1096Q1128 1375 924 1374Q672 1374 500 1098Q330 826 330 496Q330 113 694 113Q932 113 1073 299ZM1361 1880Q1207 1729 1091 1579H897Q850 1726 757 1880L763 1907H837Q927 1837 1011 1720Q1136 1829 1282 1907H1368L1361 1880Z" />
<glyph unicode="&#x10d;" glyph-name="ccaron" horiz-adv-x="995" d="M821 256Q841 244 842 205Q842 123 746 52T487 -20Q309 -20 199 92T88 403Q88 670 260 895Q432 1118 698 1118Q837 1118 917 1063T997 922Q997 861 948 819Q897 778 815 778Q815 887 772 954Q731
1020 657 1020Q514 1020 408 807T301 387Q301 108 526 109Q704 109 821 256ZM1327 1542Q1173 1391 1057 1241H863Q816 1388 723 1542L729 1569H803Q893 1499 977 1382Q1102 1491 1248 1569H1334L1327 1542Z" />
<glyph unicode="&#x10e;" glyph-name="Dcaron" horiz-adv-x="1484" d="M-27 86H0Q170 86 201 233L414 1237Q422 1270 422 1294Q422 1376 274 1376H248L266 1462H840Q1119 1462 1270 1317T1421 905Q1421 510 1198 256Q973 0 602 0H-43L-27 86ZM557 104Q854 104
1026 331T1198 928Q1198 1360 809 1360H647L379 104H557ZM1216 1880Q1062 1729 946 1579H752Q705 1726 612 1880L618 1907H692Q782 1837 866 1720Q991 1829 1137 1907H1223L1216 1880Z" />
<glyph unicode="&#x10f;" glyph-name="dcaron" horiz-adv-x="1185" d="M748 309H735Q588 -21 352 -20Q229 -20 158 78Q88 174 88 354Q88 635 264 876T698 1118Q813 1118 899 1069Q911 1151 922 1184L942 1282Q956 1345 956 1374Q956 1470 813 1470H797L815 1556H1192L954
440Q923 299 924 213Q924 109 991 109Q1048 109 1139 162L1176 102Q1029 -21 887 -20Q727 -20 727 150Q728 219 748 309ZM864 952Q819 1026 709 1026Q537 1026 416 803Q297 584 297 347T426 109Q528 109 639 260Q752 414 788 590L864 952ZM1219 1255L1340 1556H1518L1514
1536Q1420 1384 1284 1229H1215L1219 1255Z" />
<glyph unicode="&#x110;" glyph-name="Dcroat" horiz-adv-x="1529" d="M-27 86H0Q170 86 201 233L303 715H104L127 815H324L414 1237Q422 1270 422 1294Q422 1376 274 1376H248L266 1462H881Q1160 1462 1311 1317T1462 905Q1462 510 1239 256Q1014 0 643 0H-43L-27
86ZM598 104Q895 104 1065 330Q1239 559 1239 928Q1239 1360 850 1360H647L530 815H918L895 715H508L379 104H598Z" />
<glyph unicode="&#x111;" glyph-name="" horiz-adv-x="1181" d="M723 190H713Q631 59 563 20Q491 -21 397 -20Q256 -20 172 86T88 373Q88 641 250 858Q414 1077 676 1077Q778 1077 868 1030Q872 1050 877 1067L885 1108Q893 1149 899 1176L907 1214H557L575 1311H928L932
1331Q938 1356 938 1374Q938 1470 793 1470H776L795 1556H1171L1118 1311H1305L1286 1214H1098L934 440Q903 293 903 213Q903 109 971 109Q1037 109 1118 162L1155 102Q1014 -21 879 -20Q733 -21 723 190ZM842 920Q783 986 686 985Q518 985 408 774Q297 561 297
352Q297 108 469 109Q570 109 641 195T739 416L842 920Z" />
<glyph unicode="&#x112;" glyph-name="Emacron" horiz-adv-x="1275" d="M379 102H774Q948 102 1006 270L1038 358H1145L1055 0H-43L-27 86H0Q106 86 145 123Q182 158 199 223L412 1229Q418 1257 418 1278Q418 1327 389 1351T274 1376H248L266 1462H1298L1233 1104H1126L1133
1167Q1137 1200 1137 1223Q1137 1360 991 1360H647L530 815H1024L1004 715H510L379 102ZM1132 1579H539L565 1700H1159L1132 1579Z" />
<glyph unicode="&#x113;" glyph-name="emacron" horiz-adv-x="1009" d="M821 256Q841 244 842 205Q842 123 746 52T487 -20Q309 -20 199 92T88 403Q88 670 260 895Q432 1118 698 1118Q827 1118 899 1057T971 883Q971 717 799 594T377 471H342Q317 471 305 473Q301
436 301 387Q301 108 526 109Q701 109 821 256ZM324 567H344Q528 567 643 655Q760 745 760 882T641 1020Q543 1020 457 895Q369 766 324 567ZM1005 1241H412L438 1362H1032L1005 1241Z" />
<glyph unicode="&#x114;" glyph-name="Ebreve" horiz-adv-x="1275" d="M379 102H774Q948 102 1006 270L1038 358H1145L1055 0H-43L-27 86H0Q106 86 145 123Q182 158 199 223L412 1229Q418 1257 418 1278Q418 1327 389 1351T274 1376H248L266 1462H1298L1233 1104H1126L1133
1167Q1137 1200 1137 1223Q1137 1360 991 1360H647L530 815H1024L1004 715H510L379 102ZM565 1860H660Q674 1721 838 1721T1059 1860H1153Q1118 1725 1032 1653Q943 1579 823 1579Q583 1579 565 1860Z" />
<glyph unicode="&#x115;" glyph-name="ebreve" horiz-adv-x="1009" d="M821 256Q841 244 842 205Q842 123 746 52T487 -20Q309 -20 199 92T88 403Q88 670 260 895Q432 1118 698 1118Q827 1118 899 1057T971 883Q971 717 799 594T377 471H342Q317 471 305 473Q301
436 301 387Q301 108 526 109Q701 109 821 256ZM324 567H344Q528 567 643 655Q760 745 760 882T641 1020Q543 1020 457 895Q369 766 324 567ZM434 1522H529Q543 1383 707 1383T928 1522H1022Q987 1387 901 1315Q812 1241 692 1241Q452 1241 434 1522Z" />
<glyph unicode="&#x116;" glyph-name="Edotaccent" horiz-adv-x="1275" d="M379 102H774Q948 102 1006 270L1038 358H1145L1055 0H-43L-27 86H0Q106 86 145 123Q182 158 199 223L412 1229Q418 1257 418 1278Q418 1327 389 1351T274 1376H248L266 1462H1298L1233
1104H1126L1133 1167Q1137 1200 1137 1223Q1137 1360 991 1360H647L530 815H1024L1004 715H510L379 102ZM842 1612Q727 1612 727 1724Q727 1790 760 1829T850 1868Q965 1868 965 1755Q965 1687 930 1648Q895 1612 842 1612Z" />
<glyph unicode="&#x117;" glyph-name="edotaccent" horiz-adv-x="1009" d="M821 256Q841 244 842 205Q842 123 746 52T487 -20Q309 -20 199 92T88 403Q88 670 260 895Q432 1118 698 1118Q827 1118 899 1057T971 883Q971 717 799 594T377 471H342Q317 471 305 473Q301
436 301 387Q301 108 526 109Q701 109 821 256ZM324 567H344Q528 567 643 655Q760 745 760 882T641 1020Q543 1020 457 895Q369 766 324 567ZM723 1303Q608 1303 608 1415Q608 1481 641 1520T731 1559Q846 1559 846 1446Q846 1378 811 1339Q776 1303 723 1303Z"
/>
<glyph unicode="&#x118;" glyph-name="Eogonek" horiz-adv-x="1275" d="M379 102H774Q948 102 1006 270L1038 358H1145L1055 0H-43L-27 86H0Q106 86 145 123Q182 158 199 223L412 1229Q418 1257 418 1278Q418 1327 389 1351T274 1376H248L266 1462H1298L1233 1104H1126L1133
1167Q1137 1200 1137 1223Q1137 1360 991 1360H647L530 815H1024L1004 715H510L379 102ZM952 0Q843 -37 776 -104T708 -254Q708 -303 741 -336Q770 -365 825 -365Q886 -365 958 -348L933 -459Q859 -492 770 -492Q530 -492 530 -283Q530 -181 610 -107T835 0H952Z"
/>
<glyph unicode="&#x119;" glyph-name="eogonek" horiz-adv-x="1009" d="M821 256Q841 244 842 205Q842 123 746 52T487 -20Q309 -20 199 92T88 403Q88 670 260 895Q432 1118 698 1118Q827 1118 899 1057T971 883Q971 717 799 594T377 471H342Q317 471 305 473Q301
436 301 387Q301 108 526 109Q701 109 821 256ZM324 567H344Q528 567 643 655Q760 745 760 882T641 1020Q543 1020 457 895Q369 766 324 567ZM969 31Q860 -6 793 -73T725 -223Q725 -272 758 -305Q787 -334 842 -334Q903 -334 975 -317L950 -428Q876 -461 787 -461Q547
-461 547 -252Q547 -150 627 -76T852 31H969Z" />
<glyph unicode="&#x11a;" glyph-name="Ecaron" horiz-adv-x="1275" d="M379 102H774Q948 102 1006 270L1038 358H1145L1055 0H-43L-27 86H0Q106 86 145 123Q182 158 199 223L412 1229Q418 1257 418 1278Q418 1327 389 1351T274 1376H248L266 1462H1298L1233 1104H1126L1133
1167Q1137 1200 1137 1223Q1137 1360 991 1360H647L530 815H1024L1004 715H510L379 102ZM1175 1880Q1021 1729 905 1579H711Q664 1726 571 1880L577 1907H651Q741 1837 825 1720Q950 1829 1096 1907H1182L1175 1880Z" />
<glyph unicode="&#x11b;" glyph-name="ecaron" horiz-adv-x="1009" d="M821 256Q841 244 842 205Q842 123 746 52T487 -20Q309 -20 199 92T88 403Q88 670 260 895Q432 1118 698 1118Q827 1118 899 1057T971 883Q971 717 799 594T377 471H342Q317 471 305 473Q301
436 301 387Q301 108 526 109Q701 109 821 256ZM324 567H344Q528 567 643 655Q760 745 760 882T641 1020Q543 1020 457 895Q369 766 324 567ZM1335 1542Q1181 1391 1065 1241H871Q824 1388 731 1542L737 1569H811Q901 1499 985 1382Q1110 1491 1256 1569H1342L1335
1542Z" />
<glyph unicode="&#x11c;" glyph-name="Gcircumflex" horiz-adv-x="1460" d="M1430 676L1411 590H1403Q1319 590 1282 553Q1243 514 1229 442L1151 74Q936 -20 688 -20Q405 -20 256 123T106 528Q106 934 356 1208T987 1483Q1192 1483 1305 1421Q1420 1360 1419
1262Q1419 1186 1358 1143T1202 1100Q1202 1232 1135 1303Q1067 1375 944 1374Q692 1374 510 1112Q330 852 330 496Q330 97 725 96Q836 96 956 125L1024 451Q1032 484 1032 508Q1032 590 885 590H866L885 676H1430ZM670 1606Q857 1790 940 1907H1135Q1162 1792
1274 1606L1268 1579H1196Q1100 1645 1014 1763Q864 1638 752 1579H664L670 1606Z" />
<glyph unicode="&#x11d;" glyph-name="gcircumflex" horiz-adv-x="1138" d="M901 1053Q999 1198 1122 1198Q1224 1198 1225 1104Q1225 977 1104 977Q1104 1051 1047 1051Q1010 1051 946 1004Q991 941 991 846Q991 676 862 530Q733 387 522 387Q481 387 457 391Q312
334 311 262Q311 210 416 201L612 180Q929 147 930 -88Q930 -278 787 -385T375 -492Q-71 -492 -72 -225Q-72 -114 18 -37Q106 39 262 70Q164 119 164 211Q164 272 205 317T358 420Q215 488 215 662Q215 834 346 977Q475 1118 690 1118Q819 1119 901 1053ZM545 485Q664
485 733 602Q805 721 805 856Q805 1024 664 1024Q544 1024 473 907Q403 792 403 653Q404 485 545 485ZM561 6L362 25Q344 25 274 4Q196 -19 147 -74Q94 -133 94 -213Q94 -391 383 -391Q561 -391 657 -324Q751 -256 752 -145Q751 -12 561 6ZM385 1268Q572 1452 655
1569H850Q877 1454 989 1268L983 1241H911Q815 1307 729 1425Q579 1300 467 1241H379L385 1268Z" />
<glyph unicode="&#x11e;" glyph-name="Gbreve" horiz-adv-x="1460" d="M1430 676L1411 590H1403Q1319 590 1282 553Q1243 514 1229 442L1151 74Q936 -20 688 -20Q405 -20 256 123T106 528Q106 934 356 1208T987 1483Q1192 1483 1305 1421Q1420 1360 1419 1262Q1419
1186 1358 1143T1202 1100Q1202 1232 1135 1303Q1067 1375 944 1374Q692 1374 510 1112Q330 852 330 496Q330 97 725 96Q836 96 956 125L1024 451Q1032 484 1032 508Q1032 590 885 590H866L885 676H1430ZM702 1860H797Q811 1721 975 1721T1196 1860H1290Q1255 1725
1169 1653Q1080 1579 960 1579Q720 1579 702 1860Z" />
<glyph unicode="&#x11f;" glyph-name="gbreve" horiz-adv-x="1138" d="M901 1053Q999 1198 1122 1198Q1224 1198 1225 1104Q1225 977 1104 977Q1104 1051 1047 1051Q1010 1051 946 1004Q991 941 991 846Q991 676 862 530Q733 387 522 387Q481 387 457 391Q312
334 311 262Q311 210 416 201L612 180Q929 147 930 -88Q930 -278 787 -385T375 -492Q-71 -492 -72 -225Q-72 -114 18 -37Q106 39 262 70Q164 119 164 211Q164 272 205 317T358 420Q215 488 215 662Q215 834 346 977Q475 1118 690 1118Q819 1119 901 1053ZM545 485Q664
485 733 602Q805 721 805 856Q805 1024 664 1024Q544 1024 473 907Q403 792 403 653Q404 485 545 485ZM561 6L362 25Q344 25 274 4Q196 -19 147 -74Q94 -133 94 -213Q94 -391 383 -391Q561 -391 657 -324Q751 -256 752 -145Q751 -12 561 6ZM450 1522H545Q559 1383
723 1383T944 1522H1038Q1003 1387 917 1315Q828 1241 708 1241Q468 1241 450 1522Z" />
<glyph unicode="&#x120;" glyph-name="Gdotaccent" horiz-adv-x="1460" d="M1430 676L1411 590H1403Q1319 590 1282 553Q1243 514 1229 442L1151 74Q936 -20 688 -20Q405 -20 256 123T106 528Q106 934 356 1208T987 1483Q1192 1483 1305 1421Q1420 1360 1419 1262Q1419
1186 1358 1143T1202 1100Q1202 1232 1135 1303Q1067 1375 944 1374Q692 1374 510 1112Q330 852 330 496Q330 97 725 96Q836 96 956 125L1024 451Q1032 484 1032 508Q1032 590 885 590H866L885 676H1430ZM1026 1641Q911 1641 911 1753Q911 1819 944 1858T1034 1897Q1149
1897 1149 1784Q1149 1716 1114 1677Q1079 1641 1026 1641Z" />
<glyph unicode="&#x121;" glyph-name="gdotaccent" horiz-adv-x="1138" d="M901 1053Q999 1198 1122 1198Q1224 1198 1225 1104Q1225 977 1104 977Q1104 1051 1047 1051Q1010 1051 946 1004Q991 941 991 846Q991 676 862 530Q733 387 522 387Q481 387 457 391Q312
334 311 262Q311 210 416 201L612 180Q929 147 930 -88Q930 -278 787 -385T375 -492Q-71 -492 -72 -225Q-72 -114 18 -37Q106 39 262 70Q164 119 164 211Q164 272 205 317T358 420Q215 488 215 662Q215 834 346 977Q475 1118 690 1118Q819 1119 901 1053ZM545 485Q664
485 733 602Q805 721 805 856Q805 1024 664 1024Q544 1024 473 907Q403 792 403 653Q404 485 545 485ZM561 6L362 25Q344 25 274 4Q196 -19 147 -74Q94 -133 94 -213Q94 -391 383 -391Q561 -391 657 -324Q751 -256 752 -145Q751 -12 561 6ZM748 1303Q633 1303 633
1415Q633 1481 666 1520T756 1559Q871 1559 871 1446Q871 1378 836 1339Q801 1303 748 1303Z" />
<glyph unicode="&#x122;" glyph-name="Gcommaaccent" horiz-adv-x="1460" d="M1430 676L1411 590H1403Q1319 590 1282 553Q1243 514 1229 442L1151 74Q936 -20 688 -20Q405 -20 256 123T106 528Q106 934 356 1208T987 1483Q1192 1483 1305 1421Q1420 1360 1419
1262Q1419 1186 1358 1143T1202 1100Q1202 1232 1135 1303Q1067 1375 944 1374Q692 1374 510 1112Q330 852 330 496Q330 97 725 96Q836 96 956 125L1024 451Q1032 484 1032 508Q1032 590 885 590H866L885 676H1430ZM477 -426L518 -330Q563 -224 598 -125H776L772
-145Q661 -315 543 -453H473L477 -426Z" />
<glyph unicode="&#x123;" glyph-name="gcommaaccent" horiz-adv-x="1138" d="M901 1053Q999 1198 1122 1198Q1224 1198 1225 1104Q1225 977 1104 977Q1104 1051 1047 1051Q1010 1051 946 1004Q991 941 991 846Q991 676 862 530Q733 387 522 387Q481 387 457 391Q312
334 311 262Q311 210 416 201L612 180Q929 147 930 -88Q930 -278 787 -385T375 -492Q-71 -492 -72 -225Q-72 -114 18 -37Q106 39 262 70Q164 119 164 211Q164 272 205 317T358 420Q215 488 215 662Q215 834 346 977Q475 1118 690 1118Q819 1119 901 1053ZM545 485Q664
485 733 602Q805 721 805 856Q805 1024 664 1024Q544 1024 473 907Q403 792 403 653Q404 485 545 485ZM561 6L362 25Q344 25 274 4Q196 -19 147 -74Q94 -133 94 -213Q94 -391 383 -391Q561 -391 657 -324Q751 -256 752 -145Q751 -12 561 6ZM923 1542L880 1446Q847
1368 802 1241H624L628 1262Q722 1414 858 1569H927L923 1542Z" />
<glyph unicode="&#x124;" glyph-name="Hcircumflex" horiz-adv-x="1622" d="M829 0L846 86H872Q970 86 1014 123Q1059 162 1073 233L1174 713H508L406 225Q398 186 397 168Q397 86 545 86H571L553 0H-43L-27 86H0Q98 86 141 123T201 233L414 1237Q422 1270 422
1294Q422 1376 274 1376H248L266 1462H862L844 1376H817Q719 1376 676 1339Q635 1304 618 1229L530 815H1196L1286 1237Q1294 1270 1294 1294Q1294 1376 1147 1376H1120L1139 1462H1735L1716 1376H1690Q1592 1376 1548 1339Q1507 1304 1491 1229L1278 225Q1270
192 1270 168Q1270 86 1417 86H1444L1425 0H829ZM739 1606Q926 1790 1009 1907H1204Q1231 1792 1343 1606L1337 1579H1265Q1169 1645 1083 1763Q933 1638 821 1579H733L739 1606Z" />
<glyph unicode="&#x125;" glyph-name="hcircumflex" horiz-adv-x="1226" d="M471 840Q639 1116 850 1116Q1069 1116 1069 889Q1069 823 1032 664L979 422Q952 303 952 207Q952 109 1024 109Q1083 109 1155 156L1192 96Q1057 -21 942 -20Q856 -20 807 35Q756 92
756 184Q756 280 795 461L842 674Q873 797 872 864Q872 985 778 985Q661 985 543 829Q422 669 391 524L281 0H90L356 1266Q374 1356 375 1374Q375 1470 231 1470H215L233 1556H610L530 1180Q489 996 449 840H471ZM514 1661Q701 1845 784 1962H979Q1006 1847 1118
1661L1112 1634H1040Q944 1700 858 1818Q708 1693 596 1634H508L514 1661Z" />
<glyph unicode="&#x126;" glyph-name="Hbar" horiz-adv-x="1622" d="M829 0L846 86H872Q968 86 1011 123T1073 233L1174 713H508L406 225Q398 186 397 168Q397 86 545 86H571L553 0H-43L-27 86H0Q98 86 141 123T201 233L367 1022H174L193 1122H389L414 1237Q422
1270 422 1294Q422 1376 274 1376H248L266 1462H862L844 1376H817Q719 1376 676 1339Q635 1304 618 1229L596 1122H1262L1286 1237Q1294 1270 1294 1294Q1294 1376 1147 1376H1120L1139 1462H1735L1716 1376H1690Q1592 1376 1548 1339Q1507 1304 1491 1229L1468
1122H1661L1642 1022H1446L1278 225Q1270 192 1270 168Q1270 86 1417 86H1444L1425 0H829ZM1196 815L1239 1022H573L530 815H1196Z" />
<glyph unicode="&#x127;" glyph-name="hbar" horiz-adv-x="1226" d="M463 799Q629 1075 842 1075Q1061 1075 1061 848Q1061 791 1036 678L1024 623L979 422Q952 307 952 207Q952 109 1024 109Q1083 109 1155 156L1192 96Q1057 -21 942 -20Q856 -20 807 35Q756
92 756 184Q756 280 795 461L834 633Q865 756 864 823Q864 944 770 944Q653 944 535 788Q414 628 383 483L281 0H90L344 1214H160L178 1311H365Q375 1362 375 1374Q375 1470 231 1470H215L233 1556H610L557 1311H907L889 1214H537L530 1180Q473 910 440 799H463Z"
/>
<glyph unicode="&#x128;" glyph-name="Itilde" horiz-adv-x="751" d="M862 1462L844 1376H817Q719 1376 676 1339Q635 1304 618 1229L406 225Q398 186 397 168Q397 86 545 86H571L553 0H-43L-27 86H0Q170 86 201 233L414 1237Q422 1270 422 1294Q422 1376 274
1376H248L266 1462H862ZM905 1821H997Q927 1579 731 1579Q651 1579 561 1645Q473 1708 436 1708Q348 1708 313 1600H221Q293 1842 489 1841Q573 1841 657 1778Q745 1712 782 1712Q870 1712 905 1821Z" />
<glyph unicode="&#x129;" glyph-name="itilde" horiz-adv-x="622" d="M127 1012L145 1098H512L373 440Q342 293 342 213Q342 109 410 109Q467 109 557 162L594 102Q453 -21 317 -20Q240 -20 195 35Q148 92 147 174Q147 270 193 496L272 872Q278 905 279 926Q279
1012 154 1012H127ZM719 1483H811Q741 1241 545 1241Q465 1241 375 1307Q287 1370 250 1370Q162 1370 127 1262H35Q107 1504 303 1503Q387 1503 471 1440Q559 1374 596 1374Q684 1374 719 1483Z" />
<glyph unicode="&#x12a;" glyph-name="Imacron" horiz-adv-x="751" d="M862 1462L844 1376H817Q719 1376 676 1339Q635 1304 618 1229L406 225Q398 186 397 168Q397 86 545 86H571L553 0H-43L-27 86H0Q170 86 201 233L414 1237Q422 1270 422 1294Q422 1376 274
1376H248L266 1462H862ZM878 1579H285L311 1700H905L878 1579Z" />
<glyph unicode="&#x12b;" glyph-name="imacron" horiz-adv-x="622" d="M127 1012L145 1098H512L373 440Q342 293 342 213Q342 109 410 109Q467 109 557 162L594 102Q453 -21 317 -20Q240 -20 195 35Q148 92 147 174Q147 270 193 496L272 872Q278 905 279 926Q279
1012 154 1012H127ZM706 1241H113L139 1362H733L706 1241Z" />
<glyph unicode="&#x12c;" glyph-name="Ibreve" horiz-adv-x="751" d="M862 1462L844 1376H817Q719 1376 676 1339Q635 1304 618 1229L406 225Q398 186 397 168Q397 86 545 86H571L553 0H-43L-27 86H0Q170 86 201 233L414 1237Q422 1270 422 1294Q422 1376 274
1376H248L266 1462H862ZM319 1860H414Q428 1721 592 1721T813 1860H907Q872 1725 786 1653Q697 1579 577 1579Q337 1579 319 1860Z" />
<glyph unicode="&#x12d;" glyph-name="ibreve" horiz-adv-x="622" d="M127 1012L145 1098H512L373 440Q342 293 342 213Q342 109 410 109Q467 109 557 162L594 102Q453 -21 317 -20Q240 -20 195 35Q148 92 147 174Q147 270 193 496L272 872Q278 905 279 926Q279
1012 154 1012H127ZM147 1522H242Q256 1383 420 1383T641 1522H735Q700 1387 614 1315Q525 1241 405 1241Q165 1241 147 1522Z" />
<glyph unicode="&#x12e;" glyph-name="Iogonek" horiz-adv-x="751" d="M862 1462L844 1376H817Q719 1376 676 1339Q635 1304 618 1229L406 225Q398 186 397 168Q397 86 545 86H571L553 0H-43L-27 86H0Q170 86 201 233L414 1237Q422 1270 422 1294Q422 1376 274
1376H248L266 1462H862ZM469 0Q360 -37 293 -104T225 -254Q225 -303 258 -336Q287 -365 342 -365Q403 -365 475 -348L450 -459Q376 -492 287 -492Q47 -492 47 -283Q47 -181 127 -107T352 0H469Z" />
<glyph unicode="&#x12f;" glyph-name="iogonek" horiz-adv-x="622" d="M459 1303Q344 1303 344 1415Q344 1481 377 1520T467 1559Q582 1559 582 1446Q582 1378 547 1339Q512 1303 459 1303ZM127 1012L145 1098H512L373 440Q342 293 342 213Q342 109 410 109Q467
109 557 162L594 102Q453 -21 317 -20Q240 -20 195 35Q148 92 147 174Q147 270 193 496L272 872Q278 905 279 926Q279 1012 154 1012H127ZM422 0Q313 -37 246 -104T178 -254Q178 -303 211 -336Q240 -365 295 -365Q356 -365 428 -348L403 -459Q329 -492 240 -492Q0
-492 0 -283Q0 -181 80 -107T305 0H422Z" />
<glyph unicode="&#x130;" glyph-name="Idot" horiz-adv-x="751" d="M862 1462L844 1376H817Q719 1376 676 1339Q635 1304 618 1229L406 225Q398 186 397 168Q397 86 545 86H571L553 0H-43L-27 86H0Q170 86 201 233L414 1237Q422 1270 422 1294Q422 1376 274 1376H248L266
1462H862ZM619 1641Q504 1641 504 1753Q504 1819 537 1858T627 1897Q742 1897 742 1784Q742 1716 707 1677Q672 1641 619 1641Z" />
<glyph unicode="&#x131;" glyph-name="dotlessi" horiz-adv-x="622" d="M127 1012L145 1098H512L373 440Q342 293 342 213Q342 109 410 109Q467 109 557 162L594 102Q453 -21 317 -20Q240 -20 195 35Q148 92 147 174Q147 270 193 496L272 872Q278 905 279 926Q279
1012 154 1012H127Z" />
<glyph unicode="&#x132;" glyph-name="IJ" horiz-adv-x="1423" d="M862 1462L844 1376H817Q719 1376 676 1339Q635 1304 618 1229L406 225Q398 186 397 168Q397 86 545 86H571L553 0H-43L-27 86H0Q170 86 201 233L414 1237Q422 1270 422 1294Q422 1376 274 1376H248L266
1462H862ZM1546 1462L1528 1376H1501Q1403 1376 1360 1339Q1319 1304 1302 1229L1036 -16Q981 -264 864 -379Q749 -492 544 -492Q456 -492 377 -469L405 -377Q456 -395 538 -395Q657 -395 723 -305Q791 -213 831 -18L1097 1237Q1105 1276 1106 1294Q1106 1376 958
1376H932L950 1462H1546Z" />
<glyph unicode="&#x133;" glyph-name="ij" d="M459 1303Q344 1303 344 1415Q344 1481 377 1520T467 1559Q582 1559 582 1446Q582 1378 547 1339Q512 1303 459 1303ZM127 1012L145 1098H512L373 440Q342 293 342 213Q342 109 410 109Q467 109 557 162L594 102Q453
-21 317 -20Q240 -20 195 35Q148 92 147 174Q147 270 193 496L272 872Q278 905 279 926Q279 1012 154 1012H127ZM1084 1303Q969 1303 969 1415Q969 1481 1002 1520T1092 1559Q1207 1559 1207 1446Q1207 1378 1172 1339Q1139 1303 1084 1303ZM336 -475L355 -381Q404
-395 449 -395Q553 -395 611 -303Q670 -211 709 -16L897 872Q903 905 904 926Q904 1012 779 1012H752L770 1098H1137L902 -16Q849 -262 746 -377T455 -492Q391 -491 336 -475Z" />
<glyph unicode="&#x134;" glyph-name="Jcircumflex" horiz-adv-x="729" d="M852 1462L834 1376H807Q709 1376 666 1339Q625 1304 608 1229L342 -16Q287 -264 170 -379Q55 -492 -150 -492Q-238 -492 -317 -469L-289 -377Q-238 -395 -156 -395Q-37 -395 29 -305Q97
-213 137 -18L403 1237Q411 1276 412 1294Q412 1376 264 1376H238L256 1462H852ZM272 1606Q459 1790 542 1907H737Q764 1792 876 1606L870 1579H798Q702 1645 616 1763Q466 1638 354 1579H266L272 1606Z" />
<glyph unicode="&#x135;" glyph-name="jcircumflex" horiz-adv-x="595" d="M-287 -475L-268 -381Q-219 -395 -174 -395Q-70 -395 -12 -303Q47 -211 86 -16L274 872Q280 905 281 926Q281 1012 156 1012H129L147 1098H514L279 -16Q226 -262 123 -377T-168 -492Q-232
-491 -287 -475ZM76 1268Q263 1452 346 1569H541Q568 1454 680 1268L674 1241H602Q506 1307 420 1425Q270 1300 158 1241H70L76 1268Z" />
<glyph unicode="&#x136;" glyph-name="Kcommaaccent" horiz-adv-x="1433" d="M-27 86H0Q98 86 141 123T201 233L414 1237Q422 1270 422 1294Q422 1376 274 1376H248L266 1462H862L844 1376H817Q719 1376 676 1339Q635 1304 618 1229L530 815L494 664L1022 1149Q1176
1290 1176 1333Q1176 1378 1085 1378L1102 1462H1554L1538 1378Q1481 1378 1420 1344T1223 1186L850 848L1098 250Q1166 86 1292 86H1298L1280 0H1251Q1087 0 1010 33T883 190L684 696L473 549L406 225Q398 186 397 168Q397 86 545 86H571L553 0H-43L-27 86ZM491
-426L532 -330Q577 -224 612 -125H790L786 -145Q675 -315 557 -453H487L491 -426Z" />
<glyph unicode="&#x137;" glyph-name="kcommaaccent" horiz-adv-x="1163" d="M694 786Q846 919 846 979Q846 1010 754 1010L772 1096H1225L1206 1010Q1085 1010 877 819L692 649L879 244Q959 72 1087 72L1069 -14Q897 -14 819 25Q739 65 684 197L551 524L365 406L281
0H90L356 1266Q374 1356 375 1374Q375 1470 231 1470H215L233 1556H610L530 1180Q419 660 371 506L694 786ZM614 -426L655 -330Q700 -224 735 -125H913L909 -145Q798 -315 680 -453H610L614 -426Z" />
<glyph unicode="&#x138;" glyph-name="kgreenlandic" horiz-adv-x="1163" d="M694 786Q846 919 846 979Q846 1010 754 1010L772 1096H1225L1206 1010Q1085 1010 877 819L692 649L879 244Q959 72 1087 72L1069 -14Q893 -14 813 29T684 197L551 524L365 406L281
0H90L260 807Q278 897 279 915Q279 1011 135 1012H119L137 1098H514L459 844Q416 651 371 506L694 786Z" />
<glyph unicode="&#x139;" glyph-name="Lacute" horiz-adv-x="1275" d="M-23 86H4Q98 86 141 123Q180 156 201 233L414 1237Q422 1270 422 1294Q422 1376 274 1376H248L266 1462H862L844 1376H817Q723 1376 678 1341Q637 1308 621 1237L379 102H782Q940 102 1001
287L1055 440H1161L1055 0H-41L-23 86ZM584 1606Q705 1745 803 1907H1022L1016 1886Q859 1702 660 1579H578L584 1606Z" />
<glyph unicode="&#x13a;" glyph-name="lacute" horiz-adv-x="622" d="M207 1470L225 1556H612L375 440Q344 293 344 213Q344 109 412 109Q469 109 559 162L596 102Q455 -21 319 -20Q241 -20 197 35Q150 92 150 174Q150 276 195 496L362 1282Q374 1343 375 1374Q375
1470 231 1470H207ZM475 1663Q596 1802 694 1964H913L907 1943Q750 1759 551 1636H469L475 1663Z" />
<glyph unicode="&#x13b;" glyph-name="Lcommaaccent" horiz-adv-x="1275" d="M-23 86H4Q98 86 141 123Q180 156 201 233L414 1237Q422 1270 422 1294Q422 1376 274 1376H248L266 1462H862L844 1376H817Q723 1376 678 1341Q637 1308 621 1237L379 102H782Q940 102
1001 287L1055 440H1161L1055 0H-41L-23 86ZM380 -426L421 -330Q466 -224 501 -125H679L675 -145Q564 -315 446 -453H376L380 -426Z" />
<glyph unicode="&#x13c;" glyph-name="lcommaaccent" horiz-adv-x="622" d="M207 1470L225 1556H612L375 440Q344 293 344 213Q344 109 412 109Q469 109 559 162L596 102Q455 -21 319 -20Q241 -20 197 35Q150 92 150 174Q150 276 195 496L362 1282Q374 1343 375
1374Q375 1470 231 1470H207ZM145 -426L186 -330Q231 -224 266 -125H444L440 -145Q329 -315 211 -453H141L145 -426Z" />
<glyph unicode="&#x13d;" glyph-name="Lcaron" horiz-adv-x="1275" d="M-23 86H4Q98 86 141 123Q180 156 201 233L414 1237Q422 1270 422 1294Q422 1376 274 1376H248L266 1462H862L844 1376H817Q723 1376 678 1341Q637 1308 621 1237L379 102H782Q940 102 1001
287L1055 440H1161L1055 0H-41L-23 86ZM918 1163L1039 1464H1217L1213 1444Q1119 1292 983 1137H914L918 1163Z" />
<glyph unicode="&#x13e;" glyph-name="lcaron" horiz-adv-x="622" d="M207 1470L225 1556H612L375 440Q344 293 344 213Q344 109 412 109Q469 109 559 162L596 102Q455 -21 319 -20Q241 -20 197 35Q150 92 150 174Q150 276 195 496L362 1282Q374 1343 375 1374Q375
1470 231 1470H207ZM662 1255L783 1556H961L957 1536Q863 1384 727 1229H658L662 1255Z" />
<glyph unicode="&#x13f;" glyph-name="Ldot" horiz-adv-x="1275" d="M-23 86H4Q98 86 141 123Q180 156 201 233L414 1237Q422 1270 422 1294Q422 1376 274 1376H248L266 1462H862L844 1376H817Q723 1376 678 1341Q637 1308 621 1237L379 102H782Q940 102 1001
287L1055 440H1161L1055 0H-41L-23 86ZM901 660Q786 660 786 772Q786 838 819 877T909 916Q1024 916 1024 803Q1024 735 989 696Q954 660 901 660Z" />
<glyph unicode="&#x140;" glyph-name="ldot" horiz-adv-x="808" d="M207 1470L225 1556H612L375 440Q344 293 344 213Q344 109 412 109Q469 109 559 162L596 102Q455 -21 319 -20Q241 -20 197 35Q150 92 150 174Q150 276 195 496L362 1282Q374 1343 375 1374Q375
1470 231 1470H207ZM733 590Q618 590 618 702Q618 768 651 807T741 846Q856 846 856 733Q856 665 821 626Q786 590 733 590Z" />
<glyph unicode="&#x141;" glyph-name="Lslash" horiz-adv-x="1275" d="M-23 86H4Q98 86 141 123Q180 156 201 233L274 582L53 469L78 584L299 696L414 1237Q422 1270 422 1294Q422 1376 274 1376H248L266 1462H862L844 1376H817Q717 1376 678 1339Q635 1300 621
1237L530 815L887 1001L862 883L506 698L379 102H782Q940 102 1001 287L1055 440H1161L1055 0H-41L-23 86Z" />
<glyph unicode="&#x142;" glyph-name="lslash" horiz-adv-x="663" d="M209 565L16 469L41 584L233 684L373 1331Q379 1356 379 1376Q379 1470 233 1470H207L225 1556H612L449 793L668 905L643 786L424 676L375 440Q344 289 344 213Q344 109 412 109Q469 109 559
162L596 102Q455 -21 319 -20Q241 -20 197 35Q150 92 150 174Q150 276 195 496L209 565Z" />
<glyph unicode="&#x143;" glyph-name="Nacute" horiz-adv-x="1562" d="M1327 1237Q1335 1270 1335 1294Q1335 1376 1188 1376H1161L1180 1462H1694L1675 1376H1649Q1553 1376 1510 1340T1450 1229L1190 0H1057L530 1200L324 225Q316 186 315 168Q315 86 463 86H489L471
0H-41L-23 86H4Q98 86 141 123Q180 156 201 233L414 1237Q422 1270 422 1294Q422 1376 274 1376H248L266 1462H639L1135 332L1327 1237ZM940 1606Q1061 1745 1159 1907H1378L1372 1886Q1215 1702 1016 1579H934L940 1606Z" />
<glyph unicode="&#x144;" glyph-name="nacute" horiz-adv-x="1226" d="M281 0H90L262 823Q274 881 274 915Q274 1011 131 1012H115L133 1098H512L457 840H477Q643 1116 850 1116Q1069 1116 1069 889Q1069 823 1032 664L979 422Q952 303 952 207Q952 109 1024 109Q1083
109 1155 156L1192 96Q1057 -21 942 -20Q856 -20 807 35Q756 92 756 184Q756 280 795 461L842 674Q873 797 872 864Q872 985 778 985Q664 985 545 832T391 524L281 0ZM686 1268Q807 1407 905 1569H1124L1118 1548Q961 1364 762 1241H680L686 1268Z" />
<glyph unicode="&#x145;" glyph-name="Ncommaaccent" horiz-adv-x="1562" d="M1327 1237Q1335 1270 1335 1294Q1335 1376 1188 1376H1161L1180 1462H1694L1675 1376H1649Q1553 1376 1510 1340T1450 1229L1190 0H1057L530 1200L324 225Q316 186 315 168Q315 86
463 86H489L471 0H-41L-23 86H4Q98 86 141 123Q180 156 201 233L414 1237Q422 1270 422 1294Q422 1376 274 1376H248L266 1462H639L1135 332L1327 1237ZM491 -426L532 -330Q577 -224 612 -125H790L786 -145Q675 -315 557 -453H487L491 -426Z" />
<glyph unicode="&#x146;" glyph-name="ncommaaccent" horiz-adv-x="1226" d="M281 0H90L262 823Q274 881 274 915Q274 1011 131 1012H115L133 1098H512L457 840H477Q643 1116 850 1116Q1069 1116 1069 889Q1069 823 1032 664L979 422Q952 303 952 207Q952 109
1024 109Q1083 109 1155 156L1192 96Q1057 -21 942 -20Q856 -20 807 35Q756 92 756 184Q756 280 795 461L842 674Q873 797 872 864Q872 985 778 985Q664 985 545 832T391 524L281 0ZM612 -426L653 -330Q698 -224 733 -125H911L907 -145Q796 -315 678 -453H608L612
-426Z" />
<glyph unicode="&#x147;" glyph-name="Ncaron" horiz-adv-x="1562" d="M1327 1237Q1335 1270 1335 1294Q1335 1376 1188 1376H1161L1180 1462H1694L1675 1376H1649Q1553 1376 1510 1340T1450 1229L1190 0H1057L530 1200L324 225Q316 186 315 168Q315 86 463 86H489L471
0H-41L-23 86H4Q98 86 141 123Q180 156 201 233L414 1237Q422 1270 422 1294Q422 1376 274 1376H248L266 1462H639L1135 332L1327 1237ZM1372 1880Q1218 1729 1102 1579H908Q861 1726 768 1880L774 1907H848Q938 1837 1022 1720Q1147 1829 1293 1907H1379L1372
1880Z" />
<glyph unicode="&#x148;" glyph-name="ncaron" horiz-adv-x="1226" d="M281 0H90L262 823Q274 881 274 915Q274 1011 131 1012H115L133 1098H512L457 840H477Q643 1116 850 1116Q1069 1116 1069 889Q1069 823 1032 664L979 422Q952 303 952 207Q952 109 1024 109Q1083
109 1155 156L1192 96Q1057 -21 942 -20Q856 -20 807 35Q756 92 756 184Q756 280 795 461L842 674Q873 797 872 864Q872 985 778 985Q664 985 545 832T391 524L281 0ZM1339 1542Q1185 1391 1069 1241H875Q828 1388 735 1542L741 1569H815Q905 1499 989 1382Q1114
1491 1260 1569H1346L1339 1542Z" />
<glyph unicode="&#x149;" glyph-name="napostrophe" horiz-adv-x="1501" d="M557 0H366L538 823Q550 881 550 915Q550 1011 407 1012H391L409 1098H788L733 840H753Q919 1116 1126 1116Q1345 1116 1345 889Q1345 823 1308 664L1255 422Q1228 303 1228 207Q1228
109 1300 109Q1359 109 1431 156L1468 96Q1333 -21 1218 -20Q1132 -20 1083 35Q1032 92 1032 184Q1032 280 1071 461L1118 674Q1149 797 1148 864Q1148 985 1054 985Q940 985 821 832T667 524L557 0ZM14 901L22 987Q231 1033 231 1159Q231 1194 165 1237Q97 1280
98 1341Q98 1394 133 1430Q166 1463 225 1462Q293 1462 340 1415Q385 1370 385 1294Q385 1147 288 1040Q196 938 14 901Z" />
<glyph unicode="&#x14a;" glyph-name="Eng" horiz-adv-x="1622" d="M1389 1237Q1397 1270 1397 1294Q1397 1376 1249 1376H1223L1241 1462H1755L1737 1376H1710Q1612 1376 1569 1339Q1528 1304 1511 1229L1247 -16Q1192 -272 1083 -381Q972 -492 784 -492Q706
-492 639 -469L664 -377Q717 -395 776 -395Q899 -395 991 -297Q1085 -197 1124 -12L530 1200L324 225Q316 186 315 168Q315 86 463 86H489L471 0H-41L-23 86H4Q98 86 141 123Q180 156 201 233L414 1237Q422 1270 422 1294Q422 1376 274 1376H248L266 1462H627L1192
309L1389 1237Z" />
<glyph unicode="&#x14b;" glyph-name="eng" horiz-adv-x="1150" d="M322 -475L340 -381Q389 -395 434 -395Q536 -395 595 -303T694 -16L829 614Q872 815 872 864Q872 985 778 985Q664 985 545 832T391 524L281 0H90L262 823Q274 881 274 915Q274 1011 131 1012H115L133
1098H512L457 840H477Q647 1116 850 1116Q1069 1116 1069 889Q1069 817 1032 657L887 -16Q832 -268 729 -379Q625 -492 440 -492Q377 -491 322 -475Z" />
<glyph unicode="&#x14c;" glyph-name="Omacron" horiz-adv-x="1519" d="M926 1485Q1164 1485 1311 1337Q1456 1192 1456 922Q1456 574 1229 274Q1002 -23 643 -23Q401 -23 254 131T106 545Q106 899 336 1192T926 1485ZM655 90Q911 90 1071 372T1231 977Q1231 1170
1147 1272T909 1374Q655 1374 492 1090Q330 809 330 487Q330 297 418 193Q503 90 655 90ZM1249 1579H656L682 1700H1276L1249 1579Z" />
<glyph unicode="&#x14d;" glyph-name="omacron" horiz-adv-x="1175" d="M698 1118Q878 1118 982 1010T1087 694Q1087 424 920 201Q754 -20 481 -20Q299 -20 193 92Q89 203 88 403Q88 682 256 899Q426 1118 698 1118ZM504 80Q672 80 774 281Q874 480 874 725Q874
1010 674 1010Q508 1010 403 809Q301 612 301 362Q301 80 504 80ZM1021 1241H428L454 1362H1048L1021 1241Z" />
<glyph unicode="&#x14e;" glyph-name="Obreve" horiz-adv-x="1519" d="M926 1485Q1164 1485 1311 1337Q1456 1192 1456 922Q1456 574 1229 274Q1002 -23 643 -23Q401 -23 254 131T106 545Q106 899 336 1192T926 1485ZM655 90Q911 90 1071 372T1231 977Q1231 1170
1147 1272T909 1374Q655 1374 492 1090Q330 809 330 487Q330 297 418 193Q503 90 655 90ZM698 1860H793Q807 1721 971 1721T1192 1860H1286Q1251 1725 1165 1653Q1076 1579 956 1579Q716 1579 698 1860Z" />
<glyph unicode="&#x14f;" glyph-name="obreve" horiz-adv-x="1175" d="M698 1118Q878 1118 982 1010T1087 694Q1087 424 920 201Q754 -20 481 -20Q299 -20 193 92Q89 203 88 403Q88 682 256 899Q426 1118 698 1118ZM504 80Q672 80 774 281Q874 480 874 725Q874
1010 674 1010Q508 1010 403 809Q301 612 301 362Q301 80 504 80ZM469 1522H564Q578 1383 742 1383T963 1522H1057Q1022 1387 936 1315Q847 1241 727 1241Q487 1241 469 1522Z" />
<glyph unicode="&#x150;" glyph-name="Ohungarumlaut" horiz-adv-x="1519" d="M926 1485Q1164 1485 1311 1337Q1456 1192 1456 922Q1456 574 1229 274Q1002 -23 643 -23Q401 -23 254 131T106 545Q106 899 336 1192T926 1485ZM655 90Q911 90 1071 372T1231 977Q1231
1170 1147 1272T909 1374Q655 1374 492 1090Q330 809 330 487Q330 297 418 193Q503 90 655 90ZM709 1579L715 1606Q830 1743 934 1907H1153L1147 1886Q1002 1722 799 1579H709ZM1077 1579L1083 1606Q1183 1719 1302 1907H1522L1515 1886Q1511 1874 1395 1765Q1272
1652 1167 1579H1077Z" />
<glyph unicode="&#x151;" glyph-name="ohungarumlaut" horiz-adv-x="1175" d="M698 1118Q878 1118 982 1010T1087 694Q1087 424 920 201Q754 -20 481 -20Q299 -20 193 92Q89 203 88 403Q88 682 256 899Q426 1118 698 1118ZM504 80Q672 80 774 281Q874 480 874
725Q874 1010 674 1010Q508 1010 403 809Q301 612 301 362Q301 80 504 80ZM426 1241L432 1268Q547 1405 651 1569H870L864 1548Q719 1384 516 1241H426ZM794 1241L800 1268Q900 1381 1019 1569H1239L1232 1548Q1228 1536 1112 1427Q989 1314 884 1241H794Z" />
<glyph unicode="&#x152;" glyph-name="OE" horiz-adv-x="1968" d="M1073 102H1468Q1642 102 1700 270L1733 358H1839L1749 0H868L799 -12Q733 -22 643 -23Q401 -23 254 131T106 545Q106 899 335 1192T926 1485Q1024 1485 1143 1462H1993L1927 1104H1821Q1831 1182
1831 1223Q1831 1356 1686 1360H1341L1225 815H1718L1698 715H1204L1073 102ZM872 125L1128 1333Q1011 1374 909 1374Q655 1374 492 1090Q330 809 330 487Q330 297 418 193Q504 91 655 90Q786 90 872 125Z" />
<glyph unicode="&#x153;" glyph-name="oe" horiz-adv-x="1765" d="M1579 256Q1599 242 1599 205Q1599 123 1503 52T1245 -20Q1005 -20 901 166Q733 -33 481 -33Q297 -33 193 84T88 403Q88 679 256 903Q426 1128 698 1128Q946 1128 1042 924Q1214 1119 1456 1118Q1585
1118 1657 1057T1729 883Q1729 791 1667 702Q1604 610 1497 557Q1380 498 1303 487Q1203 473 1063 473Q1057 427 1057 387Q1057 108 1284 109Q1459 109 1579 256ZM504 68Q672 68 772 272Q874 481 874 725Q874 1020 674 1020Q508 1020 403 815Q301 612 301 362Q301
68 504 68ZM1081 567H1102Q1286 567 1401 655Q1518 744 1518 883Q1518 1020 1399 1020Q1299 1020 1212 893Q1128 770 1081 567Z" />
<glyph unicode="&#x154;" glyph-name="Racute" horiz-adv-x="1323" d="M461 645L371 225Q363 186 362 168Q362 86 510 86H578L559 0H-76L-57 86H-31Q70 86 111 123Q148 158 164 223L379 1237Q387 1270 387 1294Q387 1376 240 1376H213L231 1462H768Q1237 1462
1237 1114Q1237 776 858 686L1006 248Q1043 142 1079 115Q1118 86 1174 86H1190L1174 0H1147Q973 0 897 47Q825 92 782 240L664 645H461ZM481 741H639Q823 741 921 833T1020 1102Q1020 1239 961 1300Q900 1363 752 1364H612L481 741ZM729 1606Q850 1745 948 1907H1167L1161
1886Q1004 1702 805 1579H723L729 1606Z" />
<glyph unicode="&#x155;" glyph-name="racute" horiz-adv-x="956" d="M799 821Q799 983 717 983Q623 983 516 797Q412 615 358 373L281 0H90L262 823Q274 881 274 915Q274 1011 111 1012H94L113 1098H475L432 803H453Q537 989 614 1053Q696 1119 801 1118Q969
1118 969 977Q969 821 799 821ZM541 1268Q662 1407 760 1569H979L973 1548Q816 1364 617 1241H535L541 1268Z" />
<glyph unicode="&#x156;" glyph-name="Rcommaaccent" horiz-adv-x="1323" d="M461 645L371 225Q363 186 362 168Q362 86 510 86H578L559 0H-76L-57 86H-31Q70 86 111 123Q148 158 164 223L379 1237Q387 1270 387 1294Q387 1376 240 1376H213L231 1462H768Q1237
1462 1237 1114Q1237 776 858 686L1006 248Q1043 142 1079 115Q1118 86 1174 86H1190L1174 0H1147Q973 0 897 47Q825 92 782 240L664 645H461ZM481 741H639Q823 741 921 833T1020 1102Q1020 1239 961 1300Q900 1363 752 1364H612L481 741ZM442 -426L483 -330Q528
-224 563 -125H741L737 -145Q626 -315 508 -453H438L442 -426Z" />
<glyph unicode="&#x157;" glyph-name="rcommaaccent" horiz-adv-x="956" d="M799 821Q799 983 717 983Q623 983 516 797Q412 615 358 373L281 0H90L262 823Q274 881 274 915Q274 1011 111 1012H94L113 1098H475L432 803H453Q537 989 614 1053Q696 1119 801 1118Q969
1118 969 977Q969 821 799 821ZM-19 -426L22 -330Q67 -224 102 -125H280L276 -145Q165 -315 47 -453H-23L-19 -426Z" />
<glyph unicode="&#x158;" glyph-name="Rcaron" horiz-adv-x="1323" d="M461 645L371 225Q363 186 362 168Q362 86 510 86H578L559 0H-76L-57 86H-31Q70 86 111 123Q148 158 164 223L379 1237Q387 1270 387 1294Q387 1376 240 1376H213L231 1462H768Q1237 1462
1237 1114Q1237 776 858 686L1006 248Q1043 142 1079 115Q1118 86 1174 86H1190L1174 0H1147Q973 0 897 47Q825 92 782 240L664 645H461ZM481 741H639Q823 741 921 833T1020 1102Q1020 1239 961 1300Q900 1363 752 1364H612L481 741ZM1151 1880Q997 1729 881 1579H687Q640
1726 547 1880L553 1907H627Q717 1837 801 1720Q926 1829 1072 1907H1158L1151 1880Z" />
<glyph unicode="&#x159;" glyph-name="rcaron" horiz-adv-x="956" d="M799 821Q799 983 717 983Q623 983 516 797Q412 615 358 373L281 0H90L262 823Q274 881 274 915Q274 1011 111 1012H94L113 1098H475L432 803H453Q537 989 614 1053Q696 1119 801 1118Q969
1118 969 977Q969 821 799 821ZM952 1542Q798 1391 682 1241H488Q441 1388 348 1542L354 1569H428Q518 1499 602 1382Q727 1491 873 1569H959L952 1542Z" />
<glyph unicode="&#x15a;" glyph-name="Sacute" horiz-adv-x="1112" d="M172 428Q172 272 256 176T483 80Q622 80 711 152Q795 222 795 344Q795 442 748 508Q703 569 537 665T309 860Q246 960 246 1087Q246 1263 381 1374Q514 1483 743 1483Q917 1483 1026 1421Q1132
1360 1133 1262Q1133 1121 952 1120Q952 1241 895 1310T727 1380Q602 1380 526 1311Q448 1239 449 1122Q449 1036 492 971Q535 908 702 809Q866 713 934 623Q1006 529 1006 410Q1006 209 864 94Q721 -21 469 -20Q262 -20 137 63Q14 146 14 272Q14 340 59 385Q102
428 172 428ZM711 1606Q832 1745 930 1907H1149L1143 1886Q986 1702 787 1579H705L711 1606Z" />
<glyph unicode="&#x15b;" glyph-name="sacute" horiz-adv-x="948" d="M741 795Q741 899 692 960T557 1022Q463 1022 412 973Q359 924 358 846Q358 778 409 729T567 635Q813 524 813 317Q813 165 696 74Q577 -20 389 -20Q237 -20 143 43Q51 104 51 211Q51 279 88
311Q127 346 180 346Q180 220 242 150Q303 78 414 78Q635 78 635 268Q635 340 588 391T428 494Q281 564 231 639Q180 717 180 811Q180 946 289 1030Q400 1116 575 1116Q725 1116 811 1061Q895 1008 895 922Q895 795 741 795ZM563 1268Q684 1407 782 1569H1001L995
1548Q838 1364 639 1241H557L563 1268Z" />
<glyph unicode="&#x15c;" glyph-name="Scircumflex" horiz-adv-x="1112" d="M172 428Q172 272 256 176T483 80Q622 80 711 152Q795 222 795 344Q795 442 748 508Q703 569 537 665T309 860Q246 960 246 1087Q246 1263 381 1374Q514 1483 743 1483Q917 1483 1026
1421Q1132 1360 1133 1262Q1133 1121 952 1120Q952 1241 895 1310T727 1380Q602 1380 526 1311Q448 1239 449 1122Q449 1036 492 971Q535 908 702 809Q866 713 934 623Q1006 529 1006 410Q1006 209 864 94Q721 -21 469 -20Q262 -20 137 63Q14 146 14 272Q14 340
59 385Q102 428 172 428ZM483 1606Q670 1790 753 1907H948Q975 1792 1087 1606L1081 1579H1009Q913 1645 827 1763Q677 1638 565 1579H477L483 1606Z" />
<glyph unicode="&#x15d;" glyph-name="scircumflex" horiz-adv-x="948" d="M741 795Q741 899 692 960T557 1022Q463 1022 412 973Q359 924 358 846Q358 778 409 729T567 635Q813 524 813 317Q813 165 696 74Q577 -20 389 -20Q237 -20 143 43Q51 104 51 211Q51
279 88 311Q127 346 180 346Q180 220 242 150Q303 78 414 78Q635 78 635 268Q635 340 588 391T428 494Q281 564 231 639Q180 717 180 811Q180 946 289 1030Q400 1116 575 1116Q725 1116 811 1061Q895 1008 895 922Q895 795 741 795ZM596 1268Q783 1452 866 1569H1061Q1088
1454 1200 1268L1194 1241H1122Q1026 1307 940 1425Q790 1300 678 1241H590L596 1268Z" />
<glyph unicode="&#x15e;" glyph-name="Scedilla" horiz-adv-x="1112" d="M172 428Q172 272 256 176T483 80Q622 80 711 152Q795 222 795 344Q795 442 748 508Q703 569 537 665T309 860Q246 960 246 1087Q246 1263 381 1374Q514 1483 743 1483Q917 1483 1026 1421Q1132
1360 1133 1262Q1133 1121 952 1120Q952 1241 895 1310T727 1380Q602 1380 526 1311Q448 1239 449 1122Q449 1036 492 971Q535 908 702 809Q866 713 934 623Q1006 529 1006 410Q1006 209 864 94Q721 -21 469 -20Q262 -20 137 63Q14 146 14 272Q14 340 59 385Q102
428 172 428ZM479 -70Q553 -78 598 -127Q643 -174 643 -240Q643 -359 557 -426Q473 -492 317 -492Q241 -492 164 -469L186 -365Q262 -381 323 -381Q475 -381 475 -256Q475 -154 344 -141L422 18H518L479 -70Z" />
<glyph unicode="&#x15f;" glyph-name="scedilla" horiz-adv-x="948" d="M741 795Q741 899 692 960T557 1022Q463 1022 412 973Q359 924 358 846Q358 778 409 729T567 635Q813 524 813 317Q813 165 696 74Q577 -20 389 -20Q237 -20 143 43Q51 104 51 211Q51 279
88 311Q127 346 180 346Q180 220 242 150Q303 78 414 78Q635 78 635 268Q635 340 588 391T428 494Q281 564 231 639Q180 717 180 811Q180 946 289 1030Q400 1116 575 1116Q725 1116 811 1061Q895 1008 895 922Q895 795 741 795ZM407 -70Q481 -78 526 -127Q571 -174
571 -240Q571 -359 485 -426Q401 -492 245 -492Q169 -492 92 -469L114 -365Q190 -381 251 -381Q403 -381 403 -256Q403 -154 272 -141L350 18H446L407 -70Z" />
<glyph unicode="&#x160;" glyph-name="Scaron" horiz-adv-x="1112" d="M172 428Q172 272 256 176T483 80Q622 80 711 152Q795 222 795 344Q795 442 748 508Q703 569 537 665T309 860Q246 960 246 1087Q246 1263 381 1374Q514 1483 743 1483Q917 1483 1026 1421Q1132
1360 1133 1262Q1133 1121 952 1120Q952 1241 895 1310T727 1380Q602 1380 526 1311Q448 1239 449 1122Q449 1036 492 971Q535 908 702 809Q866 713 934 623Q1006 529 1006 410Q1006 209 864 94Q721 -21 469 -20Q262 -20 137 63Q14 146 14 272Q14 340 59 385Q102
428 172 428ZM1148 1880Q994 1729 878 1579H684Q637 1726 544 1880L550 1907H624Q714 1837 798 1720Q923 1829 1069 1907H1155L1148 1880Z" />
<glyph unicode="&#x161;" glyph-name="scaron" horiz-adv-x="948" d="M741 795Q741 899 692 960T557 1022Q463 1022 412 973Q359 924 358 846Q358 778 409 729T567 635Q813 524 813 317Q813 165 696 74Q577 -20 389 -20Q237 -20 143 43Q51 104 51 211Q51 279 88
311Q127 346 180 346Q180 220 242 150Q303 78 414 78Q635 78 635 268Q635 340 588 391T428 494Q281 564 231 639Q180 717 180 811Q180 946 289 1030Q400 1116 575 1116Q725 1116 811 1061Q895 1008 895 922Q895 795 741 795ZM1218 1542Q1064 1391 948 1241H754Q707
1388 614 1542L620 1569H694Q784 1499 868 1382Q993 1491 1139 1569H1225L1218 1542Z" />
<glyph unicode="&#x162;" glyph-name="Tcommaaccent" horiz-adv-x="1253" d="M657 225Q649 192 649 168Q649 86 797 86H844L825 0H188L207 86H254Q360 86 397 121T451 223L692 1360H496Q349 1360 291 1192L262 1104H156L242 1462H1395L1329 1104H1223Q1233 1192
1233 1229Q1233 1360 1098 1360H899L657 225ZM561 -426L602 -330Q647 -224 682 -125H860L856 -145Q745 -315 627 -453H557L561 -426Z" />
<glyph unicode="&#x163;" glyph-name="tcommaaccent" horiz-adv-x="753" d="M616 154L651 78Q513 -20 375 -20Q152 -20 152 219Q152 301 172 391L297 981H141L160 1063Q359 1063 473 1350H567L514 1098H762L737 981H489L365 397Q340 280 340 221Q340 108 449 109Q534
109 616 154ZM157 -426L198 -330Q243 -224 278 -125H456L452 -145Q341 -315 223 -453H153L157 -426Z" />
<glyph unicode="&#x164;" glyph-name="Tcaron" horiz-adv-x="1253" d="M657 225Q649 192 649 168Q649 86 797 86H844L825 0H188L207 86H254Q360 86 397 121T451 223L692 1360H496Q349 1360 291 1192L262 1104H156L242 1462H1395L1329 1104H1223Q1233 1192 1233
1229Q1233 1360 1098 1360H899L657 225ZM1181 1880Q1027 1729 911 1579H717Q670 1726 577 1880L583 1907H657Q747 1837 831 1720Q956 1829 1102 1907H1188L1181 1880Z" />
<glyph unicode="&#x165;" glyph-name="tcaron" horiz-adv-x="753" d="M616 154L651 78Q513 -20 375 -20Q152 -20 152 219Q152 301 172 391L297 981H141L160 1063Q359 1063 473 1350H567L514 1098H762L737 981H489L365 397Q340 280 340 221Q340 108 449 109Q534
109 616 154ZM709 1255L830 1556H1008L1004 1536Q910 1384 774 1229H705L709 1255Z" />
<glyph unicode="&#x166;" glyph-name="Tbar" horiz-adv-x="1253" d="M774 772H1118L1100 672H752L657 225Q649 192 649 168Q649 86 797 86H844L825 0H188L207 86H254Q352 86 391 119Q432 154 451 223L545 672H205L223 772H567L692 1360H496Q349 1360 291 1192L262
1104H156L242 1462H1395L1329 1104H1223Q1233 1192 1233 1229Q1233 1356 1098 1360H899L774 772Z" />
<glyph unicode="&#x167;" glyph-name="tbar" horiz-adv-x="753" d="M616 154L651 78Q513 -20 375 -20Q152 -20 152 219Q152 307 172 391L215 596H76L94 692H236L297 981H141L160 1063Q359 1063 473 1350H567L514 1098H762L737 981H489L428 692H674L655 596H408L365
397Q340 280 340 221Q340 108 449 109Q534 109 616 154Z" />
<glyph unicode="&#x168;" glyph-name="Utilde" horiz-adv-x="1492" d="M205 1376L223 1462H819L803 1376H776Q680 1376 637 1340T575 1229L422 506Q397 389 397 315Q397 102 692 102Q856 102 954 176T1090 422L1264 1237Q1272 1270 1272 1294Q1272 1376 1124 1376H1098L1116
1462H1630L1614 1376H1587Q1491 1376 1448 1340T1386 1229L1214 418Q1122 -20 662 -20Q439 -20 318 72T197 334Q197 414 219 516L371 1237Q379 1270 379 1294Q379 1376 231 1376H205ZM1313 1821H1405Q1335 1579 1139 1579Q1059 1579 969 1645Q881 1708 844 1708Q756
1708 721 1600H629Q701 1842 897 1841Q981 1841 1065 1778Q1153 1712 1190 1712Q1278 1712 1313 1821Z" />
<glyph unicode="&#x169;" glyph-name="utilde" horiz-adv-x="1226" d="M135 1098H516L381 485Q340 292 340 238Q340 113 440 113Q542 113 666 264Q789 414 825 588L932 1098H1130L989 440Q958 296 958 213Q958 109 1026 109Q1085 109 1157 154L1194 94Q1063 -21
934 -20Q856 -20 809 35Q762 92 762 174Q762 219 772 295H756Q647 115 557 47Q469 -19 360 -18Q141 -18 141 209Q141 275 178 434L258 793Q276 873 276 915Q276 1011 133 1012H117L135 1098ZM1053 1483H1145Q1075 1241 879 1241Q799 1241 709 1307Q621 1370 584
1370Q496 1370 461 1262H369Q441 1504 637 1503Q721 1503 805 1440Q893 1374 930 1374Q1018 1374 1053 1483Z" />
<glyph unicode="&#x16a;" glyph-name="Umacron" horiz-adv-x="1492" d="M205 1376L223 1462H819L803 1376H776Q680 1376 637 1340T575 1229L422 506Q397 389 397 315Q397 102 692 102Q856 102 954 176T1090 422L1264 1237Q1272 1270 1272 1294Q1272 1376 1124
1376H1098L1116 1462H1630L1614 1376H1587Q1491 1376 1448 1340T1386 1229L1214 418Q1122 -20 662 -20Q439 -20 318 72T197 334Q197 414 219 516L371 1237Q379 1270 379 1294Q379 1376 231 1376H205ZM1259 1579H666L692 1700H1286L1259 1579Z" />
<glyph unicode="&#x16b;" glyph-name="umacron" horiz-adv-x="1226" d="M135 1098H516L381 485Q340 292 340 238Q340 113 440 113Q542 113 666 264Q789 414 825 588L932 1098H1130L989 440Q958 296 958 213Q958 109 1026 109Q1085 109 1157 154L1194 94Q1063 -21
934 -20Q856 -20 809 35Q762 92 762 174Q762 219 772 295H756Q647 115 557 47Q469 -19 360 -18Q141 -18 141 209Q141 275 178 434L258 793Q276 873 276 915Q276 1011 133 1012H117L135 1098ZM1040 1241H447L473 1362H1067L1040 1241Z" />
<glyph unicode="&#x16c;" glyph-name="Ubreve" horiz-adv-x="1492" d="M205 1376L223 1462H819L803 1376H776Q680 1376 637 1340T575 1229L422 506Q397 389 397 315Q397 102 692 102Q856 102 954 176T1090 422L1264 1237Q1272 1270 1272 1294Q1272 1376 1124 1376H1098L1116
1462H1630L1614 1376H1587Q1491 1376 1448 1340T1386 1229L1214 418Q1122 -20 662 -20Q439 -20 318 72T197 334Q197 414 219 516L371 1237Q379 1270 379 1294Q379 1376 231 1376H205ZM708 1860H803Q817 1721 981 1721T1202 1860H1296Q1261 1725 1175 1653Q1086
1579 966 1579Q726 1579 708 1860Z" />
<glyph unicode="&#x16d;" glyph-name="ubreve" horiz-adv-x="1226" d="M135 1098H516L381 485Q340 292 340 238Q340 113 440 113Q542 113 666 264Q789 414 825 588L932 1098H1130L989 440Q958 296 958 213Q958 109 1026 109Q1085 109 1157 154L1194 94Q1063 -21
934 -20Q856 -20 809 35Q762 92 762 174Q762 219 772 295H756Q647 115 557 47Q469 -19 360 -18Q141 -18 141 209Q141 275 178 434L258 793Q276 873 276 915Q276 1011 133 1012H117L135 1098ZM483 1522H578Q592 1383 756 1383T977 1522H1071Q1036 1387 950 1315Q861
1241 741 1241Q501 1241 483 1522Z" />
<glyph unicode="&#x16e;" glyph-name="Uring" horiz-adv-x="1492" d="M205 1376L223 1462H819L803 1376H776Q680 1376 637 1340T575 1229L422 506Q397 389 397 315Q397 102 692 102Q856 102 954 176T1090 422L1264 1237Q1272 1270 1272 1294Q1272 1376 1124 1376H1098L1116
1462H1630L1614 1376H1587Q1491 1376 1448 1340T1386 1229L1214 418Q1122 -20 662 -20Q439 -20 318 72T197 334Q197 414 219 516L371 1237Q379 1270 379 1294Q379 1376 231 1376H205ZM1004 1559Q900 1559 828 1618Q758 1675 758 1782Q758 1886 827 1945T1004 2005Q1113
2005 1182 1946Q1250 1887 1250 1782Q1250 1676 1180 1618Q1108 1559 1004 1559ZM1004 1905Q869 1905 869 1782Q869 1659 1004 1659Q1139 1659 1139 1782Q1139 1905 1004 1905Z" />
<glyph unicode="&#x16f;" glyph-name="uring" horiz-adv-x="1226" d="M135 1098H516L381 485Q340 292 340 238Q340 113 440 113Q542 113 666 264Q789 414 825 588L932 1098H1130L989 440Q958 296 958 213Q958 109 1026 109Q1085 109 1157 154L1194 94Q1063 -21
934 -20Q856 -20 809 35Q762 92 762 174Q762 219 772 295H756Q647 115 557 47Q469 -19 360 -18Q141 -18 141 209Q141 275 178 434L258 793Q276 873 276 915Q276 1011 133 1012H117L135 1098ZM750 1221Q646 1221 574 1280Q504 1337 504 1444Q504 1548 573 1607T750
1667Q859 1667 928 1608Q996 1549 996 1444Q996 1338 926 1280Q854 1221 750 1221ZM750 1567Q615 1567 615 1444Q615 1321 750 1321Q885 1321 885 1444Q885 1567 750 1567Z" />
<glyph unicode="&#x170;" glyph-name="Uhungarumlaut" horiz-adv-x="1492" d="M205 1376L223 1462H819L803 1376H776Q680 1376 637 1340T575 1229L422 506Q397 389 397 315Q397 102 692 102Q856 102 954 176T1090 422L1264 1237Q1272 1270 1272 1294Q1272 1376
1124 1376H1098L1116 1462H1630L1614 1376H1587Q1491 1376 1448 1340T1386 1229L1214 418Q1122 -20 662 -20Q439 -20 318 72T197 334Q197 414 219 516L371 1237Q379 1270 379 1294Q379 1376 231 1376H205ZM670 1579L676 1606Q791 1743 895 1907H1114L1108 1886Q963
1722 760 1579H670ZM1038 1579L1044 1606Q1144 1719 1263 1907H1483L1476 1886Q1472 1874 1356 1765Q1233 1652 1128 1579H1038Z" />
<glyph unicode="&#x171;" glyph-name="uhungarumlaut" horiz-adv-x="1226" d="M135 1098H516L381 485Q340 292 340 238Q340 113 440 113Q542 113 666 264Q789 414 825 588L932 1098H1130L989 440Q958 296 958 213Q958 109 1026 109Q1085 109 1157 154L1194 94Q1063
-21 934 -20Q856 -20 809 35Q762 92 762 174Q762 219 772 295H756Q647 115 557 47Q469 -19 360 -18Q141 -18 141 209Q141 275 178 434L258 793Q276 873 276 915Q276 1011 133 1012H117L135 1098ZM435 1241L441 1268Q556 1405 660 1569H879L873 1548Q728 1384 525
1241H435ZM803 1241L809 1268Q909 1381 1028 1569H1248L1241 1548Q1237 1536 1121 1427Q998 1314 893 1241H803Z" />
<glyph unicode="&#x172;" glyph-name="Uogonek" horiz-adv-x="1492" d="M205 1376L223 1462H819L803 1376H776Q680 1376 637 1340T575 1229L422 506Q397 389 397 315Q397 102 692 102Q856 102 954 176T1090 422L1264 1237Q1272 1270 1272 1294Q1272 1376 1124
1376H1098L1116 1462H1630L1614 1376H1587Q1491 1376 1448 1340T1386 1229L1214 418Q1122 -20 662 -20Q439 -20 318 72T197 334Q197 414 219 516L371 1237Q379 1270 379 1294Q379 1376 231 1376H205ZM844 0Q735 -37 668 -104T600 -254Q600 -303 633 -336Q662 -365
717 -365Q778 -365 850 -348L825 -459Q751 -492 662 -492Q422 -492 422 -283Q422 -181 502 -107T727 0H844Z" />
<glyph unicode="&#x173;" glyph-name="uogonek" horiz-adv-x="1226" d="M135 1098H516L381 485Q340 292 340 238Q340 113 440 113Q542 113 666 264Q789 414 825 588L932 1098H1130L989 440Q958 296 958 213Q958 109 1026 109Q1085 109 1157 154L1194 94Q1063 -21
934 -20Q856 -20 809 35Q762 92 762 174Q762 219 772 295H756Q647 115 557 47Q469 -19 360 -18Q141 -18 141 209Q141 275 178 434L258 793Q276 873 276 915Q276 1011 133 1012H117L135 1098ZM1038 0Q929 -37 862 -104T794 -254Q794 -303 827 -336Q856 -365 911
-365Q972 -365 1044 -348L1019 -459Q945 -492 856 -492Q616 -492 616 -283Q616 -181 696 -107T921 0H1038Z" />
<glyph unicode="&#x174;" glyph-name="Wcircumflex" horiz-adv-x="2138" d="M1915 1188Q1954 1264 1954 1303Q1954 1377 1839 1376H1790L1806 1462H2306L2288 1376H2249Q2186 1376 2146 1343Q2109 1312 2060 1217L1456 0H1268L1176 1135L625 0H438L332 1268Q326
1321 301 1350Q276 1377 209 1376H182L201 1462H758L739 1376H692Q545 1376 545 1272Q545 1239 549 1202L598 547Q612 373 612 201Q704 418 780 569L1210 1448H1358L1425 561Q1439 383 1436 201Q1528 416 1589 537L1915 1188ZM991 1606Q1178 1790 1261 1907H1456Q1483
1792 1595 1606L1589 1579H1517Q1421 1645 1335 1763Q1185 1638 1073 1579H985L991 1606Z" />
<glyph unicode="&#x175;" glyph-name="wcircumflex" horiz-adv-x="1675" d="M246 -18L231 864Q231 936 203 975Q176 1012 96 1012H76L104 1098H412Q418 665 418 164H426Q688 627 883 1079L1053 1087Q1096 548 1096 150H1110Q1286 367 1386 555Q1495 756 1495 874Q1495
970 1407 997Q1425 1118 1528 1118Q1637 1118 1636 965Q1636 670 1122 2L920 -20L889 866Q805 663 457 6L246 -18ZM694 1268Q881 1452 964 1569H1159Q1186 1454 1298 1268L1292 1241H1220Q1124 1307 1038 1425Q888 1300 776 1241H688L694 1268Z" />
<glyph unicode="&#x176;" glyph-name="Ycircumflex" horiz-adv-x="1280" d="M729 1462L711 1376H608Q524 1376 524 1321Q524 1280 551 1202L643 928Q692 781 698 682Q729 737 852 897L1047 1157Q1123 1261 1122 1323Q1122 1376 1024 1376H948L967 1462H1473L1454
1376H1415Q1380 1376 1337 1343Q1302 1316 1229 1221L752 596L672 225Q664 192 664 168Q664 86 811 86H858L840 0H203L221 86H268Q374 86 411 121T465 223L545 600L307 1268Q287 1329 262 1354Q239 1377 184 1376H158L176 1462H729ZM551 1606Q738 1790 821 1907H1016Q1043
1792 1155 1606L1149 1579H1077Q981 1645 895 1763Q745 1638 633 1579H545L551 1606Z" />
<glyph unicode="&#x177;" glyph-name="ycircumflex" horiz-adv-x="1079" d="M164 903Q146 962 115 987T23 1012H2L18 1098H317L477 545Q551 287 563 174H569Q845 594 846 854Q846 965 745 965Q745 1037 784 1075Q825 1116 879 1116Q1018 1116 1018 944Q1018 698
741 250Q467 -194 299 -344Q133 -491 -139 -492Q-245 -492 -332 -455L-301 -352Q-227 -375 -141 -375Q152 -375 434 -2L164 903ZM594 1268Q781 1452 864 1569H1059Q1086 1454 1198 1268L1192 1241H1120Q1024 1307 938 1425Q788 1300 676 1241H588L594 1268Z" />
<glyph unicode="&#x178;" glyph-name="Ydieresis" horiz-adv-x="1280" d="M729 1462L711 1376H608Q524 1376 524 1321Q524 1280 551 1202L643 928Q692 781 698 682Q729 737 852 897L1047 1157Q1123 1261 1122 1323Q1122 1376 1024 1376H948L967 1462H1473L1454
1376H1415Q1380 1376 1337 1343Q1302 1316 1229 1221L752 596L672 225Q664 192 664 168Q664 86 811 86H858L840 0H203L221 86H268Q374 86 411 121T465 223L545 600L307 1268Q287 1329 262 1354Q239 1377 184 1376H158L176 1462H729ZM684 1632Q582 1632 582 1735Q582
1864 692 1864Q794 1864 795 1761Q795 1632 684 1632ZM1073 1632Q971 1632 971 1735Q971 1864 1081 1864Q1183 1864 1184 1761Q1184 1632 1073 1632Z" />
<glyph unicode="&#x179;" glyph-name="Zacute" horiz-adv-x="1236" d="M1276 1378L244 102H791Q943 102 997 270L1026 358H1133L1047 0H-35L-18 82L1012 1360H535Q385 1360 330 1192L301 1104H195L281 1462H1292L1276 1378ZM746 1606Q867 1745 965 1907H1184L1178
1886Q1021 1702 822 1579H740L746 1606Z" />
<glyph unicode="&#x17a;" glyph-name="zacute" horiz-adv-x="1046" d="M616 117Q663 117 704 147T791 285L811 332H897L817 0H-2L14 82L711 981H451Q383 981 342 946Q305 915 258 815L254 807H168L250 1098H967L950 1014L252 117H616ZM559 1268Q680 1407 778 1569H997L991
1548Q834 1364 635 1241H553L559 1268Z" />
<glyph unicode="&#x17b;" glyph-name="Zdotaccent" horiz-adv-x="1236" d="M1276 1378L244 102H791Q943 102 997 270L1026 358H1133L1047 0H-35L-18 82L1012 1360H535Q385 1360 330 1192L301 1104H195L281 1462H1292L1276 1378ZM821 1641Q706 1641 706 1753Q706
1819 739 1858T829 1897Q944 1897 944 1784Q944 1716 909 1677Q874 1641 821 1641Z" />
<glyph unicode="&#x17c;" glyph-name="zdotaccent" horiz-adv-x="1046" d="M616 117Q663 117 704 147T791 285L811 332H897L817 0H-2L14 82L711 981H451Q383 981 342 946Q305 915 258 815L254 807H168L250 1098H967L950 1014L252 117H616ZM664 1303Q549 1303 549
1415Q549 1481 582 1520T672 1559Q787 1559 787 1446Q787 1378 752 1339Q717 1303 664 1303Z" />
<glyph unicode="&#x17d;" glyph-name="Zcaron" horiz-adv-x="1236" d="M1276 1378L244 102H791Q943 102 997 270L1026 358H1133L1047 0H-35L-18 82L1012 1360H535Q385 1360 330 1192L301 1104H195L281 1462H1292L1276 1378ZM1116 1880Q962 1729 846 1579H652Q605
1726 512 1880L518 1907H592Q682 1837 766 1720Q891 1829 1037 1907H1123L1116 1880Z" />
<glyph unicode="&#x17e;" glyph-name="zcaron" horiz-adv-x="1046" d="M616 117Q663 117 704 147T791 285L811 332H897L817 0H-2L14 82L711 981H451Q383 981 342 946Q305 915 258 815L254 807H168L250 1098H967L950 1014L252 117H616ZM1265 1542Q1111 1391 995
1241H801Q754 1388 661 1542L667 1569H741Q831 1499 915 1382Q1040 1491 1186 1569H1272L1265 1542Z" />
<glyph unicode="&#x17f;" glyph-name="longs" horiz-adv-x="612" d="M-287 -475L-268 -381Q-219 -395 -174 -395Q-74 -395 -14 -307Q39 -227 84 -18L344 1210Q422 1577 733 1577Q866 1577 930 1536Q998 1493 997 1425Q997 1292 827 1292Q827 1482 723 1483Q655
1483 614 1430Q571 1375 541 1229L276 -16Q223 -264 123 -377Q21 -492 -168 -492Q-232 -491 -287 -475Z" />
<glyph unicode="&#x192;" glyph-name="florin" horiz-adv-x="1144" d="M911 815H643L481 -16Q432 -266 330 -377Q226 -492 37 -492Q-26 -492 -82 -477L-63 -381Q-6 -395 31 -395Q133 -395 193 -307Q248 -225 289 -18L451 815H244L262 911H469L508 1116Q580 1483
897 1483Q1030 1483 1094 1442Q1162 1399 1161 1331Q1161 1198 991 1198Q991 1388 887 1389Q810 1389 770 1327Q729 1264 705 1135L662 911H930L911 815Z" />
<glyph unicode="&#x1f0;" glyph-name="uni01F0" horiz-adv-x="595" d="M-287 -475L-268 -381Q-219 -395 -174 -395Q-70 -395 -12 -303Q47 -211 86 -16L274 872Q280 905 281 926Q281 1012 156 1012H129L147 1098H514L279 -16Q226 -262 123 -377T-168 -492Q-232
-491 -287 -475ZM784 1542Q630 1391 514 1241H320Q273 1388 180 1542L186 1569H260Q350 1499 434 1382Q559 1491 705 1569H791L784 1542Z" />
<glyph unicode="&#x1fa;" glyph-name="Aringacute" horiz-adv-x="1443" d="M887 1720Q1008 1835 1106 1962H1325L1319 1946Q1163 1799 963 1700H881L887 1720ZM1018 1229L1198 184Q1208 129 1233 106Q1256 86 1319 86H1346L1329 0H772L788 86H836Q902 86 942 110T983
180Q983 211 979 244L950 430H397L285 256Q246 197 246 154Q246 86 360 86H408L391 0H-115L-98 86H-59Q4 86 39 115Q70 140 131 231L795 1239Q672 1298 672 1438Q672 1540 739 1602Q805 1661 917 1661T1096 1602Q1164 1541 1163 1438Q1163 1284 1018 1229ZM905
1315H918Q1053 1315 1053 1438Q1053 1561 918 1561T782 1438Q782 1321 905 1315ZM885 852Q854 1052 848 1147Q799 1051 733 948L469 532H934L885 852Z" />
<glyph unicode="&#x1fb;" glyph-name="aringacute" horiz-adv-x="1185" d="M748 309H735Q588 -21 352 -20Q229 -20 158 78Q88 174 88 354Q88 635 264 876T698 1118Q836 1118 938 1044L1028 1096H1094L954 440Q923 299 924 213Q924 109 991 109Q1048 109 1139 162L1176
102Q1029 -21 887 -20Q727 -20 727 150Q728 219 748 309ZM864 952Q819 1026 709 1026Q537 1026 416 803Q297 584 297 347T426 109Q528 109 639 260Q752 414 788 590L864 952ZM1010 1526T1010 1420T938 1253Q868 1196 764 1196T590 1253Q518 1312 518 1419T590 1585Q660
1642 764 1642T938 1585Q1010 1526 1010 1420ZM899 1354T899 1419T858 1513T764 1542T670 1514T629 1420T670 1325T764 1296T858 1325ZM723 1720Q795 1788 836 1835Q910 1919 942 1962H1161L1155 1946Q1135 1926 1087 1888Q1015 1831 999 1821Q925 1770 897 1753Q836
1718 799 1700H717L723 1720Z" />
<glyph unicode="&#x1fc;" glyph-name="AEacute" horiz-adv-x="1947" d="M-127 0L-98 86H-59Q-6 86 35 114T152 246L967 1364L793 1376L811 1462H1970L1905 1104H1798Q1808 1182 1808 1223Q1808 1360 1663 1360H1319L1202 815H1696L1675 715H1182L1051 102H1446Q1620
102 1677 270L1710 358H1817L1726 0H629L645 86H672Q778 86 815 121Q858 162 870 223L926 489H463L309 274Q254 196 254 154Q254 86 358 86H406L377 0H-127ZM1110 1360H1071Q975 1194 811 969L539 592H948L1110 1360ZM1323 1606Q1444 1745 1542 1907H1761L1755
1886Q1598 1702 1399 1579H1317L1323 1606Z" />
<glyph unicode="&#x1fd;" glyph-name="aeacute" horiz-adv-x="1662" d="M1477 256Q1497 242 1497 205Q1497 123 1401 52T1143 -20Q1004 -20 899 55Q799 129 764 274Q647 -21 397 -20Q258 -20 172 88Q88 192 88 387Q88 666 252 891Q418 1118 686 1118Q848 1118
999 991Q1155 1118 1354 1118Q1483 1118 1554 1057T1626 883Q1626 717 1454 594T1032 471H997Q972 471 961 473Q957 457 956 387Q956 108 1182 109Q1354 109 1477 256ZM905 893Q807 1026 696 1026Q522 1026 410 809T297 365Q297 242 342 176Q389 108 469 109Q569
109 645 209Q723 313 750 475Q786 705 905 893ZM979 567H999Q1183 567 1298 655Q1415 745 1415 882T1296 1020Q1194 1020 1110 893Q1022 760 979 567ZM922 1268Q1043 1407 1141 1569H1360L1354 1548Q1197 1364 998 1241H916L922 1268Z" />
<glyph unicode="&#x1fe;" glyph-name="Oslashacute" horiz-adv-x="1519" d="M1217 1409L1323 1546H1442L1292 1352Q1456 1200 1456 922Q1456 574 1229 274Q1002 -23 643 -23Q477 -23 354 51L258 -82H137L274 109Q106 265 106 545Q106 899 335 1192T926 1485Q1092
1485 1217 1409ZM379 250L1130 1288Q1047 1374 909 1374Q655 1374 492 1090Q330 809 330 487Q330 348 379 250ZM1188 1204L438 168Q526 90 655 90Q911 90 1071 372T1231 977Q1231 1106 1188 1204ZM827 1606Q948 1745 1046 1907H1265L1259 1886Q1102 1702 903 1579H821L827
1606Z" />
<glyph unicode="&#x1ff;" glyph-name="oslashacute" horiz-adv-x="1181" d="M942 1044L1057 1180H1176L1010 977Q1088 868 1087 694Q1087 420 920 197Q754 -24 481 -25Q340 -25 238 47L131 -82H10L172 113Q88 226 88 403Q88 682 256 899Q426 1118 698 1118Q848
1118 942 1044ZM305 274L838 918Q789 1010 674 1010Q508 1010 403 809Q301 612 301 362Q301 303 305 274ZM868 809L338 168Q384 76 504 76Q672 76 772 276Q874 481 874 725Q874 770 868 809ZM629 1268Q750 1407 848 1569H1067L1061 1548Q904 1364 705 1241H623L629
1268Z" />
<glyph unicode="&#x218;" glyph-name="Scommaaccent" horiz-adv-x="1112" d="M172 428Q172 272 256 176T483 80Q622 80 711 152Q795 222 795 344Q795 442 748 508Q703 569 537 665T309 860Q246 960 246 1087Q246 1263 381 1374Q514 1483 743 1483Q917 1483 1026
1421Q1132 1360 1133 1262Q1133 1121 952 1120Q952 1241 895 1310T727 1380Q602 1380 526 1311Q448 1239 449 1122Q449 1036 492 971Q535 908 702 809Q866 713 934 623Q1006 529 1006 410Q1006 209 864 94Q721 -21 469 -20Q262 -20 137 63Q14 146 14 272Q14 340
59 385Q102 428 172 428ZM536 -426L577 -330Q622 -224 657 -125H835L831 -145Q720 -315 602 -453H532L536 -426Z" />
<glyph unicode="&#x219;" glyph-name="scommaaccent" horiz-adv-x="948" d="M741 795Q741 899 692 960T557 1022Q463 1022 412 973Q359 924 358 846Q358 778 409 729T567 635Q813 524 813 317Q813 165 696 74Q577 -20 389 -20Q237 -20 143 43Q51 104 51 211Q51
279 88 311Q127 346 180 346Q180 220 242 150Q303 78 414 78Q635 78 635 268Q635 340 588 391T428 494Q281 564 231 639Q180 717 180 811Q180 946 289 1030Q400 1116 575 1116Q725 1116 811 1061Q895 1008 895 922Q895 795 741 795ZM204 -426L245 -330Q290 -224
325 -125H503L499 -145Q388 -315 270 -453H200L204 -426Z" />
<glyph unicode="&#x2bc;" glyph-name="afii57929" horiz-adv-x="512" d="M168 901L176 987Q385 1033 385 1159Q385 1194 319 1237Q251 1280 252 1341Q252 1394 287 1430Q320 1463 379 1462Q447 1462 494 1415Q539 1370 539 1294Q539 1147 442 1040Q350 938 168 901Z" />
<glyph unicode="&#x2c6;" glyph-name="circumflex" horiz-adv-x="1181" d="M381 1268Q568 1452 651 1569H846Q873 1454 985 1268L979 1241H907Q811 1307 725 1425Q575 1300 463 1241H375L381 1268Z" />
<glyph unicode="&#x2c7;" glyph-name="caron" horiz-adv-x="1181" d="M1085 1542Q931 1391 815 1241H621Q574 1388 481 1542L487 1569H561Q651 1499 735 1382Q860 1491 1006 1569H1092L1085 1542Z" />
<glyph unicode="&#x2c9;" glyph-name="uni02C9" horiz-adv-x="1024" d="M958 1241H365L391 1362H985L958 1241Z" />
<glyph unicode="&#x2d8;" glyph-name="breve" horiz-adv-x="1181" d="M317 1522H412Q426 1383 590 1383T811 1522H905Q870 1387 784 1315Q695 1241 575 1241Q335 1241 317 1522Z" />
<glyph unicode="&#x2d9;" glyph-name="dotaccent" horiz-adv-x="622" d="M459 1303Q344 1303 344 1415Q344 1481 377 1520T467 1559Q582 1559 582 1446Q582 1378 547 1339Q512 1303 459 1303Z" />
<glyph unicode="&#x2da;" glyph-name="ring" horiz-adv-x="681" d="M504 1221Q400 1221 328 1280Q258 1337 258 1444Q258 1548 327 1607T504 1667Q613 1667 682 1608Q750 1549 750 1444Q750 1338 680 1280Q608 1221 504 1221ZM504 1567Q369 1567 369 1444Q369
1321 504 1321Q639 1321 639 1444Q639 1567 504 1567Z" />
<glyph unicode="&#x2db;" glyph-name="ogonek" horiz-adv-x="1024" d="M762 0Q653 -37 586 -104T518 -254Q518 -303 551 -336Q580 -365 635 -365Q696 -365 768 -348L743 -459Q669 -492 580 -492Q340 -492 340 -283Q340 -181 420 -107T645 0H762Z" />
<glyph unicode="&#x2dc;" glyph-name="tilde" horiz-adv-x="1181" d="M1028 1483H1120Q1050 1241 854 1241Q774 1241 684 1307Q596 1370 559 1370Q471 1370 436 1262H344Q416 1504 612 1503Q696 1503 780 1440Q868 1374 905 1374Q993 1374 1028 1483Z" />
<glyph unicode="&#x2dd;" glyph-name="hungarumlaut" horiz-adv-x="1181" d="M193 1241L199 1268Q314 1405 418 1569H637L631 1548Q486 1384 283 1241H193ZM561 1241L567 1268Q667 1381 786 1569H1006L999 1548Q995 1536 879 1427Q756 1314 651 1241H561Z" />
<glyph unicode="&#x2f3;" glyph-name="uni02F3" horiz-adv-x="681" d="M442 -295T442 -348T424 -444Q408 -485 371 -514Q336 -543 293 -557T197 -571T100 -557T23 -514Q-14 -485 -31 -444Q-49 -401 -49 -348T-31 -252Q-15 -211 23 -182Q58 -153 100 -139T196 -125T293
-139T371 -182Q408 -211 424 -252Q442 -295 442 -348ZM332 -348Q332 -311 322 -291Q312 -273 291 -254Q271 -238 248 -231Q223 -225 197 -225T145 -231Q122 -237 102 -254Q82 -272 72 -291Q62 -311 62 -348T72 -406Q82 -424 102 -442Q122 -458 145 -465Q170 -471
196 -471T248 -465Q271 -459 291 -442Q311 -424 322 -406Q332 -385 332 -348Z" />
<glyph unicode="&#x384;" glyph-name="tonos" horiz-adv-x="1181" d="M475 1268Q573 1430 618 1569H803L799 1548Q795 1528 717 1432Q637 1334 539 1241H471L475 1268Z" />
<glyph unicode="&#x385;" glyph-name="dieresistonos" horiz-adv-x="1181" d="M518 1415Q610 1571 662 1716H846L842 1696Q838 1676 762 1581Q684 1485 582 1389H514L518 1415ZM375 1290Q283 1290 283 1382Q283 1497 381 1497Q473 1497 473 1405Q473 1290 375
1290ZM807 1290Q715 1290 715 1382Q715 1497 813 1497Q905 1497 905 1405Q905 1290 807 1290Z" />
<glyph unicode="&#x386;" glyph-name="Alphatonos" horiz-adv-x="1443" d="M408 489L285 274Q246 208 246 160Q246 86 360 86H408L391 0H-115L-98 86H-59Q-6 86 33 114T131 246L844 1462H1004L1198 195Q1206 132 1233 109T1319 86H1346L1329 0H772L788 86H836Q983
86 983 190Q983 223 979 260L946 489H408ZM881 950Q852 1159 848 1274Q801 1159 688 969L469 592H932L881 950ZM237 1164Q335 1326 380 1465H565L561 1444Q557 1424 479 1328Q399 1230 301 1137H233L237 1164Z" />
<glyph unicode="&#x387;" glyph-name="anoteleia" horiz-adv-x="585" d="M315 588Q188 588 188 713Q188 785 225 827T324 870Q451 870 451 745Q451 673 414 631T315 588Z" />
<glyph unicode="&#x388;" glyph-name="Epsilontonos" horiz-adv-x="1441" d="M545 102H940Q1114 102 1172 270L1204 358H1311L1221 0H123L139 86H166Q272 86 311 123Q348 158 365 223L578 1229Q584 1257 584 1278Q584 1327 555 1351T440 1376H414L432 1462H1464L1399
1104H1292L1299 1167Q1303 1200 1303 1223Q1303 1360 1157 1360H813L696 815H1190L1170 715H676L545 102ZM59 1164Q157 1326 202 1465H387L383 1444Q379 1424 301 1328Q221 1230 123 1137H55L59 1164Z" />
<glyph unicode="&#x389;" glyph-name="Etatonos" horiz-adv-x="1785" d="M991 0L1008 86H1034Q1132 86 1176 123Q1221 162 1235 233L1336 713H670L568 225Q560 186 559 168Q559 86 707 86H733L715 0H119L135 86H162Q260 86 303 123T363 233L576 1237Q584 1270
584 1294Q584 1376 436 1376H410L428 1462H1024L1006 1376H979Q881 1376 838 1339Q797 1304 780 1229L692 815H1358L1448 1237Q1456 1270 1456 1294Q1456 1376 1309 1376H1282L1301 1462H1897L1878 1376H1852Q1754 1376 1710 1339Q1669 1304 1653 1229L1440 225Q1432
192 1432 168Q1432 86 1579 86H1606L1587 0H991ZM55 1164Q153 1326 198 1465H383L379 1444Q375 1424 297 1328Q217 1230 119 1137H51L55 1164Z" />
<glyph unicode="&#x38a;" glyph-name="Iotatonos" horiz-adv-x="911" d="M1024 1462L1006 1376H979Q881 1376 838 1339Q797 1304 780 1229L568 225Q560 186 559 168Q559 86 707 86H733L715 0H119L135 86H162Q332 86 363 233L576 1237Q584 1270 584 1294Q584 1376
436 1376H410L428 1462H1024ZM55 1164Q153 1326 198 1465H383L379 1444Q375 1424 297 1328Q217 1230 119 1137H51L55 1164Z" />
<glyph unicode="&#x38c;" glyph-name="Omicrontonos" horiz-adv-x="1519" d="M926 1485Q1164 1485 1311 1337Q1456 1192 1456 922Q1456 574 1229 274Q1002 -23 643 -23Q401 -23 254 131T106 545Q106 899 336 1192T926 1485ZM655 90Q911 90 1071 372T1231 977Q1231
1170 1147 1272T909 1374Q655 1374 492 1090Q330 809 330 487Q330 297 418 193Q503 90 655 90ZM12 1164Q110 1326 155 1465H340L336 1444Q332 1424 254 1328Q174 1230 76 1137H8L12 1164Z" />
<glyph unicode="&#x38e;" glyph-name="Upsilontonos" horiz-adv-x="1529" d="M979 1462L961 1376H858Q774 1376 774 1321Q774 1280 801 1202L893 928Q942 781 948 682Q979 737 1102 897L1297 1157Q1373 1261 1372 1323Q1372 1376 1274 1376H1198L1217 1462H1723L1704
1376H1665Q1630 1376 1587 1343Q1552 1316 1479 1221L1002 596L922 225Q914 192 914 168Q914 86 1061 86H1108L1090 0H453L471 86H518Q624 86 661 121T715 223L795 600L557 1268Q537 1329 512 1354Q489 1377 434 1376H408L426 1462H979ZM57 1164Q155 1326 200 1465H385L381
1444Q377 1424 299 1328Q219 1230 121 1137H53L57 1164Z" />
<glyph unicode="&#x38f;" glyph-name="Omegatonos" horiz-adv-x="1540" d="M686 0L778 428Q1042 459 1145 647Q1251 842 1251 1026Q1251 1194 1161 1284T899 1374Q625 1374 502 1182Q381 992 381 758Q381 623 449 532Q517 443 639 428L561 0H-12L16 358H123V291Q123
217 160 190Q195 163 289 164H483L518 344Q346 381 252 504Q156 629 156 803Q156 1077 356 1282Q557 1485 924 1485Q1182 1485 1327 1360Q1474 1233 1475 1018Q1475 758 1325 578Q1174 397 877 344L834 164H1028Q1122 164 1169 190Q1222 219 1251 291L1280 358H1386L1294
0H686ZM-29 1164Q69 1326 114 1465H299L295 1444Q291 1424 213 1328Q133 1230 35 1137H-33L-29 1164Z" />
<glyph unicode="&#x390;" glyph-name="iotadieresistonos" horiz-adv-x="681" d="M514 1098L365 397Q340 280 340 221Q340 108 449 109Q521 109 602 150L637 74Q506 -20 358 -20Q151 -20 152 219Q152 301 172 391L322 1098H514ZM686 1415Q778 1571 830 1716H1014L1010
1696Q1006 1676 930 1581Q852 1485 750 1389H682L686 1415ZM543 1290Q451 1290 451 1382Q451 1497 549 1497Q641 1497 641 1405Q641 1290 543 1290ZM975 1290Q883 1290 883 1382Q883 1497 981 1497Q1073 1497 1073 1405Q1073 1290 975 1290Z" />
<glyph unicode="&#x391;" glyph-name="Alpha" horiz-adv-x="1443" d="M408 489L285 274Q246 208 246 160Q246 86 360 86H408L391 0H-115L-98 86H-59Q-6 86 33 114T131 246L844 1462H1004L1198 195Q1206 132 1233 109T1319 86H1346L1329 0H772L788 86H836Q983 86
983 190Q983 223 979 260L946 489H408ZM881 950Q852 1159 848 1274Q801 1159 688 969L469 592H932L881 950Z" />
<glyph unicode="&#x392;" glyph-name="Beta" horiz-adv-x="1337" d="M-27 86H0Q170 86 201 233L414 1237Q422 1270 422 1294Q422 1376 274 1376H248L266 1462H797Q1276 1462 1276 1155Q1276 850 942 774L940 766Q1190 717 1190 467Q1190 242 1039 121T600 0H-43L-27
86ZM530 817H688Q1053 817 1053 1128Q1053 1359 770 1360H647L530 817ZM379 102H578Q969 102 969 481Q969 714 682 715H510L379 102Z" />
<glyph unicode="&#x393;" glyph-name="Gamma" horiz-adv-x="1148" d="M594 0H-41L-23 86H2Q170 86 201 233L412 1229Q422 1280 422 1294Q422 1376 274 1376H248L266 1462H1284L1221 1104H1114Q1124 1202 1124 1223Q1124 1303 1083 1331T956 1360H647L406 225Q398
186 397 168Q397 86 545 86H612L594 0Z" />
<glyph unicode="&#x394;" glyph-name="increment" horiz-adv-x="1243" d="M1042 0H-74L-51 109L713 1462H891L1067 123L1042 0ZM852 137L758 940Q727 1200 727 1274Q676 1155 565 958L102 137H852Z" />
<glyph unicode="&#x395;" glyph-name="Epsilon" horiz-adv-x="1275" d="M379 102H774Q948 102 1006 270L1038 358H1145L1055 0H-43L-27 86H0Q106 86 145 123Q182 158 199 223L412 1229Q418 1257 418 1278Q418 1327 389 1351T274 1376H248L266 1462H1298L1233 1104H1126L1133
1167Q1137 1200 1137 1223Q1137 1360 991 1360H647L530 815H1024L1004 715H510L379 102Z" />
<glyph unicode="&#x396;" glyph-name="Zeta" horiz-adv-x="1236" d="M1276 1378L244 102H791Q943 102 997 270L1026 358H1133L1047 0H-35L-18 82L1012 1360H535Q385 1360 330 1192L301 1104H195L281 1462H1292L1276 1378Z" />
<glyph unicode="&#x397;" glyph-name="Eta" horiz-adv-x="1622" d="M829 0L846 86H872Q970 86 1014 123Q1059 162 1073 233L1174 713H508L406 225Q398 186 397 168Q397 86 545 86H571L553 0H-43L-27 86H0Q98 86 141 123T201 233L414 1237Q422 1270 422 1294Q422
1376 274 1376H248L266 1462H862L844 1376H817Q719 1376 676 1339Q635 1304 618 1229L530 815H1196L1286 1237Q1294 1270 1294 1294Q1294 1376 1147 1376H1120L1139 1462H1735L1716 1376H1690Q1592 1376 1548 1339Q1507 1304 1491 1229L1278 225Q1270 192 1270
168Q1270 86 1417 86H1444L1425 0H829Z" />
<glyph unicode="&#x398;" glyph-name="Theta" horiz-adv-x="1519" d="M926 1485Q1164 1485 1311 1337Q1456 1192 1456 922Q1456 574 1229 274Q1002 -23 643 -23Q401 -23 254 131T106 545Q106 899 336 1192T926 1485ZM655 90Q911 90 1071 372T1231 977Q1231 1170
1147 1272T909 1374Q655 1374 492 1090Q330 809 330 487Q330 297 418 193Q503 90 655 90ZM612 930L614 891Q618 828 659 813Q704 797 764 797H815Q967 797 1010 891L1028 930H1114L1034 561H948L946 600Q944 684 793 694H741Q657 694 616 672Q579 652 551 600L532
561H446L526 930H612Z" />
<glyph unicode="&#x399;" glyph-name="Iota" horiz-adv-x="751" d="M862 1462L844 1376H817Q719 1376 676 1339Q635 1304 618 1229L406 225Q398 186 397 168Q397 86 545 86H571L553 0H-43L-27 86H0Q170 86 201 233L414 1237Q422 1270 422 1294Q422 1376 274 1376H248L266
1462H862Z" />
<glyph unicode="&#x39a;" glyph-name="Kappa" horiz-adv-x="1433" d="M-27 86H0Q98 86 141 123T201 233L414 1237Q422 1270 422 1294Q422 1376 274 1376H248L266 1462H862L844 1376H817Q719 1376 676 1339Q635 1304 618 1229L530 815L494 664L1022 1149Q1176 1290
1176 1333Q1176 1378 1085 1378L1102 1462H1554L1538 1378Q1481 1378 1420 1344T1223 1186L850 848L1098 250Q1166 86 1292 86H1298L1280 0H1251Q1087 0 1010 33T883 190L684 696L473 549L406 225Q398 186 397 168Q397 86 545 86H571L553 0H-43L-27 86Z" />
<glyph unicode="&#x39b;" glyph-name="Lambda" horiz-adv-x="1380" d="M961 1462L1135 195Q1141 148 1165 115Q1188 86 1257 86H1284L1266 0H702L721 86H768Q915 86 915 197Q915 228 911 260L827 932Q807 1084 807 1262Q750 1127 641 932L276 274Q237 202 238
162Q238 86 354 86H401L383 0H-115L-96 86H-57Q6 86 37 115Q72 148 129 246L811 1462H961Z" />
<glyph unicode="&#x39c;" glyph-name="Mu" horiz-adv-x="1918" d="M1178 0L1196 86H1202Q1290 86 1323 119Q1360 156 1376 215L1610 1309L862 0H752L553 1309L324 225Q316 186 315 168Q315 86 463 86H489L471 0H-41L-23 86H4Q105 86 145 123Q182 158 199 223L414
1237Q422 1270 422 1294Q422 1376 274 1376H248L266 1462H731L905 295L1575 1462H2032L2013 1376H1987Q1889 1376 1845 1339Q1804 1304 1788 1229L1575 225Q1567 192 1567 168Q1567 86 1714 86H1741L1722 0H1178Z" />
<glyph unicode="&#x39d;" glyph-name="Nu" horiz-adv-x="1562" d="M1327 1237Q1335 1270 1335 1294Q1335 1376 1188 1376H1161L1180 1462H1694L1675 1376H1649Q1553 1376 1510 1340T1450 1229L1190 0H1057L530 1200L324 225Q316 186 315 168Q315 86 463 86H489L471
0H-41L-23 86H4Q98 86 141 123Q180 156 201 233L414 1237Q422 1270 422 1294Q422 1376 274 1376H248L266 1462H639L1135 332L1327 1237Z" />
<glyph unicode="&#x39e;" glyph-name="Xi" horiz-adv-x="1271" d="M1233 1083H1126Q1132 1159 1133 1180Q1133 1299 991 1298H588Q438 1298 383 1145L362 1083H256L346 1462H1303L1233 1083ZM477 948L479 909Q482 857 516 836Q549 816 629 815H741Q893 815 936
909L954 948H1040L958 559H872L870 598Q868 682 715 692H602Q514 692 475 670Q438 650 414 598L395 559H309L391 948H477ZM1055 0H-23L49 403H156Q152 333 152 313Q152 188 291 188H817Q973 188 1022 342L1042 403H1149L1055 0Z" />
<glyph unicode="&#x39f;" glyph-name="Omicron" horiz-adv-x="1519" d="M926 1485Q1164 1485 1311 1337Q1456 1192 1456 922Q1456 574 1229 274Q1002 -23 643 -23Q401 -23 254 131T106 545Q106 899 336 1192T926 1485ZM655 90Q911 90 1071 372T1231 977Q1231 1170
1147 1272T909 1374Q655 1374 492 1090Q330 809 330 487Q330 297 418 193Q503 90 655 90Z" />
<glyph unicode="&#x3a0;" glyph-name="Pi" horiz-adv-x="1562" d="M768 0L786 86H813Q909 86 952 123Q993 158 1012 233L1251 1360H647L406 225Q398 186 397 168Q397 86 545 86H571L553 0H-43L-27 86H0Q98 86 141 123T201 233L414 1237Q422 1270 422 1294Q422
1376 274 1376H248L266 1462H1673L1655 1376H1628Q1532 1376 1489 1339Q1444 1300 1430 1229L1217 225Q1209 186 1208 168Q1208 86 1356 86H1382L1364 0H768Z" />
<glyph unicode="&#x3a1;" glyph-name="Rho" horiz-adv-x="1269" d="M-41 0L-23 86H4Q100 86 143 123Q184 158 201 233L414 1237Q422 1270 422 1294Q422 1376 274 1376H248L266 1462H791Q1014 1462 1135 1360Q1258 1256 1257 1067Q1257 836 1100 703T631 569H479L406
225Q398 186 397 168Q397 86 545 86H612L594 0H-41ZM500 666H608Q1040 666 1040 1065Q1040 1364 741 1364H647L500 666Z" />
<glyph unicode="&#x3a3;" glyph-name="Sigma" horiz-adv-x="1236" d="M764 188Q926 188 997 383L1020 444H1126L1022 0H-72L-59 66L516 727L268 1403L281 1462H1241L1176 1104H1069L1075 1165Q1079 1218 1079 1223Q1079 1358 934 1358H512L709 813L694 778L182 188H764Z" />
<glyph unicode="&#x3a4;" glyph-name="Tau" horiz-adv-x="1253" d="M657 225Q649 192 649 168Q649 86 797 86H844L825 0H188L207 86H254Q360 86 397 121T451 223L692 1360H496Q349 1360 291 1192L262 1104H156L242 1462H1395L1329 1104H1223Q1233 1192 1233 1229Q1233
1360 1098 1360H899L657 225Z" />
<glyph unicode="&#x3a5;" glyph-name="Upsilon" horiz-adv-x="1280" d="M729 1462L711 1376H608Q524 1376 524 1321Q524 1280 551 1202L643 928Q692 781 698 682Q729 737 852 897L1047 1157Q1123 1261 1122 1323Q1122 1376 1024 1376H948L967 1462H1473L1454 1376H1415Q1380
1376 1337 1343Q1302 1316 1229 1221L752 596L672 225Q664 192 664 168Q664 86 811 86H858L840 0H203L221 86H268Q374 86 411 121T465 223L545 600L307 1268Q287 1329 262 1354Q239 1377 184 1376H158L176 1462H729Z" />
<glyph unicode="&#x3a6;" glyph-name="Phi" horiz-adv-x="1566" d="M809 1237Q817 1272 817 1294Q817 1376 666 1376H639L657 1462H1249L1231 1376H1208Q1106 1376 1063 1339Q1022 1304 1006 1229L997 1188H1061Q1288 1188 1409 1085Q1532 981 1532 793Q1532 562
1372 428Q1210 295 901 295H807L793 225Q785 184 784 168Q784 86 936 86H958L940 0H350L369 86H395Q565 86 596 233L608 295H541Q320 295 197 399T74 690Q74 921 231 1054T700 1188H799L809 1237ZM778 1092H723Q291 1092 291 692Q291 393 590 393H631L778 1092ZM827
391H879Q1315 391 1315 791Q1315 1090 1012 1090H975L827 391Z" />
<glyph unicode="&#x3a7;" glyph-name="Chi" horiz-adv-x="1351" d="M1458 1376H1440Q1383 1376 1339 1346Q1290 1311 1208 1223L821 795L1067 195Q1114 86 1208 86H1235L1217 0H664L682 86H705Q768 86 801 106Q836 129 836 158Q836 203 797 299L664 625L358 285Q276
195 276 141Q276 86 397 86H403L385 0H-100L-82 86H-74Q-8 86 45 121Q92 152 168 233L621 727L401 1272Q358 1376 242 1376H215L233 1462H788L770 1376H723Q627 1376 627 1319Q627 1291 664 1196L780 897L1036 1192Q1114 1282 1114 1325Q1114 1376 1016 1376H1010L1028
1462H1477L1458 1376Z" />
<glyph unicode="&#x3a8;" glyph-name="Psi" horiz-adv-x="1695" d="M1348 1462L1329 1376H1303Q1207 1376 1163 1339Q1118 1300 1104 1229L971 606H1020Q1184 606 1270 680T1405 979L1507 1462H1878L1860 1376Q1764 1376 1720 1339Q1675 1300 1661 1229L1608 975Q1555
729 1411 621Q1264 510 1020 510H950L891 225Q883 190 883 168Q883 86 1030 86H1057L1038 0H455L471 86H498Q596 86 639 123Q684 162 698 233L756 510H688Q278 510 279 821Q279 886 297 975L352 1237Q360 1270 360 1294Q360 1376 213 1376H186L205 1462H602L500
979Q477 866 477 807Q477 606 745 606H776L911 1237Q919 1276 920 1294Q920 1376 772 1376H745L764 1462H1348Z" />
<glyph unicode="&#x3a9;" glyph-name="Omega" horiz-adv-x="1540" d="M686 0L778 428Q1042 459 1145 647Q1251 842 1251 1026Q1251 1194 1161 1284T899 1374Q625 1374 502 1182Q381 992 381 758Q381 623 449 532Q517 443 639 428L561 0H-12L16 358H123V291Q123
217 160 190Q195 163 289 164H483L518 344Q346 381 252 504Q156 629 156 803Q156 1077 356 1282Q557 1485 924 1485Q1182 1485 1327 1360Q1474 1233 1475 1018Q1475 758 1325 578Q1174 397 877 344L834 164H1028Q1122 164 1169 190Q1222 219 1251 291L1280 358H1386L1294
0H686Z" />
<glyph unicode="&#x3aa;" glyph-name="Iotadieresis" horiz-adv-x="751" d="M862 1462L844 1376H817Q719 1376 676 1339Q635 1304 618 1229L406 225Q398 186 397 168Q397 86 545 86H571L553 0H-43L-27 86H0Q170 86 201 233L414 1237Q422 1270 422 1294Q422 1376
274 1376H248L266 1462H862ZM403 1632Q301 1632 301 1735Q301 1864 411 1864Q513 1864 514 1761Q514 1632 403 1632ZM792 1632Q690 1632 690 1735Q690 1864 800 1864Q902 1864 903 1761Q903 1632 792 1632Z" />
<glyph unicode="&#x3ab;" glyph-name="Upsilondieresis" horiz-adv-x="1280" d="M729 1462L711 1376H608Q524 1376 524 1321Q524 1280 551 1202L643 928Q692 781 698 682Q729 737 852 897L1047 1157Q1123 1261 1122 1323Q1122 1376 1024 1376H948L967 1462H1473L1454
1376H1415Q1380 1376 1337 1343Q1302 1316 1229 1221L752 596L672 225Q664 192 664 168Q664 86 811 86H858L840 0H203L221 86H268Q374 86 411 121T465 223L545 600L307 1268Q287 1329 262 1354Q239 1377 184 1376H158L176 1462H729ZM684 1632Q582 1632 582 1735Q582
1864 692 1864Q794 1864 795 1761Q795 1632 684 1632ZM1073 1632Q971 1632 971 1735Q971 1864 1081 1864Q1183 1864 1184 1761Q1184 1632 1073 1632Z" />
<glyph unicode="&#x3ac;" glyph-name="alphatonos" horiz-adv-x="1228" d="M739 207H731Q586 -20 385 -20Q250 -20 166 82Q84 182 84 358Q84 677 246 899Q406 1118 631 1118Q848 1118 891 903H903Q975 1040 1055 1098H1202Q1085 948 1016 694L956 469Q923 342
924 240Q924 123 1018 123Q1057 123 1122 164L1159 98Q1040 -11 926 -10Q757 -10 739 207ZM799 590L831 719Q835 737 823 815Q811 901 770 944Q727 991 651 991Q501 991 397 801Q291 606 291 365Q291 111 459 111Q672 111 799 590ZM657 1268Q755 1430 800 1569H985L981
1548Q977 1528 899 1432Q819 1334 721 1241H653L657 1268Z" />
<glyph unicode="&#x3ad;" glyph-name="epsilontonos" horiz-adv-x="1015" d="M354 571L356 582Q206 645 207 803Q207 953 328 1034T662 1116Q820 1116 907 1069Q993 1024 993 940Q993 801 817 801Q817 1022 639 1022Q520 1022 461 956Q400 888 399 786Q399 704
440 664Q479 625 537 625L575 635Q659 655 700 655Q778 655 778 600Q778 502 651 502Q577 502 487 532Q391 512 326 442Q263 376 262 283Q262 109 489 109Q690 109 854 260Q877 244 877 209Q877 115 764 48T463 -20Q62 -20 61 266Q61 481 354 571ZM620 1268Q718
1430 763 1569H948L944 1548Q940 1528 862 1432Q782 1334 684 1241H616L620 1268Z" />
<glyph unicode="&#x3ae;" glyph-name="etatonos" horiz-adv-x="1210" d="M236 694Q269 854 268 1036V1069Q268 1089 266 1098H383Q416 1057 424 895H436Q598 1118 795 1118Q1074 1118 1073 854Q1073 799 1057 717L874 -143Q841 -303 842 -379Q842 -467 850 -492H653Q645
-469 645 -414Q645 -312 686 -119L866 727Q878 788 879 821Q879 987 721 987Q490 987 406 596L281 0H88L236 694ZM696 1268Q794 1430 839 1569H1024L1020 1548Q1016 1528 938 1432Q858 1334 760 1241H692L696 1268Z" />
<glyph unicode="&#x3af;" glyph-name="iotatonos" horiz-adv-x="681" d="M514 1098L365 397Q340 280 340 221Q340 108 449 109Q521 109 602 150L637 74Q506 -20 358 -20Q151 -20 152 219Q152 301 172 391L322 1098H514ZM643 1268Q741 1430 786 1569H971L967 1548Q963
1528 885 1432Q805 1334 707 1241H639L643 1268Z" />
<glyph unicode="&#x3b0;" glyph-name="upsilondieresistonos" horiz-adv-x="1212" d="M375 457Q359 389 358 328Q358 111 567 111Q747 111 866 309Q983 506 983 766Q983 959 840 979Q858 1120 971 1120Q1043 1120 1085 1049Q1128 979 1128 854Q1128 508 961 246Q791
-20 522 -20Q348 -20 256 66T164 307Q164 379 178 434L258 793Q276 873 276 915Q276 1011 133 1012H117L135 1098H516L375 457ZM715 1415Q807 1571 859 1716H1043L1039 1696Q1035 1676 959 1581Q881 1485 779 1389H711L715 1415ZM572 1290Q480 1290 480 1382Q480
1497 578 1497Q670 1497 670 1405Q670 1290 572 1290ZM1004 1290Q912 1290 912 1382Q912 1497 1010 1497Q1102 1497 1102 1405Q1102 1290 1004 1290Z" />
<glyph unicode="&#x3b1;" glyph-name="alpha" horiz-adv-x="1228" d="M739 207H731Q586 -20 385 -20Q250 -20 166 82Q84 182 84 358Q84 677 246 899Q406 1118 631 1118Q848 1118 891 903H903Q975 1040 1055 1098H1202Q1085 948 1016 694L956 469Q923 342 924 240Q924
123 1018 123Q1057 123 1122 164L1159 98Q1040 -11 926 -10Q757 -10 739 207ZM799 590L831 719Q835 737 823 815Q811 901 770 944Q727 991 651 991Q501 991 397 801Q291 606 291 365Q291 111 459 111Q672 111 799 590Z" />
<glyph unicode="&#x3b2;" glyph-name="beta" horiz-adv-x="1222" d="M-16 -494L336 1165Q418 1562 819 1563Q999 1563 1100 1483Q1202 1403 1202 1262Q1202 971 862 877V868Q1098 774 1098 532Q1098 280 961 131Q822 -21 594 -20Q406 -20 297 72L176 -494H-16ZM741
813Q661 784 612 784Q540 784 541 842Q541 926 666 926Q736 926 782 909Q882 942 946 1036Q1007 1128 1008 1249Q1008 1349 954 1409Q899 1470 809 1470Q696 1470 631 1401T528 1157L324 197Q441 86 586 86Q738 86 819 205Q903 326 903 532Q903 752 741 813Z" />
<glyph unicode="&#x3b3;" glyph-name="gamma" horiz-adv-x="1107" d="M512 182Q674 315 784 532Q893 743 893 883Q893 975 817 995Q844 1118 954 1118Q1067 1118 1067 993Q1067 800 891 512Q711 217 512 61Q479 -187 399 -342Q323 -492 229 -492Q161 -492 162
-414Q162 -240 338 10Q313 573 277 774T166 975Q125 975 78 948L49 1010Q176 1104 281 1104Q408 1104 451 895Q498 667 512 182Z" />
<glyph unicode="&#x3b4;" glyph-name="delta" horiz-adv-x="1181" d="M604 936Q436 1067 436 1229Q436 1385 549 1477Q660 1567 838 1567Q992 1567 1083 1511Q1173 1458 1174 1380Q1174 1310 1126 1268Q1081 1225 1001 1225Q1001 1473 815 1473Q725 1473 668 1416T610
1270Q610 1149 811 997Q1067 809 1067 584Q1067 320 901 150T496 -20Q303 -20 193 84T82 367Q82 791 604 936ZM676 881Q483 826 381 692Q277 557 276 371Q276 232 340 160Q406 86 514 86Q672 86 770 213Q868 339 868 545Q869 744 676 881Z" />
<glyph unicode="&#x3b5;" glyph-name="epsilon" horiz-adv-x="1015" d="M354 571L356 582Q206 645 207 803Q207 953 328 1034T662 1116Q820 1116 907 1069Q993 1024 993 940Q993 801 817 801Q817 1022 639 1022Q520 1022 461 956Q400 888 399 786Q399 704 440
664Q479 625 537 625L575 635Q659 655 700 655Q778 655 778 600Q778 502 651 502Q577 502 487 532Q391 512 326 442Q263 376 262 283Q262 109 489 109Q690 109 854 260Q877 244 877 209Q877 115 764 48T463 -20Q62 -20 61 266Q61 481 354 571Z" />
<glyph unicode="&#x3b6;" glyph-name="zeta" horiz-adv-x="944" d="M743 1350Q549 1381 418 1516L489 1589Q633 1448 834 1430Q979 1522 1083 1522Q1167 1522 1167 1462Q1167 1331 838 1331Q602 1120 449 840Q295 561 295 350Q295 274 340 231Q391 184 551 145Q670
116 721 72Q774 25 774 -53Q774 -170 684 -270Q595 -368 432 -412L401 -313Q596 -260 596 -131Q596 -78 551 -49Q508 -21 385 6Q96 71 96 295Q96 496 258 799Q419 1100 743 1350Z" />
<glyph unicode="&#x3b7;" glyph-name="eta" horiz-adv-x="1210" d="M236 694Q269 854 268 1036V1069Q268 1089 266 1098H383Q416 1057 424 895H436Q598 1118 795 1118Q1074 1118 1073 854Q1073 799 1057 717L874 -143Q841 -303 842 -379Q842 -467 850 -492H653Q645
-469 645 -414Q645 -312 686 -119L866 727Q878 788 879 821Q879 987 721 987Q490 987 406 596L281 0H88L236 694Z" />
<glyph unicode="&#x3b8;" glyph-name="theta" horiz-adv-x="1144" d="M113 508Q113 907 287 1235Q463 1565 745 1565Q929 1565 1020 1432Q1114 1295 1114 1047Q1114 670 936 326Q756 -20 465 -20Q299 -20 205 117Q113 252 113 508ZM354 838H885Q920 1037 920 1169Q920
1460 737 1460Q499 1461 354 838ZM866 741H334Q293 536 293 387T342 162Q391 84 471 84Q721 84 866 741Z" />
<glyph unicode="&#x3b9;" glyph-name="iota" horiz-adv-x="681" d="M514 1098L365 397Q340 280 340 221Q340 108 449 109Q521 109 602 150L637 74Q506 -20 358 -20Q151 -20 152 219Q152 301 172 391L322 1098H514Z" />
<glyph unicode="&#x3ba;" glyph-name="kappa" horiz-adv-x="1185" d="M1022 848Q1022 975 936 975Q887 975 819 913Q753 854 625 672L870 236Q929 132 971 102Q1014 71 1073 72H1096L1075 -14H1055Q914 -14 831 18Q755 49 676 193L498 514L365 397L281 0H90L260
807Q278 897 279 915Q279 1011 135 1012H119L137 1098H514L430 709Q405 594 375 498L559 750Q735 990 817 1051Q905 1117 1008 1116Q1090 1116 1135 1079T1180 981Q1180 848 1022 848Z" />
<glyph unicode="&#x3bb;" glyph-name="lambda" horiz-adv-x="1095" d="M651 1063Q641 1243 606 1341Q569 1441 479 1442Q387 1442 317 1354Q294 1372 295 1430Q295 1496 342 1536T473 1577Q606 1577 672 1487Q738 1399 756 1200L811 483Q825 295 879 190Q930 86
1004 86H1014L999 0H952Q815 0 764 59Q711 122 692 362Q672 632 672 848H666Q613 709 494 520L158 0H-57L651 1063Z" />
<glyph unicode="&#x3bc;" glyph-name="mu" horiz-adv-x="1236" d="M223 100Q190 -64 190 -147Q190 -294 303 -313Q285 -491 129 -492Q-4 -492 -4 -344Q-4 -254 57 -35Q149 305 182 461L317 1098H510L375 457Q352 344 352 268Q352 110 502 111Q606 111 690 201Q772
289 803 442L942 1098H1135L971 332Q946 215 946 174Q946 108 1006 109Q1049 109 1118 143L1153 74Q1020 -20 915 -20Q771 -20 762 176H752Q619 -21 455 -20Q289 -21 223 100Z" />
<glyph unicode="&#x3bd;" glyph-name="nu" horiz-adv-x="1132" d="M518 182Q684 325 803 536T922 877Q922 975 842 995Q865 1118 979 1118Q1092 1118 1092 985Q1092 786 897 485Q700 182 457 0H348Q293 645 254 807Q215 975 150 975Q111 975 76 954L49 1018Q164
1104 272 1104T424 954Q465 809 518 182Z" />
<glyph unicode="&#x3be;" glyph-name="xi" horiz-adv-x="962" d="M586 874L588 885Q305 955 305 1110Q305 1255 602 1397Q412 1422 305 1516L375 1589Q500 1493 700 1470Q847 1560 981 1561Q1057 1561 1057 1511Q1057 1378 694 1378Q493 1255 494 1118Q494 991
694 938Q803 993 883 993Q959 993 958 940Q958 834 768 834Q725 834 674 844Q529 791 412 649Q293 506 293 369Q293 289 350 240Q407 193 590 145Q719 114 770 67T821 -53Q821 -168 731 -268Q642 -366 479 -410L449 -311Q644 -256 643 -131Q643 -72 592 -43Q545
-16 430 6Q84 74 84 307Q84 479 219 633Q359 790 586 874Z" />
<glyph unicode="&#x3bf;" glyph-name="omicron" horiz-adv-x="1175" d="M698 1118Q878 1118 982 1010T1087 694Q1087 424 920 201Q754 -20 481 -20Q299 -20 193 92Q89 203 88 403Q88 682 256 899Q426 1118 698 1118ZM504 80Q672 80 774 281Q874 480 874 725Q874
1010 674 1010Q508 1010 403 809Q301 612 301 362Q301 80 504 80Z" />
<glyph unicode="&#x3c0;" glyph-name="pi" horiz-adv-x="1280" d="M1292 928H1073Q1016 764 965 524Q916 295 915 203Q915 109 999 109Q1040 109 1106 139L1139 76Q1020 -16 909 -16Q747 -16 748 158Q748 262 813 502Q872 719 956 928H565L414 346Q353 106 283
47Q217 -10 109 -10Q35 -10 -23 25L2 109Q100 109 160 178Q217 246 270 397L449 928H362Q233 928 186 799H100Q135 967 203 1032Q273 1098 395 1098H1329L1292 928Z" />
<glyph unicode="&#x3c1;" glyph-name="rho" horiz-adv-x="1247" d="M289 76Q283 48 276 2Q270 -47 258 -100L174 -492H-18L215 600Q274 870 403 993Q534 1118 754 1118Q942 1118 1051 1008Q1157 899 1157 692Q1157 373 1004 177T625 -20Q420 -20 289 76ZM319 186Q446
86 612 86Q759 86 860 254T961 692Q961 1009 743 1010Q614 1010 535 915Q457 823 408 600L319 186Z" />
<glyph unicode="&#x3c2;" glyph-name="sigma1" horiz-adv-x="968" d="M432 -410L401 -311Q596 -258 596 -129Q596 -68 547 -37Q492 -2 385 20Q88 94 88 403Q88 670 260 895Q432 1118 698 1118Q835 1118 918 1061Q998 1006 997 922Q997 861 948 819Q897 778 815
778Q815 887 772 954Q731 1020 657 1020Q516 1020 408 811Q302 604 301 412Q301 314 352 256Q401 201 547 160Q676 123 725 74T774 -51Q774 -168 684 -268Q595 -367 432 -410Z" />
<glyph unicode="&#x3c3;" glyph-name="sigma" horiz-adv-x="1236" d="M1329 1098L1294 928H967Q1090 762 1090 567Q1090 299 941 137T530 -25Q327 -25 207 98Q88 219 88 430Q88 754 291 926T829 1098H1329ZM850 928H817Q571 928 426 797T281 406Q281 252 354 166Q430
78 553 78Q717 78 807 225Q895 370 895 647Q895 819 850 928Z" />
<glyph unicode="&#x3c4;" glyph-name="tau" horiz-adv-x="1011" d="M571 928H389Q223 928 180 754H94Q164 1098 430 1098H1073L1038 928H676Q500 416 500 221Q500 108 608 109Q680 109 762 150L797 74Q670 -20 518 -20Q311 -20 311 174Q311 396 571 928Z" />
<glyph unicode="&#x3c5;" glyph-name="upsilon" horiz-adv-x="1212" d="M375 457Q359 389 358 328Q358 111 567 111Q747 111 866 309Q983 506 983 766Q983 959 840 979Q858 1120 971 1120Q1043 1120 1085 1049Q1128 979 1128 854Q1128 508 961 246Q791 -20 522
-20Q348 -20 256 66T164 307Q164 379 178 434L258 793Q276 873 276 915Q276 1011 133 1012H117L135 1098H516L375 457Z" />
<glyph unicode="&#x3c6;" glyph-name="phi" horiz-adv-x="1378" d="M745 1116L840 1556H963L868 1116Q1071 1098 1178 979Q1287 858 1286 653Q1286 395 1116 195Q948 -4 625 -23L526 -492H403L504 -20Q307 -2 197 121Q88 242 88 444Q88 706 258 901Q430 1098 745
1116ZM844 1006L647 80Q854 100 967 272Q1078 441 1077 684Q1077 971 844 1006ZM524 80L721 1006Q518 981 406 813Q297 651 297 403Q297 119 524 80Z" />
<glyph unicode="&#x3c7;" glyph-name="chi" horiz-adv-x="1079" d="M4 -492H-240L418 379L348 801Q317 985 233 985Q172 985 121 958L96 1024Q207 1104 313 1104Q387 1104 424 1059Q459 1016 477 862L520 512L913 1098H1139L559 295L637 -182Q660 -309 684 -340Q711
-373 748 -373Q805 -373 860 -346L881 -412Q770 -492 668 -492Q594 -492 561 -440Q526 -385 508 -244L457 160L4 -492Z" />
<glyph unicode="&#x3c8;" glyph-name="psi" horiz-adv-x="1449" d="M117 1012L135 1098H510L369 426Q359 383 358 330Q358 129 602 111L911 1556H1034L727 117Q946 148 1073 324T1200 756Q1200 926 1087 987Q1115 1110 1210 1110Q1343 1110 1343 881Q1343 535
1174 275T698 -16L598 -492H475L575 -18Q380 -12 270 76Q164 162 164 307Q164 375 178 434L254 797Q277 906 276 915Q276 1011 133 1012H117Z" />
<glyph unicode="&#x3c9;" glyph-name="omega" horiz-adv-x="1564" d="M737 190H729Q616 -21 401 -20Q260 -20 174 82Q88 183 88 358Q88 583 196 782T504 1118L575 1051Q286 710 287 350Q287 225 330 158T440 90Q616 90 702 340Q692 422 692 498Q692 625 731 694Q772
766 834 766Q908 766 907 666Q907 528 797 328Q809 219 858 154Q907 91 983 90Q1139 90 1212 297Q1286 503 1286 709Q1286 891 1227 1051L1327 1118Q1477 930 1477 643Q1477 381 1354 181T991 -20Q786 -21 737 190Z" />
<glyph unicode="&#x3ca;" glyph-name="iotadieresis" horiz-adv-x="681" d="M514 1098L365 397Q340 280 340 221Q340 108 449 109Q521 109 602 150L637 74Q506 -20 358 -20Q151 -20 152 219Q152 301 172 391L322 1098H514ZM305 1294Q203 1294 203 1397Q203 1526
313 1526Q415 1526 416 1423Q416 1294 305 1294ZM694 1294Q592 1294 592 1397Q592 1526 702 1526Q804 1526 805 1423Q805 1294 694 1294Z" />
<glyph unicode="&#x3cb;" glyph-name="upsilondieresis" horiz-adv-x="1212" d="M375 457Q359 389 358 328Q358 111 567 111Q747 111 866 309Q983 506 983 766Q983 959 840 979Q858 1120 971 1120Q1043 1120 1085 1049Q1128 979 1128 854Q1128 508 961 246Q791
-20 522 -20Q348 -20 256 66T164 307Q164 379 178 434L258 793Q276 873 276 915Q276 1011 133 1012H117L135 1098H516L375 457ZM594 1294Q492 1294 492 1397Q492 1526 602 1526Q704 1526 705 1423Q705 1294 594 1294ZM983 1294Q881 1294 881 1397Q881 1526 991
1526Q1093 1526 1094 1423Q1094 1294 983 1294Z" />
<glyph unicode="&#x3cc;" glyph-name="omicrontonos" horiz-adv-x="1175" d="M698 1118Q878 1118 982 1010T1087 694Q1087 424 920 201Q754 -20 481 -20Q299 -20 193 92Q89 203 88 403Q88 682 256 899Q426 1118 698 1118ZM504 80Q672 80 774 281Q874 480 874 725Q874
1010 674 1010Q508 1010 403 809Q301 612 301 362Q301 80 504 80ZM688 1268Q786 1430 831 1569H1016L1012 1548Q1008 1528 930 1432Q850 1334 752 1241H684L688 1268Z" />
<glyph unicode="&#x3cd;" glyph-name="upsilontonos" horiz-adv-x="1212" d="M375 457Q359 389 358 328Q358 111 567 111Q747 111 866 309Q983 506 983 766Q983 959 840 979Q858 1120 971 1120Q1043 1120 1085 1049Q1128 979 1128 854Q1128 508 961 246Q791 -20
522 -20Q348 -20 256 66T164 307Q164 379 178 434L258 793Q276 873 276 915Q276 1011 133 1012H117L135 1098H516L375 457ZM678 1268Q776 1430 821 1569H1006L1002 1548Q998 1528 920 1432Q840 1334 742 1241H674L678 1268Z" />
<glyph unicode="&#x3ce;" glyph-name="omegatonos" horiz-adv-x="1564" d="M737 190H729Q616 -21 401 -20Q260 -20 174 82Q88 183 88 358Q88 583 196 782T504 1118L575 1051Q286 710 287 350Q287 225 330 158T440 90Q616 90 702 340Q692 422 692 498Q692 625 731
694Q772 766 834 766Q908 766 907 666Q907 528 797 328Q809 219 858 154Q907 91 983 90Q1139 90 1212 297Q1286 503 1286 709Q1286 891 1227 1051L1327 1118Q1477 930 1477 643Q1477 381 1354 181T991 -20Q786 -21 737 190ZM844 1268Q942 1430 987 1569H1172L1168
1548Q1164 1528 1086 1432Q1006 1334 908 1241H840L844 1268Z" />
<glyph unicode="&#x3d1;" glyph-name="theta1" horiz-adv-x="1236" d="M969 965Q973 1002 973 1022V1073Q973 1177 958 1243Q942 1317 915 1362Q882 1415 852 1434Q813 1457 774 1456Q731 1456 694 1440Q659 1424 635 1397Q615 1372 600 1329Q588 1290 588 1243Q588
1188 606 1139T670 1051Q717 1010 788 989Q873 965 969 965ZM1153 874Q1130 727 1106 635Q1071 506 1034 422Q993 330 934 240Q883 164 807 100Q737 43 651 12Q559 -21 465 -20Q369 -20 303 4Q229 33 197 66Q154 109 137 156Q119 209 119 264Q119 284 127 338Q133
381 145 422L170 506L193 584Q207 627 211 645Q219 682 219 684Q219 715 201 733Q185 749 139 750H74L92 836H229Q284 836 317 827Q348 819 375 801Q395 787 406 762Q414 744 414 711Q414 680 397 618Q393 602 384 567T362 496Q335 400 328 369Q312 299 311 258Q311
223 322 188Q330 159 354 135Q381 108 410 98Q443 86 492 86Q664 86 782 285Q901 486 956 874Q806 876 698 909Q594 940 530 991Q462 1046 436 1108Q407 1176 408 1237Q408 1307 434 1372Q459 1431 506 1476T621 1542Q693 1565 774 1565Q885 1565 956 1532Q1034
1495 1079 1434Q1124 1371 1147 1276Q1170 1180 1169 1065Q1169 1032 1167 1014Q1167 1006 1166 988T1163 961H1307L1290 874H1153Z" />
<glyph unicode="&#x3d2;" glyph-name="Upsilon1" horiz-adv-x="1310" d="M672 225Q669 213 666 195Q664 183 664 168Q664 143 676 127Q692 107 705 100Q723 92 752 88Q770 86 811 86H858L840 0H203L221 86H268Q293 86 334 90Q365 93 389 109Q424 129 436 150Q456
181 465 223L504 403Q508 423 512 461Q514 481 514 524Q514 604 508 647T485 772Q467 860 457 895Q455 899 443 942T422 1006L389 1100L362 1171Q346 1216 330 1247Q310 1286 287 1313Q256 1348 236 1360Q205 1378 168 1378H160L178 1462H283Q349 1462 401 1448Q450
1436 483 1405Q518 1374 543 1321Q570 1264 592 1194Q617 1116 633 1057Q649 996 664 922Q682 828 686 797Q702 693 702 686L774 823L850 961L926 1090Q975 1172 995 1202Q1054 1292 1100 1339Q1147 1388 1192 1421Q1235 1452 1278 1464Q1315 1474 1364 1475Q1425
1475 1460 1448Q1499 1419 1499 1356Q1499 1327 1489 1296Q1479 1269 1462 1251Q1437 1226 1423 1221Q1398 1211 1378 1210Q1372 1251 1354 1282Q1338 1311 1292 1311Q1267 1311 1241 1300Q1212 1290 1184 1264Q1155 1239 1116 1186Q1067 1123 1028 1057Q985 989
977 977L918 877Q867 789 854 764Q803 668 795 649Q777 610 748 537Q725 480 717 436L672 225Z" />
<glyph unicode="&#x3d6;" glyph-name="omega1" horiz-adv-x="1902" d="M1118 -20Q1069 -20 1024 -4Q987 8 952 41Q923 68 905 106Q887 147 881 190H872Q852 153 813 106Q782 69 737 41Q688 10 645 -4Q592 -20 539 -20Q465 -20 410 0Q359 18 313 63Q272 104 252
163T231 305Q231 383 254 469Q277 553 313 635Q346 705 401 788Q456 870 508 928H373Q328 928 295 915Q260 903 238 877Q216 852 201 821Q189 798 178 754H92Q117 854 145 911Q180 974 221 1018Q264 1061 317 1079Q369 1097 428 1098H1692Q1733 1098 1772 1112Q1801
1122 1827 1149Q1850 1172 1866 1204Q1876 1227 1888 1272H1974Q1949 1172 1921 1114Q1884 1044 1845 1008Q1798 963 1749 946Q1696 928 1636 928H1556Q1558 924 1579 872Q1589 845 1599 807Q1605 782 1614 729Q1620 688 1620 647Q1620 561 1608 477Q1596 387 1569
319Q1540 241 1501 182Q1464 125 1405 76Q1348 29 1278 4Q1207 -20 1118 -20ZM649 928Q622 887 571 795Q536 729 502 637Q467 543 451 467Q433 381 432 299Q432 242 444 203Q454 166 479 139Q502 114 530 102Q561 90 594 90Q647 90 682 106Q727 126 754 154Q787
187 809 225Q829 260 850 319Q847 341 844 369Q842 387 842 432Q842 495 852 551Q860 598 881 631Q899 664 924 678Q947 692 977 692T1028 672T1049 604Q1049 563 1036 520Q1020 463 1008 436Q981 377 973 365Q955 334 942 315Q942 266 950 231Q958 192 979 160Q997
127 1030 109Q1061 91 1106 90Q1172 90 1221 121Q1268 152 1307 205Q1342 254 1366 319Q1389 380 1405 446Q1419 505 1425 565Q1431 622 1432 662Q1432 723 1430 748Q1430 760 1429 783T1425 817T1420 846T1417 874Q1415 897 1407 928H649Z" />
<glyph unicode="&#x401;" glyph-name="afii10023" horiz-adv-x="1275" d="M379 102H774Q948 102 1006 270L1038 358H1145L1055 0H-43L-27 86H0Q106 86 145 123Q182 158 199 223L412 1229Q418 1257 418 1278Q418 1327 389 1351T274 1376H248L266 1462H1298L1233
1104H1126L1133 1167Q1137 1200 1137 1223Q1137 1360 991 1360H647L530 815H1024L1004 715H510L379 102ZM643 1632Q541 1632 541 1735Q541 1864 651 1864Q753 1864 754 1761Q754 1632 643 1632ZM1032 1632Q930 1632 930 1735Q930 1864 1040 1864Q1142 1864 1143
1761Q1143 1632 1032 1632Z" />
<glyph unicode="&#x402;" glyph-name="afii10051" horiz-adv-x="1564" d="M745 836Q925 897 1069 897Q1458 897 1458 571Q1458 383 1376 184Q1296 -11 1020 -10Q916 -10 858 12L885 104Q940 86 999 86Q1101 86 1150 153T1224 354T1249 565Q1249 774 1020 774Q875
774 723 723L616 225Q608 192 608 168Q608 86 756 86H782L764 0H147L166 86H213Q319 86 356 121T410 223L651 1360H496Q349 1360 291 1192L262 1104H156L242 1462H1313L1247 1104H1141Q1151 1192 1151 1229Q1151 1360 1016 1360H858L745 836Z" />
<glyph unicode="&#x403;" glyph-name="afii10052" horiz-adv-x="1148" d="M594 0H-41L-23 86H2Q170 86 201 233L412 1229Q422 1280 422 1294Q422 1376 274 1376H248L266 1462H1284L1221 1104H1114Q1124 1202 1124 1223Q1124 1303 1083 1331T956 1360H647L406 225Q398
186 397 168Q397 86 545 86H612L594 0ZM717 1606Q838 1745 936 1907H1155L1149 1886Q992 1702 793 1579H711L717 1606Z" />
<glyph unicode="&#x404;" glyph-name="afii10053" horiz-adv-x="1255" d="M1073 299Q1100 281 1100 231Q1100 135 985 58T672 -20Q406 -20 256 123T106 528Q106 919 348 1200Q591 1483 950 1483Q1126 1483 1229 1421Q1329 1360 1329 1255Q1329 1181 1274 1139T1128
1096Q1128 1375 924 1374Q738 1374 590 1217Q438 1055 369 788H940L920 688H346Q330 584 330 496Q330 113 694 113Q932 113 1073 299Z" />
<glyph unicode="&#x405;" glyph-name="afii10054" horiz-adv-x="1112" d="M172 428Q172 272 256 176T483 80Q622 80 711 152Q795 222 795 344Q795 442 748 508Q703 569 537 665T309 860Q246 960 246 1087Q246 1263 381 1374Q514 1483 743 1483Q917 1483 1026 1421Q1132
1360 1133 1262Q1133 1121 952 1120Q952 1241 895 1310T727 1380Q602 1380 526 1311Q448 1239 449 1122Q449 1036 492 971Q535 908 702 809Q866 713 934 623Q1006 529 1006 410Q1006 209 864 94Q721 -21 469 -20Q262 -20 137 63Q14 146 14 272Q14 340 59 385Q102
428 172 428Z" />
<glyph unicode="&#x406;" glyph-name="afii10055" horiz-adv-x="751" d="M862 1462L844 1376H817Q719 1376 676 1339Q635 1304 618 1229L406 225Q398 186 397 168Q397 86 545 86H571L553 0H-43L-27 86H0Q170 86 201 233L414 1237Q422 1270 422 1294Q422 1376 274
1376H248L266 1462H862Z" />
<glyph unicode="&#x407;" glyph-name="afii10056" horiz-adv-x="751" d="M862 1462L844 1376H817Q719 1376 676 1339Q635 1304 618 1229L406 225Q398 186 397 168Q397 86 545 86H571L553 0H-43L-27 86H0Q170 86 201 233L414 1237Q422 1270 422 1294Q422 1376 274
1376H248L266 1462H862ZM403 1632Q301 1632 301 1735Q301 1864 411 1864Q513 1864 514 1761Q514 1632 403 1632ZM792 1632Q690 1632 690 1735Q690 1864 800 1864Q902 1864 903 1761Q903 1632 792 1632Z" />
<glyph unicode="&#x408;" glyph-name="afii10057" horiz-adv-x="729" d="M852 1462L834 1376H807Q709 1376 666 1339Q625 1304 608 1229L342 -16Q287 -264 170 -379Q55 -492 -150 -492Q-238 -492 -317 -469L-289 -377Q-238 -395 -156 -395Q-37 -395 29 -305Q97
-213 137 -18L403 1237Q411 1276 412 1294Q412 1376 264 1376H238L256 1462H852Z" />
<glyph unicode="&#x409;" glyph-name="afii10058" horiz-adv-x="1820" d="M791 1360Q725 1110 629 811Q527 492 422 289Q322 92 242 39Q164 -14 66 -14Q-12 -14 -53 25Q-96 64 -96 123Q-96 184 -62 219T25 254Q25 158 102 158Q286 158 475 705Q661 1250 662 1321Q662
1376 512 1376H481L500 1462H1487L1468 1376H1442Q1344 1376 1300 1339Q1259 1304 1243 1229L1153 809H1208Q1712 809 1712 467Q1712 242 1561 121T1122 0H582L598 86H625Q723 86 766 123Q811 162 825 233L1065 1360H791ZM1004 102H1100Q1491 102 1491 451Q1491
590 1420 651T1202 713H1133L1004 102Z" />
<glyph unicode="&#x40a;" glyph-name="afii10059" horiz-adv-x="1986" d="M1653 1462L1634 1376H1608Q1510 1376 1466 1339Q1425 1304 1409 1229L1319 809H1374Q1878 809 1878 467Q1878 242 1727 121T1288 0H748L764 86H791Q889 86 932 123Q977 162 991 233L1092
713H508L406 225Q398 186 397 168Q397 86 545 86H571L553 0H-43L-27 86H0Q98 86 141 123T201 233L414 1237Q422 1270 422 1294Q422 1376 274 1376H248L266 1462H862L844 1376H817Q719 1376 676 1339Q635 1304 618 1229L530 815H1114L1204 1237Q1212 1270 1212 1294Q1212
1376 1065 1376H1038L1057 1462H1653ZM1169 102H1266Q1657 102 1657 451Q1657 590 1587 651Q1515 712 1368 713H1298L1169 102Z" />
<glyph unicode="&#x40b;" glyph-name="afii10060" horiz-adv-x="1701" d="M1567 86L1548 0H952L969 86H995Q1165 86 1196 233L1223 362Q1250 495 1249 580Q1249 775 1020 774Q875 774 723 723L616 225Q608 192 608 168Q608 86 756 86H782L764 0H147L166 86H213Q319
86 356 121T410 223L651 1360H496Q349 1360 291 1192L262 1104H156L242 1462H1313L1247 1104H1141Q1151 1192 1151 1229Q1151 1360 1016 1360H858L745 836Q925 897 1069 897Q1460 897 1460 594Q1460 504 1432 373L1401 225Q1393 192 1393 168Q1393 86 1540 86H1567Z"
/>
<glyph unicode="&#x40c;" glyph-name="afii10061" horiz-adv-x="1433" d="M-43 0L-27 86H0Q98 86 141 123Q180 156 201 233L414 1237Q422 1270 422 1294Q422 1376 274 1376H248L266 1462H862L844 1376H817Q719 1376 676 1339Q635 1304 618 1229L524 782Q665 782
727 831Q784 876 932 1141Q1028 1315 1122 1397Q1212 1475 1354 1475Q1520 1475 1520 1352Q1520 1217 1391 1208Q1391 1323 1290 1323Q1149 1323 1018 1081Q866 813 795 774Q914 768 969 596L1087 250Q1142 86 1294 86H1300L1282 0H1253Q1075 0 1001 31Q923 64
885 193L774 549Q749 627 711 657T504 688L406 225Q398 186 397 168Q397 86 545 86H571L553 0H-43ZM875 1606Q996 1745 1094 1907H1313L1307 1886Q1150 1702 951 1579H869L875 1606Z" />
<glyph unicode="&#x40e;" glyph-name="afii10062" horiz-adv-x="1370" d="M1571 1462L1552 1376H1513Q1458 1376 1424 1348T1325 1217L801 375Q633 105 551 49Q463 -10 236 -10H86L106 86H219Q440 86 578 309L319 1268Q301 1336 279 1354Q252 1377 197 1376H170L188
1462H756L739 1376H684Q545 1376 545 1276Q545 1235 561 1163L676 715Q717 557 733 438Q788 558 881 709L1178 1188Q1217 1251 1217 1303Q1217 1377 1102 1376H1055L1071 1462H1571ZM641 1839L823 1886Q809 1845 809 1796Q809 1687 936 1688Q1167 1688 1327 1940L1403
1892Q1209 1579 905 1579Q631 1579 630 1770Q631 1812 641 1839Z" />
<glyph unicode="&#x40f;" glyph-name="afii10145" horiz-adv-x="1562" d="M1219 225Q1211 186 1210 168Q1210 86 1358 86H1384L1366 0H940Q713 0 618 -430H524Q549 -324 549 -238Q549 0 367 0H-39L-20 86H4Q100 86 143 123Q184 158 201 225L418 1237Q426 1270
426 1294Q426 1376 279 1376H252L270 1462H866L848 1376H821Q725 1376 682 1339Q635 1298 621 1229L383 102H987L1229 1237Q1237 1270 1237 1294Q1237 1376 1090 1376H1063L1081 1462H1677L1659 1376H1632Q1534 1376 1493 1344T1436 1239L1219 225Z" />
<glyph unicode="&#x410;" glyph-name="afii10017" horiz-adv-x="1443" d="M408 489L285 274Q246 208 246 160Q246 86 360 86H408L391 0H-115L-98 86H-59Q-6 86 33 114T131 246L844 1462H1004L1198 195Q1206 132 1233 109T1319 86H1346L1329 0H772L788 86H836Q983
86 983 190Q983 223 979 260L946 489H408ZM881 950Q852 1159 848 1274Q801 1159 688 969L469 592H932L881 950Z" />
<glyph unicode="&#x411;" glyph-name="afii10018" horiz-adv-x="1236" d="M1225 1462L1159 1104H1053Q1063 1192 1063 1229Q1063 1360 928 1360H647L528 809H645Q1149 809 1149 467Q1149 242 998 121T559 0H-43L-27 86H0Q170 86 201 233L414 1237Q422 1270 422
1294Q422 1376 274 1376H248L266 1462H1225ZM379 102H537Q928 102 928 451Q928 590 858 651Q786 712 639 713H508L379 102Z" />
<glyph unicode="&#x412;" glyph-name="afii10019" horiz-adv-x="1337" d="M-27 86H0Q170 86 201 233L414 1237Q422 1270 422 1294Q422 1376 274 1376H248L266 1462H797Q1276 1462 1276 1155Q1276 850 942 774L940 766Q1190 717 1190 467Q1190 242 1039 121T600
0H-43L-27 86ZM530 817H688Q1053 817 1053 1128Q1053 1359 770 1360H647L530 817ZM379 102H578Q969 102 969 481Q969 714 682 715H510L379 102Z" />
<glyph unicode="&#x413;" glyph-name="afii10020" horiz-adv-x="1148" d="M594 0H-41L-23 86H2Q170 86 201 233L412 1229Q422 1280 422 1294Q422 1376 274 1376H248L266 1462H1284L1221 1104H1114Q1124 1202 1124 1223Q1124 1303 1083 1331T956 1360H647L406 225Q398
186 397 168Q397 86 545 86H612L594 0Z" />
<glyph unicode="&#x414;" glyph-name="afii10021" horiz-adv-x="1396" d="M51 102Q387 557 538 895T690 1317Q690 1344 662 1360T526 1376H520L539 1462H1481L1462 1376H1436Q1356 1376 1317 1341Q1280 1306 1264 1239L1053 250Q1047 221 1047 199Q1047 103 1190
102H1231L1116 -430H1022Q1045 -324 1044 -254Q1044 0 811 0H301Q0 0 -92 -430H-186L-72 102H51ZM823 1360Q710 856 193 102H817L1083 1360H823Z" />
<glyph unicode="&#x415;" glyph-name="afii10022" horiz-adv-x="1275" d="M379 102H774Q948 102 1006 270L1038 358H1145L1055 0H-43L-27 86H0Q106 86 145 123Q182 158 199 223L412 1229Q418 1257 418 1278Q418 1327 389 1351T274 1376H248L266 1462H1298L1233
1104H1126L1133 1167Q1137 1200 1137 1223Q1137 1360 991 1360H647L530 815H1024L1004 715H510L379 102Z" />
<glyph unicode="&#x416;" glyph-name="afii10024" horiz-adv-x="2004" d="M573 0L590 86H616Q712 86 755 123T817 233L913 688Q749 688 682 664T565 549L360 193Q290 74 225 37Q157 0 -45 0H-111L-92 86H-86Q74 86 176 250L379 596Q479 766 723 776Q641 846 567
1081Q516 1245 479 1286Q446 1323 401 1323Q311 1323 264 1208Q190 1239 190 1327Q190 1474 373 1475Q488 1475 545 1405Q604 1333 659 1141Q727 912 786 846Q843 783 934 782L1030 1237Q1038 1270 1038 1294Q1038 1376 891 1376H864L883 1462H1462L1444 1376H1417Q1321
1376 1278 1339Q1233 1300 1219 1229L1124 782Q1280 782 1353 837T1548 1141Q1634 1321 1726 1397Q1820 1475 1948 1475Q2106 1475 2105 1356Q2105 1218 1976 1208Q1976 1323 1880 1323Q1808 1323 1757 1272Q1710 1225 1636 1081Q1504 823 1409 774Q1505 741 1554
596L1673 250Q1728 86 1880 86H1886L1868 0H1839Q1667 0 1589 35Q1507 72 1470 193L1360 549Q1331 639 1284 664Q1235 689 1104 688L1006 225Q998 186 997 168Q997 86 1145 86H1171L1153 0H573Z" />
<glyph unicode="&#x417;" glyph-name="afii10025" horiz-adv-x="1234" d="M182 393Q182 276 270 182Q356 90 502 90Q842 90 842 440Q842 561 762 629Q680 699 530 698H371L393 803H567Q737 803 852 899Q965 993 965 1149Q965 1258 901 1319Q835 1380 721 1380Q496
1380 430 1075Q272 1075 272 1204Q272 1327 399 1405Q524 1483 723 1483T1051 1395Q1178 1309 1178 1161Q1178 995 1063 885Q948 772 758 752Q897 734 985 649Q1071 565 1071 442Q1071 218 918 98Q762 -23 479 -23Q264 -23 146 49T27 244Q27 314 72 354Q112 393
182 393Z" />
<glyph unicode="&#x418;" glyph-name="afii10026" horiz-adv-x="1644" d="M1737 1376H1710Q1612 1376 1569 1339Q1528 1304 1511 1229L1298 225Q1290 192 1290 168Q1290 86 1438 86H1464L1446 0H850L866 86H893Q1063 86 1094 233L1257 1018L416 279L406 225Q398
182 397 168Q397 86 545 86H571L553 0H-43L-27 86H0Q98 86 141 123T201 233L414 1237Q422 1270 422 1294Q422 1376 274 1376H248L266 1462H862L844 1376H817Q719 1376 676 1339Q635 1304 618 1229L455 446L1294 1182L1307 1237Q1315 1268 1315 1294Q1315 1376 1167
1376H1141L1159 1462H1755L1737 1376Z" />
<glyph unicode="&#x419;" glyph-name="afii10027" horiz-adv-x="1644" d="M1737 1376H1710Q1612 1376 1569 1339Q1528 1304 1511 1229L1298 225Q1290 192 1290 168Q1290 86 1438 86H1464L1446 0H850L866 86H893Q1063 86 1094 233L1257 1018L416 279L406 225Q398
182 397 168Q397 86 545 86H571L553 0H-43L-27 86H0Q98 86 141 123T201 233L414 1237Q422 1270 422 1294Q422 1376 274 1376H248L266 1462H862L844 1376H817Q719 1376 676 1339Q635 1304 618 1229L455 446L1294 1182L1307 1237Q1315 1268 1315 1294Q1315 1376 1167
1376H1141L1159 1462H1755L1737 1376ZM744 1839L926 1886Q912 1845 912 1796Q912 1687 1039 1688Q1270 1688 1430 1940L1506 1892Q1312 1579 1008 1579Q734 1579 733 1770Q734 1812 744 1839Z" />
<glyph unicode="&#x41a;" glyph-name="afii10028" horiz-adv-x="1433" d="M-43 0L-27 86H0Q98 86 141 123Q180 156 201 233L414 1237Q422 1270 422 1294Q422 1376 274 1376H248L266 1462H862L844 1376H817Q719 1376 676 1339Q635 1304 618 1229L524 782Q665 782
727 831Q784 876 932 1141Q1028 1315 1122 1397Q1212 1475 1354 1475Q1520 1475 1520 1352Q1520 1217 1391 1208Q1391 1323 1290 1323Q1149 1323 1018 1081Q866 813 795 774Q914 768 969 596L1087 250Q1142 86 1294 86H1300L1282 0H1253Q1075 0 1001 31Q923 64
885 193L774 549Q749 627 711 657T504 688L406 225Q398 186 397 168Q397 86 545 86H571L553 0H-43Z" />
<glyph unicode="&#x41b;" glyph-name="afii10029" horiz-adv-x="1437" d="M25 254Q25 158 102 158Q286 158 475 705Q661 1250 662 1321Q662 1376 512 1376H481L500 1462H1548L1530 1376H1503Q1407 1376 1364 1339Q1319 1300 1305 1229L1092 225Q1084 186 1083
168Q1083 86 1231 86H1257L1239 0H643L659 86H686Q856 86 887 233L1124 1360H791Q738 1157 627 811Q518 473 422 289Q322 96 242 41T66 -14Q-12 -14 -53 25Q-96 64 -96 123Q-96 184 -61 219T25 254Z" />
<glyph unicode="&#x41c;" glyph-name="afii10030" horiz-adv-x="1918" d="M1178 0L1196 86H1202Q1290 86 1323 119Q1360 156 1376 215L1610 1309L862 0H752L553 1309L324 225Q316 186 315 168Q315 86 463 86H489L471 0H-41L-23 86H4Q105 86 145 123Q182 158 199
223L414 1237Q422 1270 422 1294Q422 1376 274 1376H248L266 1462H731L905 295L1575 1462H2032L2013 1376H1987Q1889 1376 1845 1339Q1804 1304 1788 1229L1575 225Q1567 192 1567 168Q1567 86 1714 86H1741L1722 0H1178Z" />
<glyph unicode="&#x41d;" glyph-name="afii10031" horiz-adv-x="1622" d="M829 0L846 86H872Q970 86 1014 123Q1059 162 1073 233L1174 713H508L406 225Q398 186 397 168Q397 86 545 86H571L553 0H-43L-27 86H0Q98 86 141 123T201 233L414 1237Q422 1270 422 1294Q422
1376 274 1376H248L266 1462H862L844 1376H817Q719 1376 676 1339Q635 1304 618 1229L530 815H1196L1286 1237Q1294 1270 1294 1294Q1294 1376 1147 1376H1120L1139 1462H1735L1716 1376H1690Q1592 1376 1548 1339Q1507 1304 1491 1229L1278 225Q1270 192 1270
168Q1270 86 1417 86H1444L1425 0H829Z" />
<glyph unicode="&#x41e;" glyph-name="afii10032" horiz-adv-x="1519" d="M926 1485Q1164 1485 1311 1337Q1456 1192 1456 922Q1456 574 1229 274Q1002 -23 643 -23Q401 -23 254 131T106 545Q106 899 336 1192T926 1485ZM655 90Q911 90 1071 372T1231 977Q1231
1170 1147 1272T909 1374Q655 1374 492 1090Q330 809 330 487Q330 297 418 193Q503 90 655 90Z" />
<glyph unicode="&#x41f;" glyph-name="afii10033" horiz-adv-x="1562" d="M768 0L786 86H813Q909 86 952 123Q993 158 1012 233L1251 1360H647L406 225Q398 186 397 168Q397 86 545 86H571L553 0H-43L-27 86H0Q98 86 141 123T201 233L414 1237Q422 1270 422 1294Q422
1376 274 1376H248L266 1462H1673L1655 1376H1628Q1532 1376 1489 1339Q1444 1300 1430 1229L1217 225Q1209 186 1208 168Q1208 86 1356 86H1382L1364 0H768Z" />
<glyph unicode="&#x420;" glyph-name="afii10034" horiz-adv-x="1269" d="M-41 0L-23 86H4Q100 86 143 123Q184 158 201 233L414 1237Q422 1270 422 1294Q422 1376 274 1376H248L266 1462H791Q1014 1462 1135 1360Q1258 1256 1257 1067Q1257 836 1100 703T631
569H479L406 225Q398 186 397 168Q397 86 545 86H612L594 0H-41ZM500 666H608Q1040 666 1040 1065Q1040 1364 741 1364H647L500 666Z" />
<glyph unicode="&#x421;" glyph-name="afii10035" horiz-adv-x="1282" d="M1073 299Q1100 281 1100 231Q1100 135 985 58T672 -20Q406 -20 256 123T106 528Q106 919 348 1200Q591 1483 950 1483Q1126 1483 1229 1421Q1329 1360 1329 1255Q1329 1181 1274 1139T1128
1096Q1128 1375 924 1374Q672 1374 500 1098Q330 826 330 496Q330 113 694 113Q932 113 1073 299Z" />
<glyph unicode="&#x422;" glyph-name="afii10036" horiz-adv-x="1253" d="M657 225Q649 192 649 168Q649 86 797 86H844L825 0H188L207 86H254Q360 86 397 121T451 223L692 1360H496Q349 1360 291 1192L262 1104H156L242 1462H1395L1329 1104H1223Q1233 1192 1233
1229Q1233 1360 1098 1360H899L657 225Z" />
<glyph unicode="&#x423;" glyph-name="afii10037" horiz-adv-x="1370" d="M1571 1462L1552 1376H1513Q1458 1376 1424 1348T1325 1217L801 375Q633 105 551 49Q463 -10 236 -10H86L106 86H219Q440 86 578 309L319 1268Q301 1336 279 1354Q252 1377 197 1376H170L188
1462H756L739 1376H684Q545 1376 545 1276Q545 1235 561 1163L676 715Q717 557 733 438Q788 558 881 709L1178 1188Q1217 1251 1217 1303Q1217 1377 1102 1376H1055L1071 1462H1571Z" />
<glyph unicode="&#x424;" glyph-name="afii10038" horiz-adv-x="1566" d="M809 1237Q817 1272 817 1294Q817 1376 666 1376H639L657 1462H1249L1231 1376H1208Q1106 1376 1063 1339Q1022 1304 1006 1229L997 1188H1061Q1288 1188 1409 1085Q1532 981 1532 793Q1532
562 1372 428Q1210 295 901 295H807L793 225Q785 184 784 168Q784 86 936 86H958L940 0H350L369 86H395Q565 86 596 233L608 295H541Q320 295 197 399T74 690Q74 921 231 1054T700 1188H799L809 1237ZM778 1092H723Q291 1092 291 692Q291 393 590 393H631L778 1092ZM827
391H879Q1315 391 1315 791Q1315 1090 1012 1090H975L827 391Z" />
<glyph unicode="&#x425;" glyph-name="afii10039" horiz-adv-x="1351" d="M1458 1376H1440Q1383 1376 1339 1346Q1290 1311 1208 1223L821 795L1067 195Q1114 86 1208 86H1235L1217 0H664L682 86H705Q768 86 801 106Q836 129 836 158Q836 203 797 299L664 625L358
285Q276 195 276 141Q276 86 397 86H403L385 0H-100L-82 86H-74Q-8 86 45 121Q92 152 168 233L621 727L401 1272Q358 1376 242 1376H215L233 1462H788L770 1376H723Q627 1376 627 1319Q627 1291 664 1196L780 897L1036 1192Q1114 1282 1114 1325Q1114 1376 1016
1376H1010L1028 1462H1477L1458 1376Z" />
<glyph unicode="&#x426;" glyph-name="afii10040" horiz-adv-x="1562" d="M-20 86H4Q100 86 143 123Q184 158 201 225L418 1237Q426 1270 426 1294Q426 1376 279 1376H252L270 1462H866L848 1376H821Q725 1376 682 1339Q635 1298 621 1229L383 102H987L1229 1237Q1237
1270 1237 1294Q1237 1376 1090 1376H1063L1081 1462H1677L1659 1376H1632Q1534 1376 1493 1344T1436 1239L1219 225Q1211 186 1210 168Q1210 92 1333 86H1405L1294 -430H1200Q1223 -324 1223 -256Q1223 0 977 0H-39L-20 86Z" />
<glyph unicode="&#x427;" glyph-name="afii10041" horiz-adv-x="1546" d="M719 0L735 86H762Q932 86 963 233L1047 625Q795 537 659 537Q268 537 268 840Q268 906 307 1075L342 1235Q350 1268 350 1292Q350 1374 203 1374H176L195 1460H791L774 1374H748Q650 1374
606 1337Q561 1298 547 1227L516 1085Q479 917 479 854Q479 659 709 659Q830 659 1069 737L1176 1237Q1184 1270 1184 1294Q1184 1376 1036 1376H1010L1028 1462H1624L1606 1376H1579Q1481 1376 1438 1339Q1397 1304 1380 1229L1167 225Q1159 192 1159 168Q1159
86 1307 86H1333L1315 0H719Z" />
<glyph unicode="&#x428;" glyph-name="afii10042" horiz-adv-x="2209" d="M-41 0L-23 86H2Q98 86 141 123Q182 158 199 225L416 1237Q424 1270 424 1294Q424 1376 276 1376H250L268 1462H864L846 1376H819Q649 1376 618 1229L381 102H903L1145 1237Q1153 1270
1153 1294Q1153 1376 1006 1376H979L997 1462H1593L1575 1376H1548Q1450 1376 1409 1344T1352 1239L1108 102H1632L1874 1237Q1882 1270 1882 1294Q1882 1376 1735 1376H1708L1726 1462H2322L2304 1376H2277Q2179 1376 2138 1344T2081 1239L1864 225Q1856 186 1855
168Q1855 86 2003 86H2030L2011 0H-41Z" />
<glyph unicode="&#x429;" glyph-name="afii10043" horiz-adv-x="2209" d="M2050 86L1939 -430H1845Q1865 -336 1866 -256Q1866 -6 1636 0H-41L-23 86H2Q98 86 141 123Q182 158 199 225L416 1237Q424 1270 424 1294Q424 1376 276 1376H250L268 1462H864L846 1376H819Q649
1376 618 1229L381 102H903L1145 1237Q1153 1270 1153 1294Q1153 1376 1006 1376H979L997 1462H1593L1575 1376H1548Q1450 1376 1409 1344T1352 1239L1108 102H1632L1874 1237Q1882 1270 1882 1294Q1882 1376 1735 1376H1708L1726 1462H2322L2304 1376H2277Q2179
1376 2138 1344T2081 1239L1864 225Q1856 186 1855 168Q1855 92 1978 86H2050Z" />
<glyph unicode="&#x42a;" glyph-name="afii10044" horiz-adv-x="1445" d="M168 0L184 86H211Q381 86 412 233L651 1360H496Q349 1360 291 1192L262 1104H156L242 1462H1114L1096 1376H1028Q934 1376 889 1341Q848 1308 831 1239L739 809H856Q1360 809 1360 467Q1360
246 1209 123T770 0H168ZM590 102H748Q1139 102 1139 451Q1139 713 850 713H719L590 102Z" />
<glyph unicode="&#x42b;" glyph-name="afii10045" horiz-adv-x="1857" d="M-27 86H33Q79 86 131 117Q182 148 201 233L414 1237Q422 1270 422 1294Q422 1376 274 1376H248L266 1462H862L844 1376H817Q719 1376 674 1335Q633 1298 614 1217L528 809H584Q1088 809
1087 467Q1087 246 936 123Q786 0 498 0H-43L-27 86ZM379 102H475Q866 102 866 451Q866 590 795 651Q725 712 578 713H508L379 102ZM1968 1462L1950 1376H1923Q1825 1376 1782 1339Q1741 1304 1724 1229L1511 225Q1503 192 1503 168Q1503 86 1651 86H1677L1659
0H1063L1079 86H1106Q1276 86 1307 233L1520 1237Q1528 1270 1528 1294Q1528 1376 1380 1376H1354L1372 1462H1968Z" />
<glyph unicode="&#x42c;" glyph-name="afii10046" horiz-adv-x="1253" d="M-27 86H33Q79 86 131 117Q182 148 201 233L414 1237Q422 1270 422 1294Q422 1376 274 1376H248L266 1462H862L844 1376H817Q719 1376 674 1335Q633 1298 614 1217L528 809H666Q1170 809
1169 467Q1169 246 1018 123Q868 0 580 0H-43L-27 86ZM379 102H557Q948 102 948 451Q948 590 877 651Q807 712 659 713H508L379 102Z" />
<glyph unicode="&#x42d;" glyph-name="afii10047" horiz-adv-x="1290" d="M965 688H395L416 788H981Q1004 917 1004 1001Q1004 1185 932 1282Q858 1380 721 1380Q606 1380 526 1300Q442 1216 416 1083Q350 1083 307 1120Q266 1155 266 1225Q266 1331 397 1407T733
1483Q966 1483 1100 1348Q1231 1215 1231 958Q1231 557 1016 269T453 -20Q246 -20 137 49Q26 119 27 244Q27 314 72 354Q113 393 182 393Q182 272 260 182Q340 90 469 90Q834 90 965 688Z" />
<glyph unicode="&#x42e;" glyph-name="afii10048" horiz-adv-x="2142" d="M807 713H508L406 225Q398 186 397 168Q397 86 545 86H571L553 0H-43L-27 86H0Q98 86 141 123T201 233L414 1237Q422 1270 422 1294Q422 1376 274 1376H248L266 1462H862L844 1376H817Q719
1376 676 1339Q635 1304 618 1229L530 815H829Q911 1120 1112 1302T1575 1485Q1802 1485 1942 1337Q2081 1187 2081 922Q2081 572 1864 275T1305 -23Q1074 -23 934 129Q793 283 793 545Q793 643 807 713ZM1319 90Q1556 90 1706 373Q1856 654 1855 977Q1855 1170
1778 1272T1556 1374Q1318 1374 1167 1090T1016 487Q1016 299 1098 193Q1176 90 1319 90Z" />
<glyph unicode="&#x42f;" glyph-name="afii10049" horiz-adv-x="1341" d="M674 631L373 184Q305 82 223 39Q147 0 -45 0H-74L-61 86H-55Q11 86 59 117Q114 152 184 250L496 686Q283 790 283 1020Q283 1251 438 1356Q598 1462 948 1462H1454L1436 1376H1409Q1311
1376 1268 1339Q1227 1304 1210 1229L997 225Q989 192 989 168Q989 86 1137 86H1163L1145 0H549L565 86H592Q762 86 793 233L877 631H674ZM1032 1364H901Q498 1364 498 1020Q498 727 825 727H897L1032 1364Z" />
<glyph unicode="&#x430;" glyph-name="afii10065" horiz-adv-x="1185" d="M748 309H735Q588 -21 352 -20Q229 -20 158 78Q88 174 88 354Q88 635 264 876T698 1118Q836 1118 938 1044L1028 1096H1094L954 440Q923 299 924 213Q924 109 991 109Q1048 109 1139 162L1176
102Q1029 -21 887 -20Q727 -20 727 150Q728 219 748 309ZM864 952Q819 1026 709 1026Q537 1026 416 803Q297 584 297 347T426 109Q528 109 639 260Q752 414 788 590L864 952Z" />
<glyph unicode="&#x431;" glyph-name="afii10066" horiz-adv-x="1187" d="M1155 1569L1245 1573Q1218 1426 1147 1372Q1077 1321 745 1284Q522 1259 424 1178Q332 1100 272 838H287Q346 940 459 1001Q570 1062 694 1063Q876 1063 989 946Q1102 831 1102 631Q1102
359 934 170Q766 -20 504 -20Q318 -20 209 125Q103 268 102 528Q102 938 274 1188Q446 1436 760 1473Q1124 1514 1155 1569ZM530 86Q675 86 782 254T889 668Q889 955 678 954Q535 954 426 791T317 375Q317 86 530 86Z" />
<glyph unicode="&#x432;" glyph-name="afii10067" horiz-adv-x="1056" d="M639 575Q940 503 940 303Q940 164 817 72T498 -20Q303 -20 197 80Q88 182 88 362Q88 655 260 886T698 1118Q833 1118 924 1053Q1012 990 1012 883Q1012 653 639 575ZM338 627H358Q567
627 684 688T801 864Q801 940 760 979Q715 1020 653 1020Q563 1020 469 901Q379 787 338 627ZM319 532Q301 442 301 338Q301 92 506 92Q617 92 676 150Q737 209 737 307Q737 418 647 479T516 541L319 532Z" />
<glyph unicode="&#x433;" glyph-name="afii10068" horiz-adv-x="1019" d="M793 254Q816 231 815 188Q815 90 723 35T451 -20T172 53T74 254Q74 342 117 403Q158 462 229 506Q286 541 481 614Q631 671 676 721Q723 774 723 846Q723 987 559 987Q371 987 276 862Q260
874 260 913Q260 1116 590 1116Q748 1116 842 1051T936 879Q936 689 686 598Q426 502 358 446Q286 387 287 272Q287 106 487 106Q680 107 793 254Z" />
<glyph unicode="&#x434;" glyph-name="afii10069" horiz-adv-x="1204" d="M911 952Q911 1194 838 1335Q766 1474 627 1475Q514 1475 416 1442L389 1530Q506 1577 655 1577Q876 1577 995 1405Q1116 1231 1116 909Q1116 477 952 227Q790 -21 506 -20Q303 -20 197
90Q88 203 88 403Q88 669 254 860T672 1051Q837 1050 911 952ZM909 778Q835 944 662 944Q508 944 403 788Q299 630 299 379Q299 80 537 80Q693 80 795 274Q893 463 909 778Z" />
<glyph unicode="&#x435;" glyph-name="afii10070" horiz-adv-x="1009" d="M821 256Q841 244 842 205Q842 123 746 52T487 -20Q309 -20 199 92T88 403Q88 670 260 895Q432 1118 698 1118Q827 1118 899 1057T971 883Q971 717 799 594T377 471H342Q317 471 305 473Q301
436 301 387Q301 108 526 109Q701 109 821 256ZM324 567H344Q528 567 643 655Q760 745 760 882T641 1020Q543 1020 457 895Q369 766 324 567Z" />
<glyph unicode="&#x436;" glyph-name="afii10072" horiz-adv-x="2066" d="M827 0L932 504H782Q721 266 578 119Q437 -24 256 -25Q135 -25 70 27Q2 78 2 164Q2 227 47 266Q94 307 166 307Q166 74 295 74Q418 74 520 276Q620 477 621 707Q621 986 446 985Q301 985
203 838Q187 854 186 889Q186 973 268 1042Q352 1114 487 1114Q639 1114 725 1014Q811 913 811 731Q811 672 801 600H952L1057 1098H1235L1128 600H1288Q1354 838 1493 977Q1634 1118 1812 1118Q1931 1118 1997 1067Q2067 1014 2066 930Q2066 869 2021 828T1903
786Q1903 1019 1774 1020Q1651 1020 1548 817Q1448 616 1448 387Q1448 108 1622 109Q1767 109 1866 256Q1882 236 1882 205Q1882 121 1800 51Q1716 -21 1581 -20Q1429 -20 1343 80Q1257 181 1257 362Q1257 423 1270 504H1108L999 0H827Z" />
<glyph unicode="&#x437;" glyph-name="afii10073" horiz-adv-x="974" d="M172 334Q172 213 236 147Q302 77 403 78Q507 78 580 150Q650 220 649 336Q649 418 594 469Q541 520 446 520H256L279 631H471Q592 631 657 688Q725 745 725 852Q725 930 680 975Q633 1022
549 1022Q354 1022 305 801Q164 801 164 891Q164 987 268 1053Q370 1116 565 1116Q735 1116 829 1047Q925 975 926 864Q926 663 645 580L643 569Q848 512 848 340T723 74T375 -20Q201 -20 103 41T4 199Q4 256 45 295T172 334Z" />
<glyph unicode="&#x438;" glyph-name="afii10074" horiz-adv-x="1226" d="M135 1098H516L381 485Q340 292 340 238Q340 113 440 113Q542 113 666 264Q789 414 825 588L932 1098H1130L989 440Q958 296 958 213Q958 109 1026 109Q1085 109 1157 154L1194 94Q1063
-21 934 -20Q856 -20 809 35Q762 92 762 174Q762 219 772 295H756Q647 115 557 47Q469 -19 360 -18Q141 -18 141 209Q141 275 178 434L258 793Q276 873 276 915Q276 1011 133 1012H117L135 1098Z" />
<glyph unicode="&#x439;" glyph-name="afii10075" horiz-adv-x="1226" d="M135 1098H516L381 485Q340 292 340 238Q340 113 440 113Q542 113 666 264Q789 414 825 588L932 1098H1130L989 440Q958 296 958 213Q958 109 1026 109Q1085 109 1157 154L1194 94Q1063
-21 934 -20Q856 -20 809 35Q762 92 762 174Q762 219 772 295H756Q647 115 557 47Q469 -19 360 -18Q141 -18 141 209Q141 275 178 434L258 793Q276 873 276 915Q276 1011 133 1012H117L135 1098ZM686 1501L868 1548Q854 1507 854 1458Q854 1349 981 1350Q1212 1350
1372 1602L1448 1554Q1254 1241 950 1241Q676 1241 675 1432Q676 1474 686 1501Z" />
</font>
</defs>
</svg>
